G04 #@! TF.GenerationSoftware,KiCad,Pcbnew,(2017-09-19 revision dddaa7e69)-makepkg*
G04 #@! TF.CreationDate,2017-11-10T01:58:25+01:00*
G04 #@! TF.ProjectId,RICOH_SP112_TONER_CHIP_RESETTER,5249434F485F53503131325F544F4E45,1*
G04 #@! TF.SameCoordinates,Original*
G04 #@! TF.FileFunction,Soldermask,Top*
G04 #@! TF.FilePolarity,Negative*
%FSLAX46Y46*%
G04 Gerber Fmt 4.6, Leading zero omitted, Abs format (unit mm)*
G04 Created by KiCad (PCBNEW (2017-09-19 revision dddaa7e69)-makepkg) date 11/10/17 01:58:25*
%MOMM*%
%LPD*%
G01*
G04 APERTURE LIST*
%ADD10C,1.905000*%
%ADD11C,1.501140*%
%ADD12R,1.524000X1.524000*%
%ADD13C,1.524000*%
%ADD14C,1.676400*%
%ADD15R,1.600000X0.550000*%
%ADD16R,0.550000X1.600000*%
%ADD17R,2.032000X2.032000*%
%ADD18O,2.032000X2.032000*%
%ADD19R,2.032000X1.727200*%
%ADD20O,2.032000X1.727200*%
%ADD21O,2.499360X1.501140*%
%ADD22C,3.799840*%
%ADD23R,1.250000X1.500000*%
%ADD24R,1.300000X1.500000*%
%ADD25C,4.000000*%
%ADD26C,2.200000*%
G04 APERTURE END LIST*
D10*
X167498660Y-107752100D03*
X161052140Y-107752100D03*
X167549460Y-112247900D03*
X161100400Y-112247900D03*
D11*
X136360000Y-98400000D03*
X138900000Y-98400000D03*
D12*
X160210000Y-101520000D03*
D13*
X160210000Y-98980000D03*
X162750000Y-101520000D03*
X162750000Y-98980000D03*
X165290000Y-101520000D03*
X165290000Y-98980000D03*
D14*
X164250000Y-119020000D03*
X164250000Y-116480000D03*
D15*
X145450000Y-111500000D03*
X145450000Y-110700000D03*
X145450000Y-109900000D03*
X145450000Y-109100000D03*
X145450000Y-108300000D03*
X145450000Y-107500000D03*
X145450000Y-106700000D03*
X145450000Y-105900000D03*
D16*
X144000000Y-104450000D03*
X143200000Y-104450000D03*
X142400000Y-104450000D03*
X141600000Y-104450000D03*
X140800000Y-104450000D03*
X140000000Y-104450000D03*
X139200000Y-104450000D03*
X138400000Y-104450000D03*
D15*
X136950000Y-105900000D03*
X136950000Y-106700000D03*
X136950000Y-107500000D03*
X136950000Y-108300000D03*
X136950000Y-109100000D03*
X136950000Y-109900000D03*
X136950000Y-110700000D03*
X136950000Y-111500000D03*
D16*
X138400000Y-112950000D03*
X139200000Y-112950000D03*
X140000000Y-112950000D03*
X140800000Y-112950000D03*
X141600000Y-112950000D03*
X142400000Y-112950000D03*
X143200000Y-112950000D03*
X144000000Y-112950000D03*
D13*
X149200000Y-113280000D03*
X149200000Y-103120000D03*
D17*
X167750000Y-88500000D03*
D18*
X167750000Y-91040000D03*
D19*
X163000000Y-92000000D03*
D20*
X163000000Y-89460000D03*
X163000000Y-86920000D03*
D21*
X138500000Y-89500000D03*
X138500000Y-86960000D03*
X138500000Y-92040000D03*
D22*
X155264000Y-89500000D03*
D23*
X146000000Y-100050000D03*
X146000000Y-97550000D03*
X149000000Y-100050000D03*
X149000000Y-97550000D03*
X143000000Y-100050000D03*
X143000000Y-97550000D03*
D24*
X155200000Y-112150000D03*
X155200000Y-109450000D03*
X152200000Y-109450000D03*
X152200000Y-112150000D03*
X158200000Y-112150000D03*
X158200000Y-109450000D03*
X152200000Y-100150000D03*
X152200000Y-97450000D03*
X152200000Y-106350000D03*
X152200000Y-103650000D03*
D25*
X152250000Y-122750000D03*
D26*
X141000000Y-117750000D03*
X145000000Y-117750000D03*
X149000000Y-117750000D03*
X153000000Y-117750000D03*
M02*
