G04 #@! TF.GenerationSoftware,KiCad,Pcbnew,(2017-09-19 revision dddaa7e69)-makepkg*
G04 #@! TF.CreationDate,2017-11-10T01:58:25+01:00*
G04 #@! TF.ProjectId,RICOH_SP112_TONER_CHIP_RESETTER,5249434F485F53503131325F544F4E45,1*
G04 #@! TF.SameCoordinates,Original*
G04 #@! TF.FileFunction,Copper,L1,Top,Signal*
G04 #@! TF.FilePolarity,Positive*
%FSLAX46Y46*%
G04 Gerber Fmt 4.6, Leading zero omitted, Abs format (unit mm)*
G04 Created by KiCad (PCBNEW (2017-09-19 revision dddaa7e69)-makepkg) date 11/10/17 01:58:25*
%MOMM*%
%LPD*%
G01*
G04 APERTURE LIST*
%ADD10C,1.905000*%
%ADD11C,1.501140*%
%ADD12R,1.524000X1.524000*%
%ADD13C,1.524000*%
%ADD14C,1.676400*%
%ADD15R,1.600000X0.550000*%
%ADD16R,0.550000X1.600000*%
%ADD17R,2.032000X2.032000*%
%ADD18O,2.032000X2.032000*%
%ADD19R,2.032000X1.727200*%
%ADD20O,2.032000X1.727200*%
%ADD21O,2.499360X1.501140*%
%ADD22R,1.250000X1.500000*%
%ADD23R,1.300000X1.500000*%
%ADD24C,4.000000*%
%ADD25C,2.200000*%
%ADD26C,0.800000*%
%ADD27C,0.254000*%
%ADD28C,0.250000*%
%ADD29C,0.256000*%
G04 APERTURE END LIST*
D10*
X167498660Y-107752100D03*
X161052140Y-107752100D03*
X167549460Y-112247900D03*
X161100400Y-112247900D03*
D11*
X136360000Y-98400000D03*
X138900000Y-98400000D03*
D12*
X160210000Y-101520000D03*
D13*
X160210000Y-98980000D03*
X162750000Y-101520000D03*
X162750000Y-98980000D03*
X165290000Y-101520000D03*
X165290000Y-98980000D03*
D14*
X164250000Y-119020000D03*
X164250000Y-116480000D03*
D15*
X145450000Y-111500000D03*
X145450000Y-110700000D03*
X145450000Y-109900000D03*
X145450000Y-109100000D03*
X145450000Y-108300000D03*
X145450000Y-107500000D03*
X145450000Y-106700000D03*
X145450000Y-105900000D03*
D16*
X144000000Y-104450000D03*
X143200000Y-104450000D03*
X142400000Y-104450000D03*
X141600000Y-104450000D03*
X140800000Y-104450000D03*
X140000000Y-104450000D03*
X139200000Y-104450000D03*
X138400000Y-104450000D03*
D15*
X136950000Y-105900000D03*
X136950000Y-106700000D03*
X136950000Y-107500000D03*
X136950000Y-108300000D03*
X136950000Y-109100000D03*
X136950000Y-109900000D03*
X136950000Y-110700000D03*
X136950000Y-111500000D03*
D16*
X138400000Y-112950000D03*
X139200000Y-112950000D03*
X140000000Y-112950000D03*
X140800000Y-112950000D03*
X141600000Y-112950000D03*
X142400000Y-112950000D03*
X143200000Y-112950000D03*
X144000000Y-112950000D03*
D13*
X149200000Y-113280000D03*
X149200000Y-103120000D03*
D17*
X167750000Y-88500000D03*
D18*
X167750000Y-91040000D03*
D19*
X163000000Y-92000000D03*
D20*
X163000000Y-89460000D03*
X163000000Y-86920000D03*
D21*
X138500000Y-89500000D03*
X138500000Y-86960000D03*
X138500000Y-92040000D03*
D22*
X146000000Y-100050000D03*
X146000000Y-97550000D03*
X149000000Y-100050000D03*
X149000000Y-97550000D03*
X143000000Y-100050000D03*
X143000000Y-97550000D03*
D23*
X155200000Y-112150000D03*
X155200000Y-109450000D03*
X152200000Y-109450000D03*
X152200000Y-112150000D03*
X158200000Y-112150000D03*
X158200000Y-109450000D03*
X152200000Y-100150000D03*
X152200000Y-97450000D03*
X152200000Y-106350000D03*
X152200000Y-103650000D03*
D24*
X152250000Y-122750000D03*
D25*
X141000000Y-117750000D03*
X145000000Y-117750000D03*
X149000000Y-117750000D03*
X153000000Y-117750000D03*
D26*
X138633800Y-102250500D03*
X139200000Y-106500000D03*
X143369000Y-110433400D03*
D27*
X159500000Y-107752100D02*
X159500000Y-110500000D01*
X159500000Y-110500000D02*
X159200000Y-110800000D01*
X159200000Y-110800000D02*
X151400000Y-110800000D01*
X151400000Y-110800000D02*
X150800000Y-111400000D01*
X150800000Y-111400000D02*
X150800000Y-113600000D01*
X150800000Y-113600000D02*
X149800000Y-114600000D01*
D28*
X149800000Y-114600000D02*
X145200000Y-114600000D01*
X145200000Y-114600000D02*
X144000000Y-113400000D01*
X144000000Y-113400000D02*
X144000000Y-112950000D01*
D27*
X152200000Y-103650000D02*
X153231300Y-103650000D01*
X161052100Y-107752100D02*
X167498700Y-107752100D01*
X157333400Y-107752100D02*
X159500000Y-107752100D01*
X159500000Y-107752100D02*
X159400000Y-107752100D01*
X159400000Y-107752100D02*
X159285200Y-107752100D01*
X153231300Y-103650000D02*
X157333400Y-107752100D01*
X159285200Y-107752100D02*
X161052100Y-107752100D01*
X165290000Y-98980000D02*
X165290000Y-97090000D01*
X165290000Y-97090000D02*
X164000000Y-95800000D01*
X164000000Y-95800000D02*
X150750000Y-95800000D01*
X150750000Y-95800000D02*
X149000000Y-97550000D01*
D28*
X138500000Y-86960000D02*
X139960000Y-86960000D01*
X139960000Y-86960000D02*
X140700000Y-87700000D01*
X140700000Y-87700000D02*
X140700000Y-95200000D01*
X140700000Y-95200000D02*
X143000000Y-97500000D01*
X135000000Y-108200000D02*
X135000000Y-99760000D01*
X135000000Y-99760000D02*
X136360000Y-98400000D01*
D27*
X137840000Y-86860000D02*
X138340000Y-86860000D01*
D28*
X135000000Y-108200000D02*
X135900000Y-109100000D01*
X135900000Y-109100000D02*
X136950000Y-109100000D01*
D27*
X143000000Y-97550000D02*
X143000000Y-97500000D01*
D28*
X144000000Y-109500000D02*
X144000000Y-109100000D01*
X144000000Y-109100000D02*
X144000000Y-108700000D01*
X136950000Y-109100000D02*
X144000000Y-109100000D01*
X145450000Y-109900000D02*
X144400000Y-109900000D01*
X144400000Y-109900000D02*
X144000000Y-109500000D01*
X144000000Y-108700000D02*
X144400000Y-108300000D01*
X144400000Y-108300000D02*
X145450000Y-108300000D01*
D27*
X138500000Y-86960000D02*
X138440000Y-86960000D01*
X146000000Y-97550000D02*
X143000000Y-97550000D01*
X149000000Y-97550000D02*
X146000000Y-97550000D01*
X143000000Y-97550000D02*
X143000000Y-96984300D01*
D28*
X142000000Y-101400000D02*
X141900000Y-101400000D01*
X141900000Y-101400000D02*
X138900000Y-98400000D01*
X138500000Y-89500000D02*
X137000320Y-89500000D01*
X137000320Y-89500000D02*
X136400000Y-90100320D01*
X136400000Y-90100320D02*
X136400000Y-95900000D01*
X136400000Y-95900000D02*
X138900000Y-98400000D01*
D27*
X146000000Y-100050000D02*
X145450000Y-100050000D01*
X145450000Y-100050000D02*
X144100000Y-101400000D01*
X144100000Y-101400000D02*
X142000000Y-101400000D01*
X160210000Y-98980000D02*
X153820000Y-98980000D01*
X153820000Y-98980000D02*
X152650000Y-100150000D01*
X152650000Y-100150000D02*
X152200000Y-100150000D01*
X146000000Y-100050000D02*
X146450000Y-100050000D01*
X146450000Y-100050000D02*
X147700000Y-98800000D01*
X147700000Y-98800000D02*
X150400000Y-98800000D01*
X150400000Y-98800000D02*
X151750000Y-100150000D01*
X151750000Y-100150000D02*
X152200000Y-100150000D01*
D28*
X146900000Y-108300000D02*
X146900000Y-107900000D01*
X146900000Y-108700000D02*
X146900000Y-108300000D01*
D27*
X149200000Y-108500000D02*
X149200000Y-108300000D01*
X149200000Y-108300000D02*
X149200000Y-107900000D01*
D28*
X146900000Y-108300000D02*
X149200000Y-108300000D01*
X145450000Y-109100000D02*
X146500000Y-109100000D01*
X146500000Y-109100000D02*
X146900000Y-108700000D01*
X146900000Y-107900000D02*
X146500000Y-107500000D01*
X146500000Y-107500000D02*
X145450000Y-107500000D01*
D27*
X149200000Y-113280000D02*
X149200000Y-108500000D01*
X152200000Y-107900000D02*
X149200000Y-107900000D01*
X152200000Y-109450000D02*
X152200000Y-107900000D01*
X152200000Y-107900000D02*
X152200000Y-106350000D01*
X155200000Y-109450000D02*
X154168700Y-109450000D01*
X152200000Y-109450000D02*
X154168700Y-109450000D01*
D28*
X135900000Y-106700000D02*
X136950000Y-106700000D01*
X135600000Y-106400000D02*
X135900000Y-106700000D01*
X135600000Y-104100400D02*
X135600000Y-106400000D01*
D27*
X149000000Y-101689700D02*
X149000000Y-101900000D01*
X149000000Y-101900000D02*
X149000000Y-102920000D01*
D28*
X139908011Y-101908011D02*
X141808011Y-101908011D01*
X141808011Y-101908011D02*
X141810011Y-101910011D01*
X141810011Y-101910011D02*
X148989989Y-101910011D01*
X148989989Y-101910011D02*
X149000000Y-101900000D01*
D27*
X139908011Y-101908011D02*
X139387200Y-101387200D01*
X139387200Y-101387200D02*
X138313200Y-101387200D01*
X138313200Y-101387200D02*
X135600000Y-104100400D01*
X149000000Y-100050000D02*
X149000000Y-101689700D01*
X149000000Y-102920000D02*
X149200000Y-103120000D01*
X143000000Y-100050000D02*
X142550000Y-100050000D01*
X142550000Y-100050000D02*
X141000000Y-98500000D01*
X141000000Y-98500000D02*
X141000000Y-97200000D01*
X141000000Y-97200000D02*
X138500000Y-94700000D01*
X138500000Y-94700000D02*
X138500000Y-92040000D01*
D28*
X138633800Y-102250500D02*
X138400000Y-102484300D01*
X138400000Y-102484300D02*
X138400000Y-104450000D01*
X139200000Y-106500000D02*
X138600000Y-105900000D01*
X138600000Y-105900000D02*
X136950000Y-105900000D01*
D27*
X139910879Y-102416021D02*
X144816021Y-102416021D01*
X144816021Y-102416021D02*
X146850000Y-104450000D01*
X146850000Y-104450000D02*
X149850000Y-104450000D01*
X149850000Y-104450000D02*
X150800000Y-103500000D01*
X150800000Y-103500000D02*
X150800000Y-102700000D01*
X150800000Y-102700000D02*
X151200000Y-102300000D01*
X151200000Y-102300000D02*
X154291900Y-102300000D01*
X154291900Y-102300000D02*
X156391900Y-100200000D01*
X156391900Y-100200000D02*
X161530000Y-100200000D01*
X161530000Y-100200000D02*
X161988001Y-99741999D01*
X161988001Y-99741999D02*
X162750000Y-98980000D01*
D28*
X139910879Y-102416021D02*
X139200000Y-103126900D01*
X139200000Y-103126900D02*
X139200000Y-104450000D01*
X143369000Y-110433400D02*
X142740383Y-110433400D01*
X142740383Y-110433400D02*
X141600000Y-111573783D01*
X141600000Y-111573783D02*
X141600000Y-111900000D01*
X141600000Y-111900000D02*
X141600000Y-112950000D01*
D27*
X164020000Y-100250000D02*
X165290000Y-101520000D01*
X164020000Y-98220000D02*
X164020000Y-100250000D01*
X163250000Y-97450000D02*
X164020000Y-98220000D01*
X153231300Y-97450000D02*
X163250000Y-97450000D01*
X152200000Y-97450000D02*
X153231300Y-97450000D01*
X164250000Y-119020000D02*
X163820000Y-119020000D01*
X163820000Y-119020000D02*
X158200000Y-113400000D01*
X158200000Y-113400000D02*
X158200000Y-112150000D01*
X158125000Y-109625000D02*
X153500000Y-105000000D01*
X153500000Y-105000000D02*
X146600000Y-105000000D01*
X146600000Y-105000000D02*
X144524031Y-102924031D01*
X144524031Y-102924031D02*
X144274977Y-102924031D01*
D28*
X144274977Y-102924031D02*
X142075969Y-102924031D01*
X142075969Y-102924031D02*
X141600000Y-103400000D01*
X141600000Y-103400000D02*
X141600000Y-104450000D01*
X140000000Y-112950000D02*
X140000000Y-116750000D01*
X140000000Y-116750000D02*
X141000000Y-117750000D01*
D27*
X151000000Y-115900000D02*
X154750000Y-112150000D01*
X148200000Y-115900000D02*
X151000000Y-115900000D01*
X147000000Y-117100000D02*
X148200000Y-115900000D01*
X147000000Y-118300000D02*
X147000000Y-117100000D01*
X145800000Y-119500000D02*
X147000000Y-118300000D01*
X142750000Y-119500000D02*
X145800000Y-119500000D01*
X141000000Y-117750000D02*
X142750000Y-119500000D01*
X155200000Y-112150000D02*
X154750000Y-112150000D01*
D28*
X140800000Y-112950000D02*
X140800000Y-114000000D01*
X140800000Y-114000000D02*
X144550000Y-117750000D01*
X144550000Y-117750000D02*
X145000000Y-117750000D01*
D27*
X147550000Y-115200000D02*
X145000000Y-117750000D01*
X150281300Y-115200000D02*
X147550000Y-115200000D01*
X152200000Y-113281300D02*
X150281300Y-115200000D01*
X152200000Y-112150000D02*
X152200000Y-113281300D01*
D29*
G36*
X157870002Y-84345364D02*
X158033460Y-84394947D01*
X158184116Y-84475475D01*
X158316160Y-84583840D01*
X158424525Y-84715884D01*
X158505053Y-84866540D01*
X158554636Y-85029998D01*
X158572000Y-85206292D01*
X158572000Y-93793708D01*
X158554636Y-93970002D01*
X158505053Y-94133460D01*
X158424525Y-94284116D01*
X158316160Y-94416160D01*
X158184116Y-94524525D01*
X158033460Y-94605053D01*
X157870002Y-94654636D01*
X157693708Y-94672000D01*
X143206292Y-94672000D01*
X143029998Y-94654636D01*
X142866540Y-94605053D01*
X142715884Y-94524525D01*
X142583840Y-94416160D01*
X142475475Y-94284116D01*
X142394947Y-94133460D01*
X142345364Y-93970002D01*
X142328000Y-93793708D01*
X142328000Y-89525983D01*
X152715944Y-89525983D01*
X152726063Y-89618990D01*
X152724747Y-89713227D01*
X152753156Y-89868017D01*
X152769973Y-90022585D01*
X152797712Y-90110781D01*
X152814523Y-90202376D01*
X152872869Y-90349743D01*
X152919846Y-90499104D01*
X152966745Y-90586847D01*
X152997598Y-90664772D01*
X153060897Y-90762993D01*
X153130932Y-90894020D01*
X153153735Y-90907050D01*
X153267000Y-91082803D01*
X153612467Y-91440544D01*
X153857138Y-91610595D01*
X153869980Y-91633068D01*
X153948045Y-91673777D01*
X154020841Y-91724371D01*
X154170211Y-91789629D01*
X154312907Y-91864041D01*
X154396347Y-91888426D01*
X154476566Y-91923473D01*
X154636873Y-91958719D01*
X154792383Y-92004166D01*
X154877877Y-92011707D01*
X154962284Y-92030265D01*
X155127519Y-92033726D01*
X155289983Y-92048056D01*
X155374201Y-92038893D01*
X155459495Y-92040680D01*
X155623369Y-92011784D01*
X155786585Y-91994027D01*
X155866346Y-91968941D01*
X155949259Y-91954321D01*
X156105447Y-91893740D01*
X156263104Y-91844154D01*
X156341977Y-91801996D01*
X156412922Y-91774478D01*
X156516836Y-91708532D01*
X156658020Y-91633068D01*
X156670692Y-91610892D01*
X156832822Y-91508001D01*
X157192967Y-91165040D01*
X157375427Y-90906386D01*
X157397068Y-90894020D01*
X157433686Y-90823799D01*
X157479638Y-90758658D01*
X157549615Y-90601488D01*
X157628041Y-90451093D01*
X157649945Y-90376141D01*
X157681916Y-90304334D01*
X157720283Y-90135461D01*
X157768166Y-89971617D01*
X157774930Y-89894935D01*
X157792097Y-89819373D01*
X157794072Y-89677904D01*
X157812056Y-89474017D01*
X157798641Y-89350717D01*
X157800029Y-89251340D01*
X157772951Y-89114586D01*
X157758027Y-88977415D01*
X157724994Y-88872386D01*
X157703432Y-88763492D01*
X157649883Y-88633572D01*
X157608154Y-88500896D01*
X157551546Y-88394990D01*
X157513918Y-88303697D01*
X157456789Y-88217711D01*
X157397068Y-88105980D01*
X157373674Y-88092612D01*
X157238706Y-87889469D01*
X156888277Y-87536586D01*
X156671356Y-87390271D01*
X156658020Y-87366932D01*
X156564298Y-87318059D01*
X156475981Y-87258488D01*
X156342302Y-87202294D01*
X156215093Y-87135959D01*
X156114699Y-87106619D01*
X156017520Y-87065769D01*
X155874376Y-87036386D01*
X155735617Y-86995834D01*
X155632526Y-86986741D01*
X155530358Y-86965769D01*
X155383101Y-86964741D01*
X155238017Y-86951944D01*
X155136237Y-86963017D01*
X155033051Y-86962297D01*
X154887295Y-86990102D01*
X154741415Y-87005973D01*
X154644798Y-87036361D01*
X154544540Y-87055486D01*
X154405925Y-87111490D01*
X154264896Y-87155846D01*
X154168151Y-87207557D01*
X154083434Y-87241785D01*
X153991219Y-87302129D01*
X153869980Y-87366932D01*
X153856716Y-87390145D01*
X153667294Y-87514099D01*
X153311973Y-87862055D01*
X153153967Y-88092818D01*
X153130932Y-88105980D01*
X153086140Y-88191876D01*
X153031004Y-88272400D01*
X152970338Y-88413943D01*
X152899959Y-88548907D01*
X152873095Y-88640829D01*
X152835089Y-88729504D01*
X152802839Y-88881231D01*
X152759834Y-89028383D01*
X152751516Y-89122685D01*
X152731691Y-89215956D01*
X152729509Y-89372187D01*
X152715944Y-89525983D01*
X142328000Y-89525983D01*
X142328000Y-85206292D01*
X142345364Y-85029998D01*
X142394947Y-84866540D01*
X142475475Y-84715884D01*
X142583840Y-84583840D01*
X142715884Y-84475475D01*
X142866540Y-84394947D01*
X143029998Y-84345364D01*
X143206292Y-84328000D01*
X157693708Y-84328000D01*
X157870002Y-84345364D01*
X157870002Y-84345364D01*
G37*
X157870002Y-84345364D02*
X158033460Y-84394947D01*
X158184116Y-84475475D01*
X158316160Y-84583840D01*
X158424525Y-84715884D01*
X158505053Y-84866540D01*
X158554636Y-85029998D01*
X158572000Y-85206292D01*
X158572000Y-93793708D01*
X158554636Y-93970002D01*
X158505053Y-94133460D01*
X158424525Y-94284116D01*
X158316160Y-94416160D01*
X158184116Y-94524525D01*
X158033460Y-94605053D01*
X157870002Y-94654636D01*
X157693708Y-94672000D01*
X143206292Y-94672000D01*
X143029998Y-94654636D01*
X142866540Y-94605053D01*
X142715884Y-94524525D01*
X142583840Y-94416160D01*
X142475475Y-94284116D01*
X142394947Y-94133460D01*
X142345364Y-93970002D01*
X142328000Y-93793708D01*
X142328000Y-89525983D01*
X152715944Y-89525983D01*
X152726063Y-89618990D01*
X152724747Y-89713227D01*
X152753156Y-89868017D01*
X152769973Y-90022585D01*
X152797712Y-90110781D01*
X152814523Y-90202376D01*
X152872869Y-90349743D01*
X152919846Y-90499104D01*
X152966745Y-90586847D01*
X152997598Y-90664772D01*
X153060897Y-90762993D01*
X153130932Y-90894020D01*
X153153735Y-90907050D01*
X153267000Y-91082803D01*
X153612467Y-91440544D01*
X153857138Y-91610595D01*
X153869980Y-91633068D01*
X153948045Y-91673777D01*
X154020841Y-91724371D01*
X154170211Y-91789629D01*
X154312907Y-91864041D01*
X154396347Y-91888426D01*
X154476566Y-91923473D01*
X154636873Y-91958719D01*
X154792383Y-92004166D01*
X154877877Y-92011707D01*
X154962284Y-92030265D01*
X155127519Y-92033726D01*
X155289983Y-92048056D01*
X155374201Y-92038893D01*
X155459495Y-92040680D01*
X155623369Y-92011784D01*
X155786585Y-91994027D01*
X155866346Y-91968941D01*
X155949259Y-91954321D01*
X156105447Y-91893740D01*
X156263104Y-91844154D01*
X156341977Y-91801996D01*
X156412922Y-91774478D01*
X156516836Y-91708532D01*
X156658020Y-91633068D01*
X156670692Y-91610892D01*
X156832822Y-91508001D01*
X157192967Y-91165040D01*
X157375427Y-90906386D01*
X157397068Y-90894020D01*
X157433686Y-90823799D01*
X157479638Y-90758658D01*
X157549615Y-90601488D01*
X157628041Y-90451093D01*
X157649945Y-90376141D01*
X157681916Y-90304334D01*
X157720283Y-90135461D01*
X157768166Y-89971617D01*
X157774930Y-89894935D01*
X157792097Y-89819373D01*
X157794072Y-89677904D01*
X157812056Y-89474017D01*
X157798641Y-89350717D01*
X157800029Y-89251340D01*
X157772951Y-89114586D01*
X157758027Y-88977415D01*
X157724994Y-88872386D01*
X157703432Y-88763492D01*
X157649883Y-88633572D01*
X157608154Y-88500896D01*
X157551546Y-88394990D01*
X157513918Y-88303697D01*
X157456789Y-88217711D01*
X157397068Y-88105980D01*
X157373674Y-88092612D01*
X157238706Y-87889469D01*
X156888277Y-87536586D01*
X156671356Y-87390271D01*
X156658020Y-87366932D01*
X156564298Y-87318059D01*
X156475981Y-87258488D01*
X156342302Y-87202294D01*
X156215093Y-87135959D01*
X156114699Y-87106619D01*
X156017520Y-87065769D01*
X155874376Y-87036386D01*
X155735617Y-86995834D01*
X155632526Y-86986741D01*
X155530358Y-86965769D01*
X155383101Y-86964741D01*
X155238017Y-86951944D01*
X155136237Y-86963017D01*
X155033051Y-86962297D01*
X154887295Y-86990102D01*
X154741415Y-87005973D01*
X154644798Y-87036361D01*
X154544540Y-87055486D01*
X154405925Y-87111490D01*
X154264896Y-87155846D01*
X154168151Y-87207557D01*
X154083434Y-87241785D01*
X153991219Y-87302129D01*
X153869980Y-87366932D01*
X153856716Y-87390145D01*
X153667294Y-87514099D01*
X153311973Y-87862055D01*
X153153967Y-88092818D01*
X153130932Y-88105980D01*
X153086140Y-88191876D01*
X153031004Y-88272400D01*
X152970338Y-88413943D01*
X152899959Y-88548907D01*
X152873095Y-88640829D01*
X152835089Y-88729504D01*
X152802839Y-88881231D01*
X152759834Y-89028383D01*
X152751516Y-89122685D01*
X152731691Y-89215956D01*
X152729509Y-89372187D01*
X152715944Y-89525983D01*
X142328000Y-89525983D01*
X142328000Y-85206292D01*
X142345364Y-85029998D01*
X142394947Y-84866540D01*
X142475475Y-84715884D01*
X142583840Y-84583840D01*
X142715884Y-84475475D01*
X142866540Y-84394947D01*
X143029998Y-84345364D01*
X143206292Y-84328000D01*
X157693708Y-84328000D01*
X157870002Y-84345364D01*
G36*
X141454636Y-84329998D02*
X141472000Y-84506292D01*
X141472000Y-94400000D01*
X141472616Y-94412546D01*
X141491831Y-94607636D01*
X141496727Y-94632246D01*
X141553632Y-94819839D01*
X141563234Y-94843022D01*
X141655644Y-95015909D01*
X141669585Y-95036772D01*
X141793948Y-95188309D01*
X141811691Y-95206052D01*
X141963228Y-95330415D01*
X141984091Y-95344356D01*
X142156978Y-95436766D01*
X142180161Y-95446368D01*
X142367754Y-95503273D01*
X142392364Y-95508169D01*
X142587454Y-95527384D01*
X142600000Y-95528000D01*
X149942955Y-95528000D01*
X149310033Y-96160923D01*
X148375000Y-96160923D01*
X148250322Y-96173203D01*
X148130436Y-96209570D01*
X148019948Y-96268627D01*
X147923104Y-96348104D01*
X147843627Y-96444948D01*
X147784570Y-96555436D01*
X147748203Y-96675322D01*
X147737203Y-96787000D01*
X147262797Y-96787000D01*
X147251797Y-96675322D01*
X147215430Y-96555436D01*
X147156373Y-96444948D01*
X147076896Y-96348104D01*
X146980052Y-96268627D01*
X146869564Y-96209570D01*
X146749678Y-96173203D01*
X146625000Y-96160923D01*
X145375000Y-96160923D01*
X145250322Y-96173203D01*
X145130436Y-96209570D01*
X145019948Y-96268627D01*
X144923104Y-96348104D01*
X144843627Y-96444948D01*
X144784570Y-96555436D01*
X144748203Y-96675322D01*
X144737203Y-96787000D01*
X144262797Y-96787000D01*
X144251797Y-96675322D01*
X144215430Y-96555436D01*
X144156373Y-96444948D01*
X144076896Y-96348104D01*
X143980052Y-96268627D01*
X143869564Y-96209570D01*
X143749678Y-96173203D01*
X143625000Y-96160923D01*
X142737139Y-96160923D01*
X141461000Y-94884784D01*
X141461000Y-87700000D01*
X141454144Y-87630079D01*
X141448014Y-87560013D01*
X141446897Y-87556170D01*
X141446507Y-87552188D01*
X141426189Y-87484890D01*
X141406578Y-87417389D01*
X141404737Y-87413838D01*
X141403580Y-87410005D01*
X141370561Y-87347906D01*
X141338228Y-87285530D01*
X141335733Y-87282404D01*
X141333853Y-87278869D01*
X141289422Y-87224391D01*
X141245569Y-87169457D01*
X141240078Y-87163889D01*
X141239983Y-87163773D01*
X141239875Y-87163684D01*
X141238108Y-87161892D01*
X140498108Y-86421892D01*
X140443811Y-86377291D01*
X140389940Y-86332089D01*
X140386434Y-86330161D01*
X140383341Y-86327621D01*
X140321349Y-86294381D01*
X140259790Y-86260538D01*
X140255980Y-86259329D01*
X140252449Y-86257436D01*
X140187753Y-86237657D01*
X140168466Y-86200765D01*
X139998900Y-85989868D01*
X139791600Y-85815922D01*
X139554462Y-85685555D01*
X139296518Y-85603730D01*
X139027594Y-85573565D01*
X139008234Y-85573430D01*
X137991766Y-85573430D01*
X137722446Y-85599837D01*
X137463385Y-85678052D01*
X137224450Y-85805096D01*
X137014741Y-85976131D01*
X136842247Y-86184640D01*
X136713538Y-86422683D01*
X136633516Y-86681191D01*
X136605230Y-86950320D01*
X136629756Y-87219817D01*
X136706161Y-87479418D01*
X136831534Y-87719235D01*
X137001100Y-87930132D01*
X137208400Y-88104078D01*
X137440916Y-88231904D01*
X137353864Y-88267194D01*
X137125788Y-88417111D01*
X136931342Y-88608642D01*
X136777998Y-88834428D01*
X136671649Y-89085791D01*
X136656768Y-89159541D01*
X136779804Y-89374000D01*
X138374000Y-89374000D01*
X138374000Y-89354000D01*
X138626000Y-89354000D01*
X138626000Y-89374000D01*
X138646000Y-89374000D01*
X138646000Y-89626000D01*
X138626000Y-89626000D01*
X138626000Y-89646000D01*
X138374000Y-89646000D01*
X138374000Y-89626000D01*
X136779804Y-89626000D01*
X136656768Y-89840459D01*
X136671649Y-89914209D01*
X136777998Y-90165572D01*
X136931342Y-90391358D01*
X137125788Y-90582889D01*
X137353864Y-90732806D01*
X137442947Y-90768919D01*
X137224450Y-90885096D01*
X137014741Y-91056131D01*
X136842247Y-91264640D01*
X136713538Y-91502683D01*
X136633516Y-91761191D01*
X136605230Y-92030320D01*
X136629756Y-92299817D01*
X136706161Y-92559418D01*
X136831534Y-92799235D01*
X137001100Y-93010132D01*
X137208400Y-93184078D01*
X137445538Y-93314445D01*
X137703482Y-93396270D01*
X137737000Y-93400030D01*
X137737000Y-94700000D01*
X137743878Y-94770144D01*
X137750020Y-94840355D01*
X137751140Y-94844208D01*
X137751531Y-94848201D01*
X137771905Y-94915684D01*
X137791565Y-94983353D01*
X137793411Y-94986914D01*
X137794571Y-94990757D01*
X137827663Y-95052994D01*
X137860094Y-95115560D01*
X137862598Y-95118697D01*
X137864481Y-95122238D01*
X137909004Y-95176828D01*
X137952997Y-95231937D01*
X137958503Y-95237520D01*
X137958598Y-95237636D01*
X137958706Y-95237725D01*
X137960478Y-95239522D01*
X140237000Y-97516045D01*
X140237000Y-98020255D01*
X140158195Y-97801527D01*
X140096629Y-97686343D01*
X139857303Y-97620888D01*
X139078191Y-98400000D01*
X139857303Y-99179112D01*
X140096629Y-99113657D01*
X140212863Y-98866493D01*
X140260039Y-98676381D01*
X140271905Y-98715684D01*
X140291565Y-98783353D01*
X140293411Y-98786914D01*
X140294571Y-98790757D01*
X140327663Y-98852994D01*
X140360094Y-98915560D01*
X140362598Y-98918697D01*
X140364481Y-98922238D01*
X140409004Y-98976828D01*
X140452997Y-99031937D01*
X140458503Y-99037520D01*
X140458598Y-99037636D01*
X140458706Y-99037725D01*
X140460478Y-99039522D01*
X141735923Y-100314967D01*
X141735923Y-100800000D01*
X141748203Y-100924678D01*
X141784570Y-101044564D01*
X141840398Y-101149011D01*
X141835806Y-101149011D01*
X141818636Y-101147085D01*
X141810810Y-101147030D01*
X141810667Y-101147016D01*
X141810534Y-101147029D01*
X141808011Y-101147011D01*
X140226055Y-101147011D01*
X139926722Y-100847678D01*
X139872301Y-100802976D01*
X139818270Y-100757638D01*
X139814753Y-100755704D01*
X139811654Y-100753159D01*
X139749535Y-100719851D01*
X139687778Y-100685900D01*
X139683956Y-100684688D01*
X139680417Y-100682790D01*
X139613014Y-100662183D01*
X139545837Y-100640873D01*
X139541847Y-100640425D01*
X139538012Y-100639253D01*
X139467946Y-100632136D01*
X139397853Y-100624274D01*
X139390006Y-100624219D01*
X139389863Y-100624205D01*
X139389730Y-100624218D01*
X139387200Y-100624200D01*
X138313200Y-100624200D01*
X138243056Y-100631078D01*
X138172845Y-100637220D01*
X138168992Y-100638340D01*
X138164999Y-100638731D01*
X138097516Y-100659105D01*
X138029847Y-100678765D01*
X138026286Y-100680611D01*
X138022443Y-100681771D01*
X137960206Y-100714863D01*
X137897640Y-100747294D01*
X137894503Y-100749798D01*
X137890962Y-100751681D01*
X137836396Y-100796184D01*
X137781262Y-100840197D01*
X137775675Y-100845708D01*
X137775564Y-100845798D01*
X137775479Y-100845901D01*
X137773677Y-100847678D01*
X135761000Y-102860356D01*
X135761000Y-100075216D01*
X136078385Y-99757832D01*
X136195030Y-99783478D01*
X136466891Y-99789173D01*
X136734680Y-99741954D01*
X136988198Y-99643621D01*
X137217788Y-99497919D01*
X137365448Y-99357303D01*
X138120888Y-99357303D01*
X138186343Y-99596629D01*
X138433507Y-99712863D01*
X138698597Y-99778645D01*
X138971427Y-99791447D01*
X139241512Y-99750775D01*
X139498473Y-99658195D01*
X139613657Y-99596629D01*
X139679112Y-99357303D01*
X138900000Y-98578191D01*
X138120888Y-99357303D01*
X137365448Y-99357303D01*
X137414705Y-99310397D01*
X137571449Y-99088199D01*
X137628204Y-98960724D01*
X137641805Y-98998473D01*
X137703371Y-99113657D01*
X137942697Y-99179112D01*
X138721809Y-98400000D01*
X137942697Y-97620888D01*
X137703371Y-97686343D01*
X137629975Y-97842415D01*
X137590192Y-97745895D01*
X137439714Y-97519407D01*
X137363538Y-97442697D01*
X138120888Y-97442697D01*
X138900000Y-98221809D01*
X139679112Y-97442697D01*
X139613657Y-97203371D01*
X139366493Y-97087137D01*
X139101403Y-97021355D01*
X138828573Y-97008553D01*
X138558488Y-97049225D01*
X138301527Y-97141805D01*
X138186343Y-97203371D01*
X138120888Y-97442697D01*
X137363538Y-97442697D01*
X137248109Y-97326460D01*
X137022677Y-97174404D01*
X136772004Y-97069031D01*
X136505637Y-97014354D01*
X136233724Y-97012455D01*
X135966620Y-97063408D01*
X135714499Y-97165271D01*
X135486966Y-97314165D01*
X135292686Y-97504418D01*
X135139060Y-97728783D01*
X135031939Y-97978714D01*
X134975404Y-98244693D01*
X134971607Y-98516587D01*
X135001938Y-98681846D01*
X134461892Y-99221892D01*
X134417291Y-99276189D01*
X134372089Y-99330060D01*
X134370161Y-99333566D01*
X134367621Y-99336659D01*
X134334381Y-99398651D01*
X134300538Y-99460210D01*
X134299329Y-99464020D01*
X134297436Y-99467551D01*
X134276872Y-99534816D01*
X134255630Y-99601779D01*
X134255184Y-99605756D01*
X134254014Y-99609583D01*
X134246913Y-99679486D01*
X134239074Y-99749375D01*
X134239019Y-99757201D01*
X134239005Y-99757344D01*
X134239018Y-99757477D01*
X134239000Y-99760000D01*
X134239000Y-108200000D01*
X134245856Y-108269921D01*
X134251986Y-108339987D01*
X134253103Y-108343830D01*
X134253493Y-108347812D01*
X134273811Y-108415110D01*
X134293422Y-108482611D01*
X134295263Y-108486162D01*
X134296420Y-108489995D01*
X134329439Y-108552094D01*
X134361772Y-108614470D01*
X134364267Y-108617596D01*
X134366147Y-108621131D01*
X134410578Y-108675609D01*
X134454431Y-108730543D01*
X134459922Y-108736111D01*
X134460017Y-108736227D01*
X134460125Y-108736316D01*
X134461892Y-108738108D01*
X135361892Y-109638108D01*
X135416189Y-109682709D01*
X135470060Y-109727911D01*
X135473566Y-109729839D01*
X135476659Y-109732379D01*
X135510923Y-109750751D01*
X135510923Y-110175000D01*
X135523203Y-110299678D01*
X135523301Y-110300000D01*
X135523203Y-110300322D01*
X135510923Y-110425000D01*
X135510923Y-110975000D01*
X135523203Y-111099678D01*
X135523301Y-111100000D01*
X135523203Y-111100322D01*
X135510923Y-111225000D01*
X135510923Y-111775000D01*
X135523203Y-111899678D01*
X135559570Y-112019564D01*
X135618627Y-112130052D01*
X135698104Y-112226896D01*
X135794948Y-112306373D01*
X135905436Y-112365430D01*
X136025322Y-112401797D01*
X136150000Y-112414077D01*
X137485923Y-112414077D01*
X137485923Y-113750000D01*
X137498203Y-113874678D01*
X137534570Y-113994564D01*
X137593627Y-114105052D01*
X137673104Y-114201896D01*
X137769948Y-114281373D01*
X137880436Y-114340430D01*
X138000322Y-114376797D01*
X138125000Y-114389077D01*
X138675000Y-114389077D01*
X138799678Y-114376797D01*
X138800000Y-114376699D01*
X138800322Y-114376797D01*
X138925000Y-114389077D01*
X139239000Y-114389077D01*
X139239000Y-116750000D01*
X139245856Y-116819921D01*
X139251986Y-116889987D01*
X139253103Y-116893830D01*
X139253493Y-116897812D01*
X139273811Y-116965110D01*
X139293422Y-117032611D01*
X139295263Y-117036162D01*
X139296420Y-117039995D01*
X139329439Y-117102094D01*
X139361772Y-117164470D01*
X139362015Y-117164774D01*
X139337254Y-117222546D01*
X139266471Y-117555554D01*
X139261718Y-117895968D01*
X139323175Y-118230822D01*
X139448502Y-118547362D01*
X139632925Y-118833530D01*
X139869420Y-119078427D01*
X140148978Y-119272725D01*
X140460951Y-119409023D01*
X140793456Y-119482129D01*
X141133829Y-119489259D01*
X141469104Y-119430141D01*
X141564208Y-119393253D01*
X142210478Y-120039523D01*
X142264934Y-120084253D01*
X142318930Y-120129562D01*
X142322446Y-120131495D01*
X142325547Y-120134042D01*
X142387683Y-120167359D01*
X142449422Y-120201300D01*
X142453244Y-120202512D01*
X142456783Y-120204410D01*
X142524186Y-120225017D01*
X142591363Y-120246327D01*
X142595353Y-120246775D01*
X142599188Y-120247947D01*
X142669254Y-120255064D01*
X142739347Y-120262926D01*
X142747194Y-120262981D01*
X142747337Y-120262995D01*
X142747470Y-120262982D01*
X142750000Y-120263000D01*
X145800000Y-120263000D01*
X145870144Y-120256122D01*
X145940355Y-120249980D01*
X145944208Y-120248860D01*
X145948201Y-120248469D01*
X146015684Y-120228095D01*
X146083353Y-120208435D01*
X146086914Y-120206589D01*
X146090757Y-120205429D01*
X146152994Y-120172337D01*
X146215560Y-120139906D01*
X146218697Y-120137402D01*
X146222238Y-120135519D01*
X146276828Y-120090996D01*
X146331937Y-120047003D01*
X146337520Y-120041497D01*
X146337636Y-120041402D01*
X146337725Y-120041294D01*
X146339522Y-120039522D01*
X147422448Y-118956596D01*
X147971595Y-118956596D01*
X148079282Y-119231623D01*
X148386023Y-119382777D01*
X148716360Y-119471185D01*
X149057597Y-119493448D01*
X149396620Y-119448712D01*
X149720401Y-119338694D01*
X149920718Y-119231623D01*
X150028405Y-118956596D01*
X149000000Y-117928191D01*
X147971595Y-118956596D01*
X147422448Y-118956596D01*
X147539522Y-118839523D01*
X147584245Y-118785077D01*
X147629562Y-118731070D01*
X147631496Y-118727553D01*
X147634041Y-118724454D01*
X147637785Y-118717472D01*
X147793404Y-118778405D01*
X148821809Y-117750000D01*
X148807667Y-117735858D01*
X148985858Y-117557667D01*
X149000000Y-117571809D01*
X149014142Y-117557667D01*
X149192333Y-117735858D01*
X149178191Y-117750000D01*
X150206596Y-118778405D01*
X150481623Y-118670718D01*
X150632777Y-118363977D01*
X150721185Y-118033640D01*
X150730167Y-117895968D01*
X151261718Y-117895968D01*
X151323175Y-118230822D01*
X151448502Y-118547362D01*
X151632925Y-118833530D01*
X151869420Y-119078427D01*
X152148978Y-119272725D01*
X152460951Y-119409023D01*
X152793456Y-119482129D01*
X153133829Y-119489259D01*
X153469104Y-119430141D01*
X153786511Y-119307027D01*
X154073960Y-119124606D01*
X154320502Y-118889827D01*
X154516747Y-118611632D01*
X154655219Y-118300618D01*
X154730645Y-117968631D01*
X154736075Y-117579776D01*
X154669948Y-117245813D01*
X154540214Y-116931054D01*
X154351813Y-116647488D01*
X154111922Y-116405917D01*
X153829679Y-116215541D01*
X153515833Y-116083612D01*
X153182339Y-116015156D01*
X152841901Y-116012779D01*
X152507484Y-116076573D01*
X152191826Y-116204106D01*
X151906952Y-116390523D01*
X151663712Y-116628721D01*
X151471371Y-116909629D01*
X151337254Y-117222546D01*
X151266471Y-117555554D01*
X151261718Y-117895968D01*
X150730167Y-117895968D01*
X150743448Y-117692403D01*
X150698712Y-117353380D01*
X150588694Y-117029599D01*
X150481623Y-116829282D01*
X150206598Y-116721596D01*
X150265194Y-116663000D01*
X151000000Y-116663000D01*
X151070144Y-116656122D01*
X151140355Y-116649980D01*
X151144208Y-116648860D01*
X151148201Y-116648469D01*
X151215684Y-116628095D01*
X151283353Y-116608435D01*
X151286914Y-116606589D01*
X151290757Y-116605429D01*
X151352994Y-116572337D01*
X151415560Y-116539906D01*
X151418697Y-116537402D01*
X151422238Y-116535519D01*
X151476828Y-116490996D01*
X151531937Y-116447003D01*
X151537520Y-116441497D01*
X151537636Y-116441402D01*
X151537725Y-116441294D01*
X151539522Y-116439522D01*
X154449834Y-113529211D01*
X154550000Y-113539077D01*
X155850000Y-113539077D01*
X155974678Y-113526797D01*
X156094564Y-113490430D01*
X156205052Y-113431373D01*
X156301896Y-113351896D01*
X156381373Y-113255052D01*
X156440430Y-113144564D01*
X156476797Y-113024678D01*
X156489077Y-112900000D01*
X156489077Y-111563000D01*
X156910923Y-111563000D01*
X156910923Y-112900000D01*
X156923203Y-113024678D01*
X156959570Y-113144564D01*
X157018627Y-113255052D01*
X157098104Y-113351896D01*
X157194948Y-113431373D01*
X157305436Y-113490430D01*
X157425322Y-113526797D01*
X157449038Y-113529133D01*
X157450020Y-113540355D01*
X157451140Y-113544208D01*
X157451531Y-113548201D01*
X157471905Y-113615684D01*
X157491565Y-113683353D01*
X157493411Y-113686914D01*
X157494571Y-113690757D01*
X157527663Y-113752994D01*
X157560094Y-113815560D01*
X157562598Y-113818697D01*
X157564481Y-113822238D01*
X157609004Y-113876828D01*
X157652997Y-113931937D01*
X157658503Y-113937520D01*
X157658598Y-113937636D01*
X157658706Y-113937725D01*
X157660478Y-113939522D01*
X162775116Y-119054161D01*
X162773862Y-119143955D01*
X162826051Y-119428311D01*
X162932478Y-119697114D01*
X163089089Y-119940127D01*
X163289919Y-120148092D01*
X163527317Y-120313088D01*
X163792243Y-120428831D01*
X164074604Y-120490913D01*
X164363646Y-120496967D01*
X164648360Y-120446764D01*
X164917900Y-120342217D01*
X165162000Y-120187306D01*
X165371362Y-119987934D01*
X165538012Y-119751692D01*
X165655601Y-119487581D01*
X165719652Y-119205660D01*
X165724263Y-118875447D01*
X165668109Y-118591848D01*
X165557939Y-118324556D01*
X165397951Y-118083754D01*
X165194237Y-117878613D01*
X165001922Y-117748895D01*
X165162000Y-117647306D01*
X165371362Y-117447934D01*
X165538012Y-117211692D01*
X165655601Y-116947581D01*
X165719652Y-116665660D01*
X165724263Y-116335447D01*
X165668109Y-116051848D01*
X165557939Y-115784556D01*
X165397951Y-115543754D01*
X165194237Y-115338613D01*
X164954558Y-115176948D01*
X164688042Y-115064915D01*
X164404841Y-115006782D01*
X164115743Y-115004764D01*
X163831758Y-115058937D01*
X163563704Y-115167237D01*
X163321791Y-115325541D01*
X163115233Y-115527818D01*
X162951898Y-115766362D01*
X162838007Y-116032090D01*
X162777899Y-116314877D01*
X162773862Y-116603955D01*
X162826051Y-116888311D01*
X162864522Y-116985477D01*
X159262924Y-113383879D01*
X159301896Y-113351896D01*
X159381373Y-113255052D01*
X159440430Y-113144564D01*
X159476797Y-113024678D01*
X159489077Y-112900000D01*
X159489077Y-112381465D01*
X159509812Y-112381465D01*
X159566048Y-112687868D01*
X159680726Y-112977513D01*
X159849479Y-113239367D01*
X160065880Y-113463457D01*
X160321685Y-113641246D01*
X160607151Y-113765963D01*
X160911405Y-113832858D01*
X161222858Y-113839382D01*
X161529646Y-113785287D01*
X161820084Y-113672633D01*
X162083110Y-113505712D01*
X162308705Y-113290881D01*
X162488276Y-113036323D01*
X162614983Y-112751735D01*
X162684000Y-112447955D01*
X162684928Y-112381465D01*
X165958872Y-112381465D01*
X166015108Y-112687868D01*
X166129786Y-112977513D01*
X166298539Y-113239367D01*
X166514940Y-113463457D01*
X166770745Y-113641246D01*
X167056211Y-113765963D01*
X167360465Y-113832858D01*
X167671918Y-113839382D01*
X167978706Y-113785287D01*
X168269144Y-113672633D01*
X168532170Y-113505712D01*
X168757765Y-113290881D01*
X168937336Y-113036323D01*
X169064043Y-112751735D01*
X169133060Y-112447955D01*
X169138028Y-112092140D01*
X169077520Y-111786551D01*
X168958809Y-111498536D01*
X168786416Y-111239064D01*
X168566907Y-111018018D01*
X168308645Y-110843817D01*
X168021465Y-110723098D01*
X167716307Y-110660458D01*
X167404794Y-110658283D01*
X167098791Y-110716656D01*
X166809953Y-110833354D01*
X166549284Y-111003932D01*
X166326711Y-111221891D01*
X166150712Y-111478932D01*
X166027990Y-111765261D01*
X165963222Y-112069975D01*
X165958872Y-112381465D01*
X162684928Y-112381465D01*
X162688968Y-112092140D01*
X162628460Y-111786551D01*
X162509749Y-111498536D01*
X162337356Y-111239064D01*
X162117847Y-111018018D01*
X161859585Y-110843817D01*
X161572405Y-110723098D01*
X161267247Y-110660458D01*
X160955734Y-110658283D01*
X160649731Y-110716656D01*
X160360893Y-110833354D01*
X160100224Y-111003932D01*
X159877651Y-111221891D01*
X159701652Y-111478932D01*
X159578930Y-111765261D01*
X159514162Y-112069975D01*
X159509812Y-112381465D01*
X159489077Y-112381465D01*
X159489077Y-111505936D01*
X159490757Y-111505429D01*
X159552994Y-111472337D01*
X159615560Y-111439906D01*
X159618697Y-111437402D01*
X159622238Y-111435519D01*
X159676828Y-111390996D01*
X159731937Y-111347003D01*
X159737520Y-111341497D01*
X159737636Y-111341402D01*
X159737725Y-111341294D01*
X159739522Y-111339522D01*
X160039522Y-111039523D01*
X160084245Y-110985077D01*
X160129562Y-110931070D01*
X160131496Y-110927553D01*
X160134041Y-110924454D01*
X160167349Y-110862335D01*
X160201300Y-110800578D01*
X160202512Y-110796756D01*
X160204410Y-110793217D01*
X160225017Y-110725814D01*
X160246327Y-110658637D01*
X160246775Y-110654647D01*
X160247947Y-110650812D01*
X160255064Y-110580746D01*
X160262926Y-110510653D01*
X160262981Y-110502806D01*
X160262995Y-110502663D01*
X160262982Y-110502530D01*
X160263000Y-110500000D01*
X160263000Y-109138200D01*
X160273425Y-109145446D01*
X160558891Y-109270163D01*
X160863145Y-109337058D01*
X161174598Y-109343582D01*
X161481386Y-109289487D01*
X161771824Y-109176833D01*
X162034850Y-109009912D01*
X162260445Y-108795081D01*
X162440016Y-108540523D01*
X162451335Y-108515100D01*
X166100502Y-108515100D01*
X166247739Y-108743567D01*
X166464140Y-108967657D01*
X166719945Y-109145446D01*
X167005411Y-109270163D01*
X167309665Y-109337058D01*
X167621118Y-109343582D01*
X167927906Y-109289487D01*
X168218344Y-109176833D01*
X168481370Y-109009912D01*
X168706965Y-108795081D01*
X168886536Y-108540523D01*
X169013243Y-108255935D01*
X169082260Y-107952155D01*
X169087228Y-107596340D01*
X169026720Y-107290751D01*
X168908009Y-107002736D01*
X168735616Y-106743264D01*
X168516107Y-106522218D01*
X168257845Y-106348017D01*
X167970665Y-106227298D01*
X167665507Y-106164658D01*
X167353994Y-106162483D01*
X167047991Y-106220856D01*
X166759153Y-106337554D01*
X166498484Y-106508132D01*
X166275911Y-106726091D01*
X166099912Y-106983132D01*
X166097354Y-106989100D01*
X162452429Y-106989100D01*
X162289096Y-106743264D01*
X162069587Y-106522218D01*
X161811325Y-106348017D01*
X161524145Y-106227298D01*
X161218987Y-106164658D01*
X160907474Y-106162483D01*
X160601471Y-106220856D01*
X160312633Y-106337554D01*
X160051964Y-106508132D01*
X159829391Y-106726091D01*
X159653392Y-106983132D01*
X159650834Y-106989100D01*
X157649445Y-106989100D01*
X153770822Y-103110478D01*
X153716401Y-103065776D01*
X153713093Y-103063000D01*
X154291900Y-103063000D01*
X154362044Y-103056122D01*
X154432255Y-103049980D01*
X154436108Y-103048860D01*
X154440101Y-103048469D01*
X154507584Y-103028095D01*
X154575253Y-103008435D01*
X154578814Y-103006589D01*
X154582657Y-103005429D01*
X154644894Y-102972337D01*
X154707460Y-102939906D01*
X154710597Y-102937402D01*
X154714138Y-102935519D01*
X154768728Y-102890996D01*
X154823837Y-102847003D01*
X154829420Y-102841497D01*
X154829536Y-102841402D01*
X154829625Y-102841294D01*
X154831422Y-102839522D01*
X156707945Y-100963000D01*
X158808923Y-100963000D01*
X158808923Y-102282000D01*
X158821203Y-102406678D01*
X158857570Y-102526564D01*
X158916627Y-102637052D01*
X158996104Y-102733896D01*
X159092948Y-102813373D01*
X159203436Y-102872430D01*
X159323322Y-102908797D01*
X159448000Y-102921077D01*
X160972000Y-102921077D01*
X161096678Y-102908797D01*
X161216564Y-102872430D01*
X161327052Y-102813373D01*
X161423896Y-102733896D01*
X161503373Y-102637052D01*
X161562430Y-102526564D01*
X161598797Y-102406678D01*
X161606671Y-102326735D01*
X161649096Y-102392566D01*
X161839544Y-102589782D01*
X162064672Y-102746250D01*
X162315904Y-102856010D01*
X162583670Y-102914882D01*
X162857772Y-102920624D01*
X163127769Y-102873016D01*
X163383377Y-102773872D01*
X163614859Y-102626969D01*
X163813399Y-102437902D01*
X163971435Y-102213872D01*
X164018880Y-102107308D01*
X164040580Y-102162115D01*
X164189096Y-102392566D01*
X164379544Y-102589782D01*
X164604672Y-102746250D01*
X164855904Y-102856010D01*
X165123670Y-102914882D01*
X165397772Y-102920624D01*
X165667769Y-102873016D01*
X165923377Y-102773872D01*
X166154859Y-102626969D01*
X166353399Y-102437902D01*
X166511435Y-102213872D01*
X166622947Y-101963412D01*
X166683687Y-101696064D01*
X166688060Y-101382919D01*
X166634808Y-101113979D01*
X166530333Y-100860503D01*
X166378614Y-100632148D01*
X166185430Y-100437611D01*
X165958140Y-100284301D01*
X165879063Y-100251060D01*
X165923377Y-100233872D01*
X166154859Y-100086969D01*
X166353399Y-99897902D01*
X166511435Y-99673872D01*
X166622947Y-99423412D01*
X166683687Y-99156064D01*
X166688060Y-98842919D01*
X166634808Y-98573979D01*
X166530333Y-98320503D01*
X166378614Y-98092148D01*
X166185430Y-97897611D01*
X166053000Y-97808285D01*
X166053000Y-97090000D01*
X166046122Y-97019856D01*
X166039980Y-96949645D01*
X166038860Y-96945792D01*
X166038469Y-96941799D01*
X166018085Y-96874283D01*
X165998434Y-96806646D01*
X165996590Y-96803089D01*
X165995429Y-96799243D01*
X165962328Y-96736989D01*
X165929906Y-96674440D01*
X165927402Y-96671303D01*
X165925519Y-96667762D01*
X165881016Y-96613196D01*
X165837003Y-96558062D01*
X165831492Y-96552475D01*
X165831402Y-96552364D01*
X165831299Y-96552279D01*
X165829522Y-96550477D01*
X164539522Y-95260478D01*
X164485101Y-95215776D01*
X164431070Y-95170438D01*
X164427553Y-95168504D01*
X164424454Y-95165959D01*
X164362335Y-95132651D01*
X164300578Y-95098700D01*
X164296756Y-95097488D01*
X164293217Y-95095590D01*
X164225814Y-95074983D01*
X164158637Y-95053673D01*
X164154647Y-95053225D01*
X164150812Y-95052053D01*
X164080746Y-95044936D01*
X164010653Y-95037074D01*
X164002806Y-95037019D01*
X164002663Y-95037005D01*
X164002530Y-95037018D01*
X164000000Y-95037000D01*
X159230228Y-95037000D01*
X159230415Y-95036772D01*
X159244356Y-95015909D01*
X159336766Y-94843022D01*
X159346368Y-94819839D01*
X159403273Y-94632246D01*
X159408169Y-94607636D01*
X159427384Y-94412546D01*
X159428000Y-94400000D01*
X159428000Y-86909531D01*
X161340044Y-86909531D01*
X161366569Y-87200997D01*
X161449202Y-87481760D01*
X161584795Y-87741126D01*
X161768184Y-87969215D01*
X161992382Y-88157340D01*
X162050489Y-88189285D01*
X162009741Y-88210951D01*
X161782938Y-88395928D01*
X161596382Y-88621434D01*
X161457181Y-88878882D01*
X161370636Y-89158464D01*
X161340044Y-89449531D01*
X161366569Y-89740997D01*
X161449202Y-90021760D01*
X161584795Y-90281126D01*
X161768184Y-90509215D01*
X161792723Y-90529806D01*
X161739436Y-90545970D01*
X161628948Y-90605027D01*
X161532104Y-90684504D01*
X161452627Y-90781348D01*
X161393570Y-90891836D01*
X161357203Y-91011722D01*
X161344923Y-91136400D01*
X161344923Y-92863600D01*
X161357203Y-92988278D01*
X161393570Y-93108164D01*
X161452627Y-93218652D01*
X161532104Y-93315496D01*
X161628948Y-93394973D01*
X161739436Y-93454030D01*
X161859322Y-93490397D01*
X161984000Y-93502677D01*
X164016000Y-93502677D01*
X164140678Y-93490397D01*
X164260564Y-93454030D01*
X164371052Y-93394973D01*
X164467896Y-93315496D01*
X164547373Y-93218652D01*
X164606430Y-93108164D01*
X164642797Y-92988278D01*
X164655077Y-92863600D01*
X164655077Y-91136400D01*
X164644447Y-91028467D01*
X166090047Y-91028467D01*
X166119268Y-91349554D01*
X166210299Y-91658850D01*
X166359672Y-91944574D01*
X166561698Y-92195844D01*
X166808682Y-92403087D01*
X167091215Y-92558412D01*
X167398537Y-92655900D01*
X167718941Y-92691839D01*
X167742007Y-92692000D01*
X167757993Y-92692000D01*
X168078868Y-92660538D01*
X168387521Y-92567350D01*
X168672196Y-92415986D01*
X168922049Y-92212211D01*
X169127563Y-91963787D01*
X169280911Y-91680176D01*
X169376251Y-91372181D01*
X169409953Y-91051533D01*
X169380732Y-90730446D01*
X169289701Y-90421150D01*
X169140328Y-90135426D01*
X169085018Y-90066634D01*
X169121052Y-90047373D01*
X169217896Y-89967896D01*
X169297373Y-89871052D01*
X169356430Y-89760564D01*
X169392797Y-89640678D01*
X169405077Y-89516000D01*
X169405077Y-87484000D01*
X169392797Y-87359322D01*
X169356430Y-87239436D01*
X169297373Y-87128948D01*
X169217896Y-87032104D01*
X169121052Y-86952627D01*
X169010564Y-86893570D01*
X168890678Y-86857203D01*
X168766000Y-86844923D01*
X166734000Y-86844923D01*
X166609322Y-86857203D01*
X166489436Y-86893570D01*
X166378948Y-86952627D01*
X166282104Y-87032104D01*
X166202627Y-87128948D01*
X166143570Y-87239436D01*
X166107203Y-87359322D01*
X166094923Y-87484000D01*
X166094923Y-89516000D01*
X166107203Y-89640678D01*
X166143570Y-89760564D01*
X166202627Y-89871052D01*
X166282104Y-89967896D01*
X166378948Y-90047373D01*
X166413922Y-90066067D01*
X166372437Y-90116213D01*
X166219089Y-90399824D01*
X166123749Y-90707819D01*
X166090047Y-91028467D01*
X164644447Y-91028467D01*
X164642797Y-91011722D01*
X164606430Y-90891836D01*
X164547373Y-90781348D01*
X164467896Y-90684504D01*
X164371052Y-90605027D01*
X164260564Y-90545970D01*
X164209285Y-90530415D01*
X164217062Y-90524072D01*
X164403618Y-90298566D01*
X164542819Y-90041118D01*
X164629364Y-89761536D01*
X164659956Y-89470469D01*
X164633431Y-89179003D01*
X164550798Y-88898240D01*
X164415205Y-88638874D01*
X164231816Y-88410785D01*
X164007618Y-88222660D01*
X163949511Y-88190715D01*
X163990259Y-88169049D01*
X164217062Y-87984072D01*
X164403618Y-87758566D01*
X164542819Y-87501118D01*
X164629364Y-87221536D01*
X164659956Y-86930469D01*
X164633431Y-86639003D01*
X164550798Y-86358240D01*
X164415205Y-86098874D01*
X164231816Y-85870785D01*
X164007618Y-85682660D01*
X163751148Y-85541665D01*
X163472177Y-85453170D01*
X163181331Y-85420546D01*
X163160393Y-85420400D01*
X162839607Y-85420400D01*
X162548333Y-85448960D01*
X162268154Y-85533551D01*
X162009741Y-85670951D01*
X161782938Y-85855928D01*
X161596382Y-86081434D01*
X161457181Y-86338882D01*
X161370636Y-86618464D01*
X161340044Y-86909531D01*
X159428000Y-86909531D01*
X159428000Y-84506292D01*
X159445364Y-84329998D01*
X159489044Y-84186000D01*
X170314000Y-84186000D01*
X170314000Y-124814000D01*
X154728000Y-124814000D01*
X154728000Y-123665450D01*
X154763339Y-123586077D01*
X154877868Y-123081977D01*
X154886113Y-122491527D01*
X154785704Y-121984426D01*
X154728000Y-121844426D01*
X154728000Y-120400000D01*
X154718257Y-120351017D01*
X154690510Y-120309490D01*
X154648983Y-120281743D01*
X154600000Y-120272000D01*
X153157668Y-120272000D01*
X153033258Y-120219703D01*
X152526870Y-120115756D01*
X152009937Y-120112147D01*
X151502147Y-120209013D01*
X151346249Y-120272000D01*
X149900000Y-120272000D01*
X149851017Y-120281743D01*
X149809490Y-120309490D01*
X149781743Y-120351017D01*
X149772000Y-120400000D01*
X149772000Y-121839979D01*
X149725232Y-121949097D01*
X149617753Y-122454746D01*
X149610536Y-122971642D01*
X149703854Y-123480096D01*
X149772000Y-123652213D01*
X149772000Y-124814000D01*
X134186000Y-124814000D01*
X134186000Y-84186000D01*
X141410956Y-84186000D01*
X141454636Y-84329998D01*
X141454636Y-84329998D01*
G37*
X141454636Y-84329998D02*
X141472000Y-84506292D01*
X141472000Y-94400000D01*
X141472616Y-94412546D01*
X141491831Y-94607636D01*
X141496727Y-94632246D01*
X141553632Y-94819839D01*
X141563234Y-94843022D01*
X141655644Y-95015909D01*
X141669585Y-95036772D01*
X141793948Y-95188309D01*
X141811691Y-95206052D01*
X141963228Y-95330415D01*
X141984091Y-95344356D01*
X142156978Y-95436766D01*
X142180161Y-95446368D01*
X142367754Y-95503273D01*
X142392364Y-95508169D01*
X142587454Y-95527384D01*
X142600000Y-95528000D01*
X149942955Y-95528000D01*
X149310033Y-96160923D01*
X148375000Y-96160923D01*
X148250322Y-96173203D01*
X148130436Y-96209570D01*
X148019948Y-96268627D01*
X147923104Y-96348104D01*
X147843627Y-96444948D01*
X147784570Y-96555436D01*
X147748203Y-96675322D01*
X147737203Y-96787000D01*
X147262797Y-96787000D01*
X147251797Y-96675322D01*
X147215430Y-96555436D01*
X147156373Y-96444948D01*
X147076896Y-96348104D01*
X146980052Y-96268627D01*
X146869564Y-96209570D01*
X146749678Y-96173203D01*
X146625000Y-96160923D01*
X145375000Y-96160923D01*
X145250322Y-96173203D01*
X145130436Y-96209570D01*
X145019948Y-96268627D01*
X144923104Y-96348104D01*
X144843627Y-96444948D01*
X144784570Y-96555436D01*
X144748203Y-96675322D01*
X144737203Y-96787000D01*
X144262797Y-96787000D01*
X144251797Y-96675322D01*
X144215430Y-96555436D01*
X144156373Y-96444948D01*
X144076896Y-96348104D01*
X143980052Y-96268627D01*
X143869564Y-96209570D01*
X143749678Y-96173203D01*
X143625000Y-96160923D01*
X142737139Y-96160923D01*
X141461000Y-94884784D01*
X141461000Y-87700000D01*
X141454144Y-87630079D01*
X141448014Y-87560013D01*
X141446897Y-87556170D01*
X141446507Y-87552188D01*
X141426189Y-87484890D01*
X141406578Y-87417389D01*
X141404737Y-87413838D01*
X141403580Y-87410005D01*
X141370561Y-87347906D01*
X141338228Y-87285530D01*
X141335733Y-87282404D01*
X141333853Y-87278869D01*
X141289422Y-87224391D01*
X141245569Y-87169457D01*
X141240078Y-87163889D01*
X141239983Y-87163773D01*
X141239875Y-87163684D01*
X141238108Y-87161892D01*
X140498108Y-86421892D01*
X140443811Y-86377291D01*
X140389940Y-86332089D01*
X140386434Y-86330161D01*
X140383341Y-86327621D01*
X140321349Y-86294381D01*
X140259790Y-86260538D01*
X140255980Y-86259329D01*
X140252449Y-86257436D01*
X140187753Y-86237657D01*
X140168466Y-86200765D01*
X139998900Y-85989868D01*
X139791600Y-85815922D01*
X139554462Y-85685555D01*
X139296518Y-85603730D01*
X139027594Y-85573565D01*
X139008234Y-85573430D01*
X137991766Y-85573430D01*
X137722446Y-85599837D01*
X137463385Y-85678052D01*
X137224450Y-85805096D01*
X137014741Y-85976131D01*
X136842247Y-86184640D01*
X136713538Y-86422683D01*
X136633516Y-86681191D01*
X136605230Y-86950320D01*
X136629756Y-87219817D01*
X136706161Y-87479418D01*
X136831534Y-87719235D01*
X137001100Y-87930132D01*
X137208400Y-88104078D01*
X137440916Y-88231904D01*
X137353864Y-88267194D01*
X137125788Y-88417111D01*
X136931342Y-88608642D01*
X136777998Y-88834428D01*
X136671649Y-89085791D01*
X136656768Y-89159541D01*
X136779804Y-89374000D01*
X138374000Y-89374000D01*
X138374000Y-89354000D01*
X138626000Y-89354000D01*
X138626000Y-89374000D01*
X138646000Y-89374000D01*
X138646000Y-89626000D01*
X138626000Y-89626000D01*
X138626000Y-89646000D01*
X138374000Y-89646000D01*
X138374000Y-89626000D01*
X136779804Y-89626000D01*
X136656768Y-89840459D01*
X136671649Y-89914209D01*
X136777998Y-90165572D01*
X136931342Y-90391358D01*
X137125788Y-90582889D01*
X137353864Y-90732806D01*
X137442947Y-90768919D01*
X137224450Y-90885096D01*
X137014741Y-91056131D01*
X136842247Y-91264640D01*
X136713538Y-91502683D01*
X136633516Y-91761191D01*
X136605230Y-92030320D01*
X136629756Y-92299817D01*
X136706161Y-92559418D01*
X136831534Y-92799235D01*
X137001100Y-93010132D01*
X137208400Y-93184078D01*
X137445538Y-93314445D01*
X137703482Y-93396270D01*
X137737000Y-93400030D01*
X137737000Y-94700000D01*
X137743878Y-94770144D01*
X137750020Y-94840355D01*
X137751140Y-94844208D01*
X137751531Y-94848201D01*
X137771905Y-94915684D01*
X137791565Y-94983353D01*
X137793411Y-94986914D01*
X137794571Y-94990757D01*
X137827663Y-95052994D01*
X137860094Y-95115560D01*
X137862598Y-95118697D01*
X137864481Y-95122238D01*
X137909004Y-95176828D01*
X137952997Y-95231937D01*
X137958503Y-95237520D01*
X137958598Y-95237636D01*
X137958706Y-95237725D01*
X137960478Y-95239522D01*
X140237000Y-97516045D01*
X140237000Y-98020255D01*
X140158195Y-97801527D01*
X140096629Y-97686343D01*
X139857303Y-97620888D01*
X139078191Y-98400000D01*
X139857303Y-99179112D01*
X140096629Y-99113657D01*
X140212863Y-98866493D01*
X140260039Y-98676381D01*
X140271905Y-98715684D01*
X140291565Y-98783353D01*
X140293411Y-98786914D01*
X140294571Y-98790757D01*
X140327663Y-98852994D01*
X140360094Y-98915560D01*
X140362598Y-98918697D01*
X140364481Y-98922238D01*
X140409004Y-98976828D01*
X140452997Y-99031937D01*
X140458503Y-99037520D01*
X140458598Y-99037636D01*
X140458706Y-99037725D01*
X140460478Y-99039522D01*
X141735923Y-100314967D01*
X141735923Y-100800000D01*
X141748203Y-100924678D01*
X141784570Y-101044564D01*
X141840398Y-101149011D01*
X141835806Y-101149011D01*
X141818636Y-101147085D01*
X141810810Y-101147030D01*
X141810667Y-101147016D01*
X141810534Y-101147029D01*
X141808011Y-101147011D01*
X140226055Y-101147011D01*
X139926722Y-100847678D01*
X139872301Y-100802976D01*
X139818270Y-100757638D01*
X139814753Y-100755704D01*
X139811654Y-100753159D01*
X139749535Y-100719851D01*
X139687778Y-100685900D01*
X139683956Y-100684688D01*
X139680417Y-100682790D01*
X139613014Y-100662183D01*
X139545837Y-100640873D01*
X139541847Y-100640425D01*
X139538012Y-100639253D01*
X139467946Y-100632136D01*
X139397853Y-100624274D01*
X139390006Y-100624219D01*
X139389863Y-100624205D01*
X139389730Y-100624218D01*
X139387200Y-100624200D01*
X138313200Y-100624200D01*
X138243056Y-100631078D01*
X138172845Y-100637220D01*
X138168992Y-100638340D01*
X138164999Y-100638731D01*
X138097516Y-100659105D01*
X138029847Y-100678765D01*
X138026286Y-100680611D01*
X138022443Y-100681771D01*
X137960206Y-100714863D01*
X137897640Y-100747294D01*
X137894503Y-100749798D01*
X137890962Y-100751681D01*
X137836396Y-100796184D01*
X137781262Y-100840197D01*
X137775675Y-100845708D01*
X137775564Y-100845798D01*
X137775479Y-100845901D01*
X137773677Y-100847678D01*
X135761000Y-102860356D01*
X135761000Y-100075216D01*
X136078385Y-99757832D01*
X136195030Y-99783478D01*
X136466891Y-99789173D01*
X136734680Y-99741954D01*
X136988198Y-99643621D01*
X137217788Y-99497919D01*
X137365448Y-99357303D01*
X138120888Y-99357303D01*
X138186343Y-99596629D01*
X138433507Y-99712863D01*
X138698597Y-99778645D01*
X138971427Y-99791447D01*
X139241512Y-99750775D01*
X139498473Y-99658195D01*
X139613657Y-99596629D01*
X139679112Y-99357303D01*
X138900000Y-98578191D01*
X138120888Y-99357303D01*
X137365448Y-99357303D01*
X137414705Y-99310397D01*
X137571449Y-99088199D01*
X137628204Y-98960724D01*
X137641805Y-98998473D01*
X137703371Y-99113657D01*
X137942697Y-99179112D01*
X138721809Y-98400000D01*
X137942697Y-97620888D01*
X137703371Y-97686343D01*
X137629975Y-97842415D01*
X137590192Y-97745895D01*
X137439714Y-97519407D01*
X137363538Y-97442697D01*
X138120888Y-97442697D01*
X138900000Y-98221809D01*
X139679112Y-97442697D01*
X139613657Y-97203371D01*
X139366493Y-97087137D01*
X139101403Y-97021355D01*
X138828573Y-97008553D01*
X138558488Y-97049225D01*
X138301527Y-97141805D01*
X138186343Y-97203371D01*
X138120888Y-97442697D01*
X137363538Y-97442697D01*
X137248109Y-97326460D01*
X137022677Y-97174404D01*
X136772004Y-97069031D01*
X136505637Y-97014354D01*
X136233724Y-97012455D01*
X135966620Y-97063408D01*
X135714499Y-97165271D01*
X135486966Y-97314165D01*
X135292686Y-97504418D01*
X135139060Y-97728783D01*
X135031939Y-97978714D01*
X134975404Y-98244693D01*
X134971607Y-98516587D01*
X135001938Y-98681846D01*
X134461892Y-99221892D01*
X134417291Y-99276189D01*
X134372089Y-99330060D01*
X134370161Y-99333566D01*
X134367621Y-99336659D01*
X134334381Y-99398651D01*
X134300538Y-99460210D01*
X134299329Y-99464020D01*
X134297436Y-99467551D01*
X134276872Y-99534816D01*
X134255630Y-99601779D01*
X134255184Y-99605756D01*
X134254014Y-99609583D01*
X134246913Y-99679486D01*
X134239074Y-99749375D01*
X134239019Y-99757201D01*
X134239005Y-99757344D01*
X134239018Y-99757477D01*
X134239000Y-99760000D01*
X134239000Y-108200000D01*
X134245856Y-108269921D01*
X134251986Y-108339987D01*
X134253103Y-108343830D01*
X134253493Y-108347812D01*
X134273811Y-108415110D01*
X134293422Y-108482611D01*
X134295263Y-108486162D01*
X134296420Y-108489995D01*
X134329439Y-108552094D01*
X134361772Y-108614470D01*
X134364267Y-108617596D01*
X134366147Y-108621131D01*
X134410578Y-108675609D01*
X134454431Y-108730543D01*
X134459922Y-108736111D01*
X134460017Y-108736227D01*
X134460125Y-108736316D01*
X134461892Y-108738108D01*
X135361892Y-109638108D01*
X135416189Y-109682709D01*
X135470060Y-109727911D01*
X135473566Y-109729839D01*
X135476659Y-109732379D01*
X135510923Y-109750751D01*
X135510923Y-110175000D01*
X135523203Y-110299678D01*
X135523301Y-110300000D01*
X135523203Y-110300322D01*
X135510923Y-110425000D01*
X135510923Y-110975000D01*
X135523203Y-111099678D01*
X135523301Y-111100000D01*
X135523203Y-111100322D01*
X135510923Y-111225000D01*
X135510923Y-111775000D01*
X135523203Y-111899678D01*
X135559570Y-112019564D01*
X135618627Y-112130052D01*
X135698104Y-112226896D01*
X135794948Y-112306373D01*
X135905436Y-112365430D01*
X136025322Y-112401797D01*
X136150000Y-112414077D01*
X137485923Y-112414077D01*
X137485923Y-113750000D01*
X137498203Y-113874678D01*
X137534570Y-113994564D01*
X137593627Y-114105052D01*
X137673104Y-114201896D01*
X137769948Y-114281373D01*
X137880436Y-114340430D01*
X138000322Y-114376797D01*
X138125000Y-114389077D01*
X138675000Y-114389077D01*
X138799678Y-114376797D01*
X138800000Y-114376699D01*
X138800322Y-114376797D01*
X138925000Y-114389077D01*
X139239000Y-114389077D01*
X139239000Y-116750000D01*
X139245856Y-116819921D01*
X139251986Y-116889987D01*
X139253103Y-116893830D01*
X139253493Y-116897812D01*
X139273811Y-116965110D01*
X139293422Y-117032611D01*
X139295263Y-117036162D01*
X139296420Y-117039995D01*
X139329439Y-117102094D01*
X139361772Y-117164470D01*
X139362015Y-117164774D01*
X139337254Y-117222546D01*
X139266471Y-117555554D01*
X139261718Y-117895968D01*
X139323175Y-118230822D01*
X139448502Y-118547362D01*
X139632925Y-118833530D01*
X139869420Y-119078427D01*
X140148978Y-119272725D01*
X140460951Y-119409023D01*
X140793456Y-119482129D01*
X141133829Y-119489259D01*
X141469104Y-119430141D01*
X141564208Y-119393253D01*
X142210478Y-120039523D01*
X142264934Y-120084253D01*
X142318930Y-120129562D01*
X142322446Y-120131495D01*
X142325547Y-120134042D01*
X142387683Y-120167359D01*
X142449422Y-120201300D01*
X142453244Y-120202512D01*
X142456783Y-120204410D01*
X142524186Y-120225017D01*
X142591363Y-120246327D01*
X142595353Y-120246775D01*
X142599188Y-120247947D01*
X142669254Y-120255064D01*
X142739347Y-120262926D01*
X142747194Y-120262981D01*
X142747337Y-120262995D01*
X142747470Y-120262982D01*
X142750000Y-120263000D01*
X145800000Y-120263000D01*
X145870144Y-120256122D01*
X145940355Y-120249980D01*
X145944208Y-120248860D01*
X145948201Y-120248469D01*
X146015684Y-120228095D01*
X146083353Y-120208435D01*
X146086914Y-120206589D01*
X146090757Y-120205429D01*
X146152994Y-120172337D01*
X146215560Y-120139906D01*
X146218697Y-120137402D01*
X146222238Y-120135519D01*
X146276828Y-120090996D01*
X146331937Y-120047003D01*
X146337520Y-120041497D01*
X146337636Y-120041402D01*
X146337725Y-120041294D01*
X146339522Y-120039522D01*
X147422448Y-118956596D01*
X147971595Y-118956596D01*
X148079282Y-119231623D01*
X148386023Y-119382777D01*
X148716360Y-119471185D01*
X149057597Y-119493448D01*
X149396620Y-119448712D01*
X149720401Y-119338694D01*
X149920718Y-119231623D01*
X150028405Y-118956596D01*
X149000000Y-117928191D01*
X147971595Y-118956596D01*
X147422448Y-118956596D01*
X147539522Y-118839523D01*
X147584245Y-118785077D01*
X147629562Y-118731070D01*
X147631496Y-118727553D01*
X147634041Y-118724454D01*
X147637785Y-118717472D01*
X147793404Y-118778405D01*
X148821809Y-117750000D01*
X148807667Y-117735858D01*
X148985858Y-117557667D01*
X149000000Y-117571809D01*
X149014142Y-117557667D01*
X149192333Y-117735858D01*
X149178191Y-117750000D01*
X150206596Y-118778405D01*
X150481623Y-118670718D01*
X150632777Y-118363977D01*
X150721185Y-118033640D01*
X150730167Y-117895968D01*
X151261718Y-117895968D01*
X151323175Y-118230822D01*
X151448502Y-118547362D01*
X151632925Y-118833530D01*
X151869420Y-119078427D01*
X152148978Y-119272725D01*
X152460951Y-119409023D01*
X152793456Y-119482129D01*
X153133829Y-119489259D01*
X153469104Y-119430141D01*
X153786511Y-119307027D01*
X154073960Y-119124606D01*
X154320502Y-118889827D01*
X154516747Y-118611632D01*
X154655219Y-118300618D01*
X154730645Y-117968631D01*
X154736075Y-117579776D01*
X154669948Y-117245813D01*
X154540214Y-116931054D01*
X154351813Y-116647488D01*
X154111922Y-116405917D01*
X153829679Y-116215541D01*
X153515833Y-116083612D01*
X153182339Y-116015156D01*
X152841901Y-116012779D01*
X152507484Y-116076573D01*
X152191826Y-116204106D01*
X151906952Y-116390523D01*
X151663712Y-116628721D01*
X151471371Y-116909629D01*
X151337254Y-117222546D01*
X151266471Y-117555554D01*
X151261718Y-117895968D01*
X150730167Y-117895968D01*
X150743448Y-117692403D01*
X150698712Y-117353380D01*
X150588694Y-117029599D01*
X150481623Y-116829282D01*
X150206598Y-116721596D01*
X150265194Y-116663000D01*
X151000000Y-116663000D01*
X151070144Y-116656122D01*
X151140355Y-116649980D01*
X151144208Y-116648860D01*
X151148201Y-116648469D01*
X151215684Y-116628095D01*
X151283353Y-116608435D01*
X151286914Y-116606589D01*
X151290757Y-116605429D01*
X151352994Y-116572337D01*
X151415560Y-116539906D01*
X151418697Y-116537402D01*
X151422238Y-116535519D01*
X151476828Y-116490996D01*
X151531937Y-116447003D01*
X151537520Y-116441497D01*
X151537636Y-116441402D01*
X151537725Y-116441294D01*
X151539522Y-116439522D01*
X154449834Y-113529211D01*
X154550000Y-113539077D01*
X155850000Y-113539077D01*
X155974678Y-113526797D01*
X156094564Y-113490430D01*
X156205052Y-113431373D01*
X156301896Y-113351896D01*
X156381373Y-113255052D01*
X156440430Y-113144564D01*
X156476797Y-113024678D01*
X156489077Y-112900000D01*
X156489077Y-111563000D01*
X156910923Y-111563000D01*
X156910923Y-112900000D01*
X156923203Y-113024678D01*
X156959570Y-113144564D01*
X157018627Y-113255052D01*
X157098104Y-113351896D01*
X157194948Y-113431373D01*
X157305436Y-113490430D01*
X157425322Y-113526797D01*
X157449038Y-113529133D01*
X157450020Y-113540355D01*
X157451140Y-113544208D01*
X157451531Y-113548201D01*
X157471905Y-113615684D01*
X157491565Y-113683353D01*
X157493411Y-113686914D01*
X157494571Y-113690757D01*
X157527663Y-113752994D01*
X157560094Y-113815560D01*
X157562598Y-113818697D01*
X157564481Y-113822238D01*
X157609004Y-113876828D01*
X157652997Y-113931937D01*
X157658503Y-113937520D01*
X157658598Y-113937636D01*
X157658706Y-113937725D01*
X157660478Y-113939522D01*
X162775116Y-119054161D01*
X162773862Y-119143955D01*
X162826051Y-119428311D01*
X162932478Y-119697114D01*
X163089089Y-119940127D01*
X163289919Y-120148092D01*
X163527317Y-120313088D01*
X163792243Y-120428831D01*
X164074604Y-120490913D01*
X164363646Y-120496967D01*
X164648360Y-120446764D01*
X164917900Y-120342217D01*
X165162000Y-120187306D01*
X165371362Y-119987934D01*
X165538012Y-119751692D01*
X165655601Y-119487581D01*
X165719652Y-119205660D01*
X165724263Y-118875447D01*
X165668109Y-118591848D01*
X165557939Y-118324556D01*
X165397951Y-118083754D01*
X165194237Y-117878613D01*
X165001922Y-117748895D01*
X165162000Y-117647306D01*
X165371362Y-117447934D01*
X165538012Y-117211692D01*
X165655601Y-116947581D01*
X165719652Y-116665660D01*
X165724263Y-116335447D01*
X165668109Y-116051848D01*
X165557939Y-115784556D01*
X165397951Y-115543754D01*
X165194237Y-115338613D01*
X164954558Y-115176948D01*
X164688042Y-115064915D01*
X164404841Y-115006782D01*
X164115743Y-115004764D01*
X163831758Y-115058937D01*
X163563704Y-115167237D01*
X163321791Y-115325541D01*
X163115233Y-115527818D01*
X162951898Y-115766362D01*
X162838007Y-116032090D01*
X162777899Y-116314877D01*
X162773862Y-116603955D01*
X162826051Y-116888311D01*
X162864522Y-116985477D01*
X159262924Y-113383879D01*
X159301896Y-113351896D01*
X159381373Y-113255052D01*
X159440430Y-113144564D01*
X159476797Y-113024678D01*
X159489077Y-112900000D01*
X159489077Y-112381465D01*
X159509812Y-112381465D01*
X159566048Y-112687868D01*
X159680726Y-112977513D01*
X159849479Y-113239367D01*
X160065880Y-113463457D01*
X160321685Y-113641246D01*
X160607151Y-113765963D01*
X160911405Y-113832858D01*
X161222858Y-113839382D01*
X161529646Y-113785287D01*
X161820084Y-113672633D01*
X162083110Y-113505712D01*
X162308705Y-113290881D01*
X162488276Y-113036323D01*
X162614983Y-112751735D01*
X162684000Y-112447955D01*
X162684928Y-112381465D01*
X165958872Y-112381465D01*
X166015108Y-112687868D01*
X166129786Y-112977513D01*
X166298539Y-113239367D01*
X166514940Y-113463457D01*
X166770745Y-113641246D01*
X167056211Y-113765963D01*
X167360465Y-113832858D01*
X167671918Y-113839382D01*
X167978706Y-113785287D01*
X168269144Y-113672633D01*
X168532170Y-113505712D01*
X168757765Y-113290881D01*
X168937336Y-113036323D01*
X169064043Y-112751735D01*
X169133060Y-112447955D01*
X169138028Y-112092140D01*
X169077520Y-111786551D01*
X168958809Y-111498536D01*
X168786416Y-111239064D01*
X168566907Y-111018018D01*
X168308645Y-110843817D01*
X168021465Y-110723098D01*
X167716307Y-110660458D01*
X167404794Y-110658283D01*
X167098791Y-110716656D01*
X166809953Y-110833354D01*
X166549284Y-111003932D01*
X166326711Y-111221891D01*
X166150712Y-111478932D01*
X166027990Y-111765261D01*
X165963222Y-112069975D01*
X165958872Y-112381465D01*
X162684928Y-112381465D01*
X162688968Y-112092140D01*
X162628460Y-111786551D01*
X162509749Y-111498536D01*
X162337356Y-111239064D01*
X162117847Y-111018018D01*
X161859585Y-110843817D01*
X161572405Y-110723098D01*
X161267247Y-110660458D01*
X160955734Y-110658283D01*
X160649731Y-110716656D01*
X160360893Y-110833354D01*
X160100224Y-111003932D01*
X159877651Y-111221891D01*
X159701652Y-111478932D01*
X159578930Y-111765261D01*
X159514162Y-112069975D01*
X159509812Y-112381465D01*
X159489077Y-112381465D01*
X159489077Y-111505936D01*
X159490757Y-111505429D01*
X159552994Y-111472337D01*
X159615560Y-111439906D01*
X159618697Y-111437402D01*
X159622238Y-111435519D01*
X159676828Y-111390996D01*
X159731937Y-111347003D01*
X159737520Y-111341497D01*
X159737636Y-111341402D01*
X159737725Y-111341294D01*
X159739522Y-111339522D01*
X160039522Y-111039523D01*
X160084245Y-110985077D01*
X160129562Y-110931070D01*
X160131496Y-110927553D01*
X160134041Y-110924454D01*
X160167349Y-110862335D01*
X160201300Y-110800578D01*
X160202512Y-110796756D01*
X160204410Y-110793217D01*
X160225017Y-110725814D01*
X160246327Y-110658637D01*
X160246775Y-110654647D01*
X160247947Y-110650812D01*
X160255064Y-110580746D01*
X160262926Y-110510653D01*
X160262981Y-110502806D01*
X160262995Y-110502663D01*
X160262982Y-110502530D01*
X160263000Y-110500000D01*
X160263000Y-109138200D01*
X160273425Y-109145446D01*
X160558891Y-109270163D01*
X160863145Y-109337058D01*
X161174598Y-109343582D01*
X161481386Y-109289487D01*
X161771824Y-109176833D01*
X162034850Y-109009912D01*
X162260445Y-108795081D01*
X162440016Y-108540523D01*
X162451335Y-108515100D01*
X166100502Y-108515100D01*
X166247739Y-108743567D01*
X166464140Y-108967657D01*
X166719945Y-109145446D01*
X167005411Y-109270163D01*
X167309665Y-109337058D01*
X167621118Y-109343582D01*
X167927906Y-109289487D01*
X168218344Y-109176833D01*
X168481370Y-109009912D01*
X168706965Y-108795081D01*
X168886536Y-108540523D01*
X169013243Y-108255935D01*
X169082260Y-107952155D01*
X169087228Y-107596340D01*
X169026720Y-107290751D01*
X168908009Y-107002736D01*
X168735616Y-106743264D01*
X168516107Y-106522218D01*
X168257845Y-106348017D01*
X167970665Y-106227298D01*
X167665507Y-106164658D01*
X167353994Y-106162483D01*
X167047991Y-106220856D01*
X166759153Y-106337554D01*
X166498484Y-106508132D01*
X166275911Y-106726091D01*
X166099912Y-106983132D01*
X166097354Y-106989100D01*
X162452429Y-106989100D01*
X162289096Y-106743264D01*
X162069587Y-106522218D01*
X161811325Y-106348017D01*
X161524145Y-106227298D01*
X161218987Y-106164658D01*
X160907474Y-106162483D01*
X160601471Y-106220856D01*
X160312633Y-106337554D01*
X160051964Y-106508132D01*
X159829391Y-106726091D01*
X159653392Y-106983132D01*
X159650834Y-106989100D01*
X157649445Y-106989100D01*
X153770822Y-103110478D01*
X153716401Y-103065776D01*
X153713093Y-103063000D01*
X154291900Y-103063000D01*
X154362044Y-103056122D01*
X154432255Y-103049980D01*
X154436108Y-103048860D01*
X154440101Y-103048469D01*
X154507584Y-103028095D01*
X154575253Y-103008435D01*
X154578814Y-103006589D01*
X154582657Y-103005429D01*
X154644894Y-102972337D01*
X154707460Y-102939906D01*
X154710597Y-102937402D01*
X154714138Y-102935519D01*
X154768728Y-102890996D01*
X154823837Y-102847003D01*
X154829420Y-102841497D01*
X154829536Y-102841402D01*
X154829625Y-102841294D01*
X154831422Y-102839522D01*
X156707945Y-100963000D01*
X158808923Y-100963000D01*
X158808923Y-102282000D01*
X158821203Y-102406678D01*
X158857570Y-102526564D01*
X158916627Y-102637052D01*
X158996104Y-102733896D01*
X159092948Y-102813373D01*
X159203436Y-102872430D01*
X159323322Y-102908797D01*
X159448000Y-102921077D01*
X160972000Y-102921077D01*
X161096678Y-102908797D01*
X161216564Y-102872430D01*
X161327052Y-102813373D01*
X161423896Y-102733896D01*
X161503373Y-102637052D01*
X161562430Y-102526564D01*
X161598797Y-102406678D01*
X161606671Y-102326735D01*
X161649096Y-102392566D01*
X161839544Y-102589782D01*
X162064672Y-102746250D01*
X162315904Y-102856010D01*
X162583670Y-102914882D01*
X162857772Y-102920624D01*
X163127769Y-102873016D01*
X163383377Y-102773872D01*
X163614859Y-102626969D01*
X163813399Y-102437902D01*
X163971435Y-102213872D01*
X164018880Y-102107308D01*
X164040580Y-102162115D01*
X164189096Y-102392566D01*
X164379544Y-102589782D01*
X164604672Y-102746250D01*
X164855904Y-102856010D01*
X165123670Y-102914882D01*
X165397772Y-102920624D01*
X165667769Y-102873016D01*
X165923377Y-102773872D01*
X166154859Y-102626969D01*
X166353399Y-102437902D01*
X166511435Y-102213872D01*
X166622947Y-101963412D01*
X166683687Y-101696064D01*
X166688060Y-101382919D01*
X166634808Y-101113979D01*
X166530333Y-100860503D01*
X166378614Y-100632148D01*
X166185430Y-100437611D01*
X165958140Y-100284301D01*
X165879063Y-100251060D01*
X165923377Y-100233872D01*
X166154859Y-100086969D01*
X166353399Y-99897902D01*
X166511435Y-99673872D01*
X166622947Y-99423412D01*
X166683687Y-99156064D01*
X166688060Y-98842919D01*
X166634808Y-98573979D01*
X166530333Y-98320503D01*
X166378614Y-98092148D01*
X166185430Y-97897611D01*
X166053000Y-97808285D01*
X166053000Y-97090000D01*
X166046122Y-97019856D01*
X166039980Y-96949645D01*
X166038860Y-96945792D01*
X166038469Y-96941799D01*
X166018085Y-96874283D01*
X165998434Y-96806646D01*
X165996590Y-96803089D01*
X165995429Y-96799243D01*
X165962328Y-96736989D01*
X165929906Y-96674440D01*
X165927402Y-96671303D01*
X165925519Y-96667762D01*
X165881016Y-96613196D01*
X165837003Y-96558062D01*
X165831492Y-96552475D01*
X165831402Y-96552364D01*
X165831299Y-96552279D01*
X165829522Y-96550477D01*
X164539522Y-95260478D01*
X164485101Y-95215776D01*
X164431070Y-95170438D01*
X164427553Y-95168504D01*
X164424454Y-95165959D01*
X164362335Y-95132651D01*
X164300578Y-95098700D01*
X164296756Y-95097488D01*
X164293217Y-95095590D01*
X164225814Y-95074983D01*
X164158637Y-95053673D01*
X164154647Y-95053225D01*
X164150812Y-95052053D01*
X164080746Y-95044936D01*
X164010653Y-95037074D01*
X164002806Y-95037019D01*
X164002663Y-95037005D01*
X164002530Y-95037018D01*
X164000000Y-95037000D01*
X159230228Y-95037000D01*
X159230415Y-95036772D01*
X159244356Y-95015909D01*
X159336766Y-94843022D01*
X159346368Y-94819839D01*
X159403273Y-94632246D01*
X159408169Y-94607636D01*
X159427384Y-94412546D01*
X159428000Y-94400000D01*
X159428000Y-86909531D01*
X161340044Y-86909531D01*
X161366569Y-87200997D01*
X161449202Y-87481760D01*
X161584795Y-87741126D01*
X161768184Y-87969215D01*
X161992382Y-88157340D01*
X162050489Y-88189285D01*
X162009741Y-88210951D01*
X161782938Y-88395928D01*
X161596382Y-88621434D01*
X161457181Y-88878882D01*
X161370636Y-89158464D01*
X161340044Y-89449531D01*
X161366569Y-89740997D01*
X161449202Y-90021760D01*
X161584795Y-90281126D01*
X161768184Y-90509215D01*
X161792723Y-90529806D01*
X161739436Y-90545970D01*
X161628948Y-90605027D01*
X161532104Y-90684504D01*
X161452627Y-90781348D01*
X161393570Y-90891836D01*
X161357203Y-91011722D01*
X161344923Y-91136400D01*
X161344923Y-92863600D01*
X161357203Y-92988278D01*
X161393570Y-93108164D01*
X161452627Y-93218652D01*
X161532104Y-93315496D01*
X161628948Y-93394973D01*
X161739436Y-93454030D01*
X161859322Y-93490397D01*
X161984000Y-93502677D01*
X164016000Y-93502677D01*
X164140678Y-93490397D01*
X164260564Y-93454030D01*
X164371052Y-93394973D01*
X164467896Y-93315496D01*
X164547373Y-93218652D01*
X164606430Y-93108164D01*
X164642797Y-92988278D01*
X164655077Y-92863600D01*
X164655077Y-91136400D01*
X164644447Y-91028467D01*
X166090047Y-91028467D01*
X166119268Y-91349554D01*
X166210299Y-91658850D01*
X166359672Y-91944574D01*
X166561698Y-92195844D01*
X166808682Y-92403087D01*
X167091215Y-92558412D01*
X167398537Y-92655900D01*
X167718941Y-92691839D01*
X167742007Y-92692000D01*
X167757993Y-92692000D01*
X168078868Y-92660538D01*
X168387521Y-92567350D01*
X168672196Y-92415986D01*
X168922049Y-92212211D01*
X169127563Y-91963787D01*
X169280911Y-91680176D01*
X169376251Y-91372181D01*
X169409953Y-91051533D01*
X169380732Y-90730446D01*
X169289701Y-90421150D01*
X169140328Y-90135426D01*
X169085018Y-90066634D01*
X169121052Y-90047373D01*
X169217896Y-89967896D01*
X169297373Y-89871052D01*
X169356430Y-89760564D01*
X169392797Y-89640678D01*
X169405077Y-89516000D01*
X169405077Y-87484000D01*
X169392797Y-87359322D01*
X169356430Y-87239436D01*
X169297373Y-87128948D01*
X169217896Y-87032104D01*
X169121052Y-86952627D01*
X169010564Y-86893570D01*
X168890678Y-86857203D01*
X168766000Y-86844923D01*
X166734000Y-86844923D01*
X166609322Y-86857203D01*
X166489436Y-86893570D01*
X166378948Y-86952627D01*
X166282104Y-87032104D01*
X166202627Y-87128948D01*
X166143570Y-87239436D01*
X166107203Y-87359322D01*
X166094923Y-87484000D01*
X166094923Y-89516000D01*
X166107203Y-89640678D01*
X166143570Y-89760564D01*
X166202627Y-89871052D01*
X166282104Y-89967896D01*
X166378948Y-90047373D01*
X166413922Y-90066067D01*
X166372437Y-90116213D01*
X166219089Y-90399824D01*
X166123749Y-90707819D01*
X166090047Y-91028467D01*
X164644447Y-91028467D01*
X164642797Y-91011722D01*
X164606430Y-90891836D01*
X164547373Y-90781348D01*
X164467896Y-90684504D01*
X164371052Y-90605027D01*
X164260564Y-90545970D01*
X164209285Y-90530415D01*
X164217062Y-90524072D01*
X164403618Y-90298566D01*
X164542819Y-90041118D01*
X164629364Y-89761536D01*
X164659956Y-89470469D01*
X164633431Y-89179003D01*
X164550798Y-88898240D01*
X164415205Y-88638874D01*
X164231816Y-88410785D01*
X164007618Y-88222660D01*
X163949511Y-88190715D01*
X163990259Y-88169049D01*
X164217062Y-87984072D01*
X164403618Y-87758566D01*
X164542819Y-87501118D01*
X164629364Y-87221536D01*
X164659956Y-86930469D01*
X164633431Y-86639003D01*
X164550798Y-86358240D01*
X164415205Y-86098874D01*
X164231816Y-85870785D01*
X164007618Y-85682660D01*
X163751148Y-85541665D01*
X163472177Y-85453170D01*
X163181331Y-85420546D01*
X163160393Y-85420400D01*
X162839607Y-85420400D01*
X162548333Y-85448960D01*
X162268154Y-85533551D01*
X162009741Y-85670951D01*
X161782938Y-85855928D01*
X161596382Y-86081434D01*
X161457181Y-86338882D01*
X161370636Y-86618464D01*
X161340044Y-86909531D01*
X159428000Y-86909531D01*
X159428000Y-84506292D01*
X159445364Y-84329998D01*
X159489044Y-84186000D01*
X170314000Y-84186000D01*
X170314000Y-124814000D01*
X154728000Y-124814000D01*
X154728000Y-123665450D01*
X154763339Y-123586077D01*
X154877868Y-123081977D01*
X154886113Y-122491527D01*
X154785704Y-121984426D01*
X154728000Y-121844426D01*
X154728000Y-120400000D01*
X154718257Y-120351017D01*
X154690510Y-120309490D01*
X154648983Y-120281743D01*
X154600000Y-120272000D01*
X153157668Y-120272000D01*
X153033258Y-120219703D01*
X152526870Y-120115756D01*
X152009937Y-120112147D01*
X151502147Y-120209013D01*
X151346249Y-120272000D01*
X149900000Y-120272000D01*
X149851017Y-120281743D01*
X149809490Y-120309490D01*
X149781743Y-120351017D01*
X149772000Y-120400000D01*
X149772000Y-121839979D01*
X149725232Y-121949097D01*
X149617753Y-122454746D01*
X149610536Y-122971642D01*
X149703854Y-123480096D01*
X149772000Y-123652213D01*
X149772000Y-124814000D01*
X134186000Y-124814000D01*
X134186000Y-84186000D01*
X141410956Y-84186000D01*
X141454636Y-84329998D01*
G36*
X150914000Y-106065000D02*
X151073000Y-106224000D01*
X152074000Y-106224000D01*
X152074000Y-106204000D01*
X152326000Y-106204000D01*
X152326000Y-106224000D01*
X153327000Y-106224000D01*
X153485978Y-106065022D01*
X155484978Y-108064022D01*
X155326000Y-108223000D01*
X155326000Y-109324000D01*
X156327000Y-109324000D01*
X156486000Y-109165000D01*
X156486000Y-109065045D01*
X156910923Y-109489968D01*
X156910923Y-110037000D01*
X156486000Y-110037000D01*
X156486000Y-109735000D01*
X156327000Y-109576000D01*
X155326000Y-109576000D01*
X155326000Y-109596000D01*
X155074000Y-109596000D01*
X155074000Y-109576000D01*
X154073000Y-109576000D01*
X153914000Y-109735000D01*
X153914000Y-110037000D01*
X153486000Y-110037000D01*
X153486000Y-109735000D01*
X153327000Y-109576000D01*
X152326000Y-109576000D01*
X152326000Y-109596000D01*
X152074000Y-109596000D01*
X152074000Y-109576000D01*
X151073000Y-109576000D01*
X150914000Y-109735000D01*
X150914000Y-110216326D01*
X150868063Y-110252997D01*
X150862476Y-110258507D01*
X150862364Y-110258598D01*
X150862278Y-110258702D01*
X150860477Y-110260478D01*
X150260478Y-110860478D01*
X150215776Y-110914899D01*
X150170438Y-110968930D01*
X150168504Y-110972447D01*
X150165959Y-110975546D01*
X150132651Y-111037665D01*
X150098700Y-111099422D01*
X150097488Y-111103244D01*
X150095590Y-111106783D01*
X150074983Y-111174186D01*
X150053673Y-111241363D01*
X150053225Y-111245353D01*
X150052053Y-111249188D01*
X150044936Y-111319254D01*
X150037074Y-111389347D01*
X150037019Y-111397194D01*
X150037005Y-111397337D01*
X150037018Y-111397470D01*
X150037000Y-111400000D01*
X150037000Y-112264807D01*
X149987276Y-112314531D01*
X149920435Y-112074041D01*
X149671321Y-111956663D01*
X149404095Y-111890141D01*
X149129025Y-111877029D01*
X148856683Y-111917834D01*
X148597534Y-112010985D01*
X148479565Y-112074041D01*
X148412724Y-112314533D01*
X149200000Y-113101809D01*
X149214142Y-113087667D01*
X149392333Y-113265858D01*
X149378191Y-113280000D01*
X149392333Y-113294142D01*
X149214142Y-113472333D01*
X149200000Y-113458191D01*
X149185858Y-113472333D01*
X149007667Y-113294142D01*
X149021809Y-113280000D01*
X148234533Y-112492724D01*
X147994041Y-112559565D01*
X147876663Y-112808679D01*
X147810141Y-113075905D01*
X147797029Y-113350975D01*
X147837834Y-113623317D01*
X147915361Y-113839000D01*
X145515216Y-113839000D01*
X144914077Y-113237861D01*
X144914077Y-112414077D01*
X146250000Y-112414077D01*
X146374678Y-112401797D01*
X146494564Y-112365430D01*
X146605052Y-112306373D01*
X146701896Y-112226896D01*
X146781373Y-112130052D01*
X146840430Y-112019564D01*
X146876797Y-111899678D01*
X146889077Y-111775000D01*
X146889077Y-111225000D01*
X146876797Y-111100322D01*
X146876699Y-111100000D01*
X146876797Y-111099678D01*
X146889077Y-110975000D01*
X146889077Y-110425000D01*
X146876797Y-110300322D01*
X146876699Y-110300000D01*
X146876797Y-110299678D01*
X146889077Y-110175000D01*
X146889077Y-109625000D01*
X146876797Y-109500322D01*
X146874825Y-109493821D01*
X146886000Y-109437641D01*
X146886000Y-109385000D01*
X146793344Y-109292344D01*
X146781373Y-109269948D01*
X146701896Y-109173104D01*
X146612818Y-109100000D01*
X146701896Y-109026896D01*
X146781373Y-108930052D01*
X146793344Y-108907656D01*
X146886000Y-108815000D01*
X146886000Y-108762359D01*
X146874825Y-108706179D01*
X146876797Y-108699678D01*
X146882934Y-108637360D01*
X150914000Y-108637360D01*
X150914000Y-109165000D01*
X151073000Y-109324000D01*
X152074000Y-109324000D01*
X152074000Y-108223000D01*
X152326000Y-108223000D01*
X152326000Y-109324000D01*
X153327000Y-109324000D01*
X153486000Y-109165000D01*
X153486000Y-108637360D01*
X153914000Y-108637360D01*
X153914000Y-109165000D01*
X154073000Y-109324000D01*
X155074000Y-109324000D01*
X155074000Y-108223000D01*
X154915000Y-108064000D01*
X154487359Y-108064000D01*
X154364485Y-108088441D01*
X154248741Y-108136384D01*
X154144573Y-108205987D01*
X154055986Y-108294574D01*
X153986384Y-108398742D01*
X153938441Y-108514486D01*
X153914000Y-108637360D01*
X153486000Y-108637360D01*
X153461559Y-108514486D01*
X153413616Y-108398742D01*
X153344014Y-108294574D01*
X153255427Y-108205987D01*
X153151259Y-108136384D01*
X153035515Y-108088441D01*
X152912641Y-108064000D01*
X152485000Y-108064000D01*
X152326000Y-108223000D01*
X152074000Y-108223000D01*
X151915000Y-108064000D01*
X151487359Y-108064000D01*
X151364485Y-108088441D01*
X151248741Y-108136384D01*
X151144573Y-108205987D01*
X151055986Y-108294574D01*
X150986384Y-108398742D01*
X150938441Y-108514486D01*
X150914000Y-108637360D01*
X146882934Y-108637360D01*
X146889077Y-108575000D01*
X146889077Y-108025000D01*
X146876797Y-107900322D01*
X146874825Y-107893821D01*
X146886000Y-107837641D01*
X146886000Y-107785000D01*
X146793344Y-107692344D01*
X146781373Y-107669948D01*
X146701896Y-107573104D01*
X146612818Y-107500000D01*
X146701896Y-107426896D01*
X146781373Y-107330052D01*
X146793344Y-107307656D01*
X146886000Y-107215000D01*
X146886000Y-107162359D01*
X146874825Y-107106179D01*
X146876797Y-107099678D01*
X146889077Y-106975000D01*
X146889077Y-106635000D01*
X150914000Y-106635000D01*
X150914000Y-107162640D01*
X150938441Y-107285514D01*
X150986384Y-107401258D01*
X151055986Y-107505426D01*
X151144573Y-107594013D01*
X151248741Y-107663616D01*
X151364485Y-107711559D01*
X151487359Y-107736000D01*
X151915000Y-107736000D01*
X152074000Y-107577000D01*
X152074000Y-106476000D01*
X152326000Y-106476000D01*
X152326000Y-107577000D01*
X152485000Y-107736000D01*
X152912641Y-107736000D01*
X153035515Y-107711559D01*
X153151259Y-107663616D01*
X153255427Y-107594013D01*
X153344014Y-107505426D01*
X153413616Y-107401258D01*
X153461559Y-107285514D01*
X153486000Y-107162640D01*
X153486000Y-106635000D01*
X153327000Y-106476000D01*
X152326000Y-106476000D01*
X152074000Y-106476000D01*
X151073000Y-106476000D01*
X150914000Y-106635000D01*
X146889077Y-106635000D01*
X146889077Y-106425000D01*
X146876797Y-106300322D01*
X146876699Y-106300000D01*
X146876797Y-106299678D01*
X146889077Y-106175000D01*
X146889077Y-105763000D01*
X150914000Y-105763000D01*
X150914000Y-106065000D01*
X150914000Y-106065000D01*
G37*
X150914000Y-106065000D02*
X151073000Y-106224000D01*
X152074000Y-106224000D01*
X152074000Y-106204000D01*
X152326000Y-106204000D01*
X152326000Y-106224000D01*
X153327000Y-106224000D01*
X153485978Y-106065022D01*
X155484978Y-108064022D01*
X155326000Y-108223000D01*
X155326000Y-109324000D01*
X156327000Y-109324000D01*
X156486000Y-109165000D01*
X156486000Y-109065045D01*
X156910923Y-109489968D01*
X156910923Y-110037000D01*
X156486000Y-110037000D01*
X156486000Y-109735000D01*
X156327000Y-109576000D01*
X155326000Y-109576000D01*
X155326000Y-109596000D01*
X155074000Y-109596000D01*
X155074000Y-109576000D01*
X154073000Y-109576000D01*
X153914000Y-109735000D01*
X153914000Y-110037000D01*
X153486000Y-110037000D01*
X153486000Y-109735000D01*
X153327000Y-109576000D01*
X152326000Y-109576000D01*
X152326000Y-109596000D01*
X152074000Y-109596000D01*
X152074000Y-109576000D01*
X151073000Y-109576000D01*
X150914000Y-109735000D01*
X150914000Y-110216326D01*
X150868063Y-110252997D01*
X150862476Y-110258507D01*
X150862364Y-110258598D01*
X150862278Y-110258702D01*
X150860477Y-110260478D01*
X150260478Y-110860478D01*
X150215776Y-110914899D01*
X150170438Y-110968930D01*
X150168504Y-110972447D01*
X150165959Y-110975546D01*
X150132651Y-111037665D01*
X150098700Y-111099422D01*
X150097488Y-111103244D01*
X150095590Y-111106783D01*
X150074983Y-111174186D01*
X150053673Y-111241363D01*
X150053225Y-111245353D01*
X150052053Y-111249188D01*
X150044936Y-111319254D01*
X150037074Y-111389347D01*
X150037019Y-111397194D01*
X150037005Y-111397337D01*
X150037018Y-111397470D01*
X150037000Y-111400000D01*
X150037000Y-112264807D01*
X149987276Y-112314531D01*
X149920435Y-112074041D01*
X149671321Y-111956663D01*
X149404095Y-111890141D01*
X149129025Y-111877029D01*
X148856683Y-111917834D01*
X148597534Y-112010985D01*
X148479565Y-112074041D01*
X148412724Y-112314533D01*
X149200000Y-113101809D01*
X149214142Y-113087667D01*
X149392333Y-113265858D01*
X149378191Y-113280000D01*
X149392333Y-113294142D01*
X149214142Y-113472333D01*
X149200000Y-113458191D01*
X149185858Y-113472333D01*
X149007667Y-113294142D01*
X149021809Y-113280000D01*
X148234533Y-112492724D01*
X147994041Y-112559565D01*
X147876663Y-112808679D01*
X147810141Y-113075905D01*
X147797029Y-113350975D01*
X147837834Y-113623317D01*
X147915361Y-113839000D01*
X145515216Y-113839000D01*
X144914077Y-113237861D01*
X144914077Y-112414077D01*
X146250000Y-112414077D01*
X146374678Y-112401797D01*
X146494564Y-112365430D01*
X146605052Y-112306373D01*
X146701896Y-112226896D01*
X146781373Y-112130052D01*
X146840430Y-112019564D01*
X146876797Y-111899678D01*
X146889077Y-111775000D01*
X146889077Y-111225000D01*
X146876797Y-111100322D01*
X146876699Y-111100000D01*
X146876797Y-111099678D01*
X146889077Y-110975000D01*
X146889077Y-110425000D01*
X146876797Y-110300322D01*
X146876699Y-110300000D01*
X146876797Y-110299678D01*
X146889077Y-110175000D01*
X146889077Y-109625000D01*
X146876797Y-109500322D01*
X146874825Y-109493821D01*
X146886000Y-109437641D01*
X146886000Y-109385000D01*
X146793344Y-109292344D01*
X146781373Y-109269948D01*
X146701896Y-109173104D01*
X146612818Y-109100000D01*
X146701896Y-109026896D01*
X146781373Y-108930052D01*
X146793344Y-108907656D01*
X146886000Y-108815000D01*
X146886000Y-108762359D01*
X146874825Y-108706179D01*
X146876797Y-108699678D01*
X146882934Y-108637360D01*
X150914000Y-108637360D01*
X150914000Y-109165000D01*
X151073000Y-109324000D01*
X152074000Y-109324000D01*
X152074000Y-108223000D01*
X152326000Y-108223000D01*
X152326000Y-109324000D01*
X153327000Y-109324000D01*
X153486000Y-109165000D01*
X153486000Y-108637360D01*
X153914000Y-108637360D01*
X153914000Y-109165000D01*
X154073000Y-109324000D01*
X155074000Y-109324000D01*
X155074000Y-108223000D01*
X154915000Y-108064000D01*
X154487359Y-108064000D01*
X154364485Y-108088441D01*
X154248741Y-108136384D01*
X154144573Y-108205987D01*
X154055986Y-108294574D01*
X153986384Y-108398742D01*
X153938441Y-108514486D01*
X153914000Y-108637360D01*
X153486000Y-108637360D01*
X153461559Y-108514486D01*
X153413616Y-108398742D01*
X153344014Y-108294574D01*
X153255427Y-108205987D01*
X153151259Y-108136384D01*
X153035515Y-108088441D01*
X152912641Y-108064000D01*
X152485000Y-108064000D01*
X152326000Y-108223000D01*
X152074000Y-108223000D01*
X151915000Y-108064000D01*
X151487359Y-108064000D01*
X151364485Y-108088441D01*
X151248741Y-108136384D01*
X151144573Y-108205987D01*
X151055986Y-108294574D01*
X150986384Y-108398742D01*
X150938441Y-108514486D01*
X150914000Y-108637360D01*
X146882934Y-108637360D01*
X146889077Y-108575000D01*
X146889077Y-108025000D01*
X146876797Y-107900322D01*
X146874825Y-107893821D01*
X146886000Y-107837641D01*
X146886000Y-107785000D01*
X146793344Y-107692344D01*
X146781373Y-107669948D01*
X146701896Y-107573104D01*
X146612818Y-107500000D01*
X146701896Y-107426896D01*
X146781373Y-107330052D01*
X146793344Y-107307656D01*
X146886000Y-107215000D01*
X146886000Y-107162359D01*
X146874825Y-107106179D01*
X146876797Y-107099678D01*
X146889077Y-106975000D01*
X146889077Y-106635000D01*
X150914000Y-106635000D01*
X150914000Y-107162640D01*
X150938441Y-107285514D01*
X150986384Y-107401258D01*
X151055986Y-107505426D01*
X151144573Y-107594013D01*
X151248741Y-107663616D01*
X151364485Y-107711559D01*
X151487359Y-107736000D01*
X151915000Y-107736000D01*
X152074000Y-107577000D01*
X152074000Y-106476000D01*
X152326000Y-106476000D01*
X152326000Y-107577000D01*
X152485000Y-107736000D01*
X152912641Y-107736000D01*
X153035515Y-107711559D01*
X153151259Y-107663616D01*
X153255427Y-107594013D01*
X153344014Y-107505426D01*
X153413616Y-107401258D01*
X153461559Y-107285514D01*
X153486000Y-107162640D01*
X153486000Y-106635000D01*
X153327000Y-106476000D01*
X152326000Y-106476000D01*
X152074000Y-106476000D01*
X151073000Y-106476000D01*
X150914000Y-106635000D01*
X146889077Y-106635000D01*
X146889077Y-106425000D01*
X146876797Y-106300322D01*
X146876699Y-106300000D01*
X146876797Y-106299678D01*
X146889077Y-106175000D01*
X146889077Y-105763000D01*
X150914000Y-105763000D01*
X150914000Y-106065000D01*
G36*
X150910923Y-98200000D02*
X150923203Y-98324678D01*
X150959570Y-98444564D01*
X151018627Y-98555052D01*
X151098104Y-98651896D01*
X151194948Y-98731373D01*
X151305436Y-98790430D01*
X151336750Y-98799929D01*
X151248741Y-98836384D01*
X151144573Y-98905987D01*
X151055986Y-98994574D01*
X150986384Y-99098742D01*
X150938441Y-99214486D01*
X150914000Y-99337360D01*
X150914000Y-99865000D01*
X151073000Y-100024000D01*
X152074000Y-100024000D01*
X152074000Y-100004000D01*
X152326000Y-100004000D01*
X152326000Y-100024000D01*
X153327000Y-100024000D01*
X153486000Y-99865000D01*
X153486000Y-99337360D01*
X153461559Y-99214486D01*
X153413616Y-99098742D01*
X153344014Y-98994574D01*
X153255427Y-98905987D01*
X153151259Y-98836384D01*
X153063250Y-98799929D01*
X153094564Y-98790430D01*
X153205052Y-98731373D01*
X153301896Y-98651896D01*
X153381373Y-98555052D01*
X153440430Y-98444564D01*
X153476797Y-98324678D01*
X153487797Y-98213000D01*
X159171581Y-98213000D01*
X159004041Y-98259565D01*
X158886663Y-98508679D01*
X158820141Y-98775905D01*
X158807029Y-99050975D01*
X158847834Y-99323317D01*
X158888697Y-99437000D01*
X156391900Y-99437000D01*
X156321756Y-99443878D01*
X156251545Y-99450020D01*
X156247692Y-99451140D01*
X156243699Y-99451531D01*
X156176183Y-99471915D01*
X156108546Y-99491566D01*
X156104989Y-99493410D01*
X156101143Y-99494571D01*
X156038889Y-99527672D01*
X155976340Y-99560094D01*
X155973203Y-99562598D01*
X155969662Y-99564481D01*
X155915096Y-99608984D01*
X155859962Y-99652997D01*
X155854375Y-99658508D01*
X155854264Y-99658598D01*
X155854179Y-99658701D01*
X155852377Y-99660478D01*
X153975856Y-101537000D01*
X151200000Y-101537000D01*
X151129856Y-101543878D01*
X151059645Y-101550020D01*
X151055792Y-101551140D01*
X151051799Y-101551531D01*
X150984283Y-101571915D01*
X150916646Y-101591566D01*
X150913089Y-101593410D01*
X150909243Y-101594571D01*
X150846989Y-101627672D01*
X150784440Y-101660094D01*
X150781303Y-101662598D01*
X150777762Y-101664481D01*
X150723196Y-101708984D01*
X150668062Y-101752997D01*
X150662475Y-101758508D01*
X150662364Y-101758598D01*
X150662279Y-101758701D01*
X150660477Y-101760478D01*
X150260478Y-102160478D01*
X150240996Y-102184196D01*
X150095430Y-102037611D01*
X149868140Y-101884301D01*
X149763000Y-101840104D01*
X149763000Y-101422756D01*
X149869564Y-101390430D01*
X149980052Y-101331373D01*
X150076896Y-101251896D01*
X150156373Y-101155052D01*
X150215430Y-101044564D01*
X150251797Y-100924678D01*
X150264077Y-100800000D01*
X150264077Y-100435000D01*
X150914000Y-100435000D01*
X150914000Y-100962640D01*
X150938441Y-101085514D01*
X150986384Y-101201258D01*
X151055986Y-101305426D01*
X151144573Y-101394013D01*
X151248741Y-101463616D01*
X151364485Y-101511559D01*
X151487359Y-101536000D01*
X151915000Y-101536000D01*
X152074000Y-101377000D01*
X152074000Y-100276000D01*
X152326000Y-100276000D01*
X152326000Y-101377000D01*
X152485000Y-101536000D01*
X152912641Y-101536000D01*
X153035515Y-101511559D01*
X153151259Y-101463616D01*
X153255427Y-101394013D01*
X153344014Y-101305426D01*
X153413616Y-101201258D01*
X153461559Y-101085514D01*
X153486000Y-100962640D01*
X153486000Y-100435000D01*
X153327000Y-100276000D01*
X152326000Y-100276000D01*
X152074000Y-100276000D01*
X151073000Y-100276000D01*
X150914000Y-100435000D01*
X150264077Y-100435000D01*
X150264077Y-99300000D01*
X150251797Y-99175322D01*
X150215430Y-99055436D01*
X150156373Y-98944948D01*
X150076896Y-98848104D01*
X150018281Y-98800000D01*
X150076896Y-98751896D01*
X150156373Y-98655052D01*
X150215430Y-98544564D01*
X150251797Y-98424678D01*
X150264077Y-98300000D01*
X150264077Y-97364967D01*
X150910923Y-96718122D01*
X150910923Y-98200000D01*
X150910923Y-98200000D01*
G37*
X150910923Y-98200000D02*
X150923203Y-98324678D01*
X150959570Y-98444564D01*
X151018627Y-98555052D01*
X151098104Y-98651896D01*
X151194948Y-98731373D01*
X151305436Y-98790430D01*
X151336750Y-98799929D01*
X151248741Y-98836384D01*
X151144573Y-98905987D01*
X151055986Y-98994574D01*
X150986384Y-99098742D01*
X150938441Y-99214486D01*
X150914000Y-99337360D01*
X150914000Y-99865000D01*
X151073000Y-100024000D01*
X152074000Y-100024000D01*
X152074000Y-100004000D01*
X152326000Y-100004000D01*
X152326000Y-100024000D01*
X153327000Y-100024000D01*
X153486000Y-99865000D01*
X153486000Y-99337360D01*
X153461559Y-99214486D01*
X153413616Y-99098742D01*
X153344014Y-98994574D01*
X153255427Y-98905987D01*
X153151259Y-98836384D01*
X153063250Y-98799929D01*
X153094564Y-98790430D01*
X153205052Y-98731373D01*
X153301896Y-98651896D01*
X153381373Y-98555052D01*
X153440430Y-98444564D01*
X153476797Y-98324678D01*
X153487797Y-98213000D01*
X159171581Y-98213000D01*
X159004041Y-98259565D01*
X158886663Y-98508679D01*
X158820141Y-98775905D01*
X158807029Y-99050975D01*
X158847834Y-99323317D01*
X158888697Y-99437000D01*
X156391900Y-99437000D01*
X156321756Y-99443878D01*
X156251545Y-99450020D01*
X156247692Y-99451140D01*
X156243699Y-99451531D01*
X156176183Y-99471915D01*
X156108546Y-99491566D01*
X156104989Y-99493410D01*
X156101143Y-99494571D01*
X156038889Y-99527672D01*
X155976340Y-99560094D01*
X155973203Y-99562598D01*
X155969662Y-99564481D01*
X155915096Y-99608984D01*
X155859962Y-99652997D01*
X155854375Y-99658508D01*
X155854264Y-99658598D01*
X155854179Y-99658701D01*
X155852377Y-99660478D01*
X153975856Y-101537000D01*
X151200000Y-101537000D01*
X151129856Y-101543878D01*
X151059645Y-101550020D01*
X151055792Y-101551140D01*
X151051799Y-101551531D01*
X150984283Y-101571915D01*
X150916646Y-101591566D01*
X150913089Y-101593410D01*
X150909243Y-101594571D01*
X150846989Y-101627672D01*
X150784440Y-101660094D01*
X150781303Y-101662598D01*
X150777762Y-101664481D01*
X150723196Y-101708984D01*
X150668062Y-101752997D01*
X150662475Y-101758508D01*
X150662364Y-101758598D01*
X150662279Y-101758701D01*
X150660477Y-101760478D01*
X150260478Y-102160478D01*
X150240996Y-102184196D01*
X150095430Y-102037611D01*
X149868140Y-101884301D01*
X149763000Y-101840104D01*
X149763000Y-101422756D01*
X149869564Y-101390430D01*
X149980052Y-101331373D01*
X150076896Y-101251896D01*
X150156373Y-101155052D01*
X150215430Y-101044564D01*
X150251797Y-100924678D01*
X150264077Y-100800000D01*
X150264077Y-100435000D01*
X150914000Y-100435000D01*
X150914000Y-100962640D01*
X150938441Y-101085514D01*
X150986384Y-101201258D01*
X151055986Y-101305426D01*
X151144573Y-101394013D01*
X151248741Y-101463616D01*
X151364485Y-101511559D01*
X151487359Y-101536000D01*
X151915000Y-101536000D01*
X152074000Y-101377000D01*
X152074000Y-100276000D01*
X152326000Y-100276000D01*
X152326000Y-101377000D01*
X152485000Y-101536000D01*
X152912641Y-101536000D01*
X153035515Y-101511559D01*
X153151259Y-101463616D01*
X153255427Y-101394013D01*
X153344014Y-101305426D01*
X153413616Y-101201258D01*
X153461559Y-101085514D01*
X153486000Y-100962640D01*
X153486000Y-100435000D01*
X153327000Y-100276000D01*
X152326000Y-100276000D01*
X152074000Y-100276000D01*
X151073000Y-100276000D01*
X150914000Y-100435000D01*
X150264077Y-100435000D01*
X150264077Y-99300000D01*
X150251797Y-99175322D01*
X150215430Y-99055436D01*
X150156373Y-98944948D01*
X150076896Y-98848104D01*
X150018281Y-98800000D01*
X150076896Y-98751896D01*
X150156373Y-98655052D01*
X150215430Y-98544564D01*
X150251797Y-98424678D01*
X150264077Y-98300000D01*
X150264077Y-97364967D01*
X150910923Y-96718122D01*
X150910923Y-98200000D01*
G36*
X144748203Y-98424678D02*
X144784570Y-98544564D01*
X144843627Y-98655052D01*
X144923104Y-98751896D01*
X144980290Y-98798826D01*
X144969573Y-98805987D01*
X144880986Y-98894574D01*
X144811384Y-98998742D01*
X144763441Y-99114486D01*
X144739000Y-99237360D01*
X144739000Y-99765000D01*
X144898000Y-99924000D01*
X145874000Y-99924000D01*
X145874000Y-99904000D01*
X146126000Y-99904000D01*
X146126000Y-99924000D01*
X147102000Y-99924000D01*
X147261000Y-99765000D01*
X147261000Y-99237360D01*
X147236559Y-99114486D01*
X147188616Y-98998742D01*
X147119014Y-98894574D01*
X147030427Y-98805987D01*
X147019710Y-98798826D01*
X147076896Y-98751896D01*
X147156373Y-98655052D01*
X147215430Y-98544564D01*
X147251797Y-98424678D01*
X147262797Y-98313000D01*
X147737203Y-98313000D01*
X147748203Y-98424678D01*
X147784570Y-98544564D01*
X147843627Y-98655052D01*
X147923104Y-98751896D01*
X147981719Y-98800000D01*
X147923104Y-98848104D01*
X147843627Y-98944948D01*
X147784570Y-99055436D01*
X147748203Y-99175322D01*
X147735923Y-99300000D01*
X147735923Y-100800000D01*
X147748203Y-100924678D01*
X147784570Y-101044564D01*
X147840398Y-101149011D01*
X147156709Y-101149011D01*
X147188616Y-101101258D01*
X147236559Y-100985514D01*
X147261000Y-100862640D01*
X147261000Y-100335000D01*
X147102000Y-100176000D01*
X146126000Y-100176000D01*
X146126000Y-100196000D01*
X145874000Y-100196000D01*
X145874000Y-100176000D01*
X144898000Y-100176000D01*
X144739000Y-100335000D01*
X144739000Y-100862640D01*
X144763441Y-100985514D01*
X144811384Y-101101258D01*
X144843291Y-101149011D01*
X144159602Y-101149011D01*
X144215430Y-101044564D01*
X144251797Y-100924678D01*
X144264077Y-100800000D01*
X144264077Y-99300000D01*
X144251797Y-99175322D01*
X144215430Y-99055436D01*
X144156373Y-98944948D01*
X144076896Y-98848104D01*
X144018281Y-98800000D01*
X144076896Y-98751896D01*
X144156373Y-98655052D01*
X144215430Y-98544564D01*
X144251797Y-98424678D01*
X144262797Y-98313000D01*
X144737203Y-98313000D01*
X144748203Y-98424678D01*
X144748203Y-98424678D01*
G37*
X144748203Y-98424678D02*
X144784570Y-98544564D01*
X144843627Y-98655052D01*
X144923104Y-98751896D01*
X144980290Y-98798826D01*
X144969573Y-98805987D01*
X144880986Y-98894574D01*
X144811384Y-98998742D01*
X144763441Y-99114486D01*
X144739000Y-99237360D01*
X144739000Y-99765000D01*
X144898000Y-99924000D01*
X145874000Y-99924000D01*
X145874000Y-99904000D01*
X146126000Y-99904000D01*
X146126000Y-99924000D01*
X147102000Y-99924000D01*
X147261000Y-99765000D01*
X147261000Y-99237360D01*
X147236559Y-99114486D01*
X147188616Y-98998742D01*
X147119014Y-98894574D01*
X147030427Y-98805987D01*
X147019710Y-98798826D01*
X147076896Y-98751896D01*
X147156373Y-98655052D01*
X147215430Y-98544564D01*
X147251797Y-98424678D01*
X147262797Y-98313000D01*
X147737203Y-98313000D01*
X147748203Y-98424678D01*
X147784570Y-98544564D01*
X147843627Y-98655052D01*
X147923104Y-98751896D01*
X147981719Y-98800000D01*
X147923104Y-98848104D01*
X147843627Y-98944948D01*
X147784570Y-99055436D01*
X147748203Y-99175322D01*
X147735923Y-99300000D01*
X147735923Y-100800000D01*
X147748203Y-100924678D01*
X147784570Y-101044564D01*
X147840398Y-101149011D01*
X147156709Y-101149011D01*
X147188616Y-101101258D01*
X147236559Y-100985514D01*
X147261000Y-100862640D01*
X147261000Y-100335000D01*
X147102000Y-100176000D01*
X146126000Y-100176000D01*
X146126000Y-100196000D01*
X145874000Y-100196000D01*
X145874000Y-100176000D01*
X144898000Y-100176000D01*
X144739000Y-100335000D01*
X144739000Y-100862640D01*
X144763441Y-100985514D01*
X144811384Y-101101258D01*
X144843291Y-101149011D01*
X144159602Y-101149011D01*
X144215430Y-101044564D01*
X144251797Y-100924678D01*
X144264077Y-100800000D01*
X144264077Y-99300000D01*
X144251797Y-99175322D01*
X144215430Y-99055436D01*
X144156373Y-98944948D01*
X144076896Y-98848104D01*
X144018281Y-98800000D01*
X144076896Y-98751896D01*
X144156373Y-98655052D01*
X144215430Y-98544564D01*
X144251797Y-98424678D01*
X144262797Y-98313000D01*
X144737203Y-98313000D01*
X144748203Y-98424678D01*
G36*
X160402333Y-98965858D02*
X160388191Y-98980000D01*
X160402333Y-98994142D01*
X160224142Y-99172333D01*
X160210000Y-99158191D01*
X160195858Y-99172333D01*
X160017667Y-98994142D01*
X160031809Y-98980000D01*
X160017667Y-98965858D01*
X160195858Y-98787667D01*
X160210000Y-98801809D01*
X160224142Y-98787667D01*
X160402333Y-98965858D01*
X160402333Y-98965858D01*
G37*
X160402333Y-98965858D02*
X160388191Y-98980000D01*
X160402333Y-98994142D01*
X160224142Y-99172333D01*
X160210000Y-99158191D01*
X160195858Y-99172333D01*
X160017667Y-98994142D01*
X160031809Y-98980000D01*
X160017667Y-98965858D01*
X160195858Y-98787667D01*
X160210000Y-98801809D01*
X160224142Y-98787667D01*
X160402333Y-98965858D01*
M02*
