M48
INCH,TZ
T1C0.024
T2C0.032
T3C0.032
T4C0.039
T5C0.040
T6C0.043
T7C0.050
T8C0.118
%
G90
G05
T1
X5.458Y-4.0256
X5.4803Y-4.1929
X5.6444Y-4.3478
T2
X5.3685Y-3.874
X5.4685Y-3.874
T3
X6.4665Y-4.5858
X6.4665Y-4.6858
X5.874Y-4.0598
X5.874Y-4.4598
T4
X5.4528Y-3.4236
X5.4528Y-3.5236
X5.4528Y-3.6236
T5
X6.6043Y-3.4843
X6.6043Y-3.5843
X6.3075Y-3.8969
X6.3075Y-3.9969
X6.4075Y-3.8969
X6.4075Y-3.9969
X6.5075Y-3.8969
X6.5075Y-3.9969
X6.4173Y-3.422
X6.4173Y-3.522
X6.4173Y-3.622
T6
X5.5512Y-4.6358
X5.7087Y-4.6358
X5.8661Y-4.6358
X6.0236Y-4.6358
T7
X6.3406Y-4.2422
X6.3425Y-4.4192
X6.5944Y-4.2422
X6.5964Y-4.4192
T8
X5.9941Y-4.8327
T0
M30
