M48
INCH,TZ
T1C0.024
T2C0.031
T3C0.032
T4C0.032
T5C0.039
T6C0.040
T7C0.043
T8C0.050
T9C0.120
%
G90
G05
T1
X5.4882Y-4.3661
X5.6339Y-4.2402
X5.6654Y-4.1929
X5.7362Y-4.4478
T2
X6.3756Y-4.7835
X6.4256Y-4.7835
X6.4756Y-4.7835
X6.5256Y-4.7835
T3
X5.4291Y-3.8071
X5.4291Y-3.9071
T4
X5.9055Y-3.9969
X5.9055Y-4.3969
T5
X5.4528Y-3.4236
X5.4528Y-3.5236
X5.4528Y-3.6236
T6
X6.3075Y-3.9165
X6.3075Y-4.0165
X6.4075Y-3.9165
X6.4075Y-4.0165
X6.5075Y-3.9165
X6.5075Y-4.0165
X6.6043Y-3.4843
X6.6043Y-3.5843
X6.4173Y-3.422
X6.4173Y-3.522
X6.4173Y-3.622
T7
X5.876Y-4.5472
X5.9154Y-4.626
X5.9547Y-4.5472
X5.9941Y-4.626
X6.0335Y-4.5472
X6.0728Y-4.626
X6.1122Y-4.5472
T8
X6.3308Y-4.2422
X6.3327Y-4.4192
X6.5846Y-4.2422
X6.5866Y-4.4192
T9
X5.9941Y-4.8228
T0
M30
