G04 #@! TF.GenerationSoftware,KiCad,Pcbnew,(2017-09-19 revision dddaa7e69)-makepkg*
G04 #@! TF.CreationDate,2017-11-10T03:38:53+01:00*
G04 #@! TF.ProjectId,EPSON_STYLUS_DX4050_INK_CHIP_RESETTER,4550534F4E5F5354594C55535F445834,1*
G04 #@! TF.SameCoordinates,Original*
G04 #@! TF.FileFunction,Copper,L1,Top,Signal*
G04 #@! TF.FilePolarity,Positive*
%FSLAX46Y46*%
G04 Gerber Fmt 4.6, Leading zero omitted, Abs format (unit mm)*
G04 Created by KiCad (PCBNEW (2017-09-19 revision dddaa7e69)-makepkg) date 11/10/17 03:38:53*
%MOMM*%
%LPD*%
G01*
G04 APERTURE LIST*
%ADD10C,1.905000*%
%ADD11C,1.524000*%
%ADD12R,2.032000X2.032000*%
%ADD13O,2.032000X2.032000*%
%ADD14R,2.032000X1.727200*%
%ADD15O,2.032000X1.727200*%
%ADD16O,2.499360X1.501140*%
%ADD17R,1.250000X1.500000*%
%ADD18C,1.501140*%
%ADD19R,1.524000X1.524000*%
%ADD20C,1.700000*%
%ADD21O,1.000000X1.900000*%
%ADD22R,1.000000X1.900000*%
%ADD23R,1.600000X0.550000*%
%ADD24R,0.550000X1.600000*%
%ADD25R,1.300000X1.500000*%
%ADD26R,1.500000X1.300000*%
%ADD27C,4.064000*%
%ADD28C,0.800000*%
%ADD29C,0.250000*%
%ADD30C,0.254000*%
%ADD31C,0.256000*%
G04 APERTURE END LIST*
D10*
X167248660Y-107752100D03*
X160802140Y-107752100D03*
X167299460Y-112247900D03*
X160850400Y-112247900D03*
D11*
X150000000Y-101520000D03*
X150000000Y-111680000D03*
D12*
X167750000Y-88500000D03*
D13*
X167750000Y-91040000D03*
D14*
X163000000Y-92000000D03*
D15*
X163000000Y-89460000D03*
X163000000Y-86920000D03*
D16*
X138500000Y-89500000D03*
X138500000Y-86960000D03*
X138500000Y-92040000D03*
D17*
X137200000Y-119350000D03*
X137200000Y-116850000D03*
X145600000Y-99250000D03*
X145600000Y-96750000D03*
X142900000Y-96750000D03*
X142900000Y-99250000D03*
D18*
X137900000Y-99240000D03*
X137900000Y-96700000D03*
D19*
X160210000Y-102020000D03*
D11*
X160210000Y-99480000D03*
X162750000Y-102020000D03*
X162750000Y-99480000D03*
X165290000Y-102020000D03*
X165290000Y-99480000D03*
D20*
X155250000Y-115500000D03*
X153250000Y-115500000D03*
X151250000Y-115500000D03*
X149250000Y-115500000D03*
X154250000Y-117500000D03*
X152250000Y-117500000D03*
X150250000Y-117500000D03*
D21*
X165750000Y-121500000D03*
D22*
X164480000Y-121500000D03*
D21*
X163210000Y-121500000D03*
X161940000Y-121500000D03*
D23*
X145750000Y-111700000D03*
X145750000Y-110900000D03*
X145750000Y-110100000D03*
X145750000Y-109300000D03*
X145750000Y-108500000D03*
X145750000Y-107700000D03*
X145750000Y-106900000D03*
X145750000Y-106100000D03*
D24*
X144300000Y-104650000D03*
X143500000Y-104650000D03*
X142700000Y-104650000D03*
X141900000Y-104650000D03*
X141100000Y-104650000D03*
X140300000Y-104650000D03*
X139500000Y-104650000D03*
X138700000Y-104650000D03*
D23*
X137250000Y-106100000D03*
X137250000Y-106900000D03*
X137250000Y-107700000D03*
X137250000Y-108500000D03*
X137250000Y-109300000D03*
X137250000Y-110100000D03*
X137250000Y-110900000D03*
X137250000Y-111700000D03*
D24*
X138700000Y-113150000D03*
X139500000Y-113150000D03*
X140300000Y-113150000D03*
X141100000Y-113150000D03*
X141900000Y-113150000D03*
X142700000Y-113150000D03*
X143500000Y-113150000D03*
X144300000Y-113150000D03*
D25*
X152800000Y-108150000D03*
X152800000Y-110850000D03*
X155400000Y-108150000D03*
X155400000Y-110850000D03*
X158000000Y-108150000D03*
X158000000Y-110850000D03*
X152800000Y-104250000D03*
X152800000Y-101550000D03*
D26*
X162650000Y-116000000D03*
X165350000Y-116000000D03*
D25*
X159100000Y-115550000D03*
X159100000Y-118250000D03*
D27*
X152250000Y-122500000D03*
D28*
X145700000Y-112974500D03*
X143100000Y-107700000D03*
X143900000Y-106500000D03*
X139400000Y-110900000D03*
D29*
X145700000Y-112974500D02*
X145674500Y-113000000D01*
X145674500Y-113000000D02*
X144450000Y-113000000D01*
X144450000Y-113000000D02*
X144300000Y-113150000D01*
X162149178Y-107752100D02*
X165400000Y-107752100D01*
X165400000Y-107752100D02*
X167248660Y-107752100D01*
X165350000Y-116000000D02*
X165350000Y-107802100D01*
X165350000Y-107802100D02*
X165400000Y-107752100D01*
X160802140Y-107752100D02*
X162149178Y-107752100D01*
X136200000Y-109300000D02*
X135395989Y-108495989D01*
X137260000Y-99240000D02*
X137900000Y-99240000D01*
X135395989Y-108495989D02*
X135395989Y-101104011D01*
X135395989Y-101104011D02*
X137260000Y-99240000D01*
X142900000Y-99250000D02*
X137910000Y-99250000D01*
X137910000Y-99250000D02*
X137900000Y-99240000D01*
X135532202Y-116532202D02*
X135400000Y-116400000D01*
X135400000Y-116400000D02*
X135400000Y-110100000D01*
X135400000Y-110100000D02*
X136200000Y-109300000D01*
X136200000Y-109300000D02*
X137250000Y-109300000D01*
X144200000Y-110100000D02*
X145750000Y-110100000D01*
X143400000Y-109300000D02*
X144200000Y-110100000D01*
X143400000Y-109300000D02*
X144206010Y-108493990D01*
X144206010Y-108493990D02*
X145540404Y-108493990D01*
X145540404Y-108493990D02*
X145750000Y-108493990D01*
X137250000Y-109300000D02*
X143400000Y-109300000D01*
D30*
X167750000Y-91040000D02*
X167750000Y-91560000D01*
X167750000Y-91560000D02*
X162560000Y-96750000D01*
X137200000Y-116850000D02*
X135850000Y-116850000D01*
X135850000Y-116850000D02*
X135532202Y-116532202D01*
X142900000Y-99250000D02*
X143100000Y-99250000D01*
X143100000Y-99250000D02*
X145600000Y-96750000D01*
X162930200Y-97120200D02*
X165290000Y-99480000D01*
X162560000Y-96750000D02*
X145600000Y-96750000D01*
X162930200Y-97120200D02*
X162560000Y-96750000D01*
D29*
X134700000Y-99200000D02*
X137200000Y-96700000D01*
X137200000Y-96700000D02*
X137900000Y-96700000D01*
X138500000Y-89500000D02*
X137000320Y-89500000D01*
X137000320Y-89500000D02*
X136300000Y-90200320D01*
X136300000Y-90200320D02*
X136300000Y-95100000D01*
X136300000Y-95100000D02*
X137900000Y-96700000D01*
D30*
X138500000Y-89900000D02*
X138500000Y-89500000D01*
D29*
X160210000Y-99480000D02*
X160880000Y-99480000D01*
X160880000Y-99480000D02*
X162150000Y-100750000D01*
X162150000Y-100750000D02*
X166050000Y-100750000D01*
X166050000Y-100750000D02*
X166100000Y-100800000D01*
X168900000Y-103600000D02*
X168900000Y-117500000D01*
X168900000Y-117500000D02*
X168900000Y-120400000D01*
X162650000Y-116000000D02*
X162650000Y-116900000D01*
X162650000Y-116900000D02*
X163250000Y-117500000D01*
X163250000Y-117500000D02*
X168900000Y-117500000D01*
D30*
X159100000Y-118250000D02*
X159100000Y-120900000D01*
X159100000Y-120900000D02*
X161300000Y-123100000D01*
X161300000Y-123100000D02*
X166200000Y-123100000D01*
X166200000Y-123100000D02*
X168900000Y-120400000D01*
X166100000Y-100800000D02*
X168900000Y-103600000D01*
D29*
X150000000Y-101520000D02*
X150000000Y-106100000D01*
X150000000Y-106100000D02*
X148400000Y-107700000D01*
X148400000Y-107700000D02*
X146800000Y-109300000D01*
X145750000Y-107700000D02*
X148400000Y-107700000D01*
X146800000Y-109300000D02*
X145750000Y-109300000D01*
D30*
X137200000Y-119350000D02*
X136193700Y-119350000D01*
X152800000Y-101550000D02*
X151768700Y-101550000D01*
X150000000Y-101550000D02*
X151768700Y-101550000D01*
X150000000Y-101520000D02*
X150000000Y-101550000D01*
X134700000Y-117856300D02*
X136193700Y-119350000D01*
X134700000Y-99200000D02*
X134700000Y-117856300D01*
D29*
X143100000Y-107700000D02*
X142300000Y-106900000D01*
X142300000Y-106900000D02*
X137250000Y-106900000D01*
X136200000Y-106900000D02*
X137250000Y-106900000D01*
X136068700Y-104612400D02*
X135900000Y-104781100D01*
X135900000Y-104781100D02*
X135900000Y-106600000D01*
X135900000Y-106600000D02*
X136200000Y-106900000D01*
D30*
X140115300Y-100565800D02*
X144284200Y-100565800D01*
X140115300Y-100565800D02*
X136068700Y-104612400D01*
X144284200Y-100565800D02*
X145600000Y-99250000D01*
X141900000Y-96750000D02*
X141750000Y-96750000D01*
X141750000Y-96750000D02*
X138500000Y-93500000D01*
X138500000Y-93500000D02*
X138500000Y-93171900D01*
X138500000Y-93171900D02*
X138500000Y-92040000D01*
X142900000Y-96750000D02*
X141900000Y-96750000D01*
X141900000Y-96750000D02*
X141893700Y-96750000D01*
D29*
X138700000Y-104650000D02*
X138700000Y-103437600D01*
D30*
X160210000Y-102020000D02*
X157675303Y-102020000D01*
X140555200Y-101582400D02*
X138700000Y-103437600D01*
X157675303Y-102020000D02*
X154331272Y-98675969D01*
X148942467Y-98675969D02*
X146036036Y-101582400D01*
X154331272Y-98675969D02*
X148942467Y-98675969D01*
X146036036Y-101582400D02*
X140555200Y-101582400D01*
D29*
X162750000Y-102020000D02*
X162520000Y-102020000D01*
X162520000Y-102020000D02*
X161250000Y-100750000D01*
X161250000Y-100750000D02*
X157120909Y-100750000D01*
X157120909Y-100750000D02*
X154540868Y-98169959D01*
X154540868Y-98169959D02*
X148730041Y-98169959D01*
X148730041Y-98169959D02*
X145825900Y-101074100D01*
X137250000Y-104168600D02*
X137250000Y-106100000D01*
D30*
X145825900Y-101074100D02*
X140344500Y-101074100D01*
X140344500Y-101074100D02*
X137250000Y-104168600D01*
D29*
X143900000Y-106500000D02*
X143271383Y-106500000D01*
X143271383Y-106500000D02*
X142871383Y-106100000D01*
X142871383Y-106100000D02*
X139800000Y-106100000D01*
X139800000Y-106100000D02*
X139500000Y-105800000D01*
X139500000Y-105800000D02*
X139500000Y-105700000D01*
X139500000Y-105700000D02*
X139500000Y-104650000D01*
D30*
X148100000Y-111500000D02*
X148100000Y-111400000D01*
X148100000Y-111400000D02*
X150000000Y-109500000D01*
X150000000Y-109500000D02*
X151100000Y-109500000D01*
X151100000Y-109500000D02*
X151500000Y-109100000D01*
X151500000Y-109100000D02*
X151900000Y-109500000D01*
X151900000Y-109500000D02*
X158900000Y-109500000D01*
X158900000Y-109500000D02*
X159323200Y-109076800D01*
X159323200Y-109076800D02*
X159323200Y-106976800D01*
X159323200Y-106976800D02*
X162300000Y-104000000D01*
X162300000Y-104000000D02*
X164387630Y-104000000D01*
X164387630Y-104000000D02*
X165290000Y-103097630D01*
X165290000Y-103097630D02*
X165290000Y-102020000D01*
D29*
X148100000Y-111500000D02*
X148100000Y-111900000D01*
X148100000Y-111900000D02*
X145400000Y-114600000D01*
X145400000Y-114600000D02*
X142200000Y-114600000D01*
X142200000Y-114600000D02*
X141900000Y-114300000D01*
X141900000Y-114300000D02*
X141900000Y-114200000D01*
X141900000Y-114200000D02*
X141900000Y-113150000D01*
D30*
X152800000Y-104250000D02*
X151750000Y-104250000D01*
X151750000Y-104250000D02*
X151500000Y-104500000D01*
X151500000Y-104500000D02*
X151500000Y-109100000D01*
X152800000Y-110850000D02*
X152800000Y-110950000D01*
X152800000Y-110950000D02*
X156109200Y-114259200D01*
X156109200Y-114259200D02*
X159959200Y-114259200D01*
X160300000Y-114600000D02*
X160300000Y-118528700D01*
X159959200Y-114259200D02*
X160300000Y-114600000D01*
X160300000Y-118528700D02*
X161940000Y-120168700D01*
X161940000Y-120168700D02*
X161940000Y-120296000D01*
X161940000Y-120296000D02*
X161940000Y-121500000D01*
X152800000Y-108150000D02*
X153750000Y-108150000D01*
X153750000Y-108150000D02*
X154100000Y-107800000D01*
X153699997Y-100200002D02*
X149573742Y-100200002D01*
X149573742Y-100200002D02*
X146605044Y-103168700D01*
X154100000Y-107800000D02*
X154100000Y-100600005D01*
X154100000Y-100600005D02*
X153699997Y-100200002D01*
D29*
X146605044Y-103168700D02*
X142331300Y-103168700D01*
X142331300Y-103168700D02*
X141900000Y-103600000D01*
X141900000Y-103600000D02*
X141900000Y-104650000D01*
D30*
X165392700Y-89460000D02*
X166352700Y-88500000D01*
X163000000Y-89460000D02*
X165392700Y-89460000D01*
X167750000Y-88500000D02*
X166352700Y-88500000D01*
D29*
X139400000Y-110900000D02*
X137250000Y-110900000D01*
D30*
X155300000Y-115550000D02*
X155250000Y-115500000D01*
X159100000Y-115550000D02*
X155300000Y-115550000D01*
D29*
X143434911Y-119508011D02*
X143108011Y-119508011D01*
X143108011Y-119508011D02*
X137250000Y-113650000D01*
X137250000Y-113650000D02*
X137250000Y-112225000D01*
X137250000Y-112225000D02*
X137250000Y-111700000D01*
D30*
X152241989Y-119508011D02*
X143434911Y-119508011D01*
X154250000Y-117500000D02*
X152241989Y-119508011D01*
D29*
X143668700Y-119000000D02*
X143500000Y-119000000D01*
X143500000Y-119000000D02*
X138700000Y-114200000D01*
X138700000Y-114200000D02*
X138700000Y-113150000D01*
D30*
X150750000Y-119000000D02*
X152250000Y-117500000D01*
X143668700Y-119000000D02*
X150750000Y-119000000D01*
D29*
X142968700Y-117500000D02*
X142800000Y-117500000D01*
X142800000Y-117500000D02*
X139500000Y-114200000D01*
X139500000Y-114200000D02*
X139500000Y-113150000D01*
D30*
X142968700Y-117500000D02*
X150250000Y-117500000D01*
X163210000Y-120296000D02*
X163210000Y-121500000D01*
X160169626Y-113751190D02*
X160808011Y-114389575D01*
X158201189Y-113751189D02*
X160169626Y-113751190D01*
X155400000Y-110850000D02*
X155400000Y-110950000D01*
X160808011Y-114389575D02*
X160808011Y-117766711D01*
X155400000Y-110950000D02*
X158201189Y-113751189D01*
X163210000Y-120168700D02*
X163210000Y-120296000D01*
X160808011Y-117766711D02*
X163210000Y-120168700D01*
X158000000Y-110850000D02*
X158150000Y-110700000D01*
X158150000Y-110700000D02*
X161600000Y-110700000D01*
X161600000Y-110700000D02*
X162400000Y-111500000D01*
X162400000Y-111500000D02*
X162400000Y-113334300D01*
X162400000Y-113334300D02*
X161316022Y-114418278D01*
X161316022Y-114418278D02*
X161316022Y-116916022D01*
X161316022Y-116916022D02*
X164200000Y-119800000D01*
X164200000Y-119800000D02*
X165254000Y-119800000D01*
X165254000Y-119800000D02*
X165750000Y-120296000D01*
X165750000Y-120296000D02*
X165750000Y-121500000D01*
D29*
X146394908Y-102660400D02*
X142260400Y-102660400D01*
X142260400Y-102660400D02*
X142256110Y-102664690D01*
X142256110Y-102664690D02*
X141835310Y-102664690D01*
X141835310Y-102664690D02*
X141100000Y-103400000D01*
X141100000Y-103400000D02*
X141100000Y-104650000D01*
D30*
X155400000Y-101181569D02*
X153910422Y-99691991D01*
X149363317Y-99691991D02*
X146394908Y-102660400D01*
X153910422Y-99691991D02*
X149363317Y-99691991D01*
X155400000Y-108150000D02*
X155400000Y-101181569D01*
D29*
X141291700Y-102108300D02*
X140300000Y-103100000D01*
X140300000Y-103100000D02*
X140300000Y-104650000D01*
D30*
X158000000Y-108150000D02*
X158000000Y-103063133D01*
X158000000Y-103063133D02*
X154120847Y-99183980D01*
X154120847Y-99183980D02*
X149152892Y-99183980D01*
X149152892Y-99183980D02*
X146228572Y-102108300D01*
X146228572Y-102108300D02*
X141291700Y-102108300D01*
D31*
G36*
X157970002Y-84245364D02*
X158133460Y-84294947D01*
X158284116Y-84375475D01*
X158416160Y-84483840D01*
X158524525Y-84615884D01*
X158605053Y-84766540D01*
X158654636Y-84929998D01*
X158672000Y-85106292D01*
X158672000Y-94143707D01*
X158661362Y-94251716D01*
X158631692Y-94349525D01*
X158583512Y-94439664D01*
X158518671Y-94518671D01*
X158439664Y-94583512D01*
X158349525Y-94631692D01*
X158251716Y-94661362D01*
X158143707Y-94672000D01*
X143106292Y-94672000D01*
X142929998Y-94654636D01*
X142766540Y-94605053D01*
X142615884Y-94524525D01*
X142483840Y-94416160D01*
X142375475Y-94284116D01*
X142294947Y-94133460D01*
X142245364Y-93970002D01*
X142228000Y-93793708D01*
X142228000Y-89525983D01*
X152715944Y-89525983D01*
X152726063Y-89618990D01*
X152724747Y-89713227D01*
X152753156Y-89868017D01*
X152769973Y-90022585D01*
X152797712Y-90110781D01*
X152814523Y-90202376D01*
X152872869Y-90349743D01*
X152919846Y-90499104D01*
X152966745Y-90586847D01*
X152997598Y-90664772D01*
X153060897Y-90762993D01*
X153130932Y-90894020D01*
X153153735Y-90907050D01*
X153267000Y-91082803D01*
X153612467Y-91440544D01*
X153857138Y-91610595D01*
X153869980Y-91633068D01*
X153948045Y-91673777D01*
X154020841Y-91724371D01*
X154170211Y-91789629D01*
X154312907Y-91864041D01*
X154396347Y-91888426D01*
X154476566Y-91923473D01*
X154636873Y-91958719D01*
X154792383Y-92004166D01*
X154877877Y-92011707D01*
X154962284Y-92030265D01*
X155127519Y-92033726D01*
X155289983Y-92048056D01*
X155374201Y-92038893D01*
X155459495Y-92040680D01*
X155623369Y-92011784D01*
X155786585Y-91994027D01*
X155866346Y-91968941D01*
X155949259Y-91954321D01*
X156105447Y-91893740D01*
X156263104Y-91844154D01*
X156341977Y-91801996D01*
X156412922Y-91774478D01*
X156516836Y-91708532D01*
X156658020Y-91633068D01*
X156670692Y-91610892D01*
X156832822Y-91508001D01*
X157192967Y-91165040D01*
X157375427Y-90906386D01*
X157397068Y-90894020D01*
X157433686Y-90823799D01*
X157479638Y-90758658D01*
X157549615Y-90601488D01*
X157628041Y-90451093D01*
X157649945Y-90376141D01*
X157681916Y-90304334D01*
X157720283Y-90135461D01*
X157768166Y-89971617D01*
X157774930Y-89894935D01*
X157792097Y-89819373D01*
X157794072Y-89677904D01*
X157812056Y-89474017D01*
X157798641Y-89350717D01*
X157800029Y-89251340D01*
X157772951Y-89114586D01*
X157758027Y-88977415D01*
X157724994Y-88872386D01*
X157703432Y-88763492D01*
X157649883Y-88633572D01*
X157608154Y-88500896D01*
X157551546Y-88394990D01*
X157513918Y-88303697D01*
X157456789Y-88217711D01*
X157397068Y-88105980D01*
X157373674Y-88092612D01*
X157238706Y-87889469D01*
X156888277Y-87536586D01*
X156671356Y-87390271D01*
X156658020Y-87366932D01*
X156564298Y-87318059D01*
X156475981Y-87258488D01*
X156342302Y-87202294D01*
X156215093Y-87135959D01*
X156114699Y-87106619D01*
X156017520Y-87065769D01*
X155874376Y-87036386D01*
X155735617Y-86995834D01*
X155632526Y-86986741D01*
X155530358Y-86965769D01*
X155383101Y-86964741D01*
X155238017Y-86951944D01*
X155136237Y-86963017D01*
X155033051Y-86962297D01*
X154887295Y-86990102D01*
X154741415Y-87005973D01*
X154644798Y-87036361D01*
X154544540Y-87055486D01*
X154405925Y-87111490D01*
X154264896Y-87155846D01*
X154168151Y-87207557D01*
X154083434Y-87241785D01*
X153991219Y-87302129D01*
X153869980Y-87366932D01*
X153856716Y-87390145D01*
X153667294Y-87514099D01*
X153311973Y-87862055D01*
X153153967Y-88092818D01*
X153130932Y-88105980D01*
X153086140Y-88191876D01*
X153031004Y-88272400D01*
X152970338Y-88413943D01*
X152899959Y-88548907D01*
X152873095Y-88640829D01*
X152835089Y-88729504D01*
X152802839Y-88881231D01*
X152759834Y-89028383D01*
X152751516Y-89122685D01*
X152731691Y-89215956D01*
X152729509Y-89372187D01*
X152715944Y-89525983D01*
X142228000Y-89525983D01*
X142228000Y-85106292D01*
X142245364Y-84929998D01*
X142294947Y-84766540D01*
X142375475Y-84615884D01*
X142483840Y-84483840D01*
X142615884Y-84375475D01*
X142766540Y-84294947D01*
X142929998Y-84245364D01*
X143106292Y-84228000D01*
X157793708Y-84228000D01*
X157970002Y-84245364D01*
X157970002Y-84245364D01*
G37*
X157970002Y-84245364D02*
X158133460Y-84294947D01*
X158284116Y-84375475D01*
X158416160Y-84483840D01*
X158524525Y-84615884D01*
X158605053Y-84766540D01*
X158654636Y-84929998D01*
X158672000Y-85106292D01*
X158672000Y-94143707D01*
X158661362Y-94251716D01*
X158631692Y-94349525D01*
X158583512Y-94439664D01*
X158518671Y-94518671D01*
X158439664Y-94583512D01*
X158349525Y-94631692D01*
X158251716Y-94661362D01*
X158143707Y-94672000D01*
X143106292Y-94672000D01*
X142929998Y-94654636D01*
X142766540Y-94605053D01*
X142615884Y-94524525D01*
X142483840Y-94416160D01*
X142375475Y-94284116D01*
X142294947Y-94133460D01*
X142245364Y-93970002D01*
X142228000Y-93793708D01*
X142228000Y-89525983D01*
X152715944Y-89525983D01*
X152726063Y-89618990D01*
X152724747Y-89713227D01*
X152753156Y-89868017D01*
X152769973Y-90022585D01*
X152797712Y-90110781D01*
X152814523Y-90202376D01*
X152872869Y-90349743D01*
X152919846Y-90499104D01*
X152966745Y-90586847D01*
X152997598Y-90664772D01*
X153060897Y-90762993D01*
X153130932Y-90894020D01*
X153153735Y-90907050D01*
X153267000Y-91082803D01*
X153612467Y-91440544D01*
X153857138Y-91610595D01*
X153869980Y-91633068D01*
X153948045Y-91673777D01*
X154020841Y-91724371D01*
X154170211Y-91789629D01*
X154312907Y-91864041D01*
X154396347Y-91888426D01*
X154476566Y-91923473D01*
X154636873Y-91958719D01*
X154792383Y-92004166D01*
X154877877Y-92011707D01*
X154962284Y-92030265D01*
X155127519Y-92033726D01*
X155289983Y-92048056D01*
X155374201Y-92038893D01*
X155459495Y-92040680D01*
X155623369Y-92011784D01*
X155786585Y-91994027D01*
X155866346Y-91968941D01*
X155949259Y-91954321D01*
X156105447Y-91893740D01*
X156263104Y-91844154D01*
X156341977Y-91801996D01*
X156412922Y-91774478D01*
X156516836Y-91708532D01*
X156658020Y-91633068D01*
X156670692Y-91610892D01*
X156832822Y-91508001D01*
X157192967Y-91165040D01*
X157375427Y-90906386D01*
X157397068Y-90894020D01*
X157433686Y-90823799D01*
X157479638Y-90758658D01*
X157549615Y-90601488D01*
X157628041Y-90451093D01*
X157649945Y-90376141D01*
X157681916Y-90304334D01*
X157720283Y-90135461D01*
X157768166Y-89971617D01*
X157774930Y-89894935D01*
X157792097Y-89819373D01*
X157794072Y-89677904D01*
X157812056Y-89474017D01*
X157798641Y-89350717D01*
X157800029Y-89251340D01*
X157772951Y-89114586D01*
X157758027Y-88977415D01*
X157724994Y-88872386D01*
X157703432Y-88763492D01*
X157649883Y-88633572D01*
X157608154Y-88500896D01*
X157551546Y-88394990D01*
X157513918Y-88303697D01*
X157456789Y-88217711D01*
X157397068Y-88105980D01*
X157373674Y-88092612D01*
X157238706Y-87889469D01*
X156888277Y-87536586D01*
X156671356Y-87390271D01*
X156658020Y-87366932D01*
X156564298Y-87318059D01*
X156475981Y-87258488D01*
X156342302Y-87202294D01*
X156215093Y-87135959D01*
X156114699Y-87106619D01*
X156017520Y-87065769D01*
X155874376Y-87036386D01*
X155735617Y-86995834D01*
X155632526Y-86986741D01*
X155530358Y-86965769D01*
X155383101Y-86964741D01*
X155238017Y-86951944D01*
X155136237Y-86963017D01*
X155033051Y-86962297D01*
X154887295Y-86990102D01*
X154741415Y-87005973D01*
X154644798Y-87036361D01*
X154544540Y-87055486D01*
X154405925Y-87111490D01*
X154264896Y-87155846D01*
X154168151Y-87207557D01*
X154083434Y-87241785D01*
X153991219Y-87302129D01*
X153869980Y-87366932D01*
X153856716Y-87390145D01*
X153667294Y-87514099D01*
X153311973Y-87862055D01*
X153153967Y-88092818D01*
X153130932Y-88105980D01*
X153086140Y-88191876D01*
X153031004Y-88272400D01*
X152970338Y-88413943D01*
X152899959Y-88548907D01*
X152873095Y-88640829D01*
X152835089Y-88729504D01*
X152802839Y-88881231D01*
X152759834Y-89028383D01*
X152751516Y-89122685D01*
X152731691Y-89215956D01*
X152729509Y-89372187D01*
X152715944Y-89525983D01*
X142228000Y-89525983D01*
X142228000Y-85106292D01*
X142245364Y-84929998D01*
X142294947Y-84766540D01*
X142375475Y-84615884D01*
X142483840Y-84483840D01*
X142615884Y-84375475D01*
X142766540Y-84294947D01*
X142929998Y-84245364D01*
X143106292Y-84228000D01*
X157793708Y-84228000D01*
X157970002Y-84245364D01*
G36*
X170314000Y-124814000D02*
X154725215Y-124814000D01*
X154728000Y-124800000D01*
X154728000Y-123494128D01*
X154793850Y-123346226D01*
X154909769Y-122836007D01*
X154918114Y-122238389D01*
X154816486Y-121725132D01*
X154728000Y-121510448D01*
X154728000Y-120100000D01*
X154718257Y-120051017D01*
X154690510Y-120009490D01*
X154648983Y-119981743D01*
X154600000Y-119972000D01*
X153121303Y-119972000D01*
X153042766Y-119938986D01*
X152916066Y-119912978D01*
X153887244Y-118941801D01*
X154073200Y-118982686D01*
X154364556Y-118988789D01*
X154651548Y-118938185D01*
X154923246Y-118832800D01*
X155169300Y-118676650D01*
X155318046Y-118535000D01*
X157814000Y-118535000D01*
X157814000Y-119062640D01*
X157838441Y-119185514D01*
X157886384Y-119301258D01*
X157955986Y-119405426D01*
X158044573Y-119494013D01*
X158148741Y-119563616D01*
X158264485Y-119611559D01*
X158387359Y-119636000D01*
X158815000Y-119636000D01*
X158974000Y-119477000D01*
X158974000Y-118376000D01*
X157973000Y-118376000D01*
X157814000Y-118535000D01*
X155318046Y-118535000D01*
X155380337Y-118475681D01*
X155548321Y-118237549D01*
X155666852Y-117971324D01*
X155731416Y-117687146D01*
X155736064Y-117354290D01*
X155679460Y-117068421D01*
X155627527Y-116942421D01*
X155651548Y-116938185D01*
X155923246Y-116832800D01*
X156169300Y-116676650D01*
X156380337Y-116475681D01*
X156495096Y-116313000D01*
X157812203Y-116313000D01*
X157823203Y-116424678D01*
X157859570Y-116544564D01*
X157918627Y-116655052D01*
X157998104Y-116751896D01*
X158094948Y-116831373D01*
X158205436Y-116890430D01*
X158236750Y-116899929D01*
X158148741Y-116936384D01*
X158044573Y-117005987D01*
X157955986Y-117094574D01*
X157886384Y-117198742D01*
X157838441Y-117314486D01*
X157814000Y-117437360D01*
X157814000Y-117965000D01*
X157973000Y-118124000D01*
X158974000Y-118124000D01*
X158974000Y-118104000D01*
X159226000Y-118104000D01*
X159226000Y-118124000D01*
X159246000Y-118124000D01*
X159246000Y-118376000D01*
X159226000Y-118376000D01*
X159226000Y-119477000D01*
X159385000Y-119636000D01*
X159812641Y-119636000D01*
X159935515Y-119611559D01*
X160051259Y-119563616D01*
X160155427Y-119494013D01*
X160170848Y-119478592D01*
X161043783Y-120351528D01*
X161002671Y-120400523D01*
X160895862Y-120594808D01*
X160828824Y-120806138D01*
X160804111Y-121026465D01*
X160804000Y-121042326D01*
X160804000Y-121957674D01*
X160825635Y-122178324D01*
X160889716Y-122390570D01*
X160993801Y-122586327D01*
X161133928Y-122758138D01*
X161304757Y-122899461D01*
X161499782Y-123004911D01*
X161711575Y-123070471D01*
X161932069Y-123093646D01*
X162152865Y-123073552D01*
X162365553Y-123010955D01*
X162562032Y-122908238D01*
X162573866Y-122898724D01*
X162574757Y-122899461D01*
X162769782Y-123004911D01*
X162981575Y-123070471D01*
X163202069Y-123093646D01*
X163422865Y-123073552D01*
X163635553Y-123010955D01*
X163658171Y-122999131D01*
X163735436Y-123040430D01*
X163855322Y-123076797D01*
X163980000Y-123089077D01*
X164980000Y-123089077D01*
X165104678Y-123076797D01*
X165224564Y-123040430D01*
X165300453Y-122999867D01*
X165309782Y-123004911D01*
X165521575Y-123070471D01*
X165742069Y-123093646D01*
X165962865Y-123073552D01*
X166175553Y-123010955D01*
X166372032Y-122908238D01*
X166544818Y-122769315D01*
X166687329Y-122599477D01*
X166794138Y-122405192D01*
X166861176Y-122193862D01*
X166885889Y-121973535D01*
X166886000Y-121957674D01*
X166886000Y-121042326D01*
X166864365Y-120821676D01*
X166800284Y-120609430D01*
X166696199Y-120413673D01*
X166556072Y-120241862D01*
X166503735Y-120198565D01*
X166499980Y-120155645D01*
X166498860Y-120151792D01*
X166498469Y-120147799D01*
X166478095Y-120080316D01*
X166458435Y-120012647D01*
X166456589Y-120009086D01*
X166455429Y-120005243D01*
X166422319Y-119942972D01*
X166389906Y-119880440D01*
X166387402Y-119877303D01*
X166385519Y-119873762D01*
X166340996Y-119819172D01*
X166297003Y-119764063D01*
X166291493Y-119758476D01*
X166291402Y-119758364D01*
X166291298Y-119758278D01*
X166289523Y-119756478D01*
X165793522Y-119260478D01*
X165739101Y-119215776D01*
X165685070Y-119170438D01*
X165681553Y-119168504D01*
X165678454Y-119165959D01*
X165616335Y-119132651D01*
X165554578Y-119098700D01*
X165550756Y-119097488D01*
X165547217Y-119095590D01*
X165479814Y-119074983D01*
X165412637Y-119053673D01*
X165408647Y-119053225D01*
X165404812Y-119052053D01*
X165334746Y-119044936D01*
X165264653Y-119037074D01*
X165256806Y-119037019D01*
X165256663Y-119037005D01*
X165256530Y-119037018D01*
X165254000Y-119037000D01*
X164516045Y-119037000D01*
X162765044Y-117286000D01*
X162776002Y-117286000D01*
X162776002Y-117127002D01*
X162935000Y-117286000D01*
X163462640Y-117286000D01*
X163585514Y-117261559D01*
X163701258Y-117213616D01*
X163805426Y-117144014D01*
X163894013Y-117055427D01*
X163963616Y-116951259D01*
X164000071Y-116863250D01*
X164009570Y-116894564D01*
X164068627Y-117005052D01*
X164148104Y-117101896D01*
X164244948Y-117181373D01*
X164355436Y-117240430D01*
X164475322Y-117276797D01*
X164600000Y-117289077D01*
X166100000Y-117289077D01*
X166224678Y-117276797D01*
X166344564Y-117240430D01*
X166455052Y-117181373D01*
X166551896Y-117101896D01*
X166631373Y-117005052D01*
X166690430Y-116894564D01*
X166726797Y-116774678D01*
X166739077Y-116650000D01*
X166739077Y-115350000D01*
X166726797Y-115225322D01*
X166690430Y-115105436D01*
X166631373Y-114994948D01*
X166551896Y-114898104D01*
X166455052Y-114818627D01*
X166344564Y-114759570D01*
X166224678Y-114723203D01*
X166111000Y-114712006D01*
X166111000Y-113304047D01*
X166264940Y-113463457D01*
X166520745Y-113641246D01*
X166806211Y-113765963D01*
X167110465Y-113832858D01*
X167421918Y-113839382D01*
X167728706Y-113785287D01*
X168019144Y-113672633D01*
X168282170Y-113505712D01*
X168507765Y-113290881D01*
X168687336Y-113036323D01*
X168814043Y-112751735D01*
X168883060Y-112447955D01*
X168888028Y-112092140D01*
X168827520Y-111786551D01*
X168708809Y-111498536D01*
X168536416Y-111239064D01*
X168316907Y-111018018D01*
X168058645Y-110843817D01*
X167771465Y-110723098D01*
X167466307Y-110660458D01*
X167154794Y-110658283D01*
X166848791Y-110716656D01*
X166559953Y-110833354D01*
X166299284Y-111003932D01*
X166111000Y-111188313D01*
X166111000Y-108860852D01*
X166214140Y-108967657D01*
X166469945Y-109145446D01*
X166755411Y-109270163D01*
X167059665Y-109337058D01*
X167371118Y-109343582D01*
X167677906Y-109289487D01*
X167968344Y-109176833D01*
X168231370Y-109009912D01*
X168456965Y-108795081D01*
X168636536Y-108540523D01*
X168763243Y-108255935D01*
X168832260Y-107952155D01*
X168837228Y-107596340D01*
X168776720Y-107290751D01*
X168658009Y-107002736D01*
X168485616Y-106743264D01*
X168266107Y-106522218D01*
X168007845Y-106348017D01*
X167720665Y-106227298D01*
X167415507Y-106164658D01*
X167103994Y-106162483D01*
X166797991Y-106220856D01*
X166509153Y-106337554D01*
X166248484Y-106508132D01*
X166025911Y-106726091D01*
X165849912Y-106983132D01*
X165846497Y-106991100D01*
X162203758Y-106991100D01*
X162039096Y-106743264D01*
X161819587Y-106522218D01*
X161561325Y-106348017D01*
X161274145Y-106227298D01*
X161172592Y-106206452D01*
X162616045Y-104763000D01*
X164387630Y-104763000D01*
X164457774Y-104756122D01*
X164527985Y-104749980D01*
X164531838Y-104748860D01*
X164535831Y-104748469D01*
X164603314Y-104728095D01*
X164670983Y-104708435D01*
X164674544Y-104706589D01*
X164678387Y-104705429D01*
X164740624Y-104672337D01*
X164803190Y-104639906D01*
X164806327Y-104637402D01*
X164809868Y-104635519D01*
X164864458Y-104590996D01*
X164919567Y-104547003D01*
X164925150Y-104541497D01*
X164925266Y-104541402D01*
X164925355Y-104541294D01*
X164927152Y-104539522D01*
X165829523Y-103637152D01*
X165874253Y-103582696D01*
X165919562Y-103528700D01*
X165921495Y-103525184D01*
X165924042Y-103522083D01*
X165957359Y-103459947D01*
X165991300Y-103398208D01*
X165992512Y-103394386D01*
X165994410Y-103390847D01*
X166015017Y-103323444D01*
X166036327Y-103256267D01*
X166036775Y-103252277D01*
X166037947Y-103248442D01*
X166043080Y-103197906D01*
X166154859Y-103126969D01*
X166353399Y-102937902D01*
X166511435Y-102713872D01*
X166622947Y-102463412D01*
X166683687Y-102196064D01*
X166688060Y-101882919D01*
X166634808Y-101613979D01*
X166530333Y-101360503D01*
X166378614Y-101132148D01*
X166185430Y-100937611D01*
X165958140Y-100784301D01*
X165879063Y-100751060D01*
X165923377Y-100733872D01*
X166154859Y-100586969D01*
X166353399Y-100397902D01*
X166511435Y-100173872D01*
X166622947Y-99923412D01*
X166683687Y-99656064D01*
X166688060Y-99342919D01*
X166634808Y-99073979D01*
X166530333Y-98820503D01*
X166378614Y-98592148D01*
X166185430Y-98397611D01*
X165958140Y-98244301D01*
X165705400Y-98138059D01*
X165436838Y-98082931D01*
X165162683Y-98081017D01*
X165000920Y-98111875D01*
X163639044Y-96750000D01*
X167699398Y-92689647D01*
X167718941Y-92691839D01*
X167742007Y-92692000D01*
X167757993Y-92692000D01*
X168078868Y-92660538D01*
X168387521Y-92567350D01*
X168672196Y-92415986D01*
X168922049Y-92212211D01*
X169127563Y-91963787D01*
X169280911Y-91680176D01*
X169376251Y-91372181D01*
X169409953Y-91051533D01*
X169380732Y-90730446D01*
X169289701Y-90421150D01*
X169140328Y-90135426D01*
X169085018Y-90066634D01*
X169121052Y-90047373D01*
X169217896Y-89967896D01*
X169297373Y-89871052D01*
X169356430Y-89760564D01*
X169392797Y-89640678D01*
X169405077Y-89516000D01*
X169405077Y-87484000D01*
X169392797Y-87359322D01*
X169356430Y-87239436D01*
X169297373Y-87128948D01*
X169217896Y-87032104D01*
X169121052Y-86952627D01*
X169010564Y-86893570D01*
X168890678Y-86857203D01*
X168766000Y-86844923D01*
X166734000Y-86844923D01*
X166609322Y-86857203D01*
X166489436Y-86893570D01*
X166378948Y-86952627D01*
X166282104Y-87032104D01*
X166202627Y-87128948D01*
X166143570Y-87239436D01*
X166107203Y-87359322D01*
X166094923Y-87484000D01*
X166094923Y-87784134D01*
X166069347Y-87791565D01*
X166065786Y-87793411D01*
X166061943Y-87794571D01*
X165999706Y-87827663D01*
X165937140Y-87860094D01*
X165934003Y-87862598D01*
X165930462Y-87864481D01*
X165875872Y-87909004D01*
X165820763Y-87952997D01*
X165815180Y-87958503D01*
X165815064Y-87958598D01*
X165814975Y-87958706D01*
X165813178Y-87960478D01*
X165076656Y-88697000D01*
X164445592Y-88697000D01*
X164415205Y-88638874D01*
X164231816Y-88410785D01*
X164007618Y-88222660D01*
X163949511Y-88190715D01*
X163990259Y-88169049D01*
X164217062Y-87984072D01*
X164403618Y-87758566D01*
X164542819Y-87501118D01*
X164629364Y-87221536D01*
X164659956Y-86930469D01*
X164633431Y-86639003D01*
X164550798Y-86358240D01*
X164415205Y-86098874D01*
X164231816Y-85870785D01*
X164007618Y-85682660D01*
X163751148Y-85541665D01*
X163472177Y-85453170D01*
X163181331Y-85420546D01*
X163160393Y-85420400D01*
X162839607Y-85420400D01*
X162548333Y-85448960D01*
X162268154Y-85533551D01*
X162009741Y-85670951D01*
X161782938Y-85855928D01*
X161596382Y-86081434D01*
X161457181Y-86338882D01*
X161370636Y-86618464D01*
X161340044Y-86909531D01*
X161366569Y-87200997D01*
X161449202Y-87481760D01*
X161584795Y-87741126D01*
X161768184Y-87969215D01*
X161992382Y-88157340D01*
X162050489Y-88189285D01*
X162009741Y-88210951D01*
X161782938Y-88395928D01*
X161596382Y-88621434D01*
X161457181Y-88878882D01*
X161370636Y-89158464D01*
X161340044Y-89449531D01*
X161366569Y-89740997D01*
X161449202Y-90021760D01*
X161584795Y-90281126D01*
X161768184Y-90509215D01*
X161792723Y-90529806D01*
X161739436Y-90545970D01*
X161628948Y-90605027D01*
X161532104Y-90684504D01*
X161452627Y-90781348D01*
X161393570Y-90891836D01*
X161357203Y-91011722D01*
X161344923Y-91136400D01*
X161344923Y-92863600D01*
X161357203Y-92988278D01*
X161393570Y-93108164D01*
X161452627Y-93218652D01*
X161532104Y-93315496D01*
X161628948Y-93394973D01*
X161739436Y-93454030D01*
X161859322Y-93490397D01*
X161984000Y-93502677D01*
X164016000Y-93502677D01*
X164140678Y-93490397D01*
X164260564Y-93454030D01*
X164371052Y-93394973D01*
X164467896Y-93315496D01*
X164547373Y-93218652D01*
X164606430Y-93108164D01*
X164642797Y-92988278D01*
X164655077Y-92863600D01*
X164655077Y-91136400D01*
X164642797Y-91011722D01*
X164606430Y-90891836D01*
X164547373Y-90781348D01*
X164467896Y-90684504D01*
X164371052Y-90605027D01*
X164260564Y-90545970D01*
X164209285Y-90530415D01*
X164217062Y-90524072D01*
X164403618Y-90298566D01*
X164444476Y-90223000D01*
X165392700Y-90223000D01*
X165462844Y-90216122D01*
X165533055Y-90209980D01*
X165536908Y-90208860D01*
X165540901Y-90208469D01*
X165608384Y-90188095D01*
X165676053Y-90168435D01*
X165679614Y-90166589D01*
X165683457Y-90165429D01*
X165745694Y-90132337D01*
X165808260Y-90099906D01*
X165811397Y-90097402D01*
X165814938Y-90095519D01*
X165869528Y-90050996D01*
X165924637Y-90007003D01*
X165930220Y-90001497D01*
X165930336Y-90001402D01*
X165930425Y-90001294D01*
X165932222Y-89999522D01*
X166153187Y-89778557D01*
X166202627Y-89871052D01*
X166282104Y-89967896D01*
X166378948Y-90047373D01*
X166413922Y-90066067D01*
X166372437Y-90116213D01*
X166219089Y-90399824D01*
X166123749Y-90707819D01*
X166090047Y-91028467D01*
X166119268Y-91349554D01*
X166210299Y-91658850D01*
X166334511Y-91896445D01*
X162243956Y-95987000D01*
X146862797Y-95987000D01*
X146851797Y-95875322D01*
X146815430Y-95755436D01*
X146756373Y-95644948D01*
X146742464Y-95628000D01*
X158400000Y-95628000D01*
X158412546Y-95627384D01*
X158607636Y-95608169D01*
X158632246Y-95603273D01*
X158819839Y-95546368D01*
X158843022Y-95536766D01*
X159015909Y-95444356D01*
X159036772Y-95430415D01*
X159188309Y-95306052D01*
X159206052Y-95288309D01*
X159330415Y-95136772D01*
X159344356Y-95115909D01*
X159436766Y-94943022D01*
X159446368Y-94919839D01*
X159503273Y-94732246D01*
X159508169Y-94707636D01*
X159527384Y-94512546D01*
X159528000Y-94500000D01*
X159528000Y-84506292D01*
X159545364Y-84329998D01*
X159589044Y-84186000D01*
X170314000Y-84186000D01*
X170314000Y-124814000D01*
X170314000Y-124814000D01*
G37*
X170314000Y-124814000D02*
X154725215Y-124814000D01*
X154728000Y-124800000D01*
X154728000Y-123494128D01*
X154793850Y-123346226D01*
X154909769Y-122836007D01*
X154918114Y-122238389D01*
X154816486Y-121725132D01*
X154728000Y-121510448D01*
X154728000Y-120100000D01*
X154718257Y-120051017D01*
X154690510Y-120009490D01*
X154648983Y-119981743D01*
X154600000Y-119972000D01*
X153121303Y-119972000D01*
X153042766Y-119938986D01*
X152916066Y-119912978D01*
X153887244Y-118941801D01*
X154073200Y-118982686D01*
X154364556Y-118988789D01*
X154651548Y-118938185D01*
X154923246Y-118832800D01*
X155169300Y-118676650D01*
X155318046Y-118535000D01*
X157814000Y-118535000D01*
X157814000Y-119062640D01*
X157838441Y-119185514D01*
X157886384Y-119301258D01*
X157955986Y-119405426D01*
X158044573Y-119494013D01*
X158148741Y-119563616D01*
X158264485Y-119611559D01*
X158387359Y-119636000D01*
X158815000Y-119636000D01*
X158974000Y-119477000D01*
X158974000Y-118376000D01*
X157973000Y-118376000D01*
X157814000Y-118535000D01*
X155318046Y-118535000D01*
X155380337Y-118475681D01*
X155548321Y-118237549D01*
X155666852Y-117971324D01*
X155731416Y-117687146D01*
X155736064Y-117354290D01*
X155679460Y-117068421D01*
X155627527Y-116942421D01*
X155651548Y-116938185D01*
X155923246Y-116832800D01*
X156169300Y-116676650D01*
X156380337Y-116475681D01*
X156495096Y-116313000D01*
X157812203Y-116313000D01*
X157823203Y-116424678D01*
X157859570Y-116544564D01*
X157918627Y-116655052D01*
X157998104Y-116751896D01*
X158094948Y-116831373D01*
X158205436Y-116890430D01*
X158236750Y-116899929D01*
X158148741Y-116936384D01*
X158044573Y-117005987D01*
X157955986Y-117094574D01*
X157886384Y-117198742D01*
X157838441Y-117314486D01*
X157814000Y-117437360D01*
X157814000Y-117965000D01*
X157973000Y-118124000D01*
X158974000Y-118124000D01*
X158974000Y-118104000D01*
X159226000Y-118104000D01*
X159226000Y-118124000D01*
X159246000Y-118124000D01*
X159246000Y-118376000D01*
X159226000Y-118376000D01*
X159226000Y-119477000D01*
X159385000Y-119636000D01*
X159812641Y-119636000D01*
X159935515Y-119611559D01*
X160051259Y-119563616D01*
X160155427Y-119494013D01*
X160170848Y-119478592D01*
X161043783Y-120351528D01*
X161002671Y-120400523D01*
X160895862Y-120594808D01*
X160828824Y-120806138D01*
X160804111Y-121026465D01*
X160804000Y-121042326D01*
X160804000Y-121957674D01*
X160825635Y-122178324D01*
X160889716Y-122390570D01*
X160993801Y-122586327D01*
X161133928Y-122758138D01*
X161304757Y-122899461D01*
X161499782Y-123004911D01*
X161711575Y-123070471D01*
X161932069Y-123093646D01*
X162152865Y-123073552D01*
X162365553Y-123010955D01*
X162562032Y-122908238D01*
X162573866Y-122898724D01*
X162574757Y-122899461D01*
X162769782Y-123004911D01*
X162981575Y-123070471D01*
X163202069Y-123093646D01*
X163422865Y-123073552D01*
X163635553Y-123010955D01*
X163658171Y-122999131D01*
X163735436Y-123040430D01*
X163855322Y-123076797D01*
X163980000Y-123089077D01*
X164980000Y-123089077D01*
X165104678Y-123076797D01*
X165224564Y-123040430D01*
X165300453Y-122999867D01*
X165309782Y-123004911D01*
X165521575Y-123070471D01*
X165742069Y-123093646D01*
X165962865Y-123073552D01*
X166175553Y-123010955D01*
X166372032Y-122908238D01*
X166544818Y-122769315D01*
X166687329Y-122599477D01*
X166794138Y-122405192D01*
X166861176Y-122193862D01*
X166885889Y-121973535D01*
X166886000Y-121957674D01*
X166886000Y-121042326D01*
X166864365Y-120821676D01*
X166800284Y-120609430D01*
X166696199Y-120413673D01*
X166556072Y-120241862D01*
X166503735Y-120198565D01*
X166499980Y-120155645D01*
X166498860Y-120151792D01*
X166498469Y-120147799D01*
X166478095Y-120080316D01*
X166458435Y-120012647D01*
X166456589Y-120009086D01*
X166455429Y-120005243D01*
X166422319Y-119942972D01*
X166389906Y-119880440D01*
X166387402Y-119877303D01*
X166385519Y-119873762D01*
X166340996Y-119819172D01*
X166297003Y-119764063D01*
X166291493Y-119758476D01*
X166291402Y-119758364D01*
X166291298Y-119758278D01*
X166289523Y-119756478D01*
X165793522Y-119260478D01*
X165739101Y-119215776D01*
X165685070Y-119170438D01*
X165681553Y-119168504D01*
X165678454Y-119165959D01*
X165616335Y-119132651D01*
X165554578Y-119098700D01*
X165550756Y-119097488D01*
X165547217Y-119095590D01*
X165479814Y-119074983D01*
X165412637Y-119053673D01*
X165408647Y-119053225D01*
X165404812Y-119052053D01*
X165334746Y-119044936D01*
X165264653Y-119037074D01*
X165256806Y-119037019D01*
X165256663Y-119037005D01*
X165256530Y-119037018D01*
X165254000Y-119037000D01*
X164516045Y-119037000D01*
X162765044Y-117286000D01*
X162776002Y-117286000D01*
X162776002Y-117127002D01*
X162935000Y-117286000D01*
X163462640Y-117286000D01*
X163585514Y-117261559D01*
X163701258Y-117213616D01*
X163805426Y-117144014D01*
X163894013Y-117055427D01*
X163963616Y-116951259D01*
X164000071Y-116863250D01*
X164009570Y-116894564D01*
X164068627Y-117005052D01*
X164148104Y-117101896D01*
X164244948Y-117181373D01*
X164355436Y-117240430D01*
X164475322Y-117276797D01*
X164600000Y-117289077D01*
X166100000Y-117289077D01*
X166224678Y-117276797D01*
X166344564Y-117240430D01*
X166455052Y-117181373D01*
X166551896Y-117101896D01*
X166631373Y-117005052D01*
X166690430Y-116894564D01*
X166726797Y-116774678D01*
X166739077Y-116650000D01*
X166739077Y-115350000D01*
X166726797Y-115225322D01*
X166690430Y-115105436D01*
X166631373Y-114994948D01*
X166551896Y-114898104D01*
X166455052Y-114818627D01*
X166344564Y-114759570D01*
X166224678Y-114723203D01*
X166111000Y-114712006D01*
X166111000Y-113304047D01*
X166264940Y-113463457D01*
X166520745Y-113641246D01*
X166806211Y-113765963D01*
X167110465Y-113832858D01*
X167421918Y-113839382D01*
X167728706Y-113785287D01*
X168019144Y-113672633D01*
X168282170Y-113505712D01*
X168507765Y-113290881D01*
X168687336Y-113036323D01*
X168814043Y-112751735D01*
X168883060Y-112447955D01*
X168888028Y-112092140D01*
X168827520Y-111786551D01*
X168708809Y-111498536D01*
X168536416Y-111239064D01*
X168316907Y-111018018D01*
X168058645Y-110843817D01*
X167771465Y-110723098D01*
X167466307Y-110660458D01*
X167154794Y-110658283D01*
X166848791Y-110716656D01*
X166559953Y-110833354D01*
X166299284Y-111003932D01*
X166111000Y-111188313D01*
X166111000Y-108860852D01*
X166214140Y-108967657D01*
X166469945Y-109145446D01*
X166755411Y-109270163D01*
X167059665Y-109337058D01*
X167371118Y-109343582D01*
X167677906Y-109289487D01*
X167968344Y-109176833D01*
X168231370Y-109009912D01*
X168456965Y-108795081D01*
X168636536Y-108540523D01*
X168763243Y-108255935D01*
X168832260Y-107952155D01*
X168837228Y-107596340D01*
X168776720Y-107290751D01*
X168658009Y-107002736D01*
X168485616Y-106743264D01*
X168266107Y-106522218D01*
X168007845Y-106348017D01*
X167720665Y-106227298D01*
X167415507Y-106164658D01*
X167103994Y-106162483D01*
X166797991Y-106220856D01*
X166509153Y-106337554D01*
X166248484Y-106508132D01*
X166025911Y-106726091D01*
X165849912Y-106983132D01*
X165846497Y-106991100D01*
X162203758Y-106991100D01*
X162039096Y-106743264D01*
X161819587Y-106522218D01*
X161561325Y-106348017D01*
X161274145Y-106227298D01*
X161172592Y-106206452D01*
X162616045Y-104763000D01*
X164387630Y-104763000D01*
X164457774Y-104756122D01*
X164527985Y-104749980D01*
X164531838Y-104748860D01*
X164535831Y-104748469D01*
X164603314Y-104728095D01*
X164670983Y-104708435D01*
X164674544Y-104706589D01*
X164678387Y-104705429D01*
X164740624Y-104672337D01*
X164803190Y-104639906D01*
X164806327Y-104637402D01*
X164809868Y-104635519D01*
X164864458Y-104590996D01*
X164919567Y-104547003D01*
X164925150Y-104541497D01*
X164925266Y-104541402D01*
X164925355Y-104541294D01*
X164927152Y-104539522D01*
X165829523Y-103637152D01*
X165874253Y-103582696D01*
X165919562Y-103528700D01*
X165921495Y-103525184D01*
X165924042Y-103522083D01*
X165957359Y-103459947D01*
X165991300Y-103398208D01*
X165992512Y-103394386D01*
X165994410Y-103390847D01*
X166015017Y-103323444D01*
X166036327Y-103256267D01*
X166036775Y-103252277D01*
X166037947Y-103248442D01*
X166043080Y-103197906D01*
X166154859Y-103126969D01*
X166353399Y-102937902D01*
X166511435Y-102713872D01*
X166622947Y-102463412D01*
X166683687Y-102196064D01*
X166688060Y-101882919D01*
X166634808Y-101613979D01*
X166530333Y-101360503D01*
X166378614Y-101132148D01*
X166185430Y-100937611D01*
X165958140Y-100784301D01*
X165879063Y-100751060D01*
X165923377Y-100733872D01*
X166154859Y-100586969D01*
X166353399Y-100397902D01*
X166511435Y-100173872D01*
X166622947Y-99923412D01*
X166683687Y-99656064D01*
X166688060Y-99342919D01*
X166634808Y-99073979D01*
X166530333Y-98820503D01*
X166378614Y-98592148D01*
X166185430Y-98397611D01*
X165958140Y-98244301D01*
X165705400Y-98138059D01*
X165436838Y-98082931D01*
X165162683Y-98081017D01*
X165000920Y-98111875D01*
X163639044Y-96750000D01*
X167699398Y-92689647D01*
X167718941Y-92691839D01*
X167742007Y-92692000D01*
X167757993Y-92692000D01*
X168078868Y-92660538D01*
X168387521Y-92567350D01*
X168672196Y-92415986D01*
X168922049Y-92212211D01*
X169127563Y-91963787D01*
X169280911Y-91680176D01*
X169376251Y-91372181D01*
X169409953Y-91051533D01*
X169380732Y-90730446D01*
X169289701Y-90421150D01*
X169140328Y-90135426D01*
X169085018Y-90066634D01*
X169121052Y-90047373D01*
X169217896Y-89967896D01*
X169297373Y-89871052D01*
X169356430Y-89760564D01*
X169392797Y-89640678D01*
X169405077Y-89516000D01*
X169405077Y-87484000D01*
X169392797Y-87359322D01*
X169356430Y-87239436D01*
X169297373Y-87128948D01*
X169217896Y-87032104D01*
X169121052Y-86952627D01*
X169010564Y-86893570D01*
X168890678Y-86857203D01*
X168766000Y-86844923D01*
X166734000Y-86844923D01*
X166609322Y-86857203D01*
X166489436Y-86893570D01*
X166378948Y-86952627D01*
X166282104Y-87032104D01*
X166202627Y-87128948D01*
X166143570Y-87239436D01*
X166107203Y-87359322D01*
X166094923Y-87484000D01*
X166094923Y-87784134D01*
X166069347Y-87791565D01*
X166065786Y-87793411D01*
X166061943Y-87794571D01*
X165999706Y-87827663D01*
X165937140Y-87860094D01*
X165934003Y-87862598D01*
X165930462Y-87864481D01*
X165875872Y-87909004D01*
X165820763Y-87952997D01*
X165815180Y-87958503D01*
X165815064Y-87958598D01*
X165814975Y-87958706D01*
X165813178Y-87960478D01*
X165076656Y-88697000D01*
X164445592Y-88697000D01*
X164415205Y-88638874D01*
X164231816Y-88410785D01*
X164007618Y-88222660D01*
X163949511Y-88190715D01*
X163990259Y-88169049D01*
X164217062Y-87984072D01*
X164403618Y-87758566D01*
X164542819Y-87501118D01*
X164629364Y-87221536D01*
X164659956Y-86930469D01*
X164633431Y-86639003D01*
X164550798Y-86358240D01*
X164415205Y-86098874D01*
X164231816Y-85870785D01*
X164007618Y-85682660D01*
X163751148Y-85541665D01*
X163472177Y-85453170D01*
X163181331Y-85420546D01*
X163160393Y-85420400D01*
X162839607Y-85420400D01*
X162548333Y-85448960D01*
X162268154Y-85533551D01*
X162009741Y-85670951D01*
X161782938Y-85855928D01*
X161596382Y-86081434D01*
X161457181Y-86338882D01*
X161370636Y-86618464D01*
X161340044Y-86909531D01*
X161366569Y-87200997D01*
X161449202Y-87481760D01*
X161584795Y-87741126D01*
X161768184Y-87969215D01*
X161992382Y-88157340D01*
X162050489Y-88189285D01*
X162009741Y-88210951D01*
X161782938Y-88395928D01*
X161596382Y-88621434D01*
X161457181Y-88878882D01*
X161370636Y-89158464D01*
X161340044Y-89449531D01*
X161366569Y-89740997D01*
X161449202Y-90021760D01*
X161584795Y-90281126D01*
X161768184Y-90509215D01*
X161792723Y-90529806D01*
X161739436Y-90545970D01*
X161628948Y-90605027D01*
X161532104Y-90684504D01*
X161452627Y-90781348D01*
X161393570Y-90891836D01*
X161357203Y-91011722D01*
X161344923Y-91136400D01*
X161344923Y-92863600D01*
X161357203Y-92988278D01*
X161393570Y-93108164D01*
X161452627Y-93218652D01*
X161532104Y-93315496D01*
X161628948Y-93394973D01*
X161739436Y-93454030D01*
X161859322Y-93490397D01*
X161984000Y-93502677D01*
X164016000Y-93502677D01*
X164140678Y-93490397D01*
X164260564Y-93454030D01*
X164371052Y-93394973D01*
X164467896Y-93315496D01*
X164547373Y-93218652D01*
X164606430Y-93108164D01*
X164642797Y-92988278D01*
X164655077Y-92863600D01*
X164655077Y-91136400D01*
X164642797Y-91011722D01*
X164606430Y-90891836D01*
X164547373Y-90781348D01*
X164467896Y-90684504D01*
X164371052Y-90605027D01*
X164260564Y-90545970D01*
X164209285Y-90530415D01*
X164217062Y-90524072D01*
X164403618Y-90298566D01*
X164444476Y-90223000D01*
X165392700Y-90223000D01*
X165462844Y-90216122D01*
X165533055Y-90209980D01*
X165536908Y-90208860D01*
X165540901Y-90208469D01*
X165608384Y-90188095D01*
X165676053Y-90168435D01*
X165679614Y-90166589D01*
X165683457Y-90165429D01*
X165745694Y-90132337D01*
X165808260Y-90099906D01*
X165811397Y-90097402D01*
X165814938Y-90095519D01*
X165869528Y-90050996D01*
X165924637Y-90007003D01*
X165930220Y-90001497D01*
X165930336Y-90001402D01*
X165930425Y-90001294D01*
X165932222Y-89999522D01*
X166153187Y-89778557D01*
X166202627Y-89871052D01*
X166282104Y-89967896D01*
X166378948Y-90047373D01*
X166413922Y-90066067D01*
X166372437Y-90116213D01*
X166219089Y-90399824D01*
X166123749Y-90707819D01*
X166090047Y-91028467D01*
X166119268Y-91349554D01*
X166210299Y-91658850D01*
X166334511Y-91896445D01*
X162243956Y-95987000D01*
X146862797Y-95987000D01*
X146851797Y-95875322D01*
X146815430Y-95755436D01*
X146756373Y-95644948D01*
X146742464Y-95628000D01*
X158400000Y-95628000D01*
X158412546Y-95627384D01*
X158607636Y-95608169D01*
X158632246Y-95603273D01*
X158819839Y-95546368D01*
X158843022Y-95536766D01*
X159015909Y-95444356D01*
X159036772Y-95430415D01*
X159188309Y-95306052D01*
X159206052Y-95288309D01*
X159330415Y-95136772D01*
X159344356Y-95115909D01*
X159436766Y-94943022D01*
X159446368Y-94919839D01*
X159503273Y-94732246D01*
X159508169Y-94707636D01*
X159527384Y-94512546D01*
X159528000Y-94500000D01*
X159528000Y-84506292D01*
X159545364Y-84329998D01*
X159589044Y-84186000D01*
X170314000Y-84186000D01*
X170314000Y-124814000D01*
G36*
X141354636Y-84329998D02*
X141372000Y-84506292D01*
X141372000Y-94500000D01*
X141372616Y-94512546D01*
X141391831Y-94707636D01*
X141396727Y-94732246D01*
X141453632Y-94919839D01*
X141463234Y-94943022D01*
X141555644Y-95115909D01*
X141569585Y-95136772D01*
X141693948Y-95288309D01*
X141711691Y-95306052D01*
X141863228Y-95430415D01*
X141884091Y-95444356D01*
X141924723Y-95466074D01*
X141919948Y-95468627D01*
X141823104Y-95548104D01*
X141743627Y-95644948D01*
X141736788Y-95657743D01*
X139432443Y-93353399D01*
X139536615Y-93321948D01*
X139775550Y-93194904D01*
X139985259Y-93023869D01*
X140157753Y-92815360D01*
X140286462Y-92577317D01*
X140366484Y-92318809D01*
X140394770Y-92049680D01*
X140370244Y-91780183D01*
X140293839Y-91520582D01*
X140168466Y-91280765D01*
X139998900Y-91069868D01*
X139791600Y-90895922D01*
X139559084Y-90768096D01*
X139646136Y-90732806D01*
X139874212Y-90582889D01*
X140068658Y-90391358D01*
X140222002Y-90165572D01*
X140328351Y-89914209D01*
X140343232Y-89840459D01*
X140220196Y-89626000D01*
X138626000Y-89626000D01*
X138626000Y-89646000D01*
X138374000Y-89646000D01*
X138374000Y-89626000D01*
X136779804Y-89626000D01*
X136656768Y-89840459D01*
X136671649Y-89914209D01*
X136777998Y-90165572D01*
X136931342Y-90391358D01*
X137125788Y-90582889D01*
X137353864Y-90732806D01*
X137442947Y-90768919D01*
X137224450Y-90885096D01*
X137014741Y-91056131D01*
X136842247Y-91264640D01*
X136713538Y-91502683D01*
X136633516Y-91761191D01*
X136605230Y-92030320D01*
X136629756Y-92299817D01*
X136706161Y-92559418D01*
X136831534Y-92799235D01*
X137001100Y-93010132D01*
X137208400Y-93184078D01*
X137445538Y-93314445D01*
X137703482Y-93396270D01*
X137737000Y-93400030D01*
X137737000Y-93500000D01*
X137743878Y-93570144D01*
X137750020Y-93640355D01*
X137751140Y-93644208D01*
X137751531Y-93648201D01*
X137771905Y-93715684D01*
X137791565Y-93783353D01*
X137793411Y-93786914D01*
X137794571Y-93790757D01*
X137827663Y-93852994D01*
X137860094Y-93915560D01*
X137862598Y-93918697D01*
X137864481Y-93922238D01*
X137909004Y-93976828D01*
X137952997Y-94031937D01*
X137958503Y-94037520D01*
X137958598Y-94037636D01*
X137958706Y-94037725D01*
X137960478Y-94039522D01*
X141210477Y-97289522D01*
X141264923Y-97334245D01*
X141318930Y-97379562D01*
X141322447Y-97381496D01*
X141325546Y-97384041D01*
X141387665Y-97417349D01*
X141449422Y-97451300D01*
X141453244Y-97452512D01*
X141456783Y-97454410D01*
X141524186Y-97475017D01*
X141591363Y-97496327D01*
X141595353Y-97496775D01*
X141599188Y-97497947D01*
X141636090Y-97501695D01*
X141648203Y-97624678D01*
X141684570Y-97744564D01*
X141743627Y-97855052D01*
X141823104Y-97951896D01*
X141881719Y-98000000D01*
X141823104Y-98048104D01*
X141743627Y-98144948D01*
X141684570Y-98255436D01*
X141648203Y-98375322D01*
X141637006Y-98489000D01*
X139065815Y-98489000D01*
X138979714Y-98359407D01*
X138788109Y-98166460D01*
X138562677Y-98014404D01*
X138461042Y-97971681D01*
X138498473Y-97958195D01*
X138613657Y-97896629D01*
X138679112Y-97657303D01*
X137900000Y-96878191D01*
X137120888Y-97657303D01*
X137186343Y-97896629D01*
X137342101Y-97969878D01*
X137254499Y-98005271D01*
X137026966Y-98154165D01*
X136832686Y-98344418D01*
X136679060Y-98568783D01*
X136571939Y-98818714D01*
X136562996Y-98860787D01*
X134857881Y-100565903D01*
X134813280Y-100620200D01*
X134768078Y-100674071D01*
X134766150Y-100677577D01*
X134763610Y-100680670D01*
X134730370Y-100742662D01*
X134696527Y-100804221D01*
X134695318Y-100808031D01*
X134693425Y-100811562D01*
X134672861Y-100878827D01*
X134651619Y-100945790D01*
X134651173Y-100949767D01*
X134650003Y-100953594D01*
X134642902Y-101023497D01*
X134635063Y-101093386D01*
X134635008Y-101101212D01*
X134634994Y-101101355D01*
X134635007Y-101101488D01*
X134634989Y-101104011D01*
X134634989Y-108495989D01*
X134641845Y-108565910D01*
X134647975Y-108635976D01*
X134649092Y-108639819D01*
X134649482Y-108643801D01*
X134669800Y-108711099D01*
X134689411Y-108778600D01*
X134691252Y-108782151D01*
X134692409Y-108785984D01*
X134725428Y-108848083D01*
X134757761Y-108910459D01*
X134760256Y-108913585D01*
X134762136Y-108917120D01*
X134806567Y-108971598D01*
X134850420Y-109026532D01*
X134855911Y-109032100D01*
X134856006Y-109032216D01*
X134856114Y-109032305D01*
X134857881Y-109034097D01*
X135123784Y-109300000D01*
X134861892Y-109561892D01*
X134817291Y-109616189D01*
X134772089Y-109670060D01*
X134770161Y-109673566D01*
X134767621Y-109676659D01*
X134734381Y-109738651D01*
X134700538Y-109800210D01*
X134699329Y-109804020D01*
X134697436Y-109807551D01*
X134676872Y-109874816D01*
X134655630Y-109941779D01*
X134655184Y-109945756D01*
X134654014Y-109949583D01*
X134646913Y-110019486D01*
X134639074Y-110089375D01*
X134639019Y-110097201D01*
X134639005Y-110097344D01*
X134639018Y-110097477D01*
X134639000Y-110100000D01*
X134639000Y-116400000D01*
X134645856Y-116469921D01*
X134651986Y-116539987D01*
X134653103Y-116543830D01*
X134653493Y-116547812D01*
X134673811Y-116615110D01*
X134693422Y-116682611D01*
X134695263Y-116686162D01*
X134696420Y-116689995D01*
X134729439Y-116752094D01*
X134761772Y-116814470D01*
X134764267Y-116817596D01*
X134766147Y-116821131D01*
X134810578Y-116875609D01*
X134854431Y-116930543D01*
X134859922Y-116936111D01*
X134860017Y-116936227D01*
X134860125Y-116936316D01*
X134861892Y-116938108D01*
X134974418Y-117050634D01*
X134985199Y-117064139D01*
X134992680Y-117071724D01*
X135310477Y-117389522D01*
X135364923Y-117434245D01*
X135418930Y-117479562D01*
X135422447Y-117481496D01*
X135425546Y-117484041D01*
X135487684Y-117517359D01*
X135549422Y-117551300D01*
X135553242Y-117552512D01*
X135556782Y-117554410D01*
X135624213Y-117575025D01*
X135691363Y-117596327D01*
X135695351Y-117596774D01*
X135699187Y-117597947D01*
X135769259Y-117605064D01*
X135839347Y-117612926D01*
X135847194Y-117612981D01*
X135847337Y-117612995D01*
X135847470Y-117612982D01*
X135850000Y-117613000D01*
X135937203Y-117613000D01*
X135948203Y-117724678D01*
X135984570Y-117844564D01*
X136043627Y-117955052D01*
X136123104Y-118051896D01*
X136180290Y-118098826D01*
X136169573Y-118105987D01*
X136080986Y-118194574D01*
X136011384Y-118298742D01*
X135963441Y-118414486D01*
X135939000Y-118537360D01*
X135939000Y-119065000D01*
X136098000Y-119224000D01*
X137074000Y-119224000D01*
X137074000Y-119204000D01*
X137326000Y-119204000D01*
X137326000Y-119224000D01*
X138302000Y-119224000D01*
X138461000Y-119065000D01*
X138461000Y-118537360D01*
X138436559Y-118414486D01*
X138388616Y-118298742D01*
X138319014Y-118194574D01*
X138230427Y-118105987D01*
X138219710Y-118098826D01*
X138276896Y-118051896D01*
X138356373Y-117955052D01*
X138415430Y-117844564D01*
X138451797Y-117724678D01*
X138464077Y-117600000D01*
X138464077Y-116100000D01*
X138451797Y-115975322D01*
X138431197Y-115907413D01*
X142569903Y-120046120D01*
X142624230Y-120090744D01*
X142678071Y-120135922D01*
X142681577Y-120137850D01*
X142684670Y-120140390D01*
X142746643Y-120173620D01*
X142808221Y-120207473D01*
X142812033Y-120208682D01*
X142815563Y-120210575D01*
X142882854Y-120231148D01*
X142949790Y-120252381D01*
X142953763Y-120252827D01*
X142957594Y-120253998D01*
X143027592Y-120261108D01*
X143097386Y-120268937D01*
X143105202Y-120268991D01*
X143105355Y-120269007D01*
X143105498Y-120268993D01*
X143108011Y-120269011D01*
X143407087Y-120269011D01*
X143424258Y-120270937D01*
X143434911Y-120271011D01*
X149772000Y-120271011D01*
X149772000Y-121508746D01*
X149694583Y-121689374D01*
X149585799Y-122201162D01*
X149578493Y-122724333D01*
X149672945Y-123238959D01*
X149772000Y-123489143D01*
X149772000Y-124800000D01*
X149774785Y-124814000D01*
X134186000Y-124814000D01*
X134186000Y-119635000D01*
X135939000Y-119635000D01*
X135939000Y-120162640D01*
X135963441Y-120285514D01*
X136011384Y-120401258D01*
X136080986Y-120505426D01*
X136169573Y-120594013D01*
X136273741Y-120663616D01*
X136389485Y-120711559D01*
X136512359Y-120736000D01*
X136915000Y-120736000D01*
X137074000Y-120577000D01*
X137074000Y-119476000D01*
X137326000Y-119476000D01*
X137326000Y-120577000D01*
X137485000Y-120736000D01*
X137887641Y-120736000D01*
X138010515Y-120711559D01*
X138126259Y-120663616D01*
X138230427Y-120594013D01*
X138319014Y-120505426D01*
X138388616Y-120401258D01*
X138436559Y-120285514D01*
X138461000Y-120162640D01*
X138461000Y-119635000D01*
X138302000Y-119476000D01*
X137326000Y-119476000D01*
X137074000Y-119476000D01*
X136098000Y-119476000D01*
X135939000Y-119635000D01*
X134186000Y-119635000D01*
X134186000Y-96771427D01*
X136508553Y-96771427D01*
X136549225Y-97041512D01*
X136641805Y-97298473D01*
X136703371Y-97413657D01*
X136942697Y-97479112D01*
X137721809Y-96700000D01*
X138078191Y-96700000D01*
X138857303Y-97479112D01*
X139096629Y-97413657D01*
X139212863Y-97166493D01*
X139278645Y-96901403D01*
X139291447Y-96628573D01*
X139250775Y-96358488D01*
X139158195Y-96101527D01*
X139096629Y-95986343D01*
X138857303Y-95920888D01*
X138078191Y-96700000D01*
X137721809Y-96700000D01*
X136942697Y-95920888D01*
X136703371Y-95986343D01*
X136587137Y-96233507D01*
X136521355Y-96498597D01*
X136508553Y-96771427D01*
X134186000Y-96771427D01*
X134186000Y-95742697D01*
X137120888Y-95742697D01*
X137900000Y-96521809D01*
X138679112Y-95742697D01*
X138613657Y-95503371D01*
X138366493Y-95387137D01*
X138101403Y-95321355D01*
X137828573Y-95308553D01*
X137558488Y-95349225D01*
X137301527Y-95441805D01*
X137186343Y-95503371D01*
X137120888Y-95742697D01*
X134186000Y-95742697D01*
X134186000Y-86950320D01*
X136605230Y-86950320D01*
X136629756Y-87219817D01*
X136706161Y-87479418D01*
X136831534Y-87719235D01*
X137001100Y-87930132D01*
X137208400Y-88104078D01*
X137440916Y-88231904D01*
X137353864Y-88267194D01*
X137125788Y-88417111D01*
X136931342Y-88608642D01*
X136777998Y-88834428D01*
X136671649Y-89085791D01*
X136656768Y-89159541D01*
X136779804Y-89374000D01*
X138374000Y-89374000D01*
X138374000Y-89354000D01*
X138626000Y-89354000D01*
X138626000Y-89374000D01*
X140220196Y-89374000D01*
X140343232Y-89159541D01*
X140328351Y-89085791D01*
X140222002Y-88834428D01*
X140068658Y-88608642D01*
X139874212Y-88417111D01*
X139646136Y-88267194D01*
X139557053Y-88231081D01*
X139775550Y-88114904D01*
X139985259Y-87943869D01*
X140157753Y-87735360D01*
X140286462Y-87497317D01*
X140366484Y-87238809D01*
X140394770Y-86969680D01*
X140370244Y-86700183D01*
X140293839Y-86440582D01*
X140168466Y-86200765D01*
X139998900Y-85989868D01*
X139791600Y-85815922D01*
X139554462Y-85685555D01*
X139296518Y-85603730D01*
X139027594Y-85573565D01*
X139008234Y-85573430D01*
X137991766Y-85573430D01*
X137722446Y-85599837D01*
X137463385Y-85678052D01*
X137224450Y-85805096D01*
X137014741Y-85976131D01*
X136842247Y-86184640D01*
X136713538Y-86422683D01*
X136633516Y-86681191D01*
X136605230Y-86950320D01*
X134186000Y-86950320D01*
X134186000Y-84186000D01*
X141310956Y-84186000D01*
X141354636Y-84329998D01*
X141354636Y-84329998D01*
G37*
X141354636Y-84329998D02*
X141372000Y-84506292D01*
X141372000Y-94500000D01*
X141372616Y-94512546D01*
X141391831Y-94707636D01*
X141396727Y-94732246D01*
X141453632Y-94919839D01*
X141463234Y-94943022D01*
X141555644Y-95115909D01*
X141569585Y-95136772D01*
X141693948Y-95288309D01*
X141711691Y-95306052D01*
X141863228Y-95430415D01*
X141884091Y-95444356D01*
X141924723Y-95466074D01*
X141919948Y-95468627D01*
X141823104Y-95548104D01*
X141743627Y-95644948D01*
X141736788Y-95657743D01*
X139432443Y-93353399D01*
X139536615Y-93321948D01*
X139775550Y-93194904D01*
X139985259Y-93023869D01*
X140157753Y-92815360D01*
X140286462Y-92577317D01*
X140366484Y-92318809D01*
X140394770Y-92049680D01*
X140370244Y-91780183D01*
X140293839Y-91520582D01*
X140168466Y-91280765D01*
X139998900Y-91069868D01*
X139791600Y-90895922D01*
X139559084Y-90768096D01*
X139646136Y-90732806D01*
X139874212Y-90582889D01*
X140068658Y-90391358D01*
X140222002Y-90165572D01*
X140328351Y-89914209D01*
X140343232Y-89840459D01*
X140220196Y-89626000D01*
X138626000Y-89626000D01*
X138626000Y-89646000D01*
X138374000Y-89646000D01*
X138374000Y-89626000D01*
X136779804Y-89626000D01*
X136656768Y-89840459D01*
X136671649Y-89914209D01*
X136777998Y-90165572D01*
X136931342Y-90391358D01*
X137125788Y-90582889D01*
X137353864Y-90732806D01*
X137442947Y-90768919D01*
X137224450Y-90885096D01*
X137014741Y-91056131D01*
X136842247Y-91264640D01*
X136713538Y-91502683D01*
X136633516Y-91761191D01*
X136605230Y-92030320D01*
X136629756Y-92299817D01*
X136706161Y-92559418D01*
X136831534Y-92799235D01*
X137001100Y-93010132D01*
X137208400Y-93184078D01*
X137445538Y-93314445D01*
X137703482Y-93396270D01*
X137737000Y-93400030D01*
X137737000Y-93500000D01*
X137743878Y-93570144D01*
X137750020Y-93640355D01*
X137751140Y-93644208D01*
X137751531Y-93648201D01*
X137771905Y-93715684D01*
X137791565Y-93783353D01*
X137793411Y-93786914D01*
X137794571Y-93790757D01*
X137827663Y-93852994D01*
X137860094Y-93915560D01*
X137862598Y-93918697D01*
X137864481Y-93922238D01*
X137909004Y-93976828D01*
X137952997Y-94031937D01*
X137958503Y-94037520D01*
X137958598Y-94037636D01*
X137958706Y-94037725D01*
X137960478Y-94039522D01*
X141210477Y-97289522D01*
X141264923Y-97334245D01*
X141318930Y-97379562D01*
X141322447Y-97381496D01*
X141325546Y-97384041D01*
X141387665Y-97417349D01*
X141449422Y-97451300D01*
X141453244Y-97452512D01*
X141456783Y-97454410D01*
X141524186Y-97475017D01*
X141591363Y-97496327D01*
X141595353Y-97496775D01*
X141599188Y-97497947D01*
X141636090Y-97501695D01*
X141648203Y-97624678D01*
X141684570Y-97744564D01*
X141743627Y-97855052D01*
X141823104Y-97951896D01*
X141881719Y-98000000D01*
X141823104Y-98048104D01*
X141743627Y-98144948D01*
X141684570Y-98255436D01*
X141648203Y-98375322D01*
X141637006Y-98489000D01*
X139065815Y-98489000D01*
X138979714Y-98359407D01*
X138788109Y-98166460D01*
X138562677Y-98014404D01*
X138461042Y-97971681D01*
X138498473Y-97958195D01*
X138613657Y-97896629D01*
X138679112Y-97657303D01*
X137900000Y-96878191D01*
X137120888Y-97657303D01*
X137186343Y-97896629D01*
X137342101Y-97969878D01*
X137254499Y-98005271D01*
X137026966Y-98154165D01*
X136832686Y-98344418D01*
X136679060Y-98568783D01*
X136571939Y-98818714D01*
X136562996Y-98860787D01*
X134857881Y-100565903D01*
X134813280Y-100620200D01*
X134768078Y-100674071D01*
X134766150Y-100677577D01*
X134763610Y-100680670D01*
X134730370Y-100742662D01*
X134696527Y-100804221D01*
X134695318Y-100808031D01*
X134693425Y-100811562D01*
X134672861Y-100878827D01*
X134651619Y-100945790D01*
X134651173Y-100949767D01*
X134650003Y-100953594D01*
X134642902Y-101023497D01*
X134635063Y-101093386D01*
X134635008Y-101101212D01*
X134634994Y-101101355D01*
X134635007Y-101101488D01*
X134634989Y-101104011D01*
X134634989Y-108495989D01*
X134641845Y-108565910D01*
X134647975Y-108635976D01*
X134649092Y-108639819D01*
X134649482Y-108643801D01*
X134669800Y-108711099D01*
X134689411Y-108778600D01*
X134691252Y-108782151D01*
X134692409Y-108785984D01*
X134725428Y-108848083D01*
X134757761Y-108910459D01*
X134760256Y-108913585D01*
X134762136Y-108917120D01*
X134806567Y-108971598D01*
X134850420Y-109026532D01*
X134855911Y-109032100D01*
X134856006Y-109032216D01*
X134856114Y-109032305D01*
X134857881Y-109034097D01*
X135123784Y-109300000D01*
X134861892Y-109561892D01*
X134817291Y-109616189D01*
X134772089Y-109670060D01*
X134770161Y-109673566D01*
X134767621Y-109676659D01*
X134734381Y-109738651D01*
X134700538Y-109800210D01*
X134699329Y-109804020D01*
X134697436Y-109807551D01*
X134676872Y-109874816D01*
X134655630Y-109941779D01*
X134655184Y-109945756D01*
X134654014Y-109949583D01*
X134646913Y-110019486D01*
X134639074Y-110089375D01*
X134639019Y-110097201D01*
X134639005Y-110097344D01*
X134639018Y-110097477D01*
X134639000Y-110100000D01*
X134639000Y-116400000D01*
X134645856Y-116469921D01*
X134651986Y-116539987D01*
X134653103Y-116543830D01*
X134653493Y-116547812D01*
X134673811Y-116615110D01*
X134693422Y-116682611D01*
X134695263Y-116686162D01*
X134696420Y-116689995D01*
X134729439Y-116752094D01*
X134761772Y-116814470D01*
X134764267Y-116817596D01*
X134766147Y-116821131D01*
X134810578Y-116875609D01*
X134854431Y-116930543D01*
X134859922Y-116936111D01*
X134860017Y-116936227D01*
X134860125Y-116936316D01*
X134861892Y-116938108D01*
X134974418Y-117050634D01*
X134985199Y-117064139D01*
X134992680Y-117071724D01*
X135310477Y-117389522D01*
X135364923Y-117434245D01*
X135418930Y-117479562D01*
X135422447Y-117481496D01*
X135425546Y-117484041D01*
X135487684Y-117517359D01*
X135549422Y-117551300D01*
X135553242Y-117552512D01*
X135556782Y-117554410D01*
X135624213Y-117575025D01*
X135691363Y-117596327D01*
X135695351Y-117596774D01*
X135699187Y-117597947D01*
X135769259Y-117605064D01*
X135839347Y-117612926D01*
X135847194Y-117612981D01*
X135847337Y-117612995D01*
X135847470Y-117612982D01*
X135850000Y-117613000D01*
X135937203Y-117613000D01*
X135948203Y-117724678D01*
X135984570Y-117844564D01*
X136043627Y-117955052D01*
X136123104Y-118051896D01*
X136180290Y-118098826D01*
X136169573Y-118105987D01*
X136080986Y-118194574D01*
X136011384Y-118298742D01*
X135963441Y-118414486D01*
X135939000Y-118537360D01*
X135939000Y-119065000D01*
X136098000Y-119224000D01*
X137074000Y-119224000D01*
X137074000Y-119204000D01*
X137326000Y-119204000D01*
X137326000Y-119224000D01*
X138302000Y-119224000D01*
X138461000Y-119065000D01*
X138461000Y-118537360D01*
X138436559Y-118414486D01*
X138388616Y-118298742D01*
X138319014Y-118194574D01*
X138230427Y-118105987D01*
X138219710Y-118098826D01*
X138276896Y-118051896D01*
X138356373Y-117955052D01*
X138415430Y-117844564D01*
X138451797Y-117724678D01*
X138464077Y-117600000D01*
X138464077Y-116100000D01*
X138451797Y-115975322D01*
X138431197Y-115907413D01*
X142569903Y-120046120D01*
X142624230Y-120090744D01*
X142678071Y-120135922D01*
X142681577Y-120137850D01*
X142684670Y-120140390D01*
X142746643Y-120173620D01*
X142808221Y-120207473D01*
X142812033Y-120208682D01*
X142815563Y-120210575D01*
X142882854Y-120231148D01*
X142949790Y-120252381D01*
X142953763Y-120252827D01*
X142957594Y-120253998D01*
X143027592Y-120261108D01*
X143097386Y-120268937D01*
X143105202Y-120268991D01*
X143105355Y-120269007D01*
X143105498Y-120268993D01*
X143108011Y-120269011D01*
X143407087Y-120269011D01*
X143424258Y-120270937D01*
X143434911Y-120271011D01*
X149772000Y-120271011D01*
X149772000Y-121508746D01*
X149694583Y-121689374D01*
X149585799Y-122201162D01*
X149578493Y-122724333D01*
X149672945Y-123238959D01*
X149772000Y-123489143D01*
X149772000Y-124800000D01*
X149774785Y-124814000D01*
X134186000Y-124814000D01*
X134186000Y-119635000D01*
X135939000Y-119635000D01*
X135939000Y-120162640D01*
X135963441Y-120285514D01*
X136011384Y-120401258D01*
X136080986Y-120505426D01*
X136169573Y-120594013D01*
X136273741Y-120663616D01*
X136389485Y-120711559D01*
X136512359Y-120736000D01*
X136915000Y-120736000D01*
X137074000Y-120577000D01*
X137074000Y-119476000D01*
X137326000Y-119476000D01*
X137326000Y-120577000D01*
X137485000Y-120736000D01*
X137887641Y-120736000D01*
X138010515Y-120711559D01*
X138126259Y-120663616D01*
X138230427Y-120594013D01*
X138319014Y-120505426D01*
X138388616Y-120401258D01*
X138436559Y-120285514D01*
X138461000Y-120162640D01*
X138461000Y-119635000D01*
X138302000Y-119476000D01*
X137326000Y-119476000D01*
X137074000Y-119476000D01*
X136098000Y-119476000D01*
X135939000Y-119635000D01*
X134186000Y-119635000D01*
X134186000Y-96771427D01*
X136508553Y-96771427D01*
X136549225Y-97041512D01*
X136641805Y-97298473D01*
X136703371Y-97413657D01*
X136942697Y-97479112D01*
X137721809Y-96700000D01*
X138078191Y-96700000D01*
X138857303Y-97479112D01*
X139096629Y-97413657D01*
X139212863Y-97166493D01*
X139278645Y-96901403D01*
X139291447Y-96628573D01*
X139250775Y-96358488D01*
X139158195Y-96101527D01*
X139096629Y-95986343D01*
X138857303Y-95920888D01*
X138078191Y-96700000D01*
X137721809Y-96700000D01*
X136942697Y-95920888D01*
X136703371Y-95986343D01*
X136587137Y-96233507D01*
X136521355Y-96498597D01*
X136508553Y-96771427D01*
X134186000Y-96771427D01*
X134186000Y-95742697D01*
X137120888Y-95742697D01*
X137900000Y-96521809D01*
X138679112Y-95742697D01*
X138613657Y-95503371D01*
X138366493Y-95387137D01*
X138101403Y-95321355D01*
X137828573Y-95308553D01*
X137558488Y-95349225D01*
X137301527Y-95441805D01*
X137186343Y-95503371D01*
X137120888Y-95742697D01*
X134186000Y-95742697D01*
X134186000Y-86950320D01*
X136605230Y-86950320D01*
X136629756Y-87219817D01*
X136706161Y-87479418D01*
X136831534Y-87719235D01*
X137001100Y-87930132D01*
X137208400Y-88104078D01*
X137440916Y-88231904D01*
X137353864Y-88267194D01*
X137125788Y-88417111D01*
X136931342Y-88608642D01*
X136777998Y-88834428D01*
X136671649Y-89085791D01*
X136656768Y-89159541D01*
X136779804Y-89374000D01*
X138374000Y-89374000D01*
X138374000Y-89354000D01*
X138626000Y-89354000D01*
X138626000Y-89374000D01*
X140220196Y-89374000D01*
X140343232Y-89159541D01*
X140328351Y-89085791D01*
X140222002Y-88834428D01*
X140068658Y-88608642D01*
X139874212Y-88417111D01*
X139646136Y-88267194D01*
X139557053Y-88231081D01*
X139775550Y-88114904D01*
X139985259Y-87943869D01*
X140157753Y-87735360D01*
X140286462Y-87497317D01*
X140366484Y-87238809D01*
X140394770Y-86969680D01*
X140370244Y-86700183D01*
X140293839Y-86440582D01*
X140168466Y-86200765D01*
X139998900Y-85989868D01*
X139791600Y-85815922D01*
X139554462Y-85685555D01*
X139296518Y-85603730D01*
X139027594Y-85573565D01*
X139008234Y-85573430D01*
X137991766Y-85573430D01*
X137722446Y-85599837D01*
X137463385Y-85678052D01*
X137224450Y-85805096D01*
X137014741Y-85976131D01*
X136842247Y-86184640D01*
X136713538Y-86422683D01*
X136633516Y-86681191D01*
X136605230Y-86950320D01*
X134186000Y-86950320D01*
X134186000Y-84186000D01*
X141310956Y-84186000D01*
X141354636Y-84329998D01*
G36*
X164589000Y-114712006D02*
X164475322Y-114723203D01*
X164355436Y-114759570D01*
X164244948Y-114818627D01*
X164148104Y-114898104D01*
X164068627Y-114994948D01*
X164009570Y-115105436D01*
X164000071Y-115136750D01*
X163963616Y-115048741D01*
X163894013Y-114944573D01*
X163805426Y-114855986D01*
X163701258Y-114786384D01*
X163585514Y-114738441D01*
X163462640Y-114714000D01*
X162935000Y-114714000D01*
X162776000Y-114873000D01*
X162776000Y-115874000D01*
X162796000Y-115874000D01*
X162796000Y-116126000D01*
X162776000Y-116126000D01*
X162776000Y-116146000D01*
X162524000Y-116146000D01*
X162524000Y-116126000D01*
X162504000Y-116126000D01*
X162504000Y-115874000D01*
X162524000Y-115874000D01*
X162524000Y-114873000D01*
X162365000Y-114714000D01*
X162099344Y-114714000D01*
X162939522Y-113873823D01*
X162984245Y-113819377D01*
X163029562Y-113765370D01*
X163031496Y-113761853D01*
X163034041Y-113758754D01*
X163067359Y-113696616D01*
X163101300Y-113634878D01*
X163102512Y-113631058D01*
X163104410Y-113627518D01*
X163125025Y-113560087D01*
X163146327Y-113492937D01*
X163146774Y-113488949D01*
X163147947Y-113485113D01*
X163155064Y-113415041D01*
X163162926Y-113344953D01*
X163162981Y-113337106D01*
X163162995Y-113336963D01*
X163162982Y-113336830D01*
X163163000Y-113334300D01*
X163163000Y-111500000D01*
X163156122Y-111429856D01*
X163149980Y-111359645D01*
X163148860Y-111355792D01*
X163148469Y-111351799D01*
X163128095Y-111284316D01*
X163108435Y-111216647D01*
X163106589Y-111213087D01*
X163105429Y-111209243D01*
X163072326Y-111146985D01*
X163039906Y-111084441D01*
X163037403Y-111081306D01*
X163035519Y-111077762D01*
X162990978Y-111023150D01*
X162947003Y-110968063D01*
X162941493Y-110962476D01*
X162941402Y-110962364D01*
X162941298Y-110962278D01*
X162939523Y-110960478D01*
X162139522Y-110160478D01*
X162085101Y-110115776D01*
X162031070Y-110070438D01*
X162027553Y-110068504D01*
X162024454Y-110065959D01*
X161962335Y-110032651D01*
X161900578Y-109998700D01*
X161896756Y-109997488D01*
X161893217Y-109995590D01*
X161825814Y-109974983D01*
X161758637Y-109953673D01*
X161754647Y-109953225D01*
X161750812Y-109952053D01*
X161680746Y-109944936D01*
X161610653Y-109937074D01*
X161602806Y-109937019D01*
X161602663Y-109937005D01*
X161602530Y-109937018D01*
X161600000Y-109937000D01*
X159542044Y-109937000D01*
X159862722Y-109616323D01*
X159907445Y-109561877D01*
X159952762Y-109507870D01*
X159954696Y-109504353D01*
X159957241Y-109501254D01*
X159990559Y-109439116D01*
X160024500Y-109377378D01*
X160025712Y-109373558D01*
X160027610Y-109370018D01*
X160048225Y-109302587D01*
X160069527Y-109235437D01*
X160069974Y-109231449D01*
X160071147Y-109227613D01*
X160077111Y-109168901D01*
X160308891Y-109270163D01*
X160613145Y-109337058D01*
X160924598Y-109343582D01*
X161231386Y-109289487D01*
X161521824Y-109176833D01*
X161784850Y-109009912D01*
X162010445Y-108795081D01*
X162190016Y-108540523D01*
X162202226Y-108513100D01*
X164589000Y-108513100D01*
X164589000Y-114712006D01*
X164589000Y-114712006D01*
G37*
X164589000Y-114712006D02*
X164475322Y-114723203D01*
X164355436Y-114759570D01*
X164244948Y-114818627D01*
X164148104Y-114898104D01*
X164068627Y-114994948D01*
X164009570Y-115105436D01*
X164000071Y-115136750D01*
X163963616Y-115048741D01*
X163894013Y-114944573D01*
X163805426Y-114855986D01*
X163701258Y-114786384D01*
X163585514Y-114738441D01*
X163462640Y-114714000D01*
X162935000Y-114714000D01*
X162776000Y-114873000D01*
X162776000Y-115874000D01*
X162796000Y-115874000D01*
X162796000Y-116126000D01*
X162776000Y-116126000D01*
X162776000Y-116146000D01*
X162524000Y-116146000D01*
X162524000Y-116126000D01*
X162504000Y-116126000D01*
X162504000Y-115874000D01*
X162524000Y-115874000D01*
X162524000Y-114873000D01*
X162365000Y-114714000D01*
X162099344Y-114714000D01*
X162939522Y-113873823D01*
X162984245Y-113819377D01*
X163029562Y-113765370D01*
X163031496Y-113761853D01*
X163034041Y-113758754D01*
X163067359Y-113696616D01*
X163101300Y-113634878D01*
X163102512Y-113631058D01*
X163104410Y-113627518D01*
X163125025Y-113560087D01*
X163146327Y-113492937D01*
X163146774Y-113488949D01*
X163147947Y-113485113D01*
X163155064Y-113415041D01*
X163162926Y-113344953D01*
X163162981Y-113337106D01*
X163162995Y-113336963D01*
X163162982Y-113336830D01*
X163163000Y-113334300D01*
X163163000Y-111500000D01*
X163156122Y-111429856D01*
X163149980Y-111359645D01*
X163148860Y-111355792D01*
X163148469Y-111351799D01*
X163128095Y-111284316D01*
X163108435Y-111216647D01*
X163106589Y-111213087D01*
X163105429Y-111209243D01*
X163072326Y-111146985D01*
X163039906Y-111084441D01*
X163037403Y-111081306D01*
X163035519Y-111077762D01*
X162990978Y-111023150D01*
X162947003Y-110968063D01*
X162941493Y-110962476D01*
X162941402Y-110962364D01*
X162941298Y-110962278D01*
X162939523Y-110960478D01*
X162139522Y-110160478D01*
X162085101Y-110115776D01*
X162031070Y-110070438D01*
X162027553Y-110068504D01*
X162024454Y-110065959D01*
X161962335Y-110032651D01*
X161900578Y-109998700D01*
X161896756Y-109997488D01*
X161893217Y-109995590D01*
X161825814Y-109974983D01*
X161758637Y-109953673D01*
X161754647Y-109953225D01*
X161750812Y-109952053D01*
X161680746Y-109944936D01*
X161610653Y-109937074D01*
X161602806Y-109937019D01*
X161602663Y-109937005D01*
X161602530Y-109937018D01*
X161600000Y-109937000D01*
X159542044Y-109937000D01*
X159862722Y-109616323D01*
X159907445Y-109561877D01*
X159952762Y-109507870D01*
X159954696Y-109504353D01*
X159957241Y-109501254D01*
X159990559Y-109439116D01*
X160024500Y-109377378D01*
X160025712Y-109373558D01*
X160027610Y-109370018D01*
X160048225Y-109302587D01*
X160069527Y-109235437D01*
X160069974Y-109231449D01*
X160071147Y-109227613D01*
X160077111Y-109168901D01*
X160308891Y-109270163D01*
X160613145Y-109337058D01*
X160924598Y-109343582D01*
X161231386Y-109289487D01*
X161521824Y-109176833D01*
X161784850Y-109009912D01*
X162010445Y-108795081D01*
X162190016Y-108540523D01*
X162202226Y-108513100D01*
X164589000Y-108513100D01*
X164589000Y-114712006D01*
G36*
X151442333Y-115485858D02*
X151428191Y-115500000D01*
X151442333Y-115514142D01*
X151264142Y-115692333D01*
X151250000Y-115678191D01*
X151235858Y-115692333D01*
X151057667Y-115514142D01*
X151071809Y-115500000D01*
X151057667Y-115485858D01*
X151235858Y-115307667D01*
X151250000Y-115321809D01*
X151264142Y-115307667D01*
X151442333Y-115485858D01*
X151442333Y-115485858D01*
G37*
X151442333Y-115485858D02*
X151428191Y-115500000D01*
X151442333Y-115514142D01*
X151264142Y-115692333D01*
X151250000Y-115678191D01*
X151235858Y-115692333D01*
X151057667Y-115514142D01*
X151071809Y-115500000D01*
X151057667Y-115485858D01*
X151235858Y-115307667D01*
X151250000Y-115321809D01*
X151264142Y-115307667D01*
X151442333Y-115485858D01*
G36*
X151514000Y-101265000D02*
X151673000Y-101424000D01*
X152674000Y-101424000D01*
X152674000Y-101404000D01*
X152926000Y-101404000D01*
X152926000Y-101424000D01*
X152946000Y-101424000D01*
X152946000Y-101676000D01*
X152926000Y-101676000D01*
X152926000Y-101696000D01*
X152674000Y-101696000D01*
X152674000Y-101676000D01*
X151673000Y-101676000D01*
X151514000Y-101835000D01*
X151514000Y-102362640D01*
X151538441Y-102485514D01*
X151586384Y-102601258D01*
X151655986Y-102705426D01*
X151744573Y-102794013D01*
X151848741Y-102863616D01*
X151936750Y-102900071D01*
X151905436Y-102909570D01*
X151794948Y-102968627D01*
X151698104Y-103048104D01*
X151618627Y-103144948D01*
X151559570Y-103255436D01*
X151523203Y-103375322D01*
X151510923Y-103500000D01*
X151510923Y-103528702D01*
X151466646Y-103541566D01*
X151463089Y-103543410D01*
X151459243Y-103544571D01*
X151396989Y-103577672D01*
X151334440Y-103610094D01*
X151331303Y-103612598D01*
X151327762Y-103614481D01*
X151273196Y-103658984D01*
X151218062Y-103702997D01*
X151212475Y-103708508D01*
X151212364Y-103708598D01*
X151212279Y-103708701D01*
X151210477Y-103710478D01*
X150960478Y-103960478D01*
X150915776Y-104014899D01*
X150870438Y-104068930D01*
X150868504Y-104072447D01*
X150865959Y-104075546D01*
X150832651Y-104137665D01*
X150798700Y-104199422D01*
X150797488Y-104203244D01*
X150795590Y-104206783D01*
X150774983Y-104274186D01*
X150753673Y-104341363D01*
X150753225Y-104345353D01*
X150752053Y-104349188D01*
X150744936Y-104419254D01*
X150737074Y-104489347D01*
X150737019Y-104497194D01*
X150737005Y-104497337D01*
X150737018Y-104497470D01*
X150737000Y-104500000D01*
X150737000Y-108737000D01*
X150000000Y-108737000D01*
X149929856Y-108743878D01*
X149859645Y-108750020D01*
X149855792Y-108751140D01*
X149851799Y-108751531D01*
X149784316Y-108771905D01*
X149716647Y-108791565D01*
X149713087Y-108793411D01*
X149709243Y-108794571D01*
X149646985Y-108827674D01*
X149584441Y-108860094D01*
X149581306Y-108862597D01*
X149577762Y-108864481D01*
X149523150Y-108909022D01*
X149468063Y-108952997D01*
X149462476Y-108958507D01*
X149462364Y-108958598D01*
X149462278Y-108958702D01*
X149460478Y-108960477D01*
X147560478Y-110860478D01*
X147515776Y-110914899D01*
X147470438Y-110968930D01*
X147468504Y-110972447D01*
X147465959Y-110975546D01*
X147432651Y-111037665D01*
X147398700Y-111099422D01*
X147397488Y-111103244D01*
X147395590Y-111106783D01*
X147374983Y-111174186D01*
X147353673Y-111241363D01*
X147353225Y-111245353D01*
X147352053Y-111249188D01*
X147344936Y-111319254D01*
X147337074Y-111389347D01*
X147337019Y-111397194D01*
X147337005Y-111397337D01*
X147337018Y-111397470D01*
X147337000Y-111400000D01*
X147337000Y-111500000D01*
X147339000Y-111520398D01*
X147339000Y-111584783D01*
X147189077Y-111734706D01*
X147189077Y-111425000D01*
X147176797Y-111300322D01*
X147176699Y-111300000D01*
X147176797Y-111299678D01*
X147189077Y-111175000D01*
X147189077Y-110625000D01*
X147176797Y-110500322D01*
X147176699Y-110500000D01*
X147176797Y-110499678D01*
X147189077Y-110375000D01*
X147189077Y-109825000D01*
X147176797Y-109700322D01*
X147174825Y-109693821D01*
X147186000Y-109637641D01*
X147186000Y-109585000D01*
X147093344Y-109492344D01*
X147081373Y-109469948D01*
X147001896Y-109373104D01*
X146912818Y-109300000D01*
X147001896Y-109226896D01*
X147081373Y-109130052D01*
X147093344Y-109107656D01*
X147186000Y-109015000D01*
X147186000Y-108962359D01*
X147174825Y-108906179D01*
X147176797Y-108899678D01*
X147189077Y-108775000D01*
X147189077Y-108225000D01*
X147176797Y-108100322D01*
X147174825Y-108093821D01*
X147186000Y-108037641D01*
X147186000Y-107985000D01*
X147093344Y-107892344D01*
X147081373Y-107869948D01*
X147001896Y-107773104D01*
X146912818Y-107700000D01*
X147001896Y-107626896D01*
X147081373Y-107530052D01*
X147093344Y-107507656D01*
X147186000Y-107415000D01*
X147186000Y-107362359D01*
X147174825Y-107306179D01*
X147176797Y-107299678D01*
X147189077Y-107175000D01*
X147189077Y-106625000D01*
X147176797Y-106500322D01*
X147176699Y-106500000D01*
X147176797Y-106499678D01*
X147189077Y-106375000D01*
X147189077Y-105825000D01*
X147176797Y-105700322D01*
X147140430Y-105580436D01*
X147081373Y-105469948D01*
X147001896Y-105373104D01*
X146905052Y-105293627D01*
X146794564Y-105234570D01*
X146674678Y-105198203D01*
X146550000Y-105185923D01*
X145214077Y-105185923D01*
X145214077Y-103929700D01*
X146579030Y-103929700D01*
X146597054Y-103931658D01*
X146745399Y-103918680D01*
X146888397Y-103877135D01*
X147020604Y-103808606D01*
X147136981Y-103715703D01*
X147144566Y-103708222D01*
X148367321Y-102485467D01*
X149212724Y-102485467D01*
X149279565Y-102725959D01*
X149528679Y-102843337D01*
X149795905Y-102909859D01*
X150070975Y-102922971D01*
X150343317Y-102882166D01*
X150602466Y-102789015D01*
X150720435Y-102725959D01*
X150787276Y-102485467D01*
X150000000Y-101698191D01*
X149212724Y-102485467D01*
X148367321Y-102485467D01*
X148730810Y-102121978D01*
X148730985Y-102122466D01*
X148794041Y-102240435D01*
X149034533Y-102307276D01*
X149821809Y-101520000D01*
X149807667Y-101505858D01*
X149985858Y-101327667D01*
X150000000Y-101341809D01*
X150014142Y-101327667D01*
X150192333Y-101505858D01*
X150178191Y-101520000D01*
X150965467Y-102307276D01*
X151205959Y-102240435D01*
X151323337Y-101991321D01*
X151389859Y-101724095D01*
X151402971Y-101449025D01*
X151362166Y-101176683D01*
X151285358Y-100963002D01*
X151514000Y-100963002D01*
X151514000Y-101265000D01*
X151514000Y-101265000D01*
G37*
X151514000Y-101265000D02*
X151673000Y-101424000D01*
X152674000Y-101424000D01*
X152674000Y-101404000D01*
X152926000Y-101404000D01*
X152926000Y-101424000D01*
X152946000Y-101424000D01*
X152946000Y-101676000D01*
X152926000Y-101676000D01*
X152926000Y-101696000D01*
X152674000Y-101696000D01*
X152674000Y-101676000D01*
X151673000Y-101676000D01*
X151514000Y-101835000D01*
X151514000Y-102362640D01*
X151538441Y-102485514D01*
X151586384Y-102601258D01*
X151655986Y-102705426D01*
X151744573Y-102794013D01*
X151848741Y-102863616D01*
X151936750Y-102900071D01*
X151905436Y-102909570D01*
X151794948Y-102968627D01*
X151698104Y-103048104D01*
X151618627Y-103144948D01*
X151559570Y-103255436D01*
X151523203Y-103375322D01*
X151510923Y-103500000D01*
X151510923Y-103528702D01*
X151466646Y-103541566D01*
X151463089Y-103543410D01*
X151459243Y-103544571D01*
X151396989Y-103577672D01*
X151334440Y-103610094D01*
X151331303Y-103612598D01*
X151327762Y-103614481D01*
X151273196Y-103658984D01*
X151218062Y-103702997D01*
X151212475Y-103708508D01*
X151212364Y-103708598D01*
X151212279Y-103708701D01*
X151210477Y-103710478D01*
X150960478Y-103960478D01*
X150915776Y-104014899D01*
X150870438Y-104068930D01*
X150868504Y-104072447D01*
X150865959Y-104075546D01*
X150832651Y-104137665D01*
X150798700Y-104199422D01*
X150797488Y-104203244D01*
X150795590Y-104206783D01*
X150774983Y-104274186D01*
X150753673Y-104341363D01*
X150753225Y-104345353D01*
X150752053Y-104349188D01*
X150744936Y-104419254D01*
X150737074Y-104489347D01*
X150737019Y-104497194D01*
X150737005Y-104497337D01*
X150737018Y-104497470D01*
X150737000Y-104500000D01*
X150737000Y-108737000D01*
X150000000Y-108737000D01*
X149929856Y-108743878D01*
X149859645Y-108750020D01*
X149855792Y-108751140D01*
X149851799Y-108751531D01*
X149784316Y-108771905D01*
X149716647Y-108791565D01*
X149713087Y-108793411D01*
X149709243Y-108794571D01*
X149646985Y-108827674D01*
X149584441Y-108860094D01*
X149581306Y-108862597D01*
X149577762Y-108864481D01*
X149523150Y-108909022D01*
X149468063Y-108952997D01*
X149462476Y-108958507D01*
X149462364Y-108958598D01*
X149462278Y-108958702D01*
X149460478Y-108960477D01*
X147560478Y-110860478D01*
X147515776Y-110914899D01*
X147470438Y-110968930D01*
X147468504Y-110972447D01*
X147465959Y-110975546D01*
X147432651Y-111037665D01*
X147398700Y-111099422D01*
X147397488Y-111103244D01*
X147395590Y-111106783D01*
X147374983Y-111174186D01*
X147353673Y-111241363D01*
X147353225Y-111245353D01*
X147352053Y-111249188D01*
X147344936Y-111319254D01*
X147337074Y-111389347D01*
X147337019Y-111397194D01*
X147337005Y-111397337D01*
X147337018Y-111397470D01*
X147337000Y-111400000D01*
X147337000Y-111500000D01*
X147339000Y-111520398D01*
X147339000Y-111584783D01*
X147189077Y-111734706D01*
X147189077Y-111425000D01*
X147176797Y-111300322D01*
X147176699Y-111300000D01*
X147176797Y-111299678D01*
X147189077Y-111175000D01*
X147189077Y-110625000D01*
X147176797Y-110500322D01*
X147176699Y-110500000D01*
X147176797Y-110499678D01*
X147189077Y-110375000D01*
X147189077Y-109825000D01*
X147176797Y-109700322D01*
X147174825Y-109693821D01*
X147186000Y-109637641D01*
X147186000Y-109585000D01*
X147093344Y-109492344D01*
X147081373Y-109469948D01*
X147001896Y-109373104D01*
X146912818Y-109300000D01*
X147001896Y-109226896D01*
X147081373Y-109130052D01*
X147093344Y-109107656D01*
X147186000Y-109015000D01*
X147186000Y-108962359D01*
X147174825Y-108906179D01*
X147176797Y-108899678D01*
X147189077Y-108775000D01*
X147189077Y-108225000D01*
X147176797Y-108100322D01*
X147174825Y-108093821D01*
X147186000Y-108037641D01*
X147186000Y-107985000D01*
X147093344Y-107892344D01*
X147081373Y-107869948D01*
X147001896Y-107773104D01*
X146912818Y-107700000D01*
X147001896Y-107626896D01*
X147081373Y-107530052D01*
X147093344Y-107507656D01*
X147186000Y-107415000D01*
X147186000Y-107362359D01*
X147174825Y-107306179D01*
X147176797Y-107299678D01*
X147189077Y-107175000D01*
X147189077Y-106625000D01*
X147176797Y-106500322D01*
X147176699Y-106500000D01*
X147176797Y-106499678D01*
X147189077Y-106375000D01*
X147189077Y-105825000D01*
X147176797Y-105700322D01*
X147140430Y-105580436D01*
X147081373Y-105469948D01*
X147001896Y-105373104D01*
X146905052Y-105293627D01*
X146794564Y-105234570D01*
X146674678Y-105198203D01*
X146550000Y-105185923D01*
X145214077Y-105185923D01*
X145214077Y-103929700D01*
X146579030Y-103929700D01*
X146597054Y-103931658D01*
X146745399Y-103918680D01*
X146888397Y-103877135D01*
X147020604Y-103808606D01*
X147136981Y-103715703D01*
X147144566Y-103708222D01*
X148367321Y-102485467D01*
X149212724Y-102485467D01*
X149279565Y-102725959D01*
X149528679Y-102843337D01*
X149795905Y-102909859D01*
X150070975Y-102922971D01*
X150343317Y-102882166D01*
X150602466Y-102789015D01*
X150720435Y-102725959D01*
X150787276Y-102485467D01*
X150000000Y-101698191D01*
X149212724Y-102485467D01*
X148367321Y-102485467D01*
X148730810Y-102121978D01*
X148730985Y-102122466D01*
X148794041Y-102240435D01*
X149034533Y-102307276D01*
X149821809Y-101520000D01*
X149807667Y-101505858D01*
X149985858Y-101327667D01*
X150000000Y-101341809D01*
X150014142Y-101327667D01*
X150192333Y-101505858D01*
X150178191Y-101520000D01*
X150965467Y-102307276D01*
X151205959Y-102240435D01*
X151323337Y-101991321D01*
X151389859Y-101724095D01*
X151402971Y-101449025D01*
X151362166Y-101176683D01*
X151285358Y-100963002D01*
X151514000Y-100963002D01*
X151514000Y-101265000D01*
G36*
X162390678Y-97659723D02*
X162390684Y-97659728D01*
X162813304Y-98082348D01*
X162622683Y-98081017D01*
X162353377Y-98132390D01*
X162099178Y-98235093D01*
X161869770Y-98385214D01*
X161673888Y-98577035D01*
X161518996Y-98803250D01*
X161482729Y-98887867D01*
X161479015Y-98877534D01*
X161415959Y-98759565D01*
X161175467Y-98692724D01*
X160388191Y-99480000D01*
X160402333Y-99494142D01*
X160224142Y-99672333D01*
X160210000Y-99658191D01*
X160195858Y-99672333D01*
X160017667Y-99494142D01*
X160031809Y-99480000D01*
X159244533Y-98692724D01*
X159004041Y-98759565D01*
X158886663Y-99008679D01*
X158820141Y-99275905D01*
X158807029Y-99550975D01*
X158847834Y-99823317D01*
X158907389Y-99989000D01*
X157436125Y-99989000D01*
X155961658Y-98514533D01*
X159422724Y-98514533D01*
X160210000Y-99301809D01*
X160997276Y-98514533D01*
X160930435Y-98274041D01*
X160681321Y-98156663D01*
X160414095Y-98090141D01*
X160139025Y-98077029D01*
X159866683Y-98117834D01*
X159607534Y-98210985D01*
X159489565Y-98274041D01*
X159422724Y-98514533D01*
X155961658Y-98514533D01*
X155078976Y-97631851D01*
X155024679Y-97587250D01*
X154970808Y-97542048D01*
X154967302Y-97540120D01*
X154964209Y-97537580D01*
X154918368Y-97513000D01*
X162243955Y-97513000D01*
X162390678Y-97659723D01*
X162390678Y-97659723D01*
G37*
X162390678Y-97659723D02*
X162390684Y-97659728D01*
X162813304Y-98082348D01*
X162622683Y-98081017D01*
X162353377Y-98132390D01*
X162099178Y-98235093D01*
X161869770Y-98385214D01*
X161673888Y-98577035D01*
X161518996Y-98803250D01*
X161482729Y-98887867D01*
X161479015Y-98877534D01*
X161415959Y-98759565D01*
X161175467Y-98692724D01*
X160388191Y-99480000D01*
X160402333Y-99494142D01*
X160224142Y-99672333D01*
X160210000Y-99658191D01*
X160195858Y-99672333D01*
X160017667Y-99494142D01*
X160031809Y-99480000D01*
X159244533Y-98692724D01*
X159004041Y-98759565D01*
X158886663Y-99008679D01*
X158820141Y-99275905D01*
X158807029Y-99550975D01*
X158847834Y-99823317D01*
X158907389Y-99989000D01*
X157436125Y-99989000D01*
X155961658Y-98514533D01*
X159422724Y-98514533D01*
X160210000Y-99301809D01*
X160997276Y-98514533D01*
X160930435Y-98274041D01*
X160681321Y-98156663D01*
X160414095Y-98090141D01*
X160139025Y-98077029D01*
X159866683Y-98117834D01*
X159607534Y-98210985D01*
X159489565Y-98274041D01*
X159422724Y-98514533D01*
X155961658Y-98514533D01*
X155078976Y-97631851D01*
X155024679Y-97587250D01*
X154970808Y-97542048D01*
X154967302Y-97540120D01*
X154964209Y-97537580D01*
X154918368Y-97513000D01*
X162243955Y-97513000D01*
X162390678Y-97659723D01*
M02*
