G04 #@! TF.GenerationSoftware,KiCad,Pcbnew,(2017-09-19 revision dddaa7e69)-makepkg*
G04 #@! TF.CreationDate,2017-11-10T03:38:53+01:00*
G04 #@! TF.ProjectId,EPSON_STYLUS_DX4050_INK_CHIP_RESETTER,4550534F4E5F5354594C55535F445834,1*
G04 #@! TF.SameCoordinates,Original*
G04 #@! TF.FileFunction,Copper,L2,Bot,Signal*
G04 #@! TF.FilePolarity,Positive*
%FSLAX46Y46*%
G04 Gerber Fmt 4.6, Leading zero omitted, Abs format (unit mm)*
G04 Created by KiCad (PCBNEW (2017-09-19 revision dddaa7e69)-makepkg) date 11/10/17 03:38:53*
%MOMM*%
%LPD*%
G01*
G04 APERTURE LIST*
%ADD10C,0.300000*%
%ADD11C,1.905000*%
%ADD12C,1.524000*%
%ADD13R,2.032000X2.032000*%
%ADD14O,2.032000X2.032000*%
%ADD15R,2.032000X1.727200*%
%ADD16O,2.032000X1.727200*%
%ADD17O,2.499360X1.501140*%
%ADD18C,1.501140*%
%ADD19R,1.524000X1.524000*%
%ADD20C,1.700000*%
%ADD21O,1.000000X1.900000*%
%ADD22R,1.000000X1.900000*%
%ADD23C,4.064000*%
%ADD24C,0.800000*%
%ADD25C,0.250000*%
%ADD26C,0.254000*%
%ADD27C,0.256000*%
G04 APERTURE END LIST*
D10*
X170428571Y-93957142D02*
X168928571Y-93957142D01*
X168928571Y-94314285D01*
X169000000Y-94528571D01*
X169142857Y-94671428D01*
X169285714Y-94742857D01*
X169571428Y-94814285D01*
X169785714Y-94814285D01*
X170071428Y-94742857D01*
X170214285Y-94671428D01*
X170357142Y-94528571D01*
X170428571Y-94314285D01*
X170428571Y-93957142D01*
X168928571Y-95314285D02*
X170428571Y-96314285D01*
X168928571Y-96314285D02*
X170428571Y-95314285D01*
X169428571Y-97528571D02*
X170428571Y-97528571D01*
X168857142Y-97171428D02*
X169928571Y-96814285D01*
X169928571Y-97742857D01*
X168928571Y-98600000D02*
X168928571Y-98742857D01*
X169000000Y-98885714D01*
X169071428Y-98957142D01*
X169214285Y-99028571D01*
X169500000Y-99100000D01*
X169857142Y-99100000D01*
X170142857Y-99028571D01*
X170285714Y-98957142D01*
X170357142Y-98885714D01*
X170428571Y-98742857D01*
X170428571Y-98600000D01*
X170357142Y-98457142D01*
X170285714Y-98385714D01*
X170142857Y-98314285D01*
X169857142Y-98242857D01*
X169500000Y-98242857D01*
X169214285Y-98314285D01*
X169071428Y-98385714D01*
X169000000Y-98457142D01*
X168928571Y-98600000D01*
X168928571Y-100457142D02*
X168928571Y-99742857D01*
X169642857Y-99671428D01*
X169571428Y-99742857D01*
X169500000Y-99885714D01*
X169500000Y-100242857D01*
X169571428Y-100385714D01*
X169642857Y-100457142D01*
X169785714Y-100528571D01*
X170142857Y-100528571D01*
X170285714Y-100457142D01*
X170357142Y-100385714D01*
X170428571Y-100242857D01*
X170428571Y-99885714D01*
X170357142Y-99742857D01*
X170285714Y-99671428D01*
X168928571Y-101457142D02*
X168928571Y-101600000D01*
X169000000Y-101742857D01*
X169071428Y-101814285D01*
X169214285Y-101885714D01*
X169500000Y-101957142D01*
X169857142Y-101957142D01*
X170142857Y-101885714D01*
X170285714Y-101814285D01*
X170357142Y-101742857D01*
X170428571Y-101600000D01*
X170428571Y-101457142D01*
X170357142Y-101314285D01*
X170285714Y-101242857D01*
X170142857Y-101171428D01*
X169857142Y-101100000D01*
X169500000Y-101100000D01*
X169214285Y-101171428D01*
X169071428Y-101242857D01*
X169000000Y-101314285D01*
X168928571Y-101457142D01*
X170285714Y-104600000D02*
X170357142Y-104528571D01*
X170428571Y-104314285D01*
X170428571Y-104171428D01*
X170357142Y-103957142D01*
X170214285Y-103814285D01*
X170071428Y-103742857D01*
X169785714Y-103671428D01*
X169571428Y-103671428D01*
X169285714Y-103742857D01*
X169142857Y-103814285D01*
X169000000Y-103957142D01*
X168928571Y-104171428D01*
X168928571Y-104314285D01*
X169000000Y-104528571D01*
X169071428Y-104600000D01*
X170428571Y-105242857D02*
X168928571Y-105242857D01*
X169642857Y-105242857D02*
X169642857Y-106100000D01*
X170428571Y-106100000D02*
X168928571Y-106100000D01*
X170428571Y-106814285D02*
X168928571Y-106814285D01*
X170428571Y-107528571D02*
X168928571Y-107528571D01*
X168928571Y-108100000D01*
X169000000Y-108242857D01*
X169071428Y-108314285D01*
X169214285Y-108385714D01*
X169428571Y-108385714D01*
X169571428Y-108314285D01*
X169642857Y-108242857D01*
X169714285Y-108100000D01*
X169714285Y-107528571D01*
X170428571Y-111028571D02*
X169714285Y-110528571D01*
X170428571Y-110171428D02*
X168928571Y-110171428D01*
X168928571Y-110742857D01*
X169000000Y-110885714D01*
X169071428Y-110957142D01*
X169214285Y-111028571D01*
X169428571Y-111028571D01*
X169571428Y-110957142D01*
X169642857Y-110885714D01*
X169714285Y-110742857D01*
X169714285Y-110171428D01*
X169642857Y-111671428D02*
X169642857Y-112171428D01*
X170428571Y-112385714D02*
X170428571Y-111671428D01*
X168928571Y-111671428D01*
X168928571Y-112385714D01*
X170357142Y-112957142D02*
X170428571Y-113171428D01*
X170428571Y-113528571D01*
X170357142Y-113671428D01*
X170285714Y-113742857D01*
X170142857Y-113814285D01*
X170000000Y-113814285D01*
X169857142Y-113742857D01*
X169785714Y-113671428D01*
X169714285Y-113528571D01*
X169642857Y-113242857D01*
X169571428Y-113100000D01*
X169500000Y-113028571D01*
X169357142Y-112957142D01*
X169214285Y-112957142D01*
X169071428Y-113028571D01*
X169000000Y-113100000D01*
X168928571Y-113242857D01*
X168928571Y-113600000D01*
X169000000Y-113814285D01*
X169642857Y-114457142D02*
X169642857Y-114957142D01*
X170428571Y-115171428D02*
X170428571Y-114457142D01*
X168928571Y-114457142D01*
X168928571Y-115171428D01*
X168928571Y-115600000D02*
X168928571Y-116457142D01*
X170428571Y-116028571D02*
X168928571Y-116028571D01*
X168928571Y-116742857D02*
X168928571Y-117600000D01*
X170428571Y-117171428D02*
X168928571Y-117171428D01*
X169642857Y-118100000D02*
X169642857Y-118600000D01*
X170428571Y-118814285D02*
X170428571Y-118100000D01*
X168928571Y-118100000D01*
X168928571Y-118814285D01*
X170428571Y-120314285D02*
X169714285Y-119814285D01*
X170428571Y-119457142D02*
X168928571Y-119457142D01*
X168928571Y-120028571D01*
X169000000Y-120171428D01*
X169071428Y-120242857D01*
X169214285Y-120314285D01*
X169428571Y-120314285D01*
X169571428Y-120242857D01*
X169642857Y-120171428D01*
X169714285Y-120028571D01*
X169714285Y-119457142D01*
D11*
X167248660Y-107752100D03*
X160802140Y-107752100D03*
X167299460Y-112247900D03*
X160850400Y-112247900D03*
D12*
X150000000Y-101520000D03*
X150000000Y-111680000D03*
D13*
X167750000Y-88500000D03*
D14*
X167750000Y-91040000D03*
D15*
X163000000Y-92000000D03*
D16*
X163000000Y-89460000D03*
X163000000Y-86920000D03*
D17*
X138500000Y-89500000D03*
X138500000Y-86960000D03*
X138500000Y-92040000D03*
D18*
X137900000Y-99240000D03*
X137900000Y-96700000D03*
D19*
X160210000Y-102020000D03*
D12*
X160210000Y-99480000D03*
X162750000Y-102020000D03*
X162750000Y-99480000D03*
X165290000Y-102020000D03*
X165290000Y-99480000D03*
D20*
X155250000Y-115500000D03*
X153250000Y-115500000D03*
X151250000Y-115500000D03*
X149250000Y-115500000D03*
X154250000Y-117500000D03*
X152250000Y-117500000D03*
X150250000Y-117500000D03*
D21*
X165750000Y-121500000D03*
D22*
X164480000Y-121500000D03*
D21*
X163210000Y-121500000D03*
X161940000Y-121500000D03*
D23*
X152250000Y-122500000D03*
D24*
X145700000Y-112974500D03*
X143100000Y-107700000D03*
X143900000Y-106500000D03*
X139400000Y-110900000D03*
D25*
X155554200Y-113000000D02*
X145725500Y-113000000D01*
X145725500Y-113000000D02*
X145700000Y-112974500D01*
D26*
X160802100Y-107752100D02*
X155554200Y-113000000D01*
D25*
X138500000Y-86960000D02*
X137000320Y-86960000D01*
X137000320Y-86960000D02*
X136300000Y-87660320D01*
X136300000Y-87660320D02*
X136300000Y-97800000D01*
X136300000Y-97800000D02*
X137740000Y-99240000D01*
X137740000Y-99240000D02*
X137900000Y-99240000D01*
D26*
X138500000Y-87300000D02*
X138500000Y-86960000D01*
D25*
X164500000Y-112247900D02*
X164000000Y-112247900D01*
X164000000Y-112247900D02*
X160850400Y-112247900D01*
X164025400Y-111407300D02*
X164025400Y-112222500D01*
X164025400Y-112222500D02*
X164000000Y-112247900D01*
X167299460Y-112247900D02*
X164500000Y-112247900D01*
X164480000Y-121500000D02*
X164480000Y-120300000D01*
X164480000Y-120300000D02*
X164500000Y-120280000D01*
X164500000Y-120280000D02*
X164500000Y-112247900D01*
D26*
X154632200Y-114117800D02*
X153250000Y-115500000D01*
X158980500Y-114117800D02*
X154632200Y-114117800D01*
X160850400Y-112247900D02*
X158980500Y-114117800D01*
X164025400Y-100744600D02*
X164025400Y-111407300D01*
X165290000Y-99480000D02*
X164025400Y-100744600D01*
D25*
X137900000Y-96700000D02*
X144247600Y-103047600D01*
X144247600Y-103047600D02*
X144300000Y-103047600D01*
D26*
X144623800Y-102723800D02*
X144300000Y-103047600D01*
X144300000Y-103047600D02*
X141869400Y-105478200D01*
X141869400Y-105478200D02*
X141869400Y-111069400D01*
X141869400Y-111069400D02*
X144600000Y-113800000D01*
X144600000Y-113800000D02*
X149550000Y-113800000D01*
X149550000Y-113800000D02*
X151250000Y-115500000D01*
X152040000Y-99480000D02*
X150000000Y-101520000D01*
X160210000Y-99480000D02*
X152040000Y-99480000D01*
X145827600Y-101520000D02*
X144623800Y-102723800D01*
X150000000Y-101520000D02*
X145827600Y-101520000D01*
D25*
X150000000Y-111680000D02*
X147080000Y-111680000D01*
X147080000Y-111680000D02*
X143100000Y-107700000D01*
X138500000Y-92040000D02*
X138500000Y-93040570D01*
X160713600Y-95400000D02*
X163000000Y-93113600D01*
X138500000Y-93040570D02*
X140859430Y-95400000D01*
X140859430Y-95400000D02*
X160713600Y-95400000D01*
X163000000Y-93113600D02*
X163000000Y-92000000D01*
X148115900Y-105869300D02*
X147485200Y-106500000D01*
X147485200Y-106500000D02*
X143900000Y-106500000D01*
D26*
X162750000Y-99480000D02*
X161480000Y-100750000D01*
X161480000Y-100750000D02*
X153235200Y-100750000D01*
X153235200Y-100750000D02*
X148115900Y-105869300D01*
D25*
X147098800Y-118933700D02*
X147098800Y-118898800D01*
X147098800Y-118898800D02*
X139400000Y-111200000D01*
X139400000Y-111200000D02*
X139400000Y-110900000D01*
D26*
X155250000Y-115500000D02*
X155700000Y-115950000D01*
X155700000Y-115950000D02*
X155700000Y-118100000D01*
X155700000Y-118100000D02*
X154866300Y-118933700D01*
X154866300Y-118933700D02*
X147098800Y-118933700D01*
D27*
G36*
X170314000Y-92814000D02*
X167959000Y-92814000D01*
X167959000Y-106327485D01*
X167720665Y-106227298D01*
X167415507Y-106164658D01*
X167103994Y-106162483D01*
X166797991Y-106220856D01*
X166509153Y-106337554D01*
X166248484Y-106508132D01*
X166025911Y-106726091D01*
X165849912Y-106983132D01*
X165727190Y-107269461D01*
X165662422Y-107574175D01*
X165658072Y-107885665D01*
X165714308Y-108192068D01*
X165828986Y-108481713D01*
X165997739Y-108743567D01*
X166214140Y-108967657D01*
X166469945Y-109145446D01*
X166755411Y-109270163D01*
X167059665Y-109337058D01*
X167371118Y-109343582D01*
X167677906Y-109289487D01*
X167959000Y-109180457D01*
X167959000Y-110802326D01*
X167851208Y-110750107D01*
X167548401Y-110671246D01*
X167236028Y-110652975D01*
X166926092Y-110695996D01*
X166630505Y-110798656D01*
X166466109Y-110886527D01*
X166376225Y-111146474D01*
X167299460Y-112069709D01*
X167313602Y-112055567D01*
X167491793Y-112233758D01*
X167477651Y-112247900D01*
X167491793Y-112262042D01*
X167313602Y-112440233D01*
X167299460Y-112426091D01*
X166376225Y-113349326D01*
X166466109Y-113609273D01*
X166747712Y-113745693D01*
X167050519Y-113824554D01*
X167362892Y-113842825D01*
X167672828Y-113799804D01*
X167959000Y-113700414D01*
X167959000Y-121386000D01*
X170314000Y-121386000D01*
X170314000Y-124814000D01*
X154725215Y-124814000D01*
X154728000Y-124800000D01*
X154728000Y-123494128D01*
X154793850Y-123346226D01*
X154909769Y-122836007D01*
X154918114Y-122238389D01*
X154816486Y-121725132D01*
X154728000Y-121510448D01*
X154728000Y-121042326D01*
X160804000Y-121042326D01*
X160804000Y-121957674D01*
X160825635Y-122178324D01*
X160889716Y-122390570D01*
X160993801Y-122586327D01*
X161133928Y-122758138D01*
X161304757Y-122899461D01*
X161499782Y-123004911D01*
X161711575Y-123070471D01*
X161932069Y-123093646D01*
X162152865Y-123073552D01*
X162365553Y-123010955D01*
X162562032Y-122908238D01*
X162573866Y-122898724D01*
X162574757Y-122899461D01*
X162769782Y-123004911D01*
X162981575Y-123070471D01*
X163202069Y-123093646D01*
X163422865Y-123073552D01*
X163635553Y-123010955D01*
X163657549Y-122999456D01*
X163678741Y-123013616D01*
X163794485Y-123061559D01*
X163917359Y-123086000D01*
X164195000Y-123086000D01*
X164354000Y-122927000D01*
X164354000Y-121626000D01*
X164346000Y-121626000D01*
X164346000Y-121374000D01*
X164354000Y-121374000D01*
X164354000Y-120073000D01*
X164606000Y-120073000D01*
X164606000Y-121374000D01*
X164614000Y-121374000D01*
X164614000Y-121626000D01*
X164606000Y-121626000D01*
X164606000Y-122927000D01*
X164765000Y-123086000D01*
X165042641Y-123086000D01*
X165165515Y-123061559D01*
X165281259Y-123013616D01*
X165301217Y-123000280D01*
X165309782Y-123004911D01*
X165521575Y-123070471D01*
X165742069Y-123093646D01*
X165962865Y-123073552D01*
X166175553Y-123010955D01*
X166372032Y-122908238D01*
X166544818Y-122769315D01*
X166687329Y-122599477D01*
X166794138Y-122405192D01*
X166861176Y-122193862D01*
X166885889Y-121973535D01*
X166886000Y-121957674D01*
X166886000Y-121042326D01*
X166864365Y-120821676D01*
X166800284Y-120609430D01*
X166696199Y-120413673D01*
X166556072Y-120241862D01*
X166385243Y-120100539D01*
X166190218Y-119995089D01*
X165978425Y-119929529D01*
X165757931Y-119906354D01*
X165537135Y-119926448D01*
X165324447Y-119989045D01*
X165302451Y-120000544D01*
X165281259Y-119986384D01*
X165165515Y-119938441D01*
X165042641Y-119914000D01*
X164765000Y-119914000D01*
X164606000Y-120073000D01*
X164354000Y-120073000D01*
X164195000Y-119914000D01*
X163917359Y-119914000D01*
X163794485Y-119938441D01*
X163678741Y-119986384D01*
X163658783Y-119999720D01*
X163650218Y-119995089D01*
X163438425Y-119929529D01*
X163217931Y-119906354D01*
X162997135Y-119926448D01*
X162784447Y-119989045D01*
X162587968Y-120091762D01*
X162576134Y-120101276D01*
X162575243Y-120100539D01*
X162380218Y-119995089D01*
X162168425Y-119929529D01*
X161947931Y-119906354D01*
X161727135Y-119926448D01*
X161514447Y-119989045D01*
X161317968Y-120091762D01*
X161145182Y-120230685D01*
X161002671Y-120400523D01*
X160895862Y-120594808D01*
X160828824Y-120806138D01*
X160804111Y-121026465D01*
X160804000Y-121042326D01*
X154728000Y-121042326D01*
X154728000Y-120100000D01*
X154718257Y-120051017D01*
X154690510Y-120009490D01*
X154648983Y-119981743D01*
X154600000Y-119972000D01*
X153121303Y-119972000D01*
X153042766Y-119938986D01*
X152530231Y-119833777D01*
X152007022Y-119830125D01*
X151493068Y-119928167D01*
X151384577Y-119972000D01*
X149900000Y-119972000D01*
X149851017Y-119981743D01*
X149809490Y-120009490D01*
X149781743Y-120051017D01*
X149772000Y-120100000D01*
X149772000Y-121508746D01*
X149694583Y-121689374D01*
X149585799Y-122201162D01*
X149578493Y-122724333D01*
X149672945Y-123238959D01*
X149772000Y-123489143D01*
X149772000Y-124800000D01*
X149774785Y-124814000D01*
X134186000Y-124814000D01*
X134186000Y-100197303D01*
X137120888Y-100197303D01*
X137186343Y-100436629D01*
X137433507Y-100552863D01*
X137698597Y-100618645D01*
X137971427Y-100631447D01*
X138241512Y-100590775D01*
X138498473Y-100498195D01*
X138613657Y-100436629D01*
X138679112Y-100197303D01*
X137900000Y-99418191D01*
X137120888Y-100197303D01*
X134186000Y-100197303D01*
X134186000Y-99311427D01*
X136508553Y-99311427D01*
X136549225Y-99581512D01*
X136641805Y-99838473D01*
X136703371Y-99953657D01*
X136942697Y-100019112D01*
X137721809Y-99240000D01*
X136942697Y-98460888D01*
X136703371Y-98526343D01*
X136587137Y-98773507D01*
X136521355Y-99038597D01*
X136508553Y-99311427D01*
X134186000Y-99311427D01*
X134186000Y-96816587D01*
X136511607Y-96816587D01*
X136560694Y-97084040D01*
X136660795Y-97336865D01*
X136808096Y-97565432D01*
X136996988Y-97761035D01*
X137220275Y-97916224D01*
X137339264Y-97968209D01*
X137301527Y-97981805D01*
X137186343Y-98043371D01*
X137120888Y-98282697D01*
X137900000Y-99061809D01*
X137914142Y-99047667D01*
X138092333Y-99225858D01*
X138078191Y-99240000D01*
X138857303Y-100019112D01*
X139096629Y-99953657D01*
X139212863Y-99706493D01*
X139278645Y-99441403D01*
X139291447Y-99168573D01*
X139291286Y-99167502D01*
X143196170Y-103072386D01*
X141329878Y-104938678D01*
X141285176Y-104993099D01*
X141239838Y-105047130D01*
X141237904Y-105050647D01*
X141235359Y-105053746D01*
X141202051Y-105115865D01*
X141168100Y-105177622D01*
X141166888Y-105181444D01*
X141164990Y-105184983D01*
X141144383Y-105252386D01*
X141123073Y-105319563D01*
X141122625Y-105323553D01*
X141121453Y-105327388D01*
X141114336Y-105397454D01*
X141106474Y-105467547D01*
X141106419Y-105475394D01*
X141106405Y-105475537D01*
X141106418Y-105475670D01*
X141106400Y-105478200D01*
X141106400Y-111069400D01*
X141113278Y-111139544D01*
X141119420Y-111209755D01*
X141120540Y-111213608D01*
X141120931Y-111217601D01*
X141141305Y-111285084D01*
X141160965Y-111352753D01*
X141162811Y-111356314D01*
X141163971Y-111360157D01*
X141197063Y-111422394D01*
X141229494Y-111484960D01*
X141231998Y-111488097D01*
X141233881Y-111491638D01*
X141278404Y-111546228D01*
X141322397Y-111601337D01*
X141327903Y-111606920D01*
X141327998Y-111607036D01*
X141328106Y-111607125D01*
X141329878Y-111608922D01*
X144060478Y-114339523D01*
X144114934Y-114384253D01*
X144168930Y-114429562D01*
X144172446Y-114431495D01*
X144175547Y-114434042D01*
X144237683Y-114467359D01*
X144299422Y-114501300D01*
X144303244Y-114502512D01*
X144306783Y-114504410D01*
X144374186Y-114525017D01*
X144441363Y-114546327D01*
X144445353Y-114546775D01*
X144449188Y-114547947D01*
X144519254Y-114555064D01*
X144589347Y-114562926D01*
X144597194Y-114562981D01*
X144597337Y-114562995D01*
X144597470Y-114562982D01*
X144600000Y-114563000D01*
X148090536Y-114563000D01*
X147941508Y-114780650D01*
X147826705Y-115048504D01*
X147766116Y-115333556D01*
X147762047Y-115624947D01*
X147814654Y-115911579D01*
X147921932Y-116182534D01*
X148079797Y-116427492D01*
X148282234Y-116637121D01*
X148521533Y-116803439D01*
X148788579Y-116920108D01*
X148873713Y-116938826D01*
X148826705Y-117048504D01*
X148766116Y-117333556D01*
X148762047Y-117624947D01*
X148814654Y-117911579D01*
X148917247Y-118170700D01*
X147446917Y-118170700D01*
X140409456Y-111133240D01*
X140432804Y-111030474D01*
X140436045Y-110798415D01*
X140396582Y-110599114D01*
X140319160Y-110411274D01*
X140206727Y-110242049D01*
X140063567Y-110097886D01*
X139895131Y-109984274D01*
X139707836Y-109905543D01*
X139508815Y-109864690D01*
X139305650Y-109863271D01*
X139106079Y-109901342D01*
X138917703Y-109977451D01*
X138747697Y-110088699D01*
X138602538Y-110230850D01*
X138487753Y-110398488D01*
X138407716Y-110585229D01*
X138365475Y-110783959D01*
X138362638Y-110987110D01*
X138399314Y-111186942D01*
X138474106Y-111375845D01*
X138584165Y-111546623D01*
X138725299Y-111692771D01*
X138892132Y-111808723D01*
X138963832Y-111840048D01*
X146443999Y-119320216D01*
X146460349Y-119351491D01*
X146553657Y-119467543D01*
X146667730Y-119563262D01*
X146798222Y-119635000D01*
X146940163Y-119680027D01*
X147088147Y-119696626D01*
X147098800Y-119696700D01*
X154866300Y-119696700D01*
X154936444Y-119689822D01*
X155006655Y-119683680D01*
X155010508Y-119682560D01*
X155014501Y-119682169D01*
X155081984Y-119661795D01*
X155149653Y-119642135D01*
X155153214Y-119640289D01*
X155157057Y-119639129D01*
X155219294Y-119606037D01*
X155281860Y-119573606D01*
X155284997Y-119571102D01*
X155288538Y-119569219D01*
X155343128Y-119524696D01*
X155398237Y-119480703D01*
X155403820Y-119475197D01*
X155403936Y-119475102D01*
X155404025Y-119474994D01*
X155405822Y-119473222D01*
X156239523Y-118639522D01*
X156284253Y-118585066D01*
X156329562Y-118531070D01*
X156331495Y-118527554D01*
X156334042Y-118524453D01*
X156367359Y-118462317D01*
X156401300Y-118400578D01*
X156402512Y-118396756D01*
X156404410Y-118393217D01*
X156425017Y-118325814D01*
X156446327Y-118258637D01*
X156446775Y-118254647D01*
X156447947Y-118250812D01*
X156455064Y-118180746D01*
X156462926Y-118110653D01*
X156462981Y-118102806D01*
X156462995Y-118102663D01*
X156462982Y-118102530D01*
X156463000Y-118100000D01*
X156463000Y-116358499D01*
X156548321Y-116237549D01*
X156666852Y-115971324D01*
X156731416Y-115687146D01*
X156736064Y-115354290D01*
X156679460Y-115068421D01*
X156568409Y-114798990D01*
X156407139Y-114556260D01*
X156201795Y-114349477D01*
X155960197Y-114186518D01*
X155691548Y-114073588D01*
X155406081Y-114014990D01*
X155114668Y-114012955D01*
X154828411Y-114067562D01*
X154558211Y-114176730D01*
X154314361Y-114336300D01*
X154255124Y-114394310D01*
X154216310Y-114355496D01*
X154100102Y-114471704D01*
X154022608Y-114222232D01*
X153758483Y-114096056D01*
X153474816Y-114023833D01*
X153182510Y-114008338D01*
X152892798Y-114050167D01*
X152616813Y-114147711D01*
X152477392Y-114222232D01*
X152399898Y-114471704D01*
X152283690Y-114355496D01*
X152245599Y-114393587D01*
X152201795Y-114349477D01*
X151960197Y-114186518D01*
X151691548Y-114073588D01*
X151406081Y-114014990D01*
X151114668Y-114012955D01*
X150885681Y-114056637D01*
X150590044Y-113761000D01*
X155528186Y-113761000D01*
X155546210Y-113762958D01*
X155694555Y-113749980D01*
X155837553Y-113708435D01*
X155969760Y-113639906D01*
X156086137Y-113547003D01*
X156093722Y-113539522D01*
X156283918Y-113349326D01*
X159927165Y-113349326D01*
X160017049Y-113609273D01*
X160298652Y-113745693D01*
X160601459Y-113824554D01*
X160913832Y-113842825D01*
X161223768Y-113799804D01*
X161519355Y-113697144D01*
X161683751Y-113609273D01*
X161773635Y-113349326D01*
X160850400Y-112426091D01*
X159927165Y-113349326D01*
X156283918Y-113349326D01*
X157321912Y-112311332D01*
X159255475Y-112311332D01*
X159298496Y-112621268D01*
X159401156Y-112916855D01*
X159489027Y-113081251D01*
X159748974Y-113171135D01*
X160672209Y-112247900D01*
X161028591Y-112247900D01*
X161951826Y-113171135D01*
X162211773Y-113081251D01*
X162348193Y-112799648D01*
X162427054Y-112496841D01*
X162437904Y-112311332D01*
X165704535Y-112311332D01*
X165747556Y-112621268D01*
X165850216Y-112916855D01*
X165938087Y-113081251D01*
X166198034Y-113171135D01*
X167121269Y-112247900D01*
X166198034Y-111324665D01*
X165938087Y-111414549D01*
X165801667Y-111696152D01*
X165722806Y-111998959D01*
X165704535Y-112311332D01*
X162437904Y-112311332D01*
X162445325Y-112184468D01*
X162402304Y-111874532D01*
X162299644Y-111578945D01*
X162211773Y-111414549D01*
X161951826Y-111324665D01*
X161028591Y-112247900D01*
X160672209Y-112247900D01*
X159748974Y-111324665D01*
X159489027Y-111414549D01*
X159352607Y-111696152D01*
X159273746Y-111998959D01*
X159255475Y-112311332D01*
X157321912Y-112311332D01*
X158486770Y-111146474D01*
X159927165Y-111146474D01*
X160850400Y-112069709D01*
X161773635Y-111146474D01*
X161683751Y-110886527D01*
X161402148Y-110750107D01*
X161099341Y-110671246D01*
X160786968Y-110652975D01*
X160477032Y-110695996D01*
X160181445Y-110798656D01*
X160017049Y-110886527D01*
X159927165Y-111146474D01*
X158486770Y-111146474D01*
X160353315Y-109279930D01*
X160613145Y-109337058D01*
X160924598Y-109343582D01*
X161231386Y-109289487D01*
X161521824Y-109176833D01*
X161784850Y-109009912D01*
X162010445Y-108795081D01*
X162190016Y-108540523D01*
X162316723Y-108255935D01*
X162385740Y-107952155D01*
X162390708Y-107596340D01*
X162330200Y-107290751D01*
X162211489Y-107002736D01*
X162039096Y-106743264D01*
X161819587Y-106522218D01*
X161561325Y-106348017D01*
X161274145Y-106227298D01*
X160968987Y-106164658D01*
X160657474Y-106162483D01*
X160351471Y-106220856D01*
X160062633Y-106337554D01*
X159801964Y-106508132D01*
X159579391Y-106726091D01*
X159403392Y-106983132D01*
X159280670Y-107269461D01*
X159215902Y-107574175D01*
X159211552Y-107885665D01*
X159267788Y-108192068D01*
X159272127Y-108203028D01*
X155236156Y-112239000D01*
X151281484Y-112239000D01*
X151332947Y-112123412D01*
X151393687Y-111856064D01*
X151398060Y-111542919D01*
X151344808Y-111273979D01*
X151240333Y-111020503D01*
X151088614Y-110792148D01*
X150895430Y-110597611D01*
X150668140Y-110444301D01*
X150415400Y-110338059D01*
X150146838Y-110282931D01*
X149872683Y-110281017D01*
X149603377Y-110332390D01*
X149349178Y-110435093D01*
X149119770Y-110585214D01*
X148923888Y-110777035D01*
X148826683Y-110919000D01*
X147395216Y-110919000D01*
X144135199Y-107658983D01*
X144136045Y-107598415D01*
X144119207Y-107513376D01*
X144179949Y-107502665D01*
X144369369Y-107429193D01*
X144540912Y-107320329D01*
X144603214Y-107261000D01*
X147485200Y-107261000D01*
X147555121Y-107254144D01*
X147625187Y-107248014D01*
X147629030Y-107246897D01*
X147633012Y-107246507D01*
X147700310Y-107226189D01*
X147767811Y-107206578D01*
X147771362Y-107204737D01*
X147775195Y-107203580D01*
X147837294Y-107170561D01*
X147899670Y-107138228D01*
X147902796Y-107135733D01*
X147906331Y-107133853D01*
X147960809Y-107089422D01*
X148015743Y-107045569D01*
X148021311Y-107040078D01*
X148021427Y-107039983D01*
X148021516Y-107039875D01*
X148023308Y-107038108D01*
X148634337Y-106427080D01*
X148647837Y-106416303D01*
X148655422Y-106408822D01*
X153551245Y-101513000D01*
X158808923Y-101513000D01*
X158808923Y-102782000D01*
X158821203Y-102906678D01*
X158857570Y-103026564D01*
X158916627Y-103137052D01*
X158996104Y-103233896D01*
X159092948Y-103313373D01*
X159203436Y-103372430D01*
X159323322Y-103408797D01*
X159448000Y-103421077D01*
X160972000Y-103421077D01*
X161096678Y-103408797D01*
X161216564Y-103372430D01*
X161327052Y-103313373D01*
X161423896Y-103233896D01*
X161503373Y-103137052D01*
X161562430Y-103026564D01*
X161598797Y-102906678D01*
X161606671Y-102826735D01*
X161649096Y-102892566D01*
X161839544Y-103089782D01*
X162064672Y-103246250D01*
X162315904Y-103356010D01*
X162583670Y-103414882D01*
X162857772Y-103420624D01*
X163127769Y-103373016D01*
X163383377Y-103273872D01*
X163614859Y-103126969D01*
X163813399Y-102937902D01*
X163971435Y-102713872D01*
X164018880Y-102607308D01*
X164040580Y-102662115D01*
X164189096Y-102892566D01*
X164379544Y-103089782D01*
X164604672Y-103246250D01*
X164855904Y-103356010D01*
X165123670Y-103414882D01*
X165397772Y-103420624D01*
X165667769Y-103373016D01*
X165923377Y-103273872D01*
X166154859Y-103126969D01*
X166353399Y-102937902D01*
X166511435Y-102713872D01*
X166622947Y-102463412D01*
X166683687Y-102196064D01*
X166688060Y-101882919D01*
X166634808Y-101613979D01*
X166530333Y-101360503D01*
X166378614Y-101132148D01*
X166185430Y-100937611D01*
X165958140Y-100784301D01*
X165882618Y-100752555D01*
X165892466Y-100749015D01*
X166010435Y-100685959D01*
X166077276Y-100445467D01*
X165290000Y-99658191D01*
X164502724Y-100445467D01*
X164569565Y-100685959D01*
X164703544Y-100749087D01*
X164639178Y-100775093D01*
X164409770Y-100925214D01*
X164213888Y-101117035D01*
X164058996Y-101343250D01*
X164020368Y-101433375D01*
X163990333Y-101360503D01*
X163838614Y-101132148D01*
X163645430Y-100937611D01*
X163418140Y-100784301D01*
X163339063Y-100751060D01*
X163383377Y-100733872D01*
X163614859Y-100586969D01*
X163813399Y-100397902D01*
X163971435Y-100173872D01*
X164017030Y-100071464D01*
X164020985Y-100082466D01*
X164084041Y-100200435D01*
X164324533Y-100267276D01*
X165111809Y-99480000D01*
X165468191Y-99480000D01*
X166255467Y-100267276D01*
X166495959Y-100200435D01*
X166613337Y-99951321D01*
X166679859Y-99684095D01*
X166692971Y-99409025D01*
X166652166Y-99136683D01*
X166559015Y-98877534D01*
X166495959Y-98759565D01*
X166255467Y-98692724D01*
X165468191Y-99480000D01*
X165111809Y-99480000D01*
X164324533Y-98692724D01*
X164084041Y-98759565D01*
X164020660Y-98894081D01*
X163990333Y-98820503D01*
X163838614Y-98592148D01*
X163761539Y-98514533D01*
X164502724Y-98514533D01*
X165290000Y-99301809D01*
X166077276Y-98514533D01*
X166010435Y-98274041D01*
X165761321Y-98156663D01*
X165494095Y-98090141D01*
X165219025Y-98077029D01*
X164946683Y-98117834D01*
X164687534Y-98210985D01*
X164569565Y-98274041D01*
X164502724Y-98514533D01*
X163761539Y-98514533D01*
X163645430Y-98397611D01*
X163418140Y-98244301D01*
X163165400Y-98138059D01*
X162896838Y-98082931D01*
X162622683Y-98081017D01*
X162353377Y-98132390D01*
X162099178Y-98235093D01*
X161869770Y-98385214D01*
X161673888Y-98577035D01*
X161518996Y-98803250D01*
X161480368Y-98893375D01*
X161450333Y-98820503D01*
X161298614Y-98592148D01*
X161105430Y-98397611D01*
X160878140Y-98244301D01*
X160625400Y-98138059D01*
X160356838Y-98082931D01*
X160082683Y-98081017D01*
X159813377Y-98132390D01*
X159559178Y-98235093D01*
X159329770Y-98385214D01*
X159133888Y-98577035D01*
X159038052Y-98717000D01*
X152040000Y-98717000D01*
X151969896Y-98723874D01*
X151899645Y-98730020D01*
X151895792Y-98731140D01*
X151891799Y-98731531D01*
X151824316Y-98751905D01*
X151756647Y-98771565D01*
X151753087Y-98773411D01*
X151749243Y-98774571D01*
X151686985Y-98807674D01*
X151624441Y-98840094D01*
X151621306Y-98842597D01*
X151617762Y-98844481D01*
X151563150Y-98889022D01*
X151508063Y-98932997D01*
X151502476Y-98938507D01*
X151502364Y-98938598D01*
X151502278Y-98938702D01*
X151500478Y-98940477D01*
X150288870Y-100152086D01*
X150146838Y-100122931D01*
X149872683Y-100121017D01*
X149603377Y-100172390D01*
X149349178Y-100275093D01*
X149119770Y-100425214D01*
X148923888Y-100617035D01*
X148828052Y-100757000D01*
X145827600Y-100757000D01*
X145757456Y-100763878D01*
X145687245Y-100770020D01*
X145683392Y-100771140D01*
X145679399Y-100771531D01*
X145611916Y-100791905D01*
X145544247Y-100811565D01*
X145540686Y-100813411D01*
X145536843Y-100814571D01*
X145474606Y-100847663D01*
X145412040Y-100880094D01*
X145408903Y-100882598D01*
X145405362Y-100884481D01*
X145350796Y-100928984D01*
X145295662Y-100972997D01*
X145290075Y-100978508D01*
X145289964Y-100978598D01*
X145289879Y-100978701D01*
X145288077Y-100980478D01*
X144272386Y-101996170D01*
X139257957Y-96981741D01*
X139282293Y-96874624D01*
X139286629Y-96564040D01*
X139233813Y-96297298D01*
X139130192Y-96045895D01*
X138979714Y-95819407D01*
X138788109Y-95626460D01*
X138562677Y-95474404D01*
X138312004Y-95369031D01*
X138045637Y-95314354D01*
X137773724Y-95312455D01*
X137506620Y-95363408D01*
X137254499Y-95465271D01*
X137026966Y-95614165D01*
X136832686Y-95804418D01*
X136679060Y-96028783D01*
X136571939Y-96278714D01*
X136515404Y-96544693D01*
X136511607Y-96816587D01*
X134186000Y-96816587D01*
X134186000Y-89490320D01*
X136605230Y-89490320D01*
X136629756Y-89759817D01*
X136706161Y-90019418D01*
X136831534Y-90259235D01*
X137001100Y-90470132D01*
X137208400Y-90644078D01*
X137439154Y-90770936D01*
X137224450Y-90885096D01*
X137014741Y-91056131D01*
X136842247Y-91264640D01*
X136713538Y-91502683D01*
X136633516Y-91761191D01*
X136605230Y-92030320D01*
X136629756Y-92299817D01*
X136706161Y-92559418D01*
X136831534Y-92799235D01*
X137001100Y-93010132D01*
X137208400Y-93184078D01*
X137445538Y-93314445D01*
X137703482Y-93396270D01*
X137839199Y-93411493D01*
X137861772Y-93455040D01*
X137864267Y-93458166D01*
X137866147Y-93461701D01*
X137910578Y-93516179D01*
X137954431Y-93571113D01*
X137959922Y-93576681D01*
X137960017Y-93576797D01*
X137960125Y-93576886D01*
X137961892Y-93578678D01*
X140321322Y-95938108D01*
X140375619Y-95982709D01*
X140429490Y-96027911D01*
X140432996Y-96029839D01*
X140436089Y-96032379D01*
X140498081Y-96065619D01*
X140559640Y-96099462D01*
X140563450Y-96100671D01*
X140566981Y-96102564D01*
X140634246Y-96123128D01*
X140701209Y-96144370D01*
X140705186Y-96144816D01*
X140709013Y-96145986D01*
X140778916Y-96153087D01*
X140848805Y-96160926D01*
X140856631Y-96160981D01*
X140856774Y-96160995D01*
X140856907Y-96160982D01*
X140859430Y-96161000D01*
X160713600Y-96161000D01*
X160783521Y-96154144D01*
X160853587Y-96148014D01*
X160857430Y-96146897D01*
X160861412Y-96146507D01*
X160928710Y-96126189D01*
X160996211Y-96106578D01*
X160999762Y-96104737D01*
X161003595Y-96103580D01*
X161065694Y-96070561D01*
X161128070Y-96038228D01*
X161131196Y-96035733D01*
X161134731Y-96033853D01*
X161189209Y-95989422D01*
X161244143Y-95945569D01*
X161249711Y-95940078D01*
X161249827Y-95939983D01*
X161249916Y-95939875D01*
X161251708Y-95938108D01*
X163538108Y-93651708D01*
X163582709Y-93597411D01*
X163627911Y-93543540D01*
X163629839Y-93540034D01*
X163632379Y-93536941D01*
X163650752Y-93502677D01*
X164016000Y-93502677D01*
X164140678Y-93490397D01*
X164260564Y-93454030D01*
X164371052Y-93394973D01*
X164467896Y-93315496D01*
X164547373Y-93218652D01*
X164606430Y-93108164D01*
X164642797Y-92988278D01*
X164655077Y-92863600D01*
X164655077Y-91422126D01*
X166142802Y-91422126D01*
X166201362Y-91615188D01*
X166343332Y-91906260D01*
X166539360Y-92164042D01*
X166781912Y-92378628D01*
X167061667Y-92541771D01*
X167367874Y-92647202D01*
X167624000Y-92528192D01*
X167624000Y-91166000D01*
X167876000Y-91166000D01*
X167876000Y-92528192D01*
X168132126Y-92647202D01*
X168438333Y-92541771D01*
X168718088Y-92378628D01*
X168960640Y-92164042D01*
X169156668Y-91906260D01*
X169298638Y-91615188D01*
X169357198Y-91422126D01*
X169237674Y-91166000D01*
X167876000Y-91166000D01*
X167624000Y-91166000D01*
X166262326Y-91166000D01*
X166142802Y-91422126D01*
X164655077Y-91422126D01*
X164655077Y-91136400D01*
X164642797Y-91011722D01*
X164606430Y-90891836D01*
X164547373Y-90781348D01*
X164467896Y-90684504D01*
X164371052Y-90605027D01*
X164260564Y-90545970D01*
X164209285Y-90530415D01*
X164217062Y-90524072D01*
X164403618Y-90298566D01*
X164542819Y-90041118D01*
X164629364Y-89761536D01*
X164659956Y-89470469D01*
X164633431Y-89179003D01*
X164550798Y-88898240D01*
X164415205Y-88638874D01*
X164231816Y-88410785D01*
X164007618Y-88222660D01*
X163949511Y-88190715D01*
X163990259Y-88169049D01*
X164217062Y-87984072D01*
X164403618Y-87758566D01*
X164542819Y-87501118D01*
X164548117Y-87484000D01*
X166094923Y-87484000D01*
X166094923Y-89516000D01*
X166107203Y-89640678D01*
X166143570Y-89760564D01*
X166202627Y-89871052D01*
X166282104Y-89967896D01*
X166378948Y-90047373D01*
X166421949Y-90070357D01*
X166343332Y-90173740D01*
X166201362Y-90464812D01*
X166142802Y-90657874D01*
X166262326Y-90914000D01*
X167624000Y-90914000D01*
X167624000Y-90894000D01*
X167876000Y-90894000D01*
X167876000Y-90914000D01*
X169237674Y-90914000D01*
X169357198Y-90657874D01*
X169298638Y-90464812D01*
X169156668Y-90173740D01*
X169078051Y-90070357D01*
X169121052Y-90047373D01*
X169217896Y-89967896D01*
X169297373Y-89871052D01*
X169356430Y-89760564D01*
X169392797Y-89640678D01*
X169405077Y-89516000D01*
X169405077Y-87484000D01*
X169392797Y-87359322D01*
X169356430Y-87239436D01*
X169297373Y-87128948D01*
X169217896Y-87032104D01*
X169121052Y-86952627D01*
X169010564Y-86893570D01*
X168890678Y-86857203D01*
X168766000Y-86844923D01*
X166734000Y-86844923D01*
X166609322Y-86857203D01*
X166489436Y-86893570D01*
X166378948Y-86952627D01*
X166282104Y-87032104D01*
X166202627Y-87128948D01*
X166143570Y-87239436D01*
X166107203Y-87359322D01*
X166094923Y-87484000D01*
X164548117Y-87484000D01*
X164629364Y-87221536D01*
X164659956Y-86930469D01*
X164633431Y-86639003D01*
X164550798Y-86358240D01*
X164415205Y-86098874D01*
X164231816Y-85870785D01*
X164007618Y-85682660D01*
X163751148Y-85541665D01*
X163472177Y-85453170D01*
X163181331Y-85420546D01*
X163160393Y-85420400D01*
X162839607Y-85420400D01*
X162548333Y-85448960D01*
X162268154Y-85533551D01*
X162009741Y-85670951D01*
X161782938Y-85855928D01*
X161596382Y-86081434D01*
X161457181Y-86338882D01*
X161370636Y-86618464D01*
X161340044Y-86909531D01*
X161366569Y-87200997D01*
X161449202Y-87481760D01*
X161584795Y-87741126D01*
X161768184Y-87969215D01*
X161992382Y-88157340D01*
X162050489Y-88189285D01*
X162009741Y-88210951D01*
X161782938Y-88395928D01*
X161596382Y-88621434D01*
X161457181Y-88878882D01*
X161370636Y-89158464D01*
X161340044Y-89449531D01*
X161366569Y-89740997D01*
X161449202Y-90021760D01*
X161584795Y-90281126D01*
X161768184Y-90509215D01*
X161792723Y-90529806D01*
X161739436Y-90545970D01*
X161628948Y-90605027D01*
X161532104Y-90684504D01*
X161452627Y-90781348D01*
X161393570Y-90891836D01*
X161357203Y-91011722D01*
X161344923Y-91136400D01*
X161344923Y-92863600D01*
X161357203Y-92988278D01*
X161393570Y-93108164D01*
X161452627Y-93218652D01*
X161532104Y-93315496D01*
X161628948Y-93394973D01*
X161637721Y-93399663D01*
X160398384Y-94639000D01*
X141174646Y-94639000D01*
X139746171Y-93210525D01*
X139775550Y-93194904D01*
X139985259Y-93023869D01*
X140157753Y-92815360D01*
X140286462Y-92577317D01*
X140366484Y-92318809D01*
X140394770Y-92049680D01*
X140370244Y-91780183D01*
X140293839Y-91520582D01*
X140168466Y-91280765D01*
X139998900Y-91069868D01*
X139791600Y-90895922D01*
X139560846Y-90769064D01*
X139775550Y-90654904D01*
X139985259Y-90483869D01*
X140157753Y-90275360D01*
X140286462Y-90037317D01*
X140366484Y-89778809D01*
X140373376Y-89713227D01*
X152724747Y-89713227D01*
X152814523Y-90202376D01*
X152997598Y-90664772D01*
X153267000Y-91082803D01*
X153612467Y-91440544D01*
X154020841Y-91724371D01*
X154476566Y-91923473D01*
X154962284Y-92030265D01*
X155459495Y-92040680D01*
X155949259Y-91954321D01*
X156412922Y-91774478D01*
X156832822Y-91508001D01*
X157192967Y-91165040D01*
X157479638Y-90758658D01*
X157681916Y-90304334D01*
X157792097Y-89819373D01*
X157800029Y-89251340D01*
X157703432Y-88763492D01*
X157513918Y-88303697D01*
X157238706Y-87889469D01*
X156888277Y-87536586D01*
X156475981Y-87258488D01*
X156017520Y-87065769D01*
X155530358Y-86965769D01*
X155033051Y-86962297D01*
X154544540Y-87055486D01*
X154083434Y-87241785D01*
X153667294Y-87514099D01*
X153311973Y-87862055D01*
X153031004Y-88272400D01*
X152835089Y-88729504D01*
X152731691Y-89215956D01*
X152724747Y-89713227D01*
X140373376Y-89713227D01*
X140394770Y-89509680D01*
X140370244Y-89240183D01*
X140293839Y-88980582D01*
X140168466Y-88740765D01*
X139998900Y-88529868D01*
X139791600Y-88355922D01*
X139559084Y-88228096D01*
X139646136Y-88192806D01*
X139874212Y-88042889D01*
X140068658Y-87851358D01*
X140222002Y-87625572D01*
X140328351Y-87374209D01*
X140343232Y-87300459D01*
X140220196Y-87086000D01*
X138626000Y-87086000D01*
X138626000Y-87106000D01*
X138374000Y-87106000D01*
X138374000Y-87086000D01*
X136779804Y-87086000D01*
X136656768Y-87300459D01*
X136671649Y-87374209D01*
X136777998Y-87625572D01*
X136931342Y-87851358D01*
X137125788Y-88042889D01*
X137353864Y-88192806D01*
X137442947Y-88228919D01*
X137224450Y-88345096D01*
X137014741Y-88516131D01*
X136842247Y-88724640D01*
X136713538Y-88962683D01*
X136633516Y-89221191D01*
X136605230Y-89490320D01*
X134186000Y-89490320D01*
X134186000Y-86619541D01*
X136656768Y-86619541D01*
X136779804Y-86834000D01*
X138374000Y-86834000D01*
X138374000Y-85573430D01*
X138626000Y-85573430D01*
X138626000Y-86834000D01*
X140220196Y-86834000D01*
X140343232Y-86619541D01*
X140328351Y-86545791D01*
X140222002Y-86294428D01*
X140068658Y-86068642D01*
X139874212Y-85877111D01*
X139646136Y-85727194D01*
X139393195Y-85624654D01*
X139125110Y-85573430D01*
X138626000Y-85573430D01*
X138374000Y-85573430D01*
X137874890Y-85573430D01*
X137606805Y-85624654D01*
X137353864Y-85727194D01*
X137125788Y-85877111D01*
X136931342Y-86068642D01*
X136777998Y-86294428D01*
X136671649Y-86545791D01*
X136656768Y-86619541D01*
X134186000Y-86619541D01*
X134186000Y-84186000D01*
X170314000Y-84186000D01*
X170314000Y-92814000D01*
X170314000Y-92814000D01*
G37*
X170314000Y-92814000D02*
X167959000Y-92814000D01*
X167959000Y-106327485D01*
X167720665Y-106227298D01*
X167415507Y-106164658D01*
X167103994Y-106162483D01*
X166797991Y-106220856D01*
X166509153Y-106337554D01*
X166248484Y-106508132D01*
X166025911Y-106726091D01*
X165849912Y-106983132D01*
X165727190Y-107269461D01*
X165662422Y-107574175D01*
X165658072Y-107885665D01*
X165714308Y-108192068D01*
X165828986Y-108481713D01*
X165997739Y-108743567D01*
X166214140Y-108967657D01*
X166469945Y-109145446D01*
X166755411Y-109270163D01*
X167059665Y-109337058D01*
X167371118Y-109343582D01*
X167677906Y-109289487D01*
X167959000Y-109180457D01*
X167959000Y-110802326D01*
X167851208Y-110750107D01*
X167548401Y-110671246D01*
X167236028Y-110652975D01*
X166926092Y-110695996D01*
X166630505Y-110798656D01*
X166466109Y-110886527D01*
X166376225Y-111146474D01*
X167299460Y-112069709D01*
X167313602Y-112055567D01*
X167491793Y-112233758D01*
X167477651Y-112247900D01*
X167491793Y-112262042D01*
X167313602Y-112440233D01*
X167299460Y-112426091D01*
X166376225Y-113349326D01*
X166466109Y-113609273D01*
X166747712Y-113745693D01*
X167050519Y-113824554D01*
X167362892Y-113842825D01*
X167672828Y-113799804D01*
X167959000Y-113700414D01*
X167959000Y-121386000D01*
X170314000Y-121386000D01*
X170314000Y-124814000D01*
X154725215Y-124814000D01*
X154728000Y-124800000D01*
X154728000Y-123494128D01*
X154793850Y-123346226D01*
X154909769Y-122836007D01*
X154918114Y-122238389D01*
X154816486Y-121725132D01*
X154728000Y-121510448D01*
X154728000Y-121042326D01*
X160804000Y-121042326D01*
X160804000Y-121957674D01*
X160825635Y-122178324D01*
X160889716Y-122390570D01*
X160993801Y-122586327D01*
X161133928Y-122758138D01*
X161304757Y-122899461D01*
X161499782Y-123004911D01*
X161711575Y-123070471D01*
X161932069Y-123093646D01*
X162152865Y-123073552D01*
X162365553Y-123010955D01*
X162562032Y-122908238D01*
X162573866Y-122898724D01*
X162574757Y-122899461D01*
X162769782Y-123004911D01*
X162981575Y-123070471D01*
X163202069Y-123093646D01*
X163422865Y-123073552D01*
X163635553Y-123010955D01*
X163657549Y-122999456D01*
X163678741Y-123013616D01*
X163794485Y-123061559D01*
X163917359Y-123086000D01*
X164195000Y-123086000D01*
X164354000Y-122927000D01*
X164354000Y-121626000D01*
X164346000Y-121626000D01*
X164346000Y-121374000D01*
X164354000Y-121374000D01*
X164354000Y-120073000D01*
X164606000Y-120073000D01*
X164606000Y-121374000D01*
X164614000Y-121374000D01*
X164614000Y-121626000D01*
X164606000Y-121626000D01*
X164606000Y-122927000D01*
X164765000Y-123086000D01*
X165042641Y-123086000D01*
X165165515Y-123061559D01*
X165281259Y-123013616D01*
X165301217Y-123000280D01*
X165309782Y-123004911D01*
X165521575Y-123070471D01*
X165742069Y-123093646D01*
X165962865Y-123073552D01*
X166175553Y-123010955D01*
X166372032Y-122908238D01*
X166544818Y-122769315D01*
X166687329Y-122599477D01*
X166794138Y-122405192D01*
X166861176Y-122193862D01*
X166885889Y-121973535D01*
X166886000Y-121957674D01*
X166886000Y-121042326D01*
X166864365Y-120821676D01*
X166800284Y-120609430D01*
X166696199Y-120413673D01*
X166556072Y-120241862D01*
X166385243Y-120100539D01*
X166190218Y-119995089D01*
X165978425Y-119929529D01*
X165757931Y-119906354D01*
X165537135Y-119926448D01*
X165324447Y-119989045D01*
X165302451Y-120000544D01*
X165281259Y-119986384D01*
X165165515Y-119938441D01*
X165042641Y-119914000D01*
X164765000Y-119914000D01*
X164606000Y-120073000D01*
X164354000Y-120073000D01*
X164195000Y-119914000D01*
X163917359Y-119914000D01*
X163794485Y-119938441D01*
X163678741Y-119986384D01*
X163658783Y-119999720D01*
X163650218Y-119995089D01*
X163438425Y-119929529D01*
X163217931Y-119906354D01*
X162997135Y-119926448D01*
X162784447Y-119989045D01*
X162587968Y-120091762D01*
X162576134Y-120101276D01*
X162575243Y-120100539D01*
X162380218Y-119995089D01*
X162168425Y-119929529D01*
X161947931Y-119906354D01*
X161727135Y-119926448D01*
X161514447Y-119989045D01*
X161317968Y-120091762D01*
X161145182Y-120230685D01*
X161002671Y-120400523D01*
X160895862Y-120594808D01*
X160828824Y-120806138D01*
X160804111Y-121026465D01*
X160804000Y-121042326D01*
X154728000Y-121042326D01*
X154728000Y-120100000D01*
X154718257Y-120051017D01*
X154690510Y-120009490D01*
X154648983Y-119981743D01*
X154600000Y-119972000D01*
X153121303Y-119972000D01*
X153042766Y-119938986D01*
X152530231Y-119833777D01*
X152007022Y-119830125D01*
X151493068Y-119928167D01*
X151384577Y-119972000D01*
X149900000Y-119972000D01*
X149851017Y-119981743D01*
X149809490Y-120009490D01*
X149781743Y-120051017D01*
X149772000Y-120100000D01*
X149772000Y-121508746D01*
X149694583Y-121689374D01*
X149585799Y-122201162D01*
X149578493Y-122724333D01*
X149672945Y-123238959D01*
X149772000Y-123489143D01*
X149772000Y-124800000D01*
X149774785Y-124814000D01*
X134186000Y-124814000D01*
X134186000Y-100197303D01*
X137120888Y-100197303D01*
X137186343Y-100436629D01*
X137433507Y-100552863D01*
X137698597Y-100618645D01*
X137971427Y-100631447D01*
X138241512Y-100590775D01*
X138498473Y-100498195D01*
X138613657Y-100436629D01*
X138679112Y-100197303D01*
X137900000Y-99418191D01*
X137120888Y-100197303D01*
X134186000Y-100197303D01*
X134186000Y-99311427D01*
X136508553Y-99311427D01*
X136549225Y-99581512D01*
X136641805Y-99838473D01*
X136703371Y-99953657D01*
X136942697Y-100019112D01*
X137721809Y-99240000D01*
X136942697Y-98460888D01*
X136703371Y-98526343D01*
X136587137Y-98773507D01*
X136521355Y-99038597D01*
X136508553Y-99311427D01*
X134186000Y-99311427D01*
X134186000Y-96816587D01*
X136511607Y-96816587D01*
X136560694Y-97084040D01*
X136660795Y-97336865D01*
X136808096Y-97565432D01*
X136996988Y-97761035D01*
X137220275Y-97916224D01*
X137339264Y-97968209D01*
X137301527Y-97981805D01*
X137186343Y-98043371D01*
X137120888Y-98282697D01*
X137900000Y-99061809D01*
X137914142Y-99047667D01*
X138092333Y-99225858D01*
X138078191Y-99240000D01*
X138857303Y-100019112D01*
X139096629Y-99953657D01*
X139212863Y-99706493D01*
X139278645Y-99441403D01*
X139291447Y-99168573D01*
X139291286Y-99167502D01*
X143196170Y-103072386D01*
X141329878Y-104938678D01*
X141285176Y-104993099D01*
X141239838Y-105047130D01*
X141237904Y-105050647D01*
X141235359Y-105053746D01*
X141202051Y-105115865D01*
X141168100Y-105177622D01*
X141166888Y-105181444D01*
X141164990Y-105184983D01*
X141144383Y-105252386D01*
X141123073Y-105319563D01*
X141122625Y-105323553D01*
X141121453Y-105327388D01*
X141114336Y-105397454D01*
X141106474Y-105467547D01*
X141106419Y-105475394D01*
X141106405Y-105475537D01*
X141106418Y-105475670D01*
X141106400Y-105478200D01*
X141106400Y-111069400D01*
X141113278Y-111139544D01*
X141119420Y-111209755D01*
X141120540Y-111213608D01*
X141120931Y-111217601D01*
X141141305Y-111285084D01*
X141160965Y-111352753D01*
X141162811Y-111356314D01*
X141163971Y-111360157D01*
X141197063Y-111422394D01*
X141229494Y-111484960D01*
X141231998Y-111488097D01*
X141233881Y-111491638D01*
X141278404Y-111546228D01*
X141322397Y-111601337D01*
X141327903Y-111606920D01*
X141327998Y-111607036D01*
X141328106Y-111607125D01*
X141329878Y-111608922D01*
X144060478Y-114339523D01*
X144114934Y-114384253D01*
X144168930Y-114429562D01*
X144172446Y-114431495D01*
X144175547Y-114434042D01*
X144237683Y-114467359D01*
X144299422Y-114501300D01*
X144303244Y-114502512D01*
X144306783Y-114504410D01*
X144374186Y-114525017D01*
X144441363Y-114546327D01*
X144445353Y-114546775D01*
X144449188Y-114547947D01*
X144519254Y-114555064D01*
X144589347Y-114562926D01*
X144597194Y-114562981D01*
X144597337Y-114562995D01*
X144597470Y-114562982D01*
X144600000Y-114563000D01*
X148090536Y-114563000D01*
X147941508Y-114780650D01*
X147826705Y-115048504D01*
X147766116Y-115333556D01*
X147762047Y-115624947D01*
X147814654Y-115911579D01*
X147921932Y-116182534D01*
X148079797Y-116427492D01*
X148282234Y-116637121D01*
X148521533Y-116803439D01*
X148788579Y-116920108D01*
X148873713Y-116938826D01*
X148826705Y-117048504D01*
X148766116Y-117333556D01*
X148762047Y-117624947D01*
X148814654Y-117911579D01*
X148917247Y-118170700D01*
X147446917Y-118170700D01*
X140409456Y-111133240D01*
X140432804Y-111030474D01*
X140436045Y-110798415D01*
X140396582Y-110599114D01*
X140319160Y-110411274D01*
X140206727Y-110242049D01*
X140063567Y-110097886D01*
X139895131Y-109984274D01*
X139707836Y-109905543D01*
X139508815Y-109864690D01*
X139305650Y-109863271D01*
X139106079Y-109901342D01*
X138917703Y-109977451D01*
X138747697Y-110088699D01*
X138602538Y-110230850D01*
X138487753Y-110398488D01*
X138407716Y-110585229D01*
X138365475Y-110783959D01*
X138362638Y-110987110D01*
X138399314Y-111186942D01*
X138474106Y-111375845D01*
X138584165Y-111546623D01*
X138725299Y-111692771D01*
X138892132Y-111808723D01*
X138963832Y-111840048D01*
X146443999Y-119320216D01*
X146460349Y-119351491D01*
X146553657Y-119467543D01*
X146667730Y-119563262D01*
X146798222Y-119635000D01*
X146940163Y-119680027D01*
X147088147Y-119696626D01*
X147098800Y-119696700D01*
X154866300Y-119696700D01*
X154936444Y-119689822D01*
X155006655Y-119683680D01*
X155010508Y-119682560D01*
X155014501Y-119682169D01*
X155081984Y-119661795D01*
X155149653Y-119642135D01*
X155153214Y-119640289D01*
X155157057Y-119639129D01*
X155219294Y-119606037D01*
X155281860Y-119573606D01*
X155284997Y-119571102D01*
X155288538Y-119569219D01*
X155343128Y-119524696D01*
X155398237Y-119480703D01*
X155403820Y-119475197D01*
X155403936Y-119475102D01*
X155404025Y-119474994D01*
X155405822Y-119473222D01*
X156239523Y-118639522D01*
X156284253Y-118585066D01*
X156329562Y-118531070D01*
X156331495Y-118527554D01*
X156334042Y-118524453D01*
X156367359Y-118462317D01*
X156401300Y-118400578D01*
X156402512Y-118396756D01*
X156404410Y-118393217D01*
X156425017Y-118325814D01*
X156446327Y-118258637D01*
X156446775Y-118254647D01*
X156447947Y-118250812D01*
X156455064Y-118180746D01*
X156462926Y-118110653D01*
X156462981Y-118102806D01*
X156462995Y-118102663D01*
X156462982Y-118102530D01*
X156463000Y-118100000D01*
X156463000Y-116358499D01*
X156548321Y-116237549D01*
X156666852Y-115971324D01*
X156731416Y-115687146D01*
X156736064Y-115354290D01*
X156679460Y-115068421D01*
X156568409Y-114798990D01*
X156407139Y-114556260D01*
X156201795Y-114349477D01*
X155960197Y-114186518D01*
X155691548Y-114073588D01*
X155406081Y-114014990D01*
X155114668Y-114012955D01*
X154828411Y-114067562D01*
X154558211Y-114176730D01*
X154314361Y-114336300D01*
X154255124Y-114394310D01*
X154216310Y-114355496D01*
X154100102Y-114471704D01*
X154022608Y-114222232D01*
X153758483Y-114096056D01*
X153474816Y-114023833D01*
X153182510Y-114008338D01*
X152892798Y-114050167D01*
X152616813Y-114147711D01*
X152477392Y-114222232D01*
X152399898Y-114471704D01*
X152283690Y-114355496D01*
X152245599Y-114393587D01*
X152201795Y-114349477D01*
X151960197Y-114186518D01*
X151691548Y-114073588D01*
X151406081Y-114014990D01*
X151114668Y-114012955D01*
X150885681Y-114056637D01*
X150590044Y-113761000D01*
X155528186Y-113761000D01*
X155546210Y-113762958D01*
X155694555Y-113749980D01*
X155837553Y-113708435D01*
X155969760Y-113639906D01*
X156086137Y-113547003D01*
X156093722Y-113539522D01*
X156283918Y-113349326D01*
X159927165Y-113349326D01*
X160017049Y-113609273D01*
X160298652Y-113745693D01*
X160601459Y-113824554D01*
X160913832Y-113842825D01*
X161223768Y-113799804D01*
X161519355Y-113697144D01*
X161683751Y-113609273D01*
X161773635Y-113349326D01*
X160850400Y-112426091D01*
X159927165Y-113349326D01*
X156283918Y-113349326D01*
X157321912Y-112311332D01*
X159255475Y-112311332D01*
X159298496Y-112621268D01*
X159401156Y-112916855D01*
X159489027Y-113081251D01*
X159748974Y-113171135D01*
X160672209Y-112247900D01*
X161028591Y-112247900D01*
X161951826Y-113171135D01*
X162211773Y-113081251D01*
X162348193Y-112799648D01*
X162427054Y-112496841D01*
X162437904Y-112311332D01*
X165704535Y-112311332D01*
X165747556Y-112621268D01*
X165850216Y-112916855D01*
X165938087Y-113081251D01*
X166198034Y-113171135D01*
X167121269Y-112247900D01*
X166198034Y-111324665D01*
X165938087Y-111414549D01*
X165801667Y-111696152D01*
X165722806Y-111998959D01*
X165704535Y-112311332D01*
X162437904Y-112311332D01*
X162445325Y-112184468D01*
X162402304Y-111874532D01*
X162299644Y-111578945D01*
X162211773Y-111414549D01*
X161951826Y-111324665D01*
X161028591Y-112247900D01*
X160672209Y-112247900D01*
X159748974Y-111324665D01*
X159489027Y-111414549D01*
X159352607Y-111696152D01*
X159273746Y-111998959D01*
X159255475Y-112311332D01*
X157321912Y-112311332D01*
X158486770Y-111146474D01*
X159927165Y-111146474D01*
X160850400Y-112069709D01*
X161773635Y-111146474D01*
X161683751Y-110886527D01*
X161402148Y-110750107D01*
X161099341Y-110671246D01*
X160786968Y-110652975D01*
X160477032Y-110695996D01*
X160181445Y-110798656D01*
X160017049Y-110886527D01*
X159927165Y-111146474D01*
X158486770Y-111146474D01*
X160353315Y-109279930D01*
X160613145Y-109337058D01*
X160924598Y-109343582D01*
X161231386Y-109289487D01*
X161521824Y-109176833D01*
X161784850Y-109009912D01*
X162010445Y-108795081D01*
X162190016Y-108540523D01*
X162316723Y-108255935D01*
X162385740Y-107952155D01*
X162390708Y-107596340D01*
X162330200Y-107290751D01*
X162211489Y-107002736D01*
X162039096Y-106743264D01*
X161819587Y-106522218D01*
X161561325Y-106348017D01*
X161274145Y-106227298D01*
X160968987Y-106164658D01*
X160657474Y-106162483D01*
X160351471Y-106220856D01*
X160062633Y-106337554D01*
X159801964Y-106508132D01*
X159579391Y-106726091D01*
X159403392Y-106983132D01*
X159280670Y-107269461D01*
X159215902Y-107574175D01*
X159211552Y-107885665D01*
X159267788Y-108192068D01*
X159272127Y-108203028D01*
X155236156Y-112239000D01*
X151281484Y-112239000D01*
X151332947Y-112123412D01*
X151393687Y-111856064D01*
X151398060Y-111542919D01*
X151344808Y-111273979D01*
X151240333Y-111020503D01*
X151088614Y-110792148D01*
X150895430Y-110597611D01*
X150668140Y-110444301D01*
X150415400Y-110338059D01*
X150146838Y-110282931D01*
X149872683Y-110281017D01*
X149603377Y-110332390D01*
X149349178Y-110435093D01*
X149119770Y-110585214D01*
X148923888Y-110777035D01*
X148826683Y-110919000D01*
X147395216Y-110919000D01*
X144135199Y-107658983D01*
X144136045Y-107598415D01*
X144119207Y-107513376D01*
X144179949Y-107502665D01*
X144369369Y-107429193D01*
X144540912Y-107320329D01*
X144603214Y-107261000D01*
X147485200Y-107261000D01*
X147555121Y-107254144D01*
X147625187Y-107248014D01*
X147629030Y-107246897D01*
X147633012Y-107246507D01*
X147700310Y-107226189D01*
X147767811Y-107206578D01*
X147771362Y-107204737D01*
X147775195Y-107203580D01*
X147837294Y-107170561D01*
X147899670Y-107138228D01*
X147902796Y-107135733D01*
X147906331Y-107133853D01*
X147960809Y-107089422D01*
X148015743Y-107045569D01*
X148021311Y-107040078D01*
X148021427Y-107039983D01*
X148021516Y-107039875D01*
X148023308Y-107038108D01*
X148634337Y-106427080D01*
X148647837Y-106416303D01*
X148655422Y-106408822D01*
X153551245Y-101513000D01*
X158808923Y-101513000D01*
X158808923Y-102782000D01*
X158821203Y-102906678D01*
X158857570Y-103026564D01*
X158916627Y-103137052D01*
X158996104Y-103233896D01*
X159092948Y-103313373D01*
X159203436Y-103372430D01*
X159323322Y-103408797D01*
X159448000Y-103421077D01*
X160972000Y-103421077D01*
X161096678Y-103408797D01*
X161216564Y-103372430D01*
X161327052Y-103313373D01*
X161423896Y-103233896D01*
X161503373Y-103137052D01*
X161562430Y-103026564D01*
X161598797Y-102906678D01*
X161606671Y-102826735D01*
X161649096Y-102892566D01*
X161839544Y-103089782D01*
X162064672Y-103246250D01*
X162315904Y-103356010D01*
X162583670Y-103414882D01*
X162857772Y-103420624D01*
X163127769Y-103373016D01*
X163383377Y-103273872D01*
X163614859Y-103126969D01*
X163813399Y-102937902D01*
X163971435Y-102713872D01*
X164018880Y-102607308D01*
X164040580Y-102662115D01*
X164189096Y-102892566D01*
X164379544Y-103089782D01*
X164604672Y-103246250D01*
X164855904Y-103356010D01*
X165123670Y-103414882D01*
X165397772Y-103420624D01*
X165667769Y-103373016D01*
X165923377Y-103273872D01*
X166154859Y-103126969D01*
X166353399Y-102937902D01*
X166511435Y-102713872D01*
X166622947Y-102463412D01*
X166683687Y-102196064D01*
X166688060Y-101882919D01*
X166634808Y-101613979D01*
X166530333Y-101360503D01*
X166378614Y-101132148D01*
X166185430Y-100937611D01*
X165958140Y-100784301D01*
X165882618Y-100752555D01*
X165892466Y-100749015D01*
X166010435Y-100685959D01*
X166077276Y-100445467D01*
X165290000Y-99658191D01*
X164502724Y-100445467D01*
X164569565Y-100685959D01*
X164703544Y-100749087D01*
X164639178Y-100775093D01*
X164409770Y-100925214D01*
X164213888Y-101117035D01*
X164058996Y-101343250D01*
X164020368Y-101433375D01*
X163990333Y-101360503D01*
X163838614Y-101132148D01*
X163645430Y-100937611D01*
X163418140Y-100784301D01*
X163339063Y-100751060D01*
X163383377Y-100733872D01*
X163614859Y-100586969D01*
X163813399Y-100397902D01*
X163971435Y-100173872D01*
X164017030Y-100071464D01*
X164020985Y-100082466D01*
X164084041Y-100200435D01*
X164324533Y-100267276D01*
X165111809Y-99480000D01*
X165468191Y-99480000D01*
X166255467Y-100267276D01*
X166495959Y-100200435D01*
X166613337Y-99951321D01*
X166679859Y-99684095D01*
X166692971Y-99409025D01*
X166652166Y-99136683D01*
X166559015Y-98877534D01*
X166495959Y-98759565D01*
X166255467Y-98692724D01*
X165468191Y-99480000D01*
X165111809Y-99480000D01*
X164324533Y-98692724D01*
X164084041Y-98759565D01*
X164020660Y-98894081D01*
X163990333Y-98820503D01*
X163838614Y-98592148D01*
X163761539Y-98514533D01*
X164502724Y-98514533D01*
X165290000Y-99301809D01*
X166077276Y-98514533D01*
X166010435Y-98274041D01*
X165761321Y-98156663D01*
X165494095Y-98090141D01*
X165219025Y-98077029D01*
X164946683Y-98117834D01*
X164687534Y-98210985D01*
X164569565Y-98274041D01*
X164502724Y-98514533D01*
X163761539Y-98514533D01*
X163645430Y-98397611D01*
X163418140Y-98244301D01*
X163165400Y-98138059D01*
X162896838Y-98082931D01*
X162622683Y-98081017D01*
X162353377Y-98132390D01*
X162099178Y-98235093D01*
X161869770Y-98385214D01*
X161673888Y-98577035D01*
X161518996Y-98803250D01*
X161480368Y-98893375D01*
X161450333Y-98820503D01*
X161298614Y-98592148D01*
X161105430Y-98397611D01*
X160878140Y-98244301D01*
X160625400Y-98138059D01*
X160356838Y-98082931D01*
X160082683Y-98081017D01*
X159813377Y-98132390D01*
X159559178Y-98235093D01*
X159329770Y-98385214D01*
X159133888Y-98577035D01*
X159038052Y-98717000D01*
X152040000Y-98717000D01*
X151969896Y-98723874D01*
X151899645Y-98730020D01*
X151895792Y-98731140D01*
X151891799Y-98731531D01*
X151824316Y-98751905D01*
X151756647Y-98771565D01*
X151753087Y-98773411D01*
X151749243Y-98774571D01*
X151686985Y-98807674D01*
X151624441Y-98840094D01*
X151621306Y-98842597D01*
X151617762Y-98844481D01*
X151563150Y-98889022D01*
X151508063Y-98932997D01*
X151502476Y-98938507D01*
X151502364Y-98938598D01*
X151502278Y-98938702D01*
X151500478Y-98940477D01*
X150288870Y-100152086D01*
X150146838Y-100122931D01*
X149872683Y-100121017D01*
X149603377Y-100172390D01*
X149349178Y-100275093D01*
X149119770Y-100425214D01*
X148923888Y-100617035D01*
X148828052Y-100757000D01*
X145827600Y-100757000D01*
X145757456Y-100763878D01*
X145687245Y-100770020D01*
X145683392Y-100771140D01*
X145679399Y-100771531D01*
X145611916Y-100791905D01*
X145544247Y-100811565D01*
X145540686Y-100813411D01*
X145536843Y-100814571D01*
X145474606Y-100847663D01*
X145412040Y-100880094D01*
X145408903Y-100882598D01*
X145405362Y-100884481D01*
X145350796Y-100928984D01*
X145295662Y-100972997D01*
X145290075Y-100978508D01*
X145289964Y-100978598D01*
X145289879Y-100978701D01*
X145288077Y-100980478D01*
X144272386Y-101996170D01*
X139257957Y-96981741D01*
X139282293Y-96874624D01*
X139286629Y-96564040D01*
X139233813Y-96297298D01*
X139130192Y-96045895D01*
X138979714Y-95819407D01*
X138788109Y-95626460D01*
X138562677Y-95474404D01*
X138312004Y-95369031D01*
X138045637Y-95314354D01*
X137773724Y-95312455D01*
X137506620Y-95363408D01*
X137254499Y-95465271D01*
X137026966Y-95614165D01*
X136832686Y-95804418D01*
X136679060Y-96028783D01*
X136571939Y-96278714D01*
X136515404Y-96544693D01*
X136511607Y-96816587D01*
X134186000Y-96816587D01*
X134186000Y-89490320D01*
X136605230Y-89490320D01*
X136629756Y-89759817D01*
X136706161Y-90019418D01*
X136831534Y-90259235D01*
X137001100Y-90470132D01*
X137208400Y-90644078D01*
X137439154Y-90770936D01*
X137224450Y-90885096D01*
X137014741Y-91056131D01*
X136842247Y-91264640D01*
X136713538Y-91502683D01*
X136633516Y-91761191D01*
X136605230Y-92030320D01*
X136629756Y-92299817D01*
X136706161Y-92559418D01*
X136831534Y-92799235D01*
X137001100Y-93010132D01*
X137208400Y-93184078D01*
X137445538Y-93314445D01*
X137703482Y-93396270D01*
X137839199Y-93411493D01*
X137861772Y-93455040D01*
X137864267Y-93458166D01*
X137866147Y-93461701D01*
X137910578Y-93516179D01*
X137954431Y-93571113D01*
X137959922Y-93576681D01*
X137960017Y-93576797D01*
X137960125Y-93576886D01*
X137961892Y-93578678D01*
X140321322Y-95938108D01*
X140375619Y-95982709D01*
X140429490Y-96027911D01*
X140432996Y-96029839D01*
X140436089Y-96032379D01*
X140498081Y-96065619D01*
X140559640Y-96099462D01*
X140563450Y-96100671D01*
X140566981Y-96102564D01*
X140634246Y-96123128D01*
X140701209Y-96144370D01*
X140705186Y-96144816D01*
X140709013Y-96145986D01*
X140778916Y-96153087D01*
X140848805Y-96160926D01*
X140856631Y-96160981D01*
X140856774Y-96160995D01*
X140856907Y-96160982D01*
X140859430Y-96161000D01*
X160713600Y-96161000D01*
X160783521Y-96154144D01*
X160853587Y-96148014D01*
X160857430Y-96146897D01*
X160861412Y-96146507D01*
X160928710Y-96126189D01*
X160996211Y-96106578D01*
X160999762Y-96104737D01*
X161003595Y-96103580D01*
X161065694Y-96070561D01*
X161128070Y-96038228D01*
X161131196Y-96035733D01*
X161134731Y-96033853D01*
X161189209Y-95989422D01*
X161244143Y-95945569D01*
X161249711Y-95940078D01*
X161249827Y-95939983D01*
X161249916Y-95939875D01*
X161251708Y-95938108D01*
X163538108Y-93651708D01*
X163582709Y-93597411D01*
X163627911Y-93543540D01*
X163629839Y-93540034D01*
X163632379Y-93536941D01*
X163650752Y-93502677D01*
X164016000Y-93502677D01*
X164140678Y-93490397D01*
X164260564Y-93454030D01*
X164371052Y-93394973D01*
X164467896Y-93315496D01*
X164547373Y-93218652D01*
X164606430Y-93108164D01*
X164642797Y-92988278D01*
X164655077Y-92863600D01*
X164655077Y-91422126D01*
X166142802Y-91422126D01*
X166201362Y-91615188D01*
X166343332Y-91906260D01*
X166539360Y-92164042D01*
X166781912Y-92378628D01*
X167061667Y-92541771D01*
X167367874Y-92647202D01*
X167624000Y-92528192D01*
X167624000Y-91166000D01*
X167876000Y-91166000D01*
X167876000Y-92528192D01*
X168132126Y-92647202D01*
X168438333Y-92541771D01*
X168718088Y-92378628D01*
X168960640Y-92164042D01*
X169156668Y-91906260D01*
X169298638Y-91615188D01*
X169357198Y-91422126D01*
X169237674Y-91166000D01*
X167876000Y-91166000D01*
X167624000Y-91166000D01*
X166262326Y-91166000D01*
X166142802Y-91422126D01*
X164655077Y-91422126D01*
X164655077Y-91136400D01*
X164642797Y-91011722D01*
X164606430Y-90891836D01*
X164547373Y-90781348D01*
X164467896Y-90684504D01*
X164371052Y-90605027D01*
X164260564Y-90545970D01*
X164209285Y-90530415D01*
X164217062Y-90524072D01*
X164403618Y-90298566D01*
X164542819Y-90041118D01*
X164629364Y-89761536D01*
X164659956Y-89470469D01*
X164633431Y-89179003D01*
X164550798Y-88898240D01*
X164415205Y-88638874D01*
X164231816Y-88410785D01*
X164007618Y-88222660D01*
X163949511Y-88190715D01*
X163990259Y-88169049D01*
X164217062Y-87984072D01*
X164403618Y-87758566D01*
X164542819Y-87501118D01*
X164548117Y-87484000D01*
X166094923Y-87484000D01*
X166094923Y-89516000D01*
X166107203Y-89640678D01*
X166143570Y-89760564D01*
X166202627Y-89871052D01*
X166282104Y-89967896D01*
X166378948Y-90047373D01*
X166421949Y-90070357D01*
X166343332Y-90173740D01*
X166201362Y-90464812D01*
X166142802Y-90657874D01*
X166262326Y-90914000D01*
X167624000Y-90914000D01*
X167624000Y-90894000D01*
X167876000Y-90894000D01*
X167876000Y-90914000D01*
X169237674Y-90914000D01*
X169357198Y-90657874D01*
X169298638Y-90464812D01*
X169156668Y-90173740D01*
X169078051Y-90070357D01*
X169121052Y-90047373D01*
X169217896Y-89967896D01*
X169297373Y-89871052D01*
X169356430Y-89760564D01*
X169392797Y-89640678D01*
X169405077Y-89516000D01*
X169405077Y-87484000D01*
X169392797Y-87359322D01*
X169356430Y-87239436D01*
X169297373Y-87128948D01*
X169217896Y-87032104D01*
X169121052Y-86952627D01*
X169010564Y-86893570D01*
X168890678Y-86857203D01*
X168766000Y-86844923D01*
X166734000Y-86844923D01*
X166609322Y-86857203D01*
X166489436Y-86893570D01*
X166378948Y-86952627D01*
X166282104Y-87032104D01*
X166202627Y-87128948D01*
X166143570Y-87239436D01*
X166107203Y-87359322D01*
X166094923Y-87484000D01*
X164548117Y-87484000D01*
X164629364Y-87221536D01*
X164659956Y-86930469D01*
X164633431Y-86639003D01*
X164550798Y-86358240D01*
X164415205Y-86098874D01*
X164231816Y-85870785D01*
X164007618Y-85682660D01*
X163751148Y-85541665D01*
X163472177Y-85453170D01*
X163181331Y-85420546D01*
X163160393Y-85420400D01*
X162839607Y-85420400D01*
X162548333Y-85448960D01*
X162268154Y-85533551D01*
X162009741Y-85670951D01*
X161782938Y-85855928D01*
X161596382Y-86081434D01*
X161457181Y-86338882D01*
X161370636Y-86618464D01*
X161340044Y-86909531D01*
X161366569Y-87200997D01*
X161449202Y-87481760D01*
X161584795Y-87741126D01*
X161768184Y-87969215D01*
X161992382Y-88157340D01*
X162050489Y-88189285D01*
X162009741Y-88210951D01*
X161782938Y-88395928D01*
X161596382Y-88621434D01*
X161457181Y-88878882D01*
X161370636Y-89158464D01*
X161340044Y-89449531D01*
X161366569Y-89740997D01*
X161449202Y-90021760D01*
X161584795Y-90281126D01*
X161768184Y-90509215D01*
X161792723Y-90529806D01*
X161739436Y-90545970D01*
X161628948Y-90605027D01*
X161532104Y-90684504D01*
X161452627Y-90781348D01*
X161393570Y-90891836D01*
X161357203Y-91011722D01*
X161344923Y-91136400D01*
X161344923Y-92863600D01*
X161357203Y-92988278D01*
X161393570Y-93108164D01*
X161452627Y-93218652D01*
X161532104Y-93315496D01*
X161628948Y-93394973D01*
X161637721Y-93399663D01*
X160398384Y-94639000D01*
X141174646Y-94639000D01*
X139746171Y-93210525D01*
X139775550Y-93194904D01*
X139985259Y-93023869D01*
X140157753Y-92815360D01*
X140286462Y-92577317D01*
X140366484Y-92318809D01*
X140394770Y-92049680D01*
X140370244Y-91780183D01*
X140293839Y-91520582D01*
X140168466Y-91280765D01*
X139998900Y-91069868D01*
X139791600Y-90895922D01*
X139560846Y-90769064D01*
X139775550Y-90654904D01*
X139985259Y-90483869D01*
X140157753Y-90275360D01*
X140286462Y-90037317D01*
X140366484Y-89778809D01*
X140373376Y-89713227D01*
X152724747Y-89713227D01*
X152814523Y-90202376D01*
X152997598Y-90664772D01*
X153267000Y-91082803D01*
X153612467Y-91440544D01*
X154020841Y-91724371D01*
X154476566Y-91923473D01*
X154962284Y-92030265D01*
X155459495Y-92040680D01*
X155949259Y-91954321D01*
X156412922Y-91774478D01*
X156832822Y-91508001D01*
X157192967Y-91165040D01*
X157479638Y-90758658D01*
X157681916Y-90304334D01*
X157792097Y-89819373D01*
X157800029Y-89251340D01*
X157703432Y-88763492D01*
X157513918Y-88303697D01*
X157238706Y-87889469D01*
X156888277Y-87536586D01*
X156475981Y-87258488D01*
X156017520Y-87065769D01*
X155530358Y-86965769D01*
X155033051Y-86962297D01*
X154544540Y-87055486D01*
X154083434Y-87241785D01*
X153667294Y-87514099D01*
X153311973Y-87862055D01*
X153031004Y-88272400D01*
X152835089Y-88729504D01*
X152731691Y-89215956D01*
X152724747Y-89713227D01*
X140373376Y-89713227D01*
X140394770Y-89509680D01*
X140370244Y-89240183D01*
X140293839Y-88980582D01*
X140168466Y-88740765D01*
X139998900Y-88529868D01*
X139791600Y-88355922D01*
X139559084Y-88228096D01*
X139646136Y-88192806D01*
X139874212Y-88042889D01*
X140068658Y-87851358D01*
X140222002Y-87625572D01*
X140328351Y-87374209D01*
X140343232Y-87300459D01*
X140220196Y-87086000D01*
X138626000Y-87086000D01*
X138626000Y-87106000D01*
X138374000Y-87106000D01*
X138374000Y-87086000D01*
X136779804Y-87086000D01*
X136656768Y-87300459D01*
X136671649Y-87374209D01*
X136777998Y-87625572D01*
X136931342Y-87851358D01*
X137125788Y-88042889D01*
X137353864Y-88192806D01*
X137442947Y-88228919D01*
X137224450Y-88345096D01*
X137014741Y-88516131D01*
X136842247Y-88724640D01*
X136713538Y-88962683D01*
X136633516Y-89221191D01*
X136605230Y-89490320D01*
X134186000Y-89490320D01*
X134186000Y-86619541D01*
X136656768Y-86619541D01*
X136779804Y-86834000D01*
X138374000Y-86834000D01*
X138374000Y-85573430D01*
X138626000Y-85573430D01*
X138626000Y-86834000D01*
X140220196Y-86834000D01*
X140343232Y-86619541D01*
X140328351Y-86545791D01*
X140222002Y-86294428D01*
X140068658Y-86068642D01*
X139874212Y-85877111D01*
X139646136Y-85727194D01*
X139393195Y-85624654D01*
X139125110Y-85573430D01*
X138626000Y-85573430D01*
X138374000Y-85573430D01*
X137874890Y-85573430D01*
X137606805Y-85624654D01*
X137353864Y-85727194D01*
X137125788Y-85877111D01*
X136931342Y-86068642D01*
X136777998Y-86294428D01*
X136671649Y-86545791D01*
X136656768Y-86619541D01*
X134186000Y-86619541D01*
X134186000Y-84186000D01*
X170314000Y-84186000D01*
X170314000Y-92814000D01*
G36*
X153442333Y-115485858D02*
X153428191Y-115500000D01*
X153442333Y-115514142D01*
X153264142Y-115692333D01*
X153250000Y-115678191D01*
X153235858Y-115692333D01*
X153057667Y-115514142D01*
X153071809Y-115500000D01*
X153057667Y-115485858D01*
X153235858Y-115307667D01*
X153250000Y-115321809D01*
X153264142Y-115307667D01*
X153442333Y-115485858D01*
X153442333Y-115485858D01*
G37*
X153442333Y-115485858D02*
X153428191Y-115500000D01*
X153442333Y-115514142D01*
X153264142Y-115692333D01*
X153250000Y-115678191D01*
X153235858Y-115692333D01*
X153057667Y-115514142D01*
X153071809Y-115500000D01*
X153057667Y-115485858D01*
X153235858Y-115307667D01*
X153250000Y-115321809D01*
X153264142Y-115307667D01*
X153442333Y-115485858D01*
M02*
