M48
INCH,TZ
T1C0.024
T2C0.031
T3C0.032
T4C0.032
T5C0.039
T6C0.040
T7C0.043
T8C0.050
T9C0.118
%
G90
G05
T1
X5.4843Y-4.2008
X5.5032Y-4.3013
X5.6457Y-4.2402
X5.7895Y-4.1791
X5.8703Y-4.1464
X5.9388Y-4.3144
X6.2087Y-4.2402
T2
X6.3917Y-4.6358
X6.4417Y-4.6358
X6.4917Y-4.6358
X6.5417Y-4.6358
T3
X5.4252Y-3.8094
X5.4252Y-3.9094
T4
X5.874Y-4.0598
X5.874Y-4.4598
T5
X5.4528Y-3.4236
X5.4528Y-3.5236
X5.4528Y-3.6236
T6
X6.6043Y-3.4843
X6.6043Y-3.5843
X6.4173Y-3.422
X6.4173Y-3.522
X6.4173Y-3.622
X6.3075Y-3.8969
X6.3075Y-3.9969
X6.4075Y-3.8969
X6.4075Y-3.9969
X6.5075Y-3.8969
X6.5075Y-3.9969
T7
X5.5512Y-4.6358
X5.7087Y-4.6358
X5.8661Y-4.6358
X6.0236Y-4.6358
T8
X6.3406Y-4.2422
X6.3425Y-4.4192
X6.5944Y-4.2422
X6.5964Y-4.4192
T9
X5.9941Y-4.8327
T0
M30
