G04 #@! TF.GenerationSoftware,KiCad,Pcbnew,(2017-09-19 revision dddaa7e69)-makepkg*
G04 #@! TF.CreationDate,2017-11-10T02:15:54+01:00*
G04 #@! TF.ProjectId,RICOH_AFICIO_SG_2100N_GEL_CHIP_RESETTER,5249434F485F41464943494F5F53475F,1*
G04 #@! TF.SameCoordinates,Original*
G04 #@! TF.FileFunction,Copper,L2,Bot,Signal*
G04 #@! TF.FilePolarity,Positive*
%FSLAX46Y46*%
G04 Gerber Fmt 4.6, Leading zero omitted, Abs format (unit mm)*
G04 Created by KiCad (PCBNEW (2017-09-19 revision dddaa7e69)-makepkg) date 11/10/17 02:15:54*
%MOMM*%
%LPD*%
G01*
G04 APERTURE LIST*
%ADD10C,0.300000*%
%ADD11C,1.905000*%
%ADD12C,1.501140*%
%ADD13R,1.524000X1.524000*%
%ADD14C,1.524000*%
%ADD15R,2.032000X2.032000*%
%ADD16O,2.032000X2.032000*%
%ADD17R,2.032000X1.727200*%
%ADD18O,2.032000X1.727200*%
%ADD19C,4.000000*%
%ADD20C,2.200000*%
%ADD21O,1.000000X1.900000*%
%ADD22R,1.000000X1.900000*%
%ADD23O,2.499360X1.501140*%
%ADD24C,0.800000*%
%ADD25C,0.254000*%
%ADD26C,0.250000*%
%ADD27C,0.256000*%
G04 APERTURE END LIST*
D10*
X135300000Y-85821428D02*
X135300000Y-86535714D01*
X135728571Y-85678571D02*
X134228571Y-86178571D01*
X135728571Y-86678571D01*
X134942857Y-87678571D02*
X134942857Y-87178571D01*
X135728571Y-87178571D02*
X134228571Y-87178571D01*
X134228571Y-87892857D01*
X135728571Y-88464285D02*
X134228571Y-88464285D01*
X135585714Y-90035714D02*
X135657142Y-89964285D01*
X135728571Y-89750000D01*
X135728571Y-89607142D01*
X135657142Y-89392857D01*
X135514285Y-89250000D01*
X135371428Y-89178571D01*
X135085714Y-89107142D01*
X134871428Y-89107142D01*
X134585714Y-89178571D01*
X134442857Y-89250000D01*
X134300000Y-89392857D01*
X134228571Y-89607142D01*
X134228571Y-89750000D01*
X134300000Y-89964285D01*
X134371428Y-90035714D01*
X135728571Y-90678571D02*
X134228571Y-90678571D01*
X134228571Y-91678571D02*
X134228571Y-91964285D01*
X134300000Y-92107142D01*
X134442857Y-92250000D01*
X134728571Y-92321428D01*
X135228571Y-92321428D01*
X135514285Y-92250000D01*
X135657142Y-92107142D01*
X135728571Y-91964285D01*
X135728571Y-91678571D01*
X135657142Y-91535714D01*
X135514285Y-91392857D01*
X135228571Y-91321428D01*
X134728571Y-91321428D01*
X134442857Y-91392857D01*
X134300000Y-91535714D01*
X134228571Y-91678571D01*
X135657142Y-94035714D02*
X135728571Y-94250000D01*
X135728571Y-94607142D01*
X135657142Y-94750000D01*
X135585714Y-94821428D01*
X135442857Y-94892857D01*
X135300000Y-94892857D01*
X135157142Y-94821428D01*
X135085714Y-94750000D01*
X135014285Y-94607142D01*
X134942857Y-94321428D01*
X134871428Y-94178571D01*
X134800000Y-94107142D01*
X134657142Y-94035714D01*
X134514285Y-94035714D01*
X134371428Y-94107142D01*
X134300000Y-94178571D01*
X134228571Y-94321428D01*
X134228571Y-94678571D01*
X134300000Y-94892857D01*
X134300000Y-96321428D02*
X134228571Y-96178571D01*
X134228571Y-95964285D01*
X134300000Y-95750000D01*
X134442857Y-95607142D01*
X134585714Y-95535714D01*
X134871428Y-95464285D01*
X135085714Y-95464285D01*
X135371428Y-95535714D01*
X135514285Y-95607142D01*
X135657142Y-95750000D01*
X135728571Y-95964285D01*
X135728571Y-96107142D01*
X135657142Y-96321428D01*
X135585714Y-96392857D01*
X135085714Y-96392857D01*
X135085714Y-96107142D01*
X134371428Y-98107142D02*
X134300000Y-98178571D01*
X134228571Y-98321428D01*
X134228571Y-98678571D01*
X134300000Y-98821428D01*
X134371428Y-98892857D01*
X134514285Y-98964285D01*
X134657142Y-98964285D01*
X134871428Y-98892857D01*
X135728571Y-98035714D01*
X135728571Y-98964285D01*
X135728571Y-100392857D02*
X135728571Y-99535714D01*
X135728571Y-99964285D02*
X134228571Y-99964285D01*
X134442857Y-99821428D01*
X134585714Y-99678571D01*
X134657142Y-99535714D01*
X134228571Y-101321428D02*
X134228571Y-101464285D01*
X134300000Y-101607142D01*
X134371428Y-101678571D01*
X134514285Y-101750000D01*
X134800000Y-101821428D01*
X135157142Y-101821428D01*
X135442857Y-101750000D01*
X135585714Y-101678571D01*
X135657142Y-101607142D01*
X135728571Y-101464285D01*
X135728571Y-101321428D01*
X135657142Y-101178571D01*
X135585714Y-101107142D01*
X135442857Y-101035714D01*
X135157142Y-100964285D01*
X134800000Y-100964285D01*
X134514285Y-101035714D01*
X134371428Y-101107142D01*
X134300000Y-101178571D01*
X134228571Y-101321428D01*
X134228571Y-102750000D02*
X134228571Y-102892857D01*
X134300000Y-103035714D01*
X134371428Y-103107142D01*
X134514285Y-103178571D01*
X134800000Y-103250000D01*
X135157142Y-103250000D01*
X135442857Y-103178571D01*
X135585714Y-103107142D01*
X135657142Y-103035714D01*
X135728571Y-102892857D01*
X135728571Y-102750000D01*
X135657142Y-102607142D01*
X135585714Y-102535714D01*
X135442857Y-102464285D01*
X135157142Y-102392857D01*
X134800000Y-102392857D01*
X134514285Y-102464285D01*
X134371428Y-102535714D01*
X134300000Y-102607142D01*
X134228571Y-102750000D01*
X135728571Y-103892857D02*
X134228571Y-103892857D01*
X135728571Y-104750000D01*
X134228571Y-104750000D01*
X135585714Y-107464285D02*
X135657142Y-107392857D01*
X135728571Y-107178571D01*
X135728571Y-107035714D01*
X135657142Y-106821428D01*
X135514285Y-106678571D01*
X135371428Y-106607142D01*
X135085714Y-106535714D01*
X134871428Y-106535714D01*
X134585714Y-106607142D01*
X134442857Y-106678571D01*
X134300000Y-106821428D01*
X134228571Y-107035714D01*
X134228571Y-107178571D01*
X134300000Y-107392857D01*
X134371428Y-107464285D01*
X135728571Y-108107142D02*
X134228571Y-108107142D01*
X134942857Y-108107142D02*
X134942857Y-108964285D01*
X135728571Y-108964285D02*
X134228571Y-108964285D01*
X135728571Y-109678571D02*
X134228571Y-109678571D01*
X135728571Y-110392857D02*
X134228571Y-110392857D01*
X134228571Y-110964285D01*
X134300000Y-111107142D01*
X134371428Y-111178571D01*
X134514285Y-111250000D01*
X134728571Y-111250000D01*
X134871428Y-111178571D01*
X134942857Y-111107142D01*
X135014285Y-110964285D01*
X135014285Y-110392857D01*
X135728571Y-113892857D02*
X135014285Y-113392857D01*
X135728571Y-113035714D02*
X134228571Y-113035714D01*
X134228571Y-113607142D01*
X134300000Y-113750000D01*
X134371428Y-113821428D01*
X134514285Y-113892857D01*
X134728571Y-113892857D01*
X134871428Y-113821428D01*
X134942857Y-113750000D01*
X135014285Y-113607142D01*
X135014285Y-113035714D01*
X134942857Y-114535714D02*
X134942857Y-115035714D01*
X135728571Y-115250000D02*
X135728571Y-114535714D01*
X134228571Y-114535714D01*
X134228571Y-115250000D01*
X135657142Y-115821428D02*
X135728571Y-116035714D01*
X135728571Y-116392857D01*
X135657142Y-116535714D01*
X135585714Y-116607142D01*
X135442857Y-116678571D01*
X135300000Y-116678571D01*
X135157142Y-116607142D01*
X135085714Y-116535714D01*
X135014285Y-116392857D01*
X134942857Y-116107142D01*
X134871428Y-115964285D01*
X134800000Y-115892857D01*
X134657142Y-115821428D01*
X134514285Y-115821428D01*
X134371428Y-115892857D01*
X134300000Y-115964285D01*
X134228571Y-116107142D01*
X134228571Y-116464285D01*
X134300000Y-116678571D01*
X134942857Y-117321428D02*
X134942857Y-117821428D01*
X135728571Y-118035714D02*
X135728571Y-117321428D01*
X134228571Y-117321428D01*
X134228571Y-118035714D01*
X134228571Y-118464285D02*
X134228571Y-119321428D01*
X135728571Y-118892857D02*
X134228571Y-118892857D01*
X134228571Y-119607142D02*
X134228571Y-120464285D01*
X135728571Y-120035714D02*
X134228571Y-120035714D01*
X134942857Y-120964285D02*
X134942857Y-121464285D01*
X135728571Y-121678571D02*
X135728571Y-120964285D01*
X134228571Y-120964285D01*
X134228571Y-121678571D01*
X135728571Y-123178571D02*
X135014285Y-122678571D01*
X135728571Y-122321428D02*
X134228571Y-122321428D01*
X134228571Y-122892857D01*
X134300000Y-123035714D01*
X134371428Y-123107142D01*
X134514285Y-123178571D01*
X134728571Y-123178571D01*
X134871428Y-123107142D01*
X134942857Y-123035714D01*
X135014285Y-122892857D01*
X135014285Y-122321428D01*
D11*
X167498660Y-107752100D03*
X161052140Y-107752100D03*
X167549460Y-112247900D03*
X161100400Y-112247900D03*
D12*
X137800000Y-96760000D03*
X137800000Y-99300000D03*
D13*
X160210000Y-101520000D03*
D14*
X160210000Y-98980000D03*
X162750000Y-101520000D03*
X162750000Y-98980000D03*
X165290000Y-101520000D03*
X165290000Y-98980000D03*
X149200000Y-113280000D03*
X149200000Y-103120000D03*
D15*
X167750000Y-88500000D03*
D16*
X167750000Y-91040000D03*
D17*
X163000000Y-92000000D03*
D18*
X163000000Y-89460000D03*
X163000000Y-86920000D03*
D19*
X152250000Y-122750000D03*
D20*
X141000000Y-117750000D03*
X145000000Y-117750000D03*
X149000000Y-117750000D03*
X153000000Y-117750000D03*
D21*
X162350000Y-117750000D03*
D22*
X163620000Y-117750000D03*
D21*
X164890000Y-117750000D03*
X166160000Y-117750000D03*
D23*
X138500000Y-89500000D03*
X138500000Y-86960000D03*
X138500000Y-92040000D03*
D24*
X139781900Y-109253700D03*
X150845800Y-109584500D03*
X149106300Y-105318700D03*
X147052900Y-106148900D03*
X139300000Y-106700000D03*
X143400000Y-107700000D03*
X157700000Y-107700000D03*
D25*
X160184700Y-108619500D02*
X161052100Y-107752100D01*
X160184700Y-108619500D02*
X140416100Y-108619500D01*
X140416100Y-108619500D02*
X139781900Y-109253700D01*
X167498700Y-107752100D02*
X161052100Y-107752100D01*
X153000000Y-117750000D02*
X153350000Y-117750000D01*
X153350000Y-117750000D02*
X156300000Y-114800000D01*
X156300000Y-114800000D02*
X163620000Y-114800000D01*
X163620000Y-117750000D02*
X163620000Y-114800000D01*
X163620000Y-114800000D02*
X163620000Y-114767500D01*
X163620000Y-114767500D02*
X161100400Y-112247900D01*
D26*
X138500000Y-89500000D02*
X139900000Y-89500000D01*
X139900000Y-89500000D02*
X140600000Y-90200000D01*
X140600000Y-90200000D02*
X140600000Y-96500000D01*
X140600000Y-96500000D02*
X138550569Y-98549431D01*
X138550569Y-98549431D02*
X137800000Y-99300000D01*
D25*
X139200000Y-110300000D02*
X137800000Y-108900000D01*
X137800000Y-99300000D02*
X137800000Y-108900000D01*
X139200000Y-110300000D02*
X149200000Y-110300000D01*
X138500000Y-89500000D02*
X138424500Y-89500000D01*
X149915500Y-109584500D02*
X149200000Y-110300000D01*
X150845800Y-109584500D02*
X149915500Y-109584500D01*
X149200000Y-110300000D02*
X149200000Y-110300000D01*
X149000000Y-113480000D02*
X149200000Y-113280000D01*
X149000000Y-117750000D02*
X149000000Y-113480000D01*
X149200000Y-110300000D02*
X149200000Y-113280000D01*
X160210000Y-101520000D02*
X159066700Y-101520000D01*
X155268000Y-105318700D02*
X149106300Y-105318700D01*
X159066700Y-101520000D02*
X155268000Y-105318700D01*
X148740100Y-104461700D02*
X147052900Y-106148900D01*
X152651100Y-104461700D02*
X148740100Y-104461700D01*
X156836200Y-100276600D02*
X152651100Y-104461700D01*
X161453400Y-100276600D02*
X156836200Y-100276600D01*
X162750000Y-98980000D02*
X161453400Y-100276600D01*
X165290000Y-101520000D02*
X165080000Y-101520000D01*
X165080000Y-101520000D02*
X159879500Y-106720500D01*
X159879500Y-106720500D02*
X147879500Y-106720500D01*
X147879500Y-106720500D02*
X147597200Y-107002800D01*
X147597200Y-107002800D02*
X146306400Y-107002800D01*
X146306400Y-107002800D02*
X146003600Y-106700000D01*
X146003600Y-106700000D02*
X139865685Y-106700000D01*
X139865685Y-106700000D02*
X139300000Y-106700000D01*
X157700000Y-107700000D02*
X143400000Y-107700000D01*
X165392700Y-89460000D02*
X166352700Y-88500000D01*
X163000000Y-89460000D02*
X165392700Y-89460000D01*
X167750000Y-88500000D02*
X166352700Y-88500000D01*
D27*
G36*
X170314000Y-124814000D02*
X154728000Y-124814000D01*
X154728000Y-123665450D01*
X154763339Y-123586077D01*
X154877868Y-123081977D01*
X154886113Y-122491527D01*
X154785704Y-121984426D01*
X154728000Y-121844426D01*
X154728000Y-120400000D01*
X154718257Y-120351017D01*
X154690510Y-120309490D01*
X154648983Y-120281743D01*
X154600000Y-120272000D01*
X153157668Y-120272000D01*
X153033258Y-120219703D01*
X152526870Y-120115756D01*
X152009937Y-120112147D01*
X151502147Y-120209013D01*
X151346249Y-120272000D01*
X149900000Y-120272000D01*
X149851017Y-120281743D01*
X149809490Y-120309490D01*
X149781743Y-120351017D01*
X149772000Y-120400000D01*
X149772000Y-121839979D01*
X149725232Y-121949097D01*
X149617753Y-122454746D01*
X149610536Y-122971642D01*
X149703854Y-123480096D01*
X149772000Y-123652213D01*
X149772000Y-124814000D01*
X134186000Y-124814000D01*
X134186000Y-124250285D01*
X137081000Y-124250285D01*
X137081000Y-117895968D01*
X139261718Y-117895968D01*
X139323175Y-118230822D01*
X139448502Y-118547362D01*
X139632925Y-118833530D01*
X139869420Y-119078427D01*
X140148978Y-119272725D01*
X140460951Y-119409023D01*
X140793456Y-119482129D01*
X141133829Y-119489259D01*
X141469104Y-119430141D01*
X141786511Y-119307027D01*
X142073960Y-119124606D01*
X142320502Y-118889827D01*
X142516747Y-118611632D01*
X142655219Y-118300618D01*
X142730645Y-117968631D01*
X142731659Y-117895968D01*
X143261718Y-117895968D01*
X143323175Y-118230822D01*
X143448502Y-118547362D01*
X143632925Y-118833530D01*
X143869420Y-119078427D01*
X144148978Y-119272725D01*
X144460951Y-119409023D01*
X144793456Y-119482129D01*
X145133829Y-119489259D01*
X145469104Y-119430141D01*
X145786511Y-119307027D01*
X146073960Y-119124606D01*
X146250387Y-118956596D01*
X147971595Y-118956596D01*
X148079282Y-119231623D01*
X148386023Y-119382777D01*
X148716360Y-119471185D01*
X149057597Y-119493448D01*
X149396620Y-119448712D01*
X149720401Y-119338694D01*
X149920718Y-119231623D01*
X150028405Y-118956596D01*
X149000000Y-117928191D01*
X147971595Y-118956596D01*
X146250387Y-118956596D01*
X146320502Y-118889827D01*
X146516747Y-118611632D01*
X146655219Y-118300618D01*
X146730645Y-117968631D01*
X146732893Y-117807597D01*
X147256552Y-117807597D01*
X147301288Y-118146620D01*
X147411306Y-118470401D01*
X147518377Y-118670718D01*
X147793404Y-118778405D01*
X148821809Y-117750000D01*
X149178191Y-117750000D01*
X150206596Y-118778405D01*
X150481623Y-118670718D01*
X150632777Y-118363977D01*
X150721185Y-118033640D01*
X150730167Y-117895968D01*
X151261718Y-117895968D01*
X151323175Y-118230822D01*
X151448502Y-118547362D01*
X151632925Y-118833530D01*
X151869420Y-119078427D01*
X152148978Y-119272725D01*
X152460951Y-119409023D01*
X152793456Y-119482129D01*
X153133829Y-119489259D01*
X153469104Y-119430141D01*
X153786511Y-119307027D01*
X154073960Y-119124606D01*
X154320502Y-118889827D01*
X154516747Y-118611632D01*
X154655219Y-118300618D01*
X154730645Y-117968631D01*
X154736075Y-117579776D01*
X154713463Y-117465581D01*
X156616044Y-115563000D01*
X162857000Y-115563000D01*
X162857000Y-116219424D01*
X162799547Y-116250133D01*
X162790218Y-116245089D01*
X162578425Y-116179529D01*
X162357931Y-116156354D01*
X162137135Y-116176448D01*
X161924447Y-116239045D01*
X161727968Y-116341762D01*
X161555182Y-116480685D01*
X161412671Y-116650523D01*
X161305862Y-116844808D01*
X161238824Y-117056138D01*
X161214111Y-117276465D01*
X161214000Y-117292326D01*
X161214000Y-118207674D01*
X161235635Y-118428324D01*
X161299716Y-118640570D01*
X161403801Y-118836327D01*
X161543928Y-119008138D01*
X161714757Y-119149461D01*
X161909782Y-119254911D01*
X162121575Y-119320471D01*
X162342069Y-119343646D01*
X162562865Y-119323552D01*
X162775553Y-119260955D01*
X162798171Y-119249131D01*
X162875436Y-119290430D01*
X162995322Y-119326797D01*
X163120000Y-119339077D01*
X164120000Y-119339077D01*
X164244678Y-119326797D01*
X164364564Y-119290430D01*
X164440453Y-119249867D01*
X164449782Y-119254911D01*
X164661575Y-119320471D01*
X164882069Y-119343646D01*
X165102865Y-119323552D01*
X165315553Y-119260955D01*
X165512032Y-119158238D01*
X165523866Y-119148724D01*
X165524757Y-119149461D01*
X165719782Y-119254911D01*
X165931575Y-119320471D01*
X166152069Y-119343646D01*
X166372865Y-119323552D01*
X166585553Y-119260955D01*
X166782032Y-119158238D01*
X166954818Y-119019315D01*
X167097329Y-118849477D01*
X167204138Y-118655192D01*
X167271176Y-118443862D01*
X167295889Y-118223535D01*
X167296000Y-118207674D01*
X167296000Y-117292326D01*
X167274365Y-117071676D01*
X167210284Y-116859430D01*
X167106199Y-116663673D01*
X166966072Y-116491862D01*
X166795243Y-116350539D01*
X166600218Y-116245089D01*
X166388425Y-116179529D01*
X166167931Y-116156354D01*
X165947135Y-116176448D01*
X165734447Y-116239045D01*
X165537968Y-116341762D01*
X165526134Y-116351276D01*
X165525243Y-116350539D01*
X165330218Y-116245089D01*
X165118425Y-116179529D01*
X164897931Y-116156354D01*
X164677135Y-116176448D01*
X164464447Y-116239045D01*
X164441829Y-116250869D01*
X164383000Y-116219424D01*
X164383000Y-114767500D01*
X164376122Y-114697356D01*
X164369980Y-114627145D01*
X164368860Y-114623292D01*
X164368469Y-114619299D01*
X164348085Y-114551783D01*
X164328434Y-114484146D01*
X164326590Y-114480589D01*
X164325429Y-114476743D01*
X164292328Y-114414489D01*
X164259906Y-114351940D01*
X164257402Y-114348803D01*
X164255519Y-114345262D01*
X164211016Y-114290696D01*
X164167003Y-114235562D01*
X164161492Y-114229975D01*
X164161402Y-114229864D01*
X164161299Y-114229779D01*
X164159522Y-114227977D01*
X162627627Y-112696083D01*
X162684000Y-112447955D01*
X162684928Y-112381465D01*
X165958872Y-112381465D01*
X166015108Y-112687868D01*
X166129786Y-112977513D01*
X166298539Y-113239367D01*
X166514940Y-113463457D01*
X166770745Y-113641246D01*
X167056211Y-113765963D01*
X167360465Y-113832858D01*
X167671918Y-113839382D01*
X167978706Y-113785287D01*
X168269144Y-113672633D01*
X168532170Y-113505712D01*
X168757765Y-113290881D01*
X168937336Y-113036323D01*
X169064043Y-112751735D01*
X169133060Y-112447955D01*
X169138028Y-112092140D01*
X169077520Y-111786551D01*
X168958809Y-111498536D01*
X168786416Y-111239064D01*
X168566907Y-111018018D01*
X168308645Y-110843817D01*
X168021465Y-110723098D01*
X167716307Y-110660458D01*
X167404794Y-110658283D01*
X167098791Y-110716656D01*
X166809953Y-110833354D01*
X166549284Y-111003932D01*
X166326711Y-111221891D01*
X166150712Y-111478932D01*
X166027990Y-111765261D01*
X165963222Y-112069975D01*
X165958872Y-112381465D01*
X162684928Y-112381465D01*
X162688968Y-112092140D01*
X162628460Y-111786551D01*
X162509749Y-111498536D01*
X162337356Y-111239064D01*
X162117847Y-111018018D01*
X161859585Y-110843817D01*
X161572405Y-110723098D01*
X161267247Y-110660458D01*
X160955734Y-110658283D01*
X160649731Y-110716656D01*
X160360893Y-110833354D01*
X160100224Y-111003932D01*
X159877651Y-111221891D01*
X159701652Y-111478932D01*
X159578930Y-111765261D01*
X159514162Y-112069975D01*
X159509812Y-112381465D01*
X159566048Y-112687868D01*
X159680726Y-112977513D01*
X159849479Y-113239367D01*
X160065880Y-113463457D01*
X160321685Y-113641246D01*
X160607151Y-113765963D01*
X160911405Y-113832858D01*
X161222858Y-113839382D01*
X161529646Y-113785287D01*
X161550611Y-113777155D01*
X161810456Y-114037000D01*
X156300000Y-114037000D01*
X156229856Y-114043878D01*
X156159645Y-114050020D01*
X156155792Y-114051140D01*
X156151799Y-114051531D01*
X156084316Y-114071905D01*
X156016647Y-114091565D01*
X156013086Y-114093411D01*
X156009243Y-114094571D01*
X155947006Y-114127663D01*
X155884440Y-114160094D01*
X155881303Y-114162598D01*
X155877762Y-114164481D01*
X155823172Y-114209004D01*
X155768063Y-114252997D01*
X155762480Y-114258503D01*
X155762364Y-114258598D01*
X155762275Y-114258706D01*
X155760478Y-114260478D01*
X153812596Y-116208360D01*
X153515833Y-116083612D01*
X153182339Y-116015156D01*
X152841901Y-116012779D01*
X152507484Y-116076573D01*
X152191826Y-116204106D01*
X151906952Y-116390523D01*
X151663712Y-116628721D01*
X151471371Y-116909629D01*
X151337254Y-117222546D01*
X151266471Y-117555554D01*
X151261718Y-117895968D01*
X150730167Y-117895968D01*
X150743448Y-117692403D01*
X150698712Y-117353380D01*
X150588694Y-117029599D01*
X150481623Y-116829282D01*
X150206596Y-116721595D01*
X149178191Y-117750000D01*
X148821809Y-117750000D01*
X147793404Y-116721595D01*
X147518377Y-116829282D01*
X147367223Y-117136023D01*
X147278815Y-117466360D01*
X147256552Y-117807597D01*
X146732893Y-117807597D01*
X146736075Y-117579776D01*
X146669948Y-117245813D01*
X146540214Y-116931054D01*
X146351813Y-116647488D01*
X146248453Y-116543404D01*
X147971595Y-116543404D01*
X149000000Y-117571809D01*
X150028405Y-116543404D01*
X149920718Y-116268377D01*
X149613977Y-116117223D01*
X149283640Y-116028815D01*
X148942403Y-116006552D01*
X148603380Y-116051288D01*
X148279599Y-116161306D01*
X148079282Y-116268377D01*
X147971595Y-116543404D01*
X146248453Y-116543404D01*
X146111922Y-116405917D01*
X145829679Y-116215541D01*
X145515833Y-116083612D01*
X145182339Y-116015156D01*
X144841901Y-116012779D01*
X144507484Y-116076573D01*
X144191826Y-116204106D01*
X143906952Y-116390523D01*
X143663712Y-116628721D01*
X143471371Y-116909629D01*
X143337254Y-117222546D01*
X143266471Y-117555554D01*
X143261718Y-117895968D01*
X142731659Y-117895968D01*
X142736075Y-117579776D01*
X142669948Y-117245813D01*
X142540214Y-116931054D01*
X142351813Y-116647488D01*
X142111922Y-116405917D01*
X141829679Y-116215541D01*
X141515833Y-116083612D01*
X141182339Y-116015156D01*
X140841901Y-116012779D01*
X140507484Y-116076573D01*
X140191826Y-116204106D01*
X139906952Y-116390523D01*
X139663712Y-116628721D01*
X139471371Y-116909629D01*
X139337254Y-117222546D01*
X139266471Y-117555554D01*
X139261718Y-117895968D01*
X137081000Y-117895968D01*
X137081000Y-114245467D01*
X148412724Y-114245467D01*
X148479565Y-114485959D01*
X148728679Y-114603337D01*
X148995905Y-114669859D01*
X149270975Y-114682971D01*
X149543317Y-114642166D01*
X149802466Y-114549015D01*
X149920435Y-114485959D01*
X149987276Y-114245467D01*
X149200000Y-113458191D01*
X148412724Y-114245467D01*
X137081000Y-114245467D01*
X137081000Y-113350975D01*
X147797029Y-113350975D01*
X147837834Y-113623317D01*
X147930985Y-113882466D01*
X147994041Y-114000435D01*
X148234533Y-114067276D01*
X149021809Y-113280000D01*
X149378191Y-113280000D01*
X150165467Y-114067276D01*
X150405959Y-114000435D01*
X150523337Y-113751321D01*
X150589859Y-113484095D01*
X150602971Y-113209025D01*
X150562166Y-112936683D01*
X150469015Y-112677534D01*
X150405959Y-112559565D01*
X150165467Y-112492724D01*
X149378191Y-113280000D01*
X149021809Y-113280000D01*
X148234533Y-112492724D01*
X147994041Y-112559565D01*
X147876663Y-112808679D01*
X147810141Y-113075905D01*
X147797029Y-113350975D01*
X137081000Y-113350975D01*
X137081000Y-112314533D01*
X148412724Y-112314533D01*
X149200000Y-113101809D01*
X149987276Y-112314533D01*
X149920435Y-112074041D01*
X149671321Y-111956663D01*
X149404095Y-111890141D01*
X149129025Y-111877029D01*
X148856683Y-111917834D01*
X148597534Y-112010985D01*
X148479565Y-112074041D01*
X148412724Y-112314533D01*
X137081000Y-112314533D01*
X137081000Y-106787110D01*
X138262638Y-106787110D01*
X138299314Y-106986942D01*
X138374106Y-107175845D01*
X138484165Y-107346623D01*
X138625299Y-107492771D01*
X138792132Y-107608723D01*
X138978309Y-107690062D01*
X139176740Y-107733690D01*
X139379866Y-107737945D01*
X139579949Y-107702665D01*
X139769369Y-107629193D01*
X139940912Y-107520329D01*
X140001113Y-107463000D01*
X142391185Y-107463000D01*
X142365475Y-107583959D01*
X142362638Y-107787110D01*
X142375373Y-107856500D01*
X140416100Y-107856500D01*
X140345956Y-107863378D01*
X140275745Y-107869520D01*
X140271892Y-107870640D01*
X140267899Y-107871031D01*
X140200416Y-107891405D01*
X140132747Y-107911065D01*
X140129186Y-107912911D01*
X140125343Y-107914071D01*
X140063106Y-107947163D01*
X140000540Y-107979594D01*
X139997403Y-107982098D01*
X139993862Y-107983981D01*
X139939296Y-108028484D01*
X139884162Y-108072497D01*
X139878575Y-108078008D01*
X139878464Y-108078098D01*
X139878379Y-108078201D01*
X139876577Y-108079978D01*
X139739223Y-108217332D01*
X139687550Y-108216971D01*
X139487979Y-108255042D01*
X139299603Y-108331151D01*
X139129597Y-108442399D01*
X138984438Y-108584550D01*
X138869653Y-108752188D01*
X138789616Y-108938929D01*
X138747375Y-109137659D01*
X138744538Y-109340810D01*
X138781214Y-109540642D01*
X138856006Y-109729545D01*
X138966065Y-109900323D01*
X139107199Y-110046471D01*
X139274032Y-110162423D01*
X139460209Y-110243762D01*
X139658640Y-110287390D01*
X139861766Y-110291645D01*
X140061849Y-110256365D01*
X140251269Y-110182893D01*
X140422812Y-110074029D01*
X140569942Y-109933919D01*
X140687056Y-109767900D01*
X140769692Y-109582295D01*
X140814704Y-109384174D01*
X140814727Y-109382500D01*
X160184700Y-109382500D01*
X160254844Y-109375622D01*
X160325055Y-109369480D01*
X160328908Y-109368360D01*
X160332901Y-109367969D01*
X160400384Y-109347595D01*
X160468053Y-109327935D01*
X160471614Y-109326089D01*
X160475457Y-109324929D01*
X160537694Y-109291837D01*
X160573367Y-109273346D01*
X160863145Y-109337058D01*
X161174598Y-109343582D01*
X161481386Y-109289487D01*
X161771824Y-109176833D01*
X162034850Y-109009912D01*
X162260445Y-108795081D01*
X162440016Y-108540523D01*
X162451335Y-108515100D01*
X166100502Y-108515100D01*
X166247739Y-108743567D01*
X166464140Y-108967657D01*
X166719945Y-109145446D01*
X167005411Y-109270163D01*
X167309665Y-109337058D01*
X167621118Y-109343582D01*
X167927906Y-109289487D01*
X168218344Y-109176833D01*
X168481370Y-109009912D01*
X168706965Y-108795081D01*
X168886536Y-108540523D01*
X169013243Y-108255935D01*
X169082260Y-107952155D01*
X169087228Y-107596340D01*
X169026720Y-107290751D01*
X168908009Y-107002736D01*
X168735616Y-106743264D01*
X168516107Y-106522218D01*
X168257845Y-106348017D01*
X167970665Y-106227298D01*
X167665507Y-106164658D01*
X167353994Y-106162483D01*
X167047991Y-106220856D01*
X166759153Y-106337554D01*
X166498484Y-106508132D01*
X166275911Y-106726091D01*
X166099912Y-106983132D01*
X166097354Y-106989100D01*
X162452429Y-106989100D01*
X162289096Y-106743264D01*
X162069587Y-106522218D01*
X161811325Y-106348017D01*
X161524145Y-106227298D01*
X161464077Y-106214968D01*
X164833029Y-102846016D01*
X164855904Y-102856010D01*
X165123670Y-102914882D01*
X165397772Y-102920624D01*
X165667769Y-102873016D01*
X165923377Y-102773872D01*
X166154859Y-102626969D01*
X166353399Y-102437902D01*
X166511435Y-102213872D01*
X166622947Y-101963412D01*
X166683687Y-101696064D01*
X166688060Y-101382919D01*
X166634808Y-101113979D01*
X166530333Y-100860503D01*
X166378614Y-100632148D01*
X166185430Y-100437611D01*
X165958140Y-100284301D01*
X165879063Y-100251060D01*
X165923377Y-100233872D01*
X166154859Y-100086969D01*
X166353399Y-99897902D01*
X166511435Y-99673872D01*
X166622947Y-99423412D01*
X166683687Y-99156064D01*
X166688060Y-98842919D01*
X166634808Y-98573979D01*
X166530333Y-98320503D01*
X166378614Y-98092148D01*
X166185430Y-97897611D01*
X165958140Y-97744301D01*
X165705400Y-97638059D01*
X165436838Y-97582931D01*
X165162683Y-97581017D01*
X164893377Y-97632390D01*
X164639178Y-97735093D01*
X164409770Y-97885214D01*
X164213888Y-98077035D01*
X164058996Y-98303250D01*
X164020368Y-98393375D01*
X163990333Y-98320503D01*
X163838614Y-98092148D01*
X163645430Y-97897611D01*
X163418140Y-97744301D01*
X163165400Y-97638059D01*
X162896838Y-97582931D01*
X162622683Y-97581017D01*
X162353377Y-97632390D01*
X162099178Y-97735093D01*
X161869770Y-97885214D01*
X161673888Y-98077035D01*
X161518996Y-98303250D01*
X161482729Y-98387867D01*
X161479015Y-98377534D01*
X161415959Y-98259565D01*
X161175467Y-98192724D01*
X160388191Y-98980000D01*
X160402333Y-98994142D01*
X160224142Y-99172333D01*
X160210000Y-99158191D01*
X160195858Y-99172333D01*
X160017667Y-98994142D01*
X160031809Y-98980000D01*
X159244533Y-98192724D01*
X159004041Y-98259565D01*
X158886663Y-98508679D01*
X158820141Y-98775905D01*
X158807029Y-99050975D01*
X158847834Y-99323317D01*
X158916231Y-99513600D01*
X156836200Y-99513600D01*
X156766056Y-99520478D01*
X156695845Y-99526620D01*
X156691992Y-99527740D01*
X156687999Y-99528131D01*
X156620516Y-99548505D01*
X156552847Y-99568165D01*
X156549286Y-99570011D01*
X156545443Y-99571171D01*
X156483206Y-99604263D01*
X156420640Y-99636694D01*
X156417503Y-99639198D01*
X156413962Y-99641081D01*
X156359372Y-99685604D01*
X156304263Y-99729597D01*
X156298676Y-99735107D01*
X156298564Y-99735198D01*
X156298478Y-99735302D01*
X156296677Y-99737078D01*
X152335056Y-103698700D01*
X150472713Y-103698700D01*
X150532947Y-103563412D01*
X150593687Y-103296064D01*
X150598060Y-102982919D01*
X150544808Y-102713979D01*
X150440333Y-102460503D01*
X150288614Y-102232148D01*
X150095430Y-102037611D01*
X149868140Y-101884301D01*
X149615400Y-101778059D01*
X149346838Y-101722931D01*
X149072683Y-101721017D01*
X148803377Y-101772390D01*
X148549178Y-101875093D01*
X148319770Y-102025214D01*
X148123888Y-102217035D01*
X147968996Y-102443250D01*
X147860992Y-102695242D01*
X147803991Y-102963412D01*
X147800163Y-103237548D01*
X147849654Y-103507205D01*
X147950580Y-103762115D01*
X148099096Y-103992566D01*
X148114371Y-104008384D01*
X147010224Y-105112532D01*
X146958550Y-105112171D01*
X146758979Y-105150242D01*
X146570603Y-105226351D01*
X146400597Y-105337599D01*
X146255438Y-105479750D01*
X146140653Y-105647388D01*
X146060616Y-105834129D01*
X146038164Y-105939756D01*
X146014253Y-105937074D01*
X146006406Y-105937019D01*
X146006263Y-105937005D01*
X146006130Y-105937018D01*
X146003600Y-105937000D01*
X140002409Y-105937000D01*
X139963567Y-105897886D01*
X139795131Y-105784274D01*
X139607836Y-105705543D01*
X139408815Y-105664690D01*
X139205650Y-105663271D01*
X139006079Y-105701342D01*
X138817703Y-105777451D01*
X138647697Y-105888699D01*
X138502538Y-106030850D01*
X138387753Y-106198488D01*
X138307716Y-106385229D01*
X138265475Y-106583959D01*
X138262638Y-106787110D01*
X137081000Y-106787110D01*
X137081000Y-100477093D01*
X137086343Y-100496629D01*
X137333507Y-100612863D01*
X137598597Y-100678645D01*
X137871427Y-100691447D01*
X138141512Y-100650775D01*
X138398473Y-100558195D01*
X138513657Y-100496629D01*
X138579112Y-100257303D01*
X137800000Y-99478191D01*
X137785858Y-99492333D01*
X137607667Y-99314142D01*
X137621809Y-99300000D01*
X137978191Y-99300000D01*
X138757303Y-100079112D01*
X138996629Y-100013657D01*
X139112863Y-99766493D01*
X139178645Y-99501403D01*
X139191447Y-99228573D01*
X139150775Y-98958488D01*
X139058195Y-98701527D01*
X138996629Y-98586343D01*
X138757303Y-98520888D01*
X137978191Y-99300000D01*
X137621809Y-99300000D01*
X137607667Y-99285858D01*
X137785858Y-99107667D01*
X137800000Y-99121809D01*
X138579112Y-98342697D01*
X138513657Y-98103371D01*
X138358791Y-98030542D01*
X138400064Y-98014533D01*
X159422724Y-98014533D01*
X160210000Y-98801809D01*
X160997276Y-98014533D01*
X160930435Y-97774041D01*
X160681321Y-97656663D01*
X160414095Y-97590141D01*
X160139025Y-97577029D01*
X159866683Y-97617834D01*
X159607534Y-97710985D01*
X159489565Y-97774041D01*
X159422724Y-98014533D01*
X138400064Y-98014533D01*
X138428198Y-98003621D01*
X138657788Y-97857919D01*
X138854705Y-97670397D01*
X139011449Y-97448199D01*
X139122049Y-97199787D01*
X139182293Y-96934624D01*
X139186629Y-96624040D01*
X139133813Y-96357298D01*
X139030192Y-96105895D01*
X138879714Y-95879407D01*
X138688109Y-95686460D01*
X138462677Y-95534404D01*
X138212004Y-95429031D01*
X137945637Y-95374354D01*
X137673724Y-95372455D01*
X137406620Y-95423408D01*
X137154499Y-95525271D01*
X137081000Y-95573368D01*
X137081000Y-93077176D01*
X137208400Y-93184078D01*
X137445538Y-93314445D01*
X137703482Y-93396270D01*
X137972406Y-93426435D01*
X137991766Y-93426570D01*
X139008234Y-93426570D01*
X139277554Y-93400163D01*
X139536615Y-93321948D01*
X139775550Y-93194904D01*
X139985259Y-93023869D01*
X140157753Y-92815360D01*
X140286462Y-92577317D01*
X140366484Y-92318809D01*
X140394770Y-92049680D01*
X140370244Y-91780183D01*
X140293839Y-91520582D01*
X140168466Y-91280765D01*
X139998900Y-91069868D01*
X139791600Y-90895922D01*
X139559084Y-90768096D01*
X139646136Y-90732806D01*
X139874212Y-90582889D01*
X140068658Y-90391358D01*
X140222002Y-90165572D01*
X140328351Y-89914209D01*
X140343232Y-89840459D01*
X140270239Y-89713227D01*
X152724747Y-89713227D01*
X152814523Y-90202376D01*
X152997598Y-90664772D01*
X153267000Y-91082803D01*
X153612467Y-91440544D01*
X154020841Y-91724371D01*
X154476566Y-91923473D01*
X154962284Y-92030265D01*
X155459495Y-92040680D01*
X155949259Y-91954321D01*
X156412922Y-91774478D01*
X156832822Y-91508001D01*
X157192967Y-91165040D01*
X157479638Y-90758658D01*
X157681916Y-90304334D01*
X157792097Y-89819373D01*
X157800029Y-89251340D01*
X157703432Y-88763492D01*
X157513918Y-88303697D01*
X157238706Y-87889469D01*
X156888277Y-87536586D01*
X156475981Y-87258488D01*
X156017520Y-87065769D01*
X155530358Y-86965769D01*
X155033051Y-86962297D01*
X154544540Y-87055486D01*
X154083434Y-87241785D01*
X153667294Y-87514099D01*
X153311973Y-87862055D01*
X153031004Y-88272400D01*
X152835089Y-88729504D01*
X152731691Y-89215956D01*
X152724747Y-89713227D01*
X140270239Y-89713227D01*
X140220196Y-89626000D01*
X138626000Y-89626000D01*
X138626000Y-89646000D01*
X138374000Y-89646000D01*
X138374000Y-89626000D01*
X138354000Y-89626000D01*
X138354000Y-89374000D01*
X138374000Y-89374000D01*
X138374000Y-89354000D01*
X138626000Y-89354000D01*
X138626000Y-89374000D01*
X140220196Y-89374000D01*
X140343232Y-89159541D01*
X140328351Y-89085791D01*
X140222002Y-88834428D01*
X140068658Y-88608642D01*
X139874212Y-88417111D01*
X139646136Y-88267194D01*
X139557053Y-88231081D01*
X139775550Y-88114904D01*
X139985259Y-87943869D01*
X140157753Y-87735360D01*
X140286462Y-87497317D01*
X140366484Y-87238809D01*
X140394770Y-86969680D01*
X140389297Y-86909531D01*
X161340044Y-86909531D01*
X161366569Y-87200997D01*
X161449202Y-87481760D01*
X161584795Y-87741126D01*
X161768184Y-87969215D01*
X161992382Y-88157340D01*
X162050489Y-88189285D01*
X162009741Y-88210951D01*
X161782938Y-88395928D01*
X161596382Y-88621434D01*
X161457181Y-88878882D01*
X161370636Y-89158464D01*
X161340044Y-89449531D01*
X161366569Y-89740997D01*
X161449202Y-90021760D01*
X161584795Y-90281126D01*
X161768184Y-90509215D01*
X161792723Y-90529806D01*
X161739436Y-90545970D01*
X161628948Y-90605027D01*
X161532104Y-90684504D01*
X161452627Y-90781348D01*
X161393570Y-90891836D01*
X161357203Y-91011722D01*
X161344923Y-91136400D01*
X161344923Y-92863600D01*
X161357203Y-92988278D01*
X161393570Y-93108164D01*
X161452627Y-93218652D01*
X161532104Y-93315496D01*
X161628948Y-93394973D01*
X161739436Y-93454030D01*
X161859322Y-93490397D01*
X161984000Y-93502677D01*
X164016000Y-93502677D01*
X164140678Y-93490397D01*
X164260564Y-93454030D01*
X164371052Y-93394973D01*
X164467896Y-93315496D01*
X164547373Y-93218652D01*
X164606430Y-93108164D01*
X164642797Y-92988278D01*
X164655077Y-92863600D01*
X164655077Y-91136400D01*
X164642797Y-91011722D01*
X164606430Y-90891836D01*
X164547373Y-90781348D01*
X164467896Y-90684504D01*
X164371052Y-90605027D01*
X164260564Y-90545970D01*
X164209285Y-90530415D01*
X164217062Y-90524072D01*
X164403618Y-90298566D01*
X164444476Y-90223000D01*
X165392700Y-90223000D01*
X165462844Y-90216122D01*
X165533055Y-90209980D01*
X165536908Y-90208860D01*
X165540901Y-90208469D01*
X165608384Y-90188095D01*
X165676053Y-90168435D01*
X165679614Y-90166589D01*
X165683457Y-90165429D01*
X165745694Y-90132337D01*
X165808260Y-90099906D01*
X165811397Y-90097402D01*
X165814938Y-90095519D01*
X165869528Y-90050996D01*
X165924637Y-90007003D01*
X165930220Y-90001497D01*
X165930336Y-90001402D01*
X165930425Y-90001294D01*
X165932222Y-89999522D01*
X166153187Y-89778557D01*
X166202627Y-89871052D01*
X166282104Y-89967896D01*
X166378948Y-90047373D01*
X166413922Y-90066067D01*
X166372437Y-90116213D01*
X166219089Y-90399824D01*
X166123749Y-90707819D01*
X166090047Y-91028467D01*
X166119268Y-91349554D01*
X166210299Y-91658850D01*
X166359672Y-91944574D01*
X166561698Y-92195844D01*
X166808682Y-92403087D01*
X167091215Y-92558412D01*
X167398537Y-92655900D01*
X167718941Y-92691839D01*
X167742007Y-92692000D01*
X167757993Y-92692000D01*
X168078868Y-92660538D01*
X168387521Y-92567350D01*
X168672196Y-92415986D01*
X168922049Y-92212211D01*
X169127563Y-91963787D01*
X169280911Y-91680176D01*
X169376251Y-91372181D01*
X169409953Y-91051533D01*
X169380732Y-90730446D01*
X169289701Y-90421150D01*
X169140328Y-90135426D01*
X169085018Y-90066634D01*
X169121052Y-90047373D01*
X169217896Y-89967896D01*
X169297373Y-89871052D01*
X169356430Y-89760564D01*
X169392797Y-89640678D01*
X169405077Y-89516000D01*
X169405077Y-87484000D01*
X169392797Y-87359322D01*
X169356430Y-87239436D01*
X169297373Y-87128948D01*
X169217896Y-87032104D01*
X169121052Y-86952627D01*
X169010564Y-86893570D01*
X168890678Y-86857203D01*
X168766000Y-86844923D01*
X166734000Y-86844923D01*
X166609322Y-86857203D01*
X166489436Y-86893570D01*
X166378948Y-86952627D01*
X166282104Y-87032104D01*
X166202627Y-87128948D01*
X166143570Y-87239436D01*
X166107203Y-87359322D01*
X166094923Y-87484000D01*
X166094923Y-87784134D01*
X166069347Y-87791565D01*
X166065786Y-87793411D01*
X166061943Y-87794571D01*
X165999706Y-87827663D01*
X165937140Y-87860094D01*
X165934003Y-87862598D01*
X165930462Y-87864481D01*
X165875872Y-87909004D01*
X165820763Y-87952997D01*
X165815180Y-87958503D01*
X165815064Y-87958598D01*
X165814975Y-87958706D01*
X165813178Y-87960478D01*
X165076656Y-88697000D01*
X164445592Y-88697000D01*
X164415205Y-88638874D01*
X164231816Y-88410785D01*
X164007618Y-88222660D01*
X163949511Y-88190715D01*
X163990259Y-88169049D01*
X164217062Y-87984072D01*
X164403618Y-87758566D01*
X164542819Y-87501118D01*
X164629364Y-87221536D01*
X164659956Y-86930469D01*
X164633431Y-86639003D01*
X164550798Y-86358240D01*
X164415205Y-86098874D01*
X164231816Y-85870785D01*
X164007618Y-85682660D01*
X163751148Y-85541665D01*
X163472177Y-85453170D01*
X163181331Y-85420546D01*
X163160393Y-85420400D01*
X162839607Y-85420400D01*
X162548333Y-85448960D01*
X162268154Y-85533551D01*
X162009741Y-85670951D01*
X161782938Y-85855928D01*
X161596382Y-86081434D01*
X161457181Y-86338882D01*
X161370636Y-86618464D01*
X161340044Y-86909531D01*
X140389297Y-86909531D01*
X140370244Y-86700183D01*
X140293839Y-86440582D01*
X140168466Y-86200765D01*
X139998900Y-85989868D01*
X139791600Y-85815922D01*
X139554462Y-85685555D01*
X139296518Y-85603730D01*
X139027594Y-85573565D01*
X139008234Y-85573430D01*
X137991766Y-85573430D01*
X137722446Y-85599837D01*
X137463385Y-85678052D01*
X137224450Y-85805096D01*
X137081000Y-85922091D01*
X137081000Y-84749714D01*
X134186000Y-84749714D01*
X134186000Y-84186000D01*
X170314000Y-84186000D01*
X170314000Y-124814000D01*
X170314000Y-124814000D01*
G37*
X170314000Y-124814000D02*
X154728000Y-124814000D01*
X154728000Y-123665450D01*
X154763339Y-123586077D01*
X154877868Y-123081977D01*
X154886113Y-122491527D01*
X154785704Y-121984426D01*
X154728000Y-121844426D01*
X154728000Y-120400000D01*
X154718257Y-120351017D01*
X154690510Y-120309490D01*
X154648983Y-120281743D01*
X154600000Y-120272000D01*
X153157668Y-120272000D01*
X153033258Y-120219703D01*
X152526870Y-120115756D01*
X152009937Y-120112147D01*
X151502147Y-120209013D01*
X151346249Y-120272000D01*
X149900000Y-120272000D01*
X149851017Y-120281743D01*
X149809490Y-120309490D01*
X149781743Y-120351017D01*
X149772000Y-120400000D01*
X149772000Y-121839979D01*
X149725232Y-121949097D01*
X149617753Y-122454746D01*
X149610536Y-122971642D01*
X149703854Y-123480096D01*
X149772000Y-123652213D01*
X149772000Y-124814000D01*
X134186000Y-124814000D01*
X134186000Y-124250285D01*
X137081000Y-124250285D01*
X137081000Y-117895968D01*
X139261718Y-117895968D01*
X139323175Y-118230822D01*
X139448502Y-118547362D01*
X139632925Y-118833530D01*
X139869420Y-119078427D01*
X140148978Y-119272725D01*
X140460951Y-119409023D01*
X140793456Y-119482129D01*
X141133829Y-119489259D01*
X141469104Y-119430141D01*
X141786511Y-119307027D01*
X142073960Y-119124606D01*
X142320502Y-118889827D01*
X142516747Y-118611632D01*
X142655219Y-118300618D01*
X142730645Y-117968631D01*
X142731659Y-117895968D01*
X143261718Y-117895968D01*
X143323175Y-118230822D01*
X143448502Y-118547362D01*
X143632925Y-118833530D01*
X143869420Y-119078427D01*
X144148978Y-119272725D01*
X144460951Y-119409023D01*
X144793456Y-119482129D01*
X145133829Y-119489259D01*
X145469104Y-119430141D01*
X145786511Y-119307027D01*
X146073960Y-119124606D01*
X146250387Y-118956596D01*
X147971595Y-118956596D01*
X148079282Y-119231623D01*
X148386023Y-119382777D01*
X148716360Y-119471185D01*
X149057597Y-119493448D01*
X149396620Y-119448712D01*
X149720401Y-119338694D01*
X149920718Y-119231623D01*
X150028405Y-118956596D01*
X149000000Y-117928191D01*
X147971595Y-118956596D01*
X146250387Y-118956596D01*
X146320502Y-118889827D01*
X146516747Y-118611632D01*
X146655219Y-118300618D01*
X146730645Y-117968631D01*
X146732893Y-117807597D01*
X147256552Y-117807597D01*
X147301288Y-118146620D01*
X147411306Y-118470401D01*
X147518377Y-118670718D01*
X147793404Y-118778405D01*
X148821809Y-117750000D01*
X149178191Y-117750000D01*
X150206596Y-118778405D01*
X150481623Y-118670718D01*
X150632777Y-118363977D01*
X150721185Y-118033640D01*
X150730167Y-117895968D01*
X151261718Y-117895968D01*
X151323175Y-118230822D01*
X151448502Y-118547362D01*
X151632925Y-118833530D01*
X151869420Y-119078427D01*
X152148978Y-119272725D01*
X152460951Y-119409023D01*
X152793456Y-119482129D01*
X153133829Y-119489259D01*
X153469104Y-119430141D01*
X153786511Y-119307027D01*
X154073960Y-119124606D01*
X154320502Y-118889827D01*
X154516747Y-118611632D01*
X154655219Y-118300618D01*
X154730645Y-117968631D01*
X154736075Y-117579776D01*
X154713463Y-117465581D01*
X156616044Y-115563000D01*
X162857000Y-115563000D01*
X162857000Y-116219424D01*
X162799547Y-116250133D01*
X162790218Y-116245089D01*
X162578425Y-116179529D01*
X162357931Y-116156354D01*
X162137135Y-116176448D01*
X161924447Y-116239045D01*
X161727968Y-116341762D01*
X161555182Y-116480685D01*
X161412671Y-116650523D01*
X161305862Y-116844808D01*
X161238824Y-117056138D01*
X161214111Y-117276465D01*
X161214000Y-117292326D01*
X161214000Y-118207674D01*
X161235635Y-118428324D01*
X161299716Y-118640570D01*
X161403801Y-118836327D01*
X161543928Y-119008138D01*
X161714757Y-119149461D01*
X161909782Y-119254911D01*
X162121575Y-119320471D01*
X162342069Y-119343646D01*
X162562865Y-119323552D01*
X162775553Y-119260955D01*
X162798171Y-119249131D01*
X162875436Y-119290430D01*
X162995322Y-119326797D01*
X163120000Y-119339077D01*
X164120000Y-119339077D01*
X164244678Y-119326797D01*
X164364564Y-119290430D01*
X164440453Y-119249867D01*
X164449782Y-119254911D01*
X164661575Y-119320471D01*
X164882069Y-119343646D01*
X165102865Y-119323552D01*
X165315553Y-119260955D01*
X165512032Y-119158238D01*
X165523866Y-119148724D01*
X165524757Y-119149461D01*
X165719782Y-119254911D01*
X165931575Y-119320471D01*
X166152069Y-119343646D01*
X166372865Y-119323552D01*
X166585553Y-119260955D01*
X166782032Y-119158238D01*
X166954818Y-119019315D01*
X167097329Y-118849477D01*
X167204138Y-118655192D01*
X167271176Y-118443862D01*
X167295889Y-118223535D01*
X167296000Y-118207674D01*
X167296000Y-117292326D01*
X167274365Y-117071676D01*
X167210284Y-116859430D01*
X167106199Y-116663673D01*
X166966072Y-116491862D01*
X166795243Y-116350539D01*
X166600218Y-116245089D01*
X166388425Y-116179529D01*
X166167931Y-116156354D01*
X165947135Y-116176448D01*
X165734447Y-116239045D01*
X165537968Y-116341762D01*
X165526134Y-116351276D01*
X165525243Y-116350539D01*
X165330218Y-116245089D01*
X165118425Y-116179529D01*
X164897931Y-116156354D01*
X164677135Y-116176448D01*
X164464447Y-116239045D01*
X164441829Y-116250869D01*
X164383000Y-116219424D01*
X164383000Y-114767500D01*
X164376122Y-114697356D01*
X164369980Y-114627145D01*
X164368860Y-114623292D01*
X164368469Y-114619299D01*
X164348085Y-114551783D01*
X164328434Y-114484146D01*
X164326590Y-114480589D01*
X164325429Y-114476743D01*
X164292328Y-114414489D01*
X164259906Y-114351940D01*
X164257402Y-114348803D01*
X164255519Y-114345262D01*
X164211016Y-114290696D01*
X164167003Y-114235562D01*
X164161492Y-114229975D01*
X164161402Y-114229864D01*
X164161299Y-114229779D01*
X164159522Y-114227977D01*
X162627627Y-112696083D01*
X162684000Y-112447955D01*
X162684928Y-112381465D01*
X165958872Y-112381465D01*
X166015108Y-112687868D01*
X166129786Y-112977513D01*
X166298539Y-113239367D01*
X166514940Y-113463457D01*
X166770745Y-113641246D01*
X167056211Y-113765963D01*
X167360465Y-113832858D01*
X167671918Y-113839382D01*
X167978706Y-113785287D01*
X168269144Y-113672633D01*
X168532170Y-113505712D01*
X168757765Y-113290881D01*
X168937336Y-113036323D01*
X169064043Y-112751735D01*
X169133060Y-112447955D01*
X169138028Y-112092140D01*
X169077520Y-111786551D01*
X168958809Y-111498536D01*
X168786416Y-111239064D01*
X168566907Y-111018018D01*
X168308645Y-110843817D01*
X168021465Y-110723098D01*
X167716307Y-110660458D01*
X167404794Y-110658283D01*
X167098791Y-110716656D01*
X166809953Y-110833354D01*
X166549284Y-111003932D01*
X166326711Y-111221891D01*
X166150712Y-111478932D01*
X166027990Y-111765261D01*
X165963222Y-112069975D01*
X165958872Y-112381465D01*
X162684928Y-112381465D01*
X162688968Y-112092140D01*
X162628460Y-111786551D01*
X162509749Y-111498536D01*
X162337356Y-111239064D01*
X162117847Y-111018018D01*
X161859585Y-110843817D01*
X161572405Y-110723098D01*
X161267247Y-110660458D01*
X160955734Y-110658283D01*
X160649731Y-110716656D01*
X160360893Y-110833354D01*
X160100224Y-111003932D01*
X159877651Y-111221891D01*
X159701652Y-111478932D01*
X159578930Y-111765261D01*
X159514162Y-112069975D01*
X159509812Y-112381465D01*
X159566048Y-112687868D01*
X159680726Y-112977513D01*
X159849479Y-113239367D01*
X160065880Y-113463457D01*
X160321685Y-113641246D01*
X160607151Y-113765963D01*
X160911405Y-113832858D01*
X161222858Y-113839382D01*
X161529646Y-113785287D01*
X161550611Y-113777155D01*
X161810456Y-114037000D01*
X156300000Y-114037000D01*
X156229856Y-114043878D01*
X156159645Y-114050020D01*
X156155792Y-114051140D01*
X156151799Y-114051531D01*
X156084316Y-114071905D01*
X156016647Y-114091565D01*
X156013086Y-114093411D01*
X156009243Y-114094571D01*
X155947006Y-114127663D01*
X155884440Y-114160094D01*
X155881303Y-114162598D01*
X155877762Y-114164481D01*
X155823172Y-114209004D01*
X155768063Y-114252997D01*
X155762480Y-114258503D01*
X155762364Y-114258598D01*
X155762275Y-114258706D01*
X155760478Y-114260478D01*
X153812596Y-116208360D01*
X153515833Y-116083612D01*
X153182339Y-116015156D01*
X152841901Y-116012779D01*
X152507484Y-116076573D01*
X152191826Y-116204106D01*
X151906952Y-116390523D01*
X151663712Y-116628721D01*
X151471371Y-116909629D01*
X151337254Y-117222546D01*
X151266471Y-117555554D01*
X151261718Y-117895968D01*
X150730167Y-117895968D01*
X150743448Y-117692403D01*
X150698712Y-117353380D01*
X150588694Y-117029599D01*
X150481623Y-116829282D01*
X150206596Y-116721595D01*
X149178191Y-117750000D01*
X148821809Y-117750000D01*
X147793404Y-116721595D01*
X147518377Y-116829282D01*
X147367223Y-117136023D01*
X147278815Y-117466360D01*
X147256552Y-117807597D01*
X146732893Y-117807597D01*
X146736075Y-117579776D01*
X146669948Y-117245813D01*
X146540214Y-116931054D01*
X146351813Y-116647488D01*
X146248453Y-116543404D01*
X147971595Y-116543404D01*
X149000000Y-117571809D01*
X150028405Y-116543404D01*
X149920718Y-116268377D01*
X149613977Y-116117223D01*
X149283640Y-116028815D01*
X148942403Y-116006552D01*
X148603380Y-116051288D01*
X148279599Y-116161306D01*
X148079282Y-116268377D01*
X147971595Y-116543404D01*
X146248453Y-116543404D01*
X146111922Y-116405917D01*
X145829679Y-116215541D01*
X145515833Y-116083612D01*
X145182339Y-116015156D01*
X144841901Y-116012779D01*
X144507484Y-116076573D01*
X144191826Y-116204106D01*
X143906952Y-116390523D01*
X143663712Y-116628721D01*
X143471371Y-116909629D01*
X143337254Y-117222546D01*
X143266471Y-117555554D01*
X143261718Y-117895968D01*
X142731659Y-117895968D01*
X142736075Y-117579776D01*
X142669948Y-117245813D01*
X142540214Y-116931054D01*
X142351813Y-116647488D01*
X142111922Y-116405917D01*
X141829679Y-116215541D01*
X141515833Y-116083612D01*
X141182339Y-116015156D01*
X140841901Y-116012779D01*
X140507484Y-116076573D01*
X140191826Y-116204106D01*
X139906952Y-116390523D01*
X139663712Y-116628721D01*
X139471371Y-116909629D01*
X139337254Y-117222546D01*
X139266471Y-117555554D01*
X139261718Y-117895968D01*
X137081000Y-117895968D01*
X137081000Y-114245467D01*
X148412724Y-114245467D01*
X148479565Y-114485959D01*
X148728679Y-114603337D01*
X148995905Y-114669859D01*
X149270975Y-114682971D01*
X149543317Y-114642166D01*
X149802466Y-114549015D01*
X149920435Y-114485959D01*
X149987276Y-114245467D01*
X149200000Y-113458191D01*
X148412724Y-114245467D01*
X137081000Y-114245467D01*
X137081000Y-113350975D01*
X147797029Y-113350975D01*
X147837834Y-113623317D01*
X147930985Y-113882466D01*
X147994041Y-114000435D01*
X148234533Y-114067276D01*
X149021809Y-113280000D01*
X149378191Y-113280000D01*
X150165467Y-114067276D01*
X150405959Y-114000435D01*
X150523337Y-113751321D01*
X150589859Y-113484095D01*
X150602971Y-113209025D01*
X150562166Y-112936683D01*
X150469015Y-112677534D01*
X150405959Y-112559565D01*
X150165467Y-112492724D01*
X149378191Y-113280000D01*
X149021809Y-113280000D01*
X148234533Y-112492724D01*
X147994041Y-112559565D01*
X147876663Y-112808679D01*
X147810141Y-113075905D01*
X147797029Y-113350975D01*
X137081000Y-113350975D01*
X137081000Y-112314533D01*
X148412724Y-112314533D01*
X149200000Y-113101809D01*
X149987276Y-112314533D01*
X149920435Y-112074041D01*
X149671321Y-111956663D01*
X149404095Y-111890141D01*
X149129025Y-111877029D01*
X148856683Y-111917834D01*
X148597534Y-112010985D01*
X148479565Y-112074041D01*
X148412724Y-112314533D01*
X137081000Y-112314533D01*
X137081000Y-106787110D01*
X138262638Y-106787110D01*
X138299314Y-106986942D01*
X138374106Y-107175845D01*
X138484165Y-107346623D01*
X138625299Y-107492771D01*
X138792132Y-107608723D01*
X138978309Y-107690062D01*
X139176740Y-107733690D01*
X139379866Y-107737945D01*
X139579949Y-107702665D01*
X139769369Y-107629193D01*
X139940912Y-107520329D01*
X140001113Y-107463000D01*
X142391185Y-107463000D01*
X142365475Y-107583959D01*
X142362638Y-107787110D01*
X142375373Y-107856500D01*
X140416100Y-107856500D01*
X140345956Y-107863378D01*
X140275745Y-107869520D01*
X140271892Y-107870640D01*
X140267899Y-107871031D01*
X140200416Y-107891405D01*
X140132747Y-107911065D01*
X140129186Y-107912911D01*
X140125343Y-107914071D01*
X140063106Y-107947163D01*
X140000540Y-107979594D01*
X139997403Y-107982098D01*
X139993862Y-107983981D01*
X139939296Y-108028484D01*
X139884162Y-108072497D01*
X139878575Y-108078008D01*
X139878464Y-108078098D01*
X139878379Y-108078201D01*
X139876577Y-108079978D01*
X139739223Y-108217332D01*
X139687550Y-108216971D01*
X139487979Y-108255042D01*
X139299603Y-108331151D01*
X139129597Y-108442399D01*
X138984438Y-108584550D01*
X138869653Y-108752188D01*
X138789616Y-108938929D01*
X138747375Y-109137659D01*
X138744538Y-109340810D01*
X138781214Y-109540642D01*
X138856006Y-109729545D01*
X138966065Y-109900323D01*
X139107199Y-110046471D01*
X139274032Y-110162423D01*
X139460209Y-110243762D01*
X139658640Y-110287390D01*
X139861766Y-110291645D01*
X140061849Y-110256365D01*
X140251269Y-110182893D01*
X140422812Y-110074029D01*
X140569942Y-109933919D01*
X140687056Y-109767900D01*
X140769692Y-109582295D01*
X140814704Y-109384174D01*
X140814727Y-109382500D01*
X160184700Y-109382500D01*
X160254844Y-109375622D01*
X160325055Y-109369480D01*
X160328908Y-109368360D01*
X160332901Y-109367969D01*
X160400384Y-109347595D01*
X160468053Y-109327935D01*
X160471614Y-109326089D01*
X160475457Y-109324929D01*
X160537694Y-109291837D01*
X160573367Y-109273346D01*
X160863145Y-109337058D01*
X161174598Y-109343582D01*
X161481386Y-109289487D01*
X161771824Y-109176833D01*
X162034850Y-109009912D01*
X162260445Y-108795081D01*
X162440016Y-108540523D01*
X162451335Y-108515100D01*
X166100502Y-108515100D01*
X166247739Y-108743567D01*
X166464140Y-108967657D01*
X166719945Y-109145446D01*
X167005411Y-109270163D01*
X167309665Y-109337058D01*
X167621118Y-109343582D01*
X167927906Y-109289487D01*
X168218344Y-109176833D01*
X168481370Y-109009912D01*
X168706965Y-108795081D01*
X168886536Y-108540523D01*
X169013243Y-108255935D01*
X169082260Y-107952155D01*
X169087228Y-107596340D01*
X169026720Y-107290751D01*
X168908009Y-107002736D01*
X168735616Y-106743264D01*
X168516107Y-106522218D01*
X168257845Y-106348017D01*
X167970665Y-106227298D01*
X167665507Y-106164658D01*
X167353994Y-106162483D01*
X167047991Y-106220856D01*
X166759153Y-106337554D01*
X166498484Y-106508132D01*
X166275911Y-106726091D01*
X166099912Y-106983132D01*
X166097354Y-106989100D01*
X162452429Y-106989100D01*
X162289096Y-106743264D01*
X162069587Y-106522218D01*
X161811325Y-106348017D01*
X161524145Y-106227298D01*
X161464077Y-106214968D01*
X164833029Y-102846016D01*
X164855904Y-102856010D01*
X165123670Y-102914882D01*
X165397772Y-102920624D01*
X165667769Y-102873016D01*
X165923377Y-102773872D01*
X166154859Y-102626969D01*
X166353399Y-102437902D01*
X166511435Y-102213872D01*
X166622947Y-101963412D01*
X166683687Y-101696064D01*
X166688060Y-101382919D01*
X166634808Y-101113979D01*
X166530333Y-100860503D01*
X166378614Y-100632148D01*
X166185430Y-100437611D01*
X165958140Y-100284301D01*
X165879063Y-100251060D01*
X165923377Y-100233872D01*
X166154859Y-100086969D01*
X166353399Y-99897902D01*
X166511435Y-99673872D01*
X166622947Y-99423412D01*
X166683687Y-99156064D01*
X166688060Y-98842919D01*
X166634808Y-98573979D01*
X166530333Y-98320503D01*
X166378614Y-98092148D01*
X166185430Y-97897611D01*
X165958140Y-97744301D01*
X165705400Y-97638059D01*
X165436838Y-97582931D01*
X165162683Y-97581017D01*
X164893377Y-97632390D01*
X164639178Y-97735093D01*
X164409770Y-97885214D01*
X164213888Y-98077035D01*
X164058996Y-98303250D01*
X164020368Y-98393375D01*
X163990333Y-98320503D01*
X163838614Y-98092148D01*
X163645430Y-97897611D01*
X163418140Y-97744301D01*
X163165400Y-97638059D01*
X162896838Y-97582931D01*
X162622683Y-97581017D01*
X162353377Y-97632390D01*
X162099178Y-97735093D01*
X161869770Y-97885214D01*
X161673888Y-98077035D01*
X161518996Y-98303250D01*
X161482729Y-98387867D01*
X161479015Y-98377534D01*
X161415959Y-98259565D01*
X161175467Y-98192724D01*
X160388191Y-98980000D01*
X160402333Y-98994142D01*
X160224142Y-99172333D01*
X160210000Y-99158191D01*
X160195858Y-99172333D01*
X160017667Y-98994142D01*
X160031809Y-98980000D01*
X159244533Y-98192724D01*
X159004041Y-98259565D01*
X158886663Y-98508679D01*
X158820141Y-98775905D01*
X158807029Y-99050975D01*
X158847834Y-99323317D01*
X158916231Y-99513600D01*
X156836200Y-99513600D01*
X156766056Y-99520478D01*
X156695845Y-99526620D01*
X156691992Y-99527740D01*
X156687999Y-99528131D01*
X156620516Y-99548505D01*
X156552847Y-99568165D01*
X156549286Y-99570011D01*
X156545443Y-99571171D01*
X156483206Y-99604263D01*
X156420640Y-99636694D01*
X156417503Y-99639198D01*
X156413962Y-99641081D01*
X156359372Y-99685604D01*
X156304263Y-99729597D01*
X156298676Y-99735107D01*
X156298564Y-99735198D01*
X156298478Y-99735302D01*
X156296677Y-99737078D01*
X152335056Y-103698700D01*
X150472713Y-103698700D01*
X150532947Y-103563412D01*
X150593687Y-103296064D01*
X150598060Y-102982919D01*
X150544808Y-102713979D01*
X150440333Y-102460503D01*
X150288614Y-102232148D01*
X150095430Y-102037611D01*
X149868140Y-101884301D01*
X149615400Y-101778059D01*
X149346838Y-101722931D01*
X149072683Y-101721017D01*
X148803377Y-101772390D01*
X148549178Y-101875093D01*
X148319770Y-102025214D01*
X148123888Y-102217035D01*
X147968996Y-102443250D01*
X147860992Y-102695242D01*
X147803991Y-102963412D01*
X147800163Y-103237548D01*
X147849654Y-103507205D01*
X147950580Y-103762115D01*
X148099096Y-103992566D01*
X148114371Y-104008384D01*
X147010224Y-105112532D01*
X146958550Y-105112171D01*
X146758979Y-105150242D01*
X146570603Y-105226351D01*
X146400597Y-105337599D01*
X146255438Y-105479750D01*
X146140653Y-105647388D01*
X146060616Y-105834129D01*
X146038164Y-105939756D01*
X146014253Y-105937074D01*
X146006406Y-105937019D01*
X146006263Y-105937005D01*
X146006130Y-105937018D01*
X146003600Y-105937000D01*
X140002409Y-105937000D01*
X139963567Y-105897886D01*
X139795131Y-105784274D01*
X139607836Y-105705543D01*
X139408815Y-105664690D01*
X139205650Y-105663271D01*
X139006079Y-105701342D01*
X138817703Y-105777451D01*
X138647697Y-105888699D01*
X138502538Y-106030850D01*
X138387753Y-106198488D01*
X138307716Y-106385229D01*
X138265475Y-106583959D01*
X138262638Y-106787110D01*
X137081000Y-106787110D01*
X137081000Y-100477093D01*
X137086343Y-100496629D01*
X137333507Y-100612863D01*
X137598597Y-100678645D01*
X137871427Y-100691447D01*
X138141512Y-100650775D01*
X138398473Y-100558195D01*
X138513657Y-100496629D01*
X138579112Y-100257303D01*
X137800000Y-99478191D01*
X137785858Y-99492333D01*
X137607667Y-99314142D01*
X137621809Y-99300000D01*
X137978191Y-99300000D01*
X138757303Y-100079112D01*
X138996629Y-100013657D01*
X139112863Y-99766493D01*
X139178645Y-99501403D01*
X139191447Y-99228573D01*
X139150775Y-98958488D01*
X139058195Y-98701527D01*
X138996629Y-98586343D01*
X138757303Y-98520888D01*
X137978191Y-99300000D01*
X137621809Y-99300000D01*
X137607667Y-99285858D01*
X137785858Y-99107667D01*
X137800000Y-99121809D01*
X138579112Y-98342697D01*
X138513657Y-98103371D01*
X138358791Y-98030542D01*
X138400064Y-98014533D01*
X159422724Y-98014533D01*
X160210000Y-98801809D01*
X160997276Y-98014533D01*
X160930435Y-97774041D01*
X160681321Y-97656663D01*
X160414095Y-97590141D01*
X160139025Y-97577029D01*
X159866683Y-97617834D01*
X159607534Y-97710985D01*
X159489565Y-97774041D01*
X159422724Y-98014533D01*
X138400064Y-98014533D01*
X138428198Y-98003621D01*
X138657788Y-97857919D01*
X138854705Y-97670397D01*
X139011449Y-97448199D01*
X139122049Y-97199787D01*
X139182293Y-96934624D01*
X139186629Y-96624040D01*
X139133813Y-96357298D01*
X139030192Y-96105895D01*
X138879714Y-95879407D01*
X138688109Y-95686460D01*
X138462677Y-95534404D01*
X138212004Y-95429031D01*
X137945637Y-95374354D01*
X137673724Y-95372455D01*
X137406620Y-95423408D01*
X137154499Y-95525271D01*
X137081000Y-95573368D01*
X137081000Y-93077176D01*
X137208400Y-93184078D01*
X137445538Y-93314445D01*
X137703482Y-93396270D01*
X137972406Y-93426435D01*
X137991766Y-93426570D01*
X139008234Y-93426570D01*
X139277554Y-93400163D01*
X139536615Y-93321948D01*
X139775550Y-93194904D01*
X139985259Y-93023869D01*
X140157753Y-92815360D01*
X140286462Y-92577317D01*
X140366484Y-92318809D01*
X140394770Y-92049680D01*
X140370244Y-91780183D01*
X140293839Y-91520582D01*
X140168466Y-91280765D01*
X139998900Y-91069868D01*
X139791600Y-90895922D01*
X139559084Y-90768096D01*
X139646136Y-90732806D01*
X139874212Y-90582889D01*
X140068658Y-90391358D01*
X140222002Y-90165572D01*
X140328351Y-89914209D01*
X140343232Y-89840459D01*
X140270239Y-89713227D01*
X152724747Y-89713227D01*
X152814523Y-90202376D01*
X152997598Y-90664772D01*
X153267000Y-91082803D01*
X153612467Y-91440544D01*
X154020841Y-91724371D01*
X154476566Y-91923473D01*
X154962284Y-92030265D01*
X155459495Y-92040680D01*
X155949259Y-91954321D01*
X156412922Y-91774478D01*
X156832822Y-91508001D01*
X157192967Y-91165040D01*
X157479638Y-90758658D01*
X157681916Y-90304334D01*
X157792097Y-89819373D01*
X157800029Y-89251340D01*
X157703432Y-88763492D01*
X157513918Y-88303697D01*
X157238706Y-87889469D01*
X156888277Y-87536586D01*
X156475981Y-87258488D01*
X156017520Y-87065769D01*
X155530358Y-86965769D01*
X155033051Y-86962297D01*
X154544540Y-87055486D01*
X154083434Y-87241785D01*
X153667294Y-87514099D01*
X153311973Y-87862055D01*
X153031004Y-88272400D01*
X152835089Y-88729504D01*
X152731691Y-89215956D01*
X152724747Y-89713227D01*
X140270239Y-89713227D01*
X140220196Y-89626000D01*
X138626000Y-89626000D01*
X138626000Y-89646000D01*
X138374000Y-89646000D01*
X138374000Y-89626000D01*
X138354000Y-89626000D01*
X138354000Y-89374000D01*
X138374000Y-89374000D01*
X138374000Y-89354000D01*
X138626000Y-89354000D01*
X138626000Y-89374000D01*
X140220196Y-89374000D01*
X140343232Y-89159541D01*
X140328351Y-89085791D01*
X140222002Y-88834428D01*
X140068658Y-88608642D01*
X139874212Y-88417111D01*
X139646136Y-88267194D01*
X139557053Y-88231081D01*
X139775550Y-88114904D01*
X139985259Y-87943869D01*
X140157753Y-87735360D01*
X140286462Y-87497317D01*
X140366484Y-87238809D01*
X140394770Y-86969680D01*
X140389297Y-86909531D01*
X161340044Y-86909531D01*
X161366569Y-87200997D01*
X161449202Y-87481760D01*
X161584795Y-87741126D01*
X161768184Y-87969215D01*
X161992382Y-88157340D01*
X162050489Y-88189285D01*
X162009741Y-88210951D01*
X161782938Y-88395928D01*
X161596382Y-88621434D01*
X161457181Y-88878882D01*
X161370636Y-89158464D01*
X161340044Y-89449531D01*
X161366569Y-89740997D01*
X161449202Y-90021760D01*
X161584795Y-90281126D01*
X161768184Y-90509215D01*
X161792723Y-90529806D01*
X161739436Y-90545970D01*
X161628948Y-90605027D01*
X161532104Y-90684504D01*
X161452627Y-90781348D01*
X161393570Y-90891836D01*
X161357203Y-91011722D01*
X161344923Y-91136400D01*
X161344923Y-92863600D01*
X161357203Y-92988278D01*
X161393570Y-93108164D01*
X161452627Y-93218652D01*
X161532104Y-93315496D01*
X161628948Y-93394973D01*
X161739436Y-93454030D01*
X161859322Y-93490397D01*
X161984000Y-93502677D01*
X164016000Y-93502677D01*
X164140678Y-93490397D01*
X164260564Y-93454030D01*
X164371052Y-93394973D01*
X164467896Y-93315496D01*
X164547373Y-93218652D01*
X164606430Y-93108164D01*
X164642797Y-92988278D01*
X164655077Y-92863600D01*
X164655077Y-91136400D01*
X164642797Y-91011722D01*
X164606430Y-90891836D01*
X164547373Y-90781348D01*
X164467896Y-90684504D01*
X164371052Y-90605027D01*
X164260564Y-90545970D01*
X164209285Y-90530415D01*
X164217062Y-90524072D01*
X164403618Y-90298566D01*
X164444476Y-90223000D01*
X165392700Y-90223000D01*
X165462844Y-90216122D01*
X165533055Y-90209980D01*
X165536908Y-90208860D01*
X165540901Y-90208469D01*
X165608384Y-90188095D01*
X165676053Y-90168435D01*
X165679614Y-90166589D01*
X165683457Y-90165429D01*
X165745694Y-90132337D01*
X165808260Y-90099906D01*
X165811397Y-90097402D01*
X165814938Y-90095519D01*
X165869528Y-90050996D01*
X165924637Y-90007003D01*
X165930220Y-90001497D01*
X165930336Y-90001402D01*
X165930425Y-90001294D01*
X165932222Y-89999522D01*
X166153187Y-89778557D01*
X166202627Y-89871052D01*
X166282104Y-89967896D01*
X166378948Y-90047373D01*
X166413922Y-90066067D01*
X166372437Y-90116213D01*
X166219089Y-90399824D01*
X166123749Y-90707819D01*
X166090047Y-91028467D01*
X166119268Y-91349554D01*
X166210299Y-91658850D01*
X166359672Y-91944574D01*
X166561698Y-92195844D01*
X166808682Y-92403087D01*
X167091215Y-92558412D01*
X167398537Y-92655900D01*
X167718941Y-92691839D01*
X167742007Y-92692000D01*
X167757993Y-92692000D01*
X168078868Y-92660538D01*
X168387521Y-92567350D01*
X168672196Y-92415986D01*
X168922049Y-92212211D01*
X169127563Y-91963787D01*
X169280911Y-91680176D01*
X169376251Y-91372181D01*
X169409953Y-91051533D01*
X169380732Y-90730446D01*
X169289701Y-90421150D01*
X169140328Y-90135426D01*
X169085018Y-90066634D01*
X169121052Y-90047373D01*
X169217896Y-89967896D01*
X169297373Y-89871052D01*
X169356430Y-89760564D01*
X169392797Y-89640678D01*
X169405077Y-89516000D01*
X169405077Y-87484000D01*
X169392797Y-87359322D01*
X169356430Y-87239436D01*
X169297373Y-87128948D01*
X169217896Y-87032104D01*
X169121052Y-86952627D01*
X169010564Y-86893570D01*
X168890678Y-86857203D01*
X168766000Y-86844923D01*
X166734000Y-86844923D01*
X166609322Y-86857203D01*
X166489436Y-86893570D01*
X166378948Y-86952627D01*
X166282104Y-87032104D01*
X166202627Y-87128948D01*
X166143570Y-87239436D01*
X166107203Y-87359322D01*
X166094923Y-87484000D01*
X166094923Y-87784134D01*
X166069347Y-87791565D01*
X166065786Y-87793411D01*
X166061943Y-87794571D01*
X165999706Y-87827663D01*
X165937140Y-87860094D01*
X165934003Y-87862598D01*
X165930462Y-87864481D01*
X165875872Y-87909004D01*
X165820763Y-87952997D01*
X165815180Y-87958503D01*
X165815064Y-87958598D01*
X165814975Y-87958706D01*
X165813178Y-87960478D01*
X165076656Y-88697000D01*
X164445592Y-88697000D01*
X164415205Y-88638874D01*
X164231816Y-88410785D01*
X164007618Y-88222660D01*
X163949511Y-88190715D01*
X163990259Y-88169049D01*
X164217062Y-87984072D01*
X164403618Y-87758566D01*
X164542819Y-87501118D01*
X164629364Y-87221536D01*
X164659956Y-86930469D01*
X164633431Y-86639003D01*
X164550798Y-86358240D01*
X164415205Y-86098874D01*
X164231816Y-85870785D01*
X164007618Y-85682660D01*
X163751148Y-85541665D01*
X163472177Y-85453170D01*
X163181331Y-85420546D01*
X163160393Y-85420400D01*
X162839607Y-85420400D01*
X162548333Y-85448960D01*
X162268154Y-85533551D01*
X162009741Y-85670951D01*
X161782938Y-85855928D01*
X161596382Y-86081434D01*
X161457181Y-86338882D01*
X161370636Y-86618464D01*
X161340044Y-86909531D01*
X140389297Y-86909531D01*
X140370244Y-86700183D01*
X140293839Y-86440582D01*
X140168466Y-86200765D01*
X139998900Y-85989868D01*
X139791600Y-85815922D01*
X139554462Y-85685555D01*
X139296518Y-85603730D01*
X139027594Y-85573565D01*
X139008234Y-85573430D01*
X137991766Y-85573430D01*
X137722446Y-85599837D01*
X137463385Y-85678052D01*
X137224450Y-85805096D01*
X137081000Y-85922091D01*
X137081000Y-84749714D01*
X134186000Y-84749714D01*
X134186000Y-84186000D01*
X170314000Y-84186000D01*
X170314000Y-124814000D01*
M02*
