G04 #@! TF.GenerationSoftware,KiCad,Pcbnew,(2017-09-19 revision dddaa7e69)-makepkg*
G04 #@! TF.CreationDate,2017-11-10T02:15:54+01:00*
G04 #@! TF.ProjectId,RICOH_AFICIO_SG_2100N_GEL_CHIP_RESETTER,5249434F485F41464943494F5F53475F,1*
G04 #@! TF.SameCoordinates,Original*
G04 #@! TF.FileFunction,Legend,Top*
G04 #@! TF.FilePolarity,Positive*
%FSLAX46Y46*%
G04 Gerber Fmt 4.6, Leading zero omitted, Abs format (unit mm)*
G04 Created by KiCad (PCBNEW (2017-09-19 revision dddaa7e69)-makepkg) date 11/10/17 02:15:54*
%MOMM*%
%LPD*%
G01*
G04 APERTURE LIST*
%ADD10C,0.200000*%
%ADD11C,0.127000*%
%ADD12C,0.100000*%
%ADD13C,0.063500*%
%ADD14C,0.150000*%
%ADD15C,0.203200*%
%ADD16C,1.905000*%
%ADD17C,1.501140*%
%ADD18R,1.524000X1.524000*%
%ADD19C,1.524000*%
%ADD20R,0.550000X1.600000*%
%ADD21R,1.600000X0.550000*%
%ADD22R,2.032000X2.032000*%
%ADD23O,2.032000X2.032000*%
%ADD24R,2.032000X1.727200*%
%ADD25O,2.032000X1.727200*%
%ADD26R,1.250000X1.500000*%
%ADD27R,1.300000X1.500000*%
%ADD28C,4.000000*%
%ADD29C,2.200000*%
%ADD30O,1.000000X1.900000*%
%ADD31R,1.000000X1.900000*%
%ADD32O,2.499360X1.501140*%
%ADD33C,3.799840*%
G04 APERTURE END LIST*
D10*
X161700000Y-116400000D02*
X161700000Y-116500000D01*
X161900000Y-116100000D02*
X161900000Y-116500000D01*
X161900000Y-119400000D02*
X161900000Y-119000000D01*
X161600000Y-118700000D02*
X161600000Y-118600000D01*
X161600000Y-119000000D02*
X161600000Y-118700000D01*
X161600000Y-116700000D02*
X161600000Y-116900000D01*
X161700000Y-116600000D02*
X161600000Y-116700000D01*
X161400000Y-118100000D02*
X161400000Y-117400000D01*
X161500000Y-118500000D02*
X161500000Y-116900000D01*
X138500000Y-114100000D02*
X138300000Y-114100000D01*
X138400000Y-114100000D02*
X138500000Y-114100000D01*
X138400000Y-113800000D02*
X138400000Y-114100000D01*
X138000000Y-114200000D02*
X138400000Y-113800000D01*
X138800000Y-114200000D02*
X138000000Y-114200000D01*
X138400000Y-113800000D02*
X138800000Y-114200000D01*
D11*
X167249740Y-107200920D02*
X167747580Y-107200920D01*
X167747580Y-107200920D02*
X167747580Y-108300740D01*
X167747580Y-108300740D02*
X167249740Y-108300740D01*
X167249740Y-111699260D02*
X167747580Y-111699260D01*
X167747580Y-111699260D02*
X167747580Y-112799080D01*
X167747580Y-112799080D02*
X167249740Y-112799080D01*
X161250260Y-112799080D02*
X160752420Y-112799080D01*
X160752420Y-112799080D02*
X160752420Y-111699260D01*
X160752420Y-111699260D02*
X161250260Y-111699260D01*
X161250260Y-107200920D02*
X160752420Y-107200920D01*
X160752420Y-107200920D02*
X160752420Y-108300740D01*
X160752420Y-108300740D02*
X161250260Y-108300740D01*
X167148140Y-107000260D02*
X161351860Y-107000260D01*
X161250260Y-107101860D02*
X161250260Y-108300740D01*
X161250260Y-108300740D02*
X161250260Y-111699260D01*
X161250260Y-111699260D02*
X161250260Y-112898140D01*
X161351860Y-112999740D02*
X167148140Y-112999740D01*
X167249740Y-112898140D02*
X167249740Y-111699260D01*
X167249740Y-111699260D02*
X167249740Y-108300740D01*
X167249740Y-108300740D02*
X167249740Y-107101860D01*
D12*
X165309670Y-110000000D02*
G75*
G03X165309670Y-110000000I-1059670J0D01*
G01*
D13*
X166889452Y-107500640D02*
G75*
G03X166889452Y-107500640I-140092J0D01*
G01*
X166889452Y-112499360D02*
G75*
G03X166889452Y-112499360I-140092J0D01*
G01*
X161890732Y-112499360D02*
G75*
G03X161890732Y-112499360I-140092J0D01*
G01*
X161890732Y-107500640D02*
G75*
G03X161890732Y-107500640I-140092J0D01*
G01*
D10*
X165521604Y-110000000D02*
G75*
G03X165521604Y-110000000I-1271604J0D01*
G01*
D11*
X167249740Y-107101860D02*
G75*
G03X167148140Y-107000260I-101600J0D01*
G01*
X161351860Y-107000260D02*
G75*
G03X161250260Y-107101860I0J-101600D01*
G01*
X161250260Y-112898140D02*
G75*
G03X161351860Y-112999740I101600J0D01*
G01*
X167148140Y-112999740D02*
G75*
G03X167249740Y-112898140I0J101600D01*
G01*
D14*
X136250600Y-99147600D02*
X136250600Y-98182400D01*
X135768000Y-98639600D02*
X136733200Y-98639600D01*
X140340000Y-98030000D02*
G75*
G03X140340000Y-98030000I-2540000J0D01*
G01*
X160250000Y-102750000D02*
X161250000Y-104750000D01*
X160250000Y-102750000D02*
X159250000Y-104750000D01*
X163750000Y-104750000D02*
X163750000Y-103750000D01*
X163750000Y-103750000D02*
X161750000Y-103750000D01*
X161750000Y-103750000D02*
X161750000Y-104750000D01*
X155130000Y-104850000D02*
X170370000Y-104850000D01*
X170370000Y-104850000D02*
X170370000Y-95650000D01*
X170370000Y-95650000D02*
X155130000Y-95650000D01*
X155130000Y-95650000D02*
X155130000Y-104850000D01*
D15*
X166560000Y-102790000D02*
X158940000Y-102790000D01*
X158940000Y-97710000D02*
X166560000Y-97710000D01*
X166560000Y-97710000D02*
X166560000Y-102790000D01*
X158940000Y-102790000D02*
X158940000Y-97710000D01*
D14*
X137575000Y-111825000D02*
X137900000Y-111825000D01*
X137575000Y-104575000D02*
X137900000Y-104575000D01*
X144825000Y-104575000D02*
X144500000Y-104575000D01*
X144825000Y-111825000D02*
X144500000Y-111825000D01*
X137575000Y-111825000D02*
X137575000Y-111500000D01*
X144825000Y-111825000D02*
X144825000Y-111500000D01*
X144825000Y-104575000D02*
X144825000Y-104900000D01*
X137575000Y-104575000D02*
X137575000Y-104900000D01*
X137900000Y-111825000D02*
X137900000Y-113250000D01*
X149200000Y-113280000D02*
X149200000Y-112264000D01*
X149200000Y-112264000D02*
X148184000Y-112264000D01*
X148184000Y-112264000D02*
X148184000Y-104136000D01*
X148184000Y-104136000D02*
X150216000Y-104136000D01*
X150216000Y-104136000D02*
X150216000Y-112264000D01*
X150216000Y-112264000D02*
X149200000Y-112264000D01*
X148692000Y-112264000D02*
X148184000Y-111756000D01*
X149200000Y-103120000D02*
X149200000Y-104136000D01*
X169020000Y-89770000D02*
X169020000Y-92310000D01*
X169300000Y-86950000D02*
X169300000Y-88500000D01*
X169020000Y-89770000D02*
X166480000Y-89770000D01*
X166200000Y-88500000D02*
X166200000Y-86950000D01*
X166200000Y-86950000D02*
X169300000Y-86950000D01*
X166480000Y-89770000D02*
X166480000Y-92310000D01*
X166480000Y-92310000D02*
X169020000Y-92310000D01*
X164270000Y-90730000D02*
X164270000Y-85650000D01*
X164270000Y-85650000D02*
X161730000Y-85650000D01*
X161730000Y-85650000D02*
X161730000Y-90730000D01*
X161450000Y-93550000D02*
X161450000Y-92000000D01*
X161730000Y-90730000D02*
X164270000Y-90730000D01*
X164550000Y-92000000D02*
X164550000Y-93550000D01*
X164550000Y-93550000D02*
X161450000Y-93550000D01*
X145150000Y-98300000D02*
X145150000Y-99300000D01*
X146850000Y-99300000D02*
X146850000Y-98300000D01*
X148150000Y-98300000D02*
X148150000Y-99300000D01*
X149850000Y-99300000D02*
X149850000Y-98300000D01*
X142150000Y-98300000D02*
X142150000Y-99300000D01*
X143850000Y-99300000D02*
X143850000Y-98300000D01*
X156075000Y-110200000D02*
X156075000Y-111400000D01*
X154325000Y-111400000D02*
X154325000Y-110200000D01*
X151325000Y-111400000D02*
X151325000Y-110200000D01*
X153075000Y-110200000D02*
X153075000Y-111400000D01*
X159075000Y-110200000D02*
X159075000Y-111400000D01*
X157325000Y-111400000D02*
X157325000Y-110200000D01*
X153075000Y-98200000D02*
X153075000Y-99400000D01*
X151325000Y-99400000D02*
X151325000Y-98200000D01*
X153075000Y-104400000D02*
X153075000Y-105600000D01*
X151325000Y-105600000D02*
X151325000Y-104400000D01*
X154536000Y-122750000D02*
G75*
G03X154536000Y-122750000I-2286000J0D01*
G01*
X156913217Y-117750000D02*
G75*
G03X156913217Y-117750000I-763217J0D01*
G01*
X136250000Y-118750000D02*
X138000000Y-118750000D01*
X138000000Y-118750000D02*
X138000000Y-116750000D01*
X138000000Y-116750000D02*
X136250000Y-116750000D01*
X136250000Y-120000000D02*
X157750000Y-120000000D01*
X157750000Y-120000000D02*
X157750000Y-115500000D01*
X157750000Y-115500000D02*
X136250000Y-115500000D01*
X136250000Y-115500000D02*
X136250000Y-120000000D01*
X161755000Y-118850000D02*
X161755000Y-119300000D01*
X167205000Y-117750000D02*
G75*
G03X167205000Y-117750000I-2950000J0D01*
G01*
X161755000Y-116650000D02*
X161755000Y-116200000D01*
X160275000Y-121300000D02*
X160275000Y-122500000D01*
X158525000Y-122500000D02*
X158525000Y-121300000D01*
X160275000Y-115700000D02*
X160275000Y-116900000D01*
X158525000Y-116900000D02*
X158525000Y-115700000D01*
X157778472Y-89500000D02*
G75*
G03X157778472Y-89500000I-2514472J0D01*
G01*
X142183000Y-86960000D02*
X140405000Y-86960000D01*
X142183000Y-89500000D02*
X140405000Y-89500000D01*
X142183000Y-92040000D02*
X140405000Y-92040000D01*
X150692000Y-94834000D02*
X158693000Y-94834000D01*
X158693000Y-94834000D02*
X158693000Y-84166000D01*
X158693000Y-84166000D02*
X150692000Y-84166000D01*
X142183000Y-94834000D02*
X150692000Y-94834000D01*
X150692000Y-94834000D02*
X150692000Y-84166000D01*
X150692000Y-84166000D02*
X142183000Y-84166000D01*
X142183000Y-89500000D02*
X142183000Y-84166000D01*
X142183000Y-89500000D02*
X142183000Y-94834000D01*
X168159285Y-110414047D02*
X168219761Y-110232619D01*
X168280238Y-110172142D01*
X168401190Y-110111666D01*
X168582619Y-110111666D01*
X168703571Y-110172142D01*
X168764047Y-110232619D01*
X168824523Y-110353571D01*
X168824523Y-110837380D01*
X167554523Y-110837380D01*
X167554523Y-110414047D01*
X167615000Y-110293095D01*
X167675476Y-110232619D01*
X167796428Y-110172142D01*
X167917380Y-110172142D01*
X168038333Y-110232619D01*
X168098809Y-110293095D01*
X168159285Y-110414047D01*
X168159285Y-110837380D01*
X168824523Y-108902142D02*
X168824523Y-109627857D01*
X168824523Y-109265000D02*
X167554523Y-109265000D01*
X167735952Y-109385952D01*
X167856904Y-109506904D01*
X167917380Y-109627857D01*
X137633333Y-95057142D02*
X137585714Y-95104761D01*
X137442857Y-95152380D01*
X137347619Y-95152380D01*
X137204761Y-95104761D01*
X137109523Y-95009523D01*
X137061904Y-94914285D01*
X137014285Y-94723809D01*
X137014285Y-94580952D01*
X137061904Y-94390476D01*
X137109523Y-94295238D01*
X137204761Y-94200000D01*
X137347619Y-94152380D01*
X137442857Y-94152380D01*
X137585714Y-94200000D01*
X137633333Y-94247619D01*
X138490476Y-94485714D02*
X138490476Y-95152380D01*
X138252380Y-94104761D02*
X138014285Y-94819047D01*
X138633333Y-94819047D01*
D15*
X161766285Y-106112857D02*
X161717904Y-106161238D01*
X161572761Y-106209619D01*
X161476000Y-106209619D01*
X161330857Y-106161238D01*
X161234095Y-106064476D01*
X161185714Y-105967714D01*
X161137333Y-105774190D01*
X161137333Y-105629047D01*
X161185714Y-105435523D01*
X161234095Y-105338761D01*
X161330857Y-105242000D01*
X161476000Y-105193619D01*
X161572761Y-105193619D01*
X161717904Y-105242000D01*
X161766285Y-105290380D01*
X162395238Y-105193619D02*
X162588761Y-105193619D01*
X162685523Y-105242000D01*
X162782285Y-105338761D01*
X162830666Y-105532285D01*
X162830666Y-105870952D01*
X162782285Y-106064476D01*
X162685523Y-106161238D01*
X162588761Y-106209619D01*
X162395238Y-106209619D01*
X162298476Y-106161238D01*
X162201714Y-106064476D01*
X162153333Y-105870952D01*
X162153333Y-105532285D01*
X162201714Y-105338761D01*
X162298476Y-105242000D01*
X162395238Y-105193619D01*
X163266095Y-106209619D02*
X163266095Y-105193619D01*
X163846666Y-106209619D01*
X163846666Y-105193619D01*
X164862666Y-106209619D02*
X164282095Y-106209619D01*
X164572380Y-106209619D02*
X164572380Y-105193619D01*
X164475619Y-105338761D01*
X164378857Y-105435523D01*
X164282095Y-105483904D01*
D14*
X135602380Y-109176190D02*
X134602380Y-109176190D01*
X135507142Y-108128571D02*
X135554761Y-108176190D01*
X135602380Y-108319047D01*
X135602380Y-108414285D01*
X135554761Y-108557142D01*
X135459523Y-108652380D01*
X135364285Y-108700000D01*
X135173809Y-108747619D01*
X135030952Y-108747619D01*
X134840476Y-108700000D01*
X134745238Y-108652380D01*
X134650000Y-108557142D01*
X134602380Y-108414285D01*
X134602380Y-108319047D01*
X134650000Y-108176190D01*
X134697619Y-108128571D01*
X135602380Y-107176190D02*
X135602380Y-107747619D01*
X135602380Y-107461904D02*
X134602380Y-107461904D01*
X134745238Y-107557142D01*
X134840476Y-107652380D01*
X134888095Y-107747619D01*
X147852380Y-108366666D02*
X147852380Y-108842857D01*
X146852380Y-108842857D01*
X147852380Y-107509523D02*
X147852380Y-108080952D01*
X147852380Y-107795238D02*
X146852380Y-107795238D01*
X146995238Y-107890476D01*
X147090476Y-107985714D01*
X147138095Y-108080952D01*
X167011904Y-86452380D02*
X167011904Y-85452380D01*
X167392857Y-85452380D01*
X167488095Y-85500000D01*
X167535714Y-85547619D01*
X167583333Y-85642857D01*
X167583333Y-85785714D01*
X167535714Y-85880952D01*
X167488095Y-85928571D01*
X167392857Y-85976190D01*
X167011904Y-85976190D01*
X168535714Y-86452380D02*
X167964285Y-86452380D01*
X168250000Y-86452380D02*
X168250000Y-85452380D01*
X168154761Y-85595238D01*
X168059523Y-85690476D01*
X167964285Y-85738095D01*
X161666666Y-94904761D02*
X161809523Y-94952380D01*
X162047619Y-94952380D01*
X162142857Y-94904761D01*
X162190476Y-94857142D01*
X162238095Y-94761904D01*
X162238095Y-94666666D01*
X162190476Y-94571428D01*
X162142857Y-94523809D01*
X162047619Y-94476190D01*
X161857142Y-94428571D01*
X161761904Y-94380952D01*
X161714285Y-94333333D01*
X161666666Y-94238095D01*
X161666666Y-94142857D01*
X161714285Y-94047619D01*
X161761904Y-94000000D01*
X161857142Y-93952380D01*
X162095238Y-93952380D01*
X162238095Y-94000000D01*
X162571428Y-93952380D02*
X162809523Y-94952380D01*
X163000000Y-94238095D01*
X163190476Y-94952380D01*
X163428571Y-93952380D01*
X164333333Y-94952380D02*
X163761904Y-94952380D01*
X164047619Y-94952380D02*
X164047619Y-93952380D01*
X163952380Y-94095238D01*
X163857142Y-94190476D01*
X163761904Y-94238095D01*
X145833333Y-96157142D02*
X145785714Y-96204761D01*
X145642857Y-96252380D01*
X145547619Y-96252380D01*
X145404761Y-96204761D01*
X145309523Y-96109523D01*
X145261904Y-96014285D01*
X145214285Y-95823809D01*
X145214285Y-95680952D01*
X145261904Y-95490476D01*
X145309523Y-95395238D01*
X145404761Y-95300000D01*
X145547619Y-95252380D01*
X145642857Y-95252380D01*
X145785714Y-95300000D01*
X145833333Y-95347619D01*
X146785714Y-96252380D02*
X146214285Y-96252380D01*
X146500000Y-96252380D02*
X146500000Y-95252380D01*
X146404761Y-95395238D01*
X146309523Y-95490476D01*
X146214285Y-95538095D01*
X148833333Y-96157142D02*
X148785714Y-96204761D01*
X148642857Y-96252380D01*
X148547619Y-96252380D01*
X148404761Y-96204761D01*
X148309523Y-96109523D01*
X148261904Y-96014285D01*
X148214285Y-95823809D01*
X148214285Y-95680952D01*
X148261904Y-95490476D01*
X148309523Y-95395238D01*
X148404761Y-95300000D01*
X148547619Y-95252380D01*
X148642857Y-95252380D01*
X148785714Y-95300000D01*
X148833333Y-95347619D01*
X149214285Y-95347619D02*
X149261904Y-95300000D01*
X149357142Y-95252380D01*
X149595238Y-95252380D01*
X149690476Y-95300000D01*
X149738095Y-95347619D01*
X149785714Y-95442857D01*
X149785714Y-95538095D01*
X149738095Y-95680952D01*
X149166666Y-96252380D01*
X149785714Y-96252380D01*
X142833333Y-96157142D02*
X142785714Y-96204761D01*
X142642857Y-96252380D01*
X142547619Y-96252380D01*
X142404761Y-96204761D01*
X142309523Y-96109523D01*
X142261904Y-96014285D01*
X142214285Y-95823809D01*
X142214285Y-95680952D01*
X142261904Y-95490476D01*
X142309523Y-95395238D01*
X142404761Y-95300000D01*
X142547619Y-95252380D01*
X142642857Y-95252380D01*
X142785714Y-95300000D01*
X142833333Y-95347619D01*
X143166666Y-95252380D02*
X143785714Y-95252380D01*
X143452380Y-95633333D01*
X143595238Y-95633333D01*
X143690476Y-95680952D01*
X143738095Y-95728571D01*
X143785714Y-95823809D01*
X143785714Y-96061904D01*
X143738095Y-96157142D01*
X143690476Y-96204761D01*
X143595238Y-96252380D01*
X143309523Y-96252380D01*
X143214285Y-96204761D01*
X143166666Y-96157142D01*
X155033333Y-108052380D02*
X154700000Y-107576190D01*
X154461904Y-108052380D02*
X154461904Y-107052380D01*
X154842857Y-107052380D01*
X154938095Y-107100000D01*
X154985714Y-107147619D01*
X155033333Y-107242857D01*
X155033333Y-107385714D01*
X154985714Y-107480952D01*
X154938095Y-107528571D01*
X154842857Y-107576190D01*
X154461904Y-107576190D01*
X155985714Y-108052380D02*
X155414285Y-108052380D01*
X155700000Y-108052380D02*
X155700000Y-107052380D01*
X155604761Y-107195238D01*
X155509523Y-107290476D01*
X155414285Y-107338095D01*
X152033333Y-114552380D02*
X151700000Y-114076190D01*
X151461904Y-114552380D02*
X151461904Y-113552380D01*
X151842857Y-113552380D01*
X151938095Y-113600000D01*
X151985714Y-113647619D01*
X152033333Y-113742857D01*
X152033333Y-113885714D01*
X151985714Y-113980952D01*
X151938095Y-114028571D01*
X151842857Y-114076190D01*
X151461904Y-114076190D01*
X152414285Y-113647619D02*
X152461904Y-113600000D01*
X152557142Y-113552380D01*
X152795238Y-113552380D01*
X152890476Y-113600000D01*
X152938095Y-113647619D01*
X152985714Y-113742857D01*
X152985714Y-113838095D01*
X152938095Y-113980952D01*
X152366666Y-114552380D01*
X152985714Y-114552380D01*
X158033333Y-108052380D02*
X157700000Y-107576190D01*
X157461904Y-108052380D02*
X157461904Y-107052380D01*
X157842857Y-107052380D01*
X157938095Y-107100000D01*
X157985714Y-107147619D01*
X158033333Y-107242857D01*
X158033333Y-107385714D01*
X157985714Y-107480952D01*
X157938095Y-107528571D01*
X157842857Y-107576190D01*
X157461904Y-107576190D01*
X158366666Y-107052380D02*
X158985714Y-107052380D01*
X158652380Y-107433333D01*
X158795238Y-107433333D01*
X158890476Y-107480952D01*
X158938095Y-107528571D01*
X158985714Y-107623809D01*
X158985714Y-107861904D01*
X158938095Y-107957142D01*
X158890476Y-108004761D01*
X158795238Y-108052380D01*
X158509523Y-108052380D01*
X158414285Y-108004761D01*
X158366666Y-107957142D01*
X152033333Y-96252380D02*
X151700000Y-95776190D01*
X151461904Y-96252380D02*
X151461904Y-95252380D01*
X151842857Y-95252380D01*
X151938095Y-95300000D01*
X151985714Y-95347619D01*
X152033333Y-95442857D01*
X152033333Y-95585714D01*
X151985714Y-95680952D01*
X151938095Y-95728571D01*
X151842857Y-95776190D01*
X151461904Y-95776190D01*
X152366666Y-95252380D02*
X153033333Y-95252380D01*
X152604761Y-96252380D01*
X152033333Y-102452380D02*
X151700000Y-101976190D01*
X151461904Y-102452380D02*
X151461904Y-101452380D01*
X151842857Y-101452380D01*
X151938095Y-101500000D01*
X151985714Y-101547619D01*
X152033333Y-101642857D01*
X152033333Y-101785714D01*
X151985714Y-101880952D01*
X151938095Y-101928571D01*
X151842857Y-101976190D01*
X151461904Y-101976190D01*
X152890476Y-101452380D02*
X152700000Y-101452380D01*
X152604761Y-101500000D01*
X152557142Y-101547619D01*
X152461904Y-101690476D01*
X152414285Y-101880952D01*
X152414285Y-102261904D01*
X152461904Y-102357142D01*
X152509523Y-102404761D01*
X152604761Y-102452380D01*
X152795238Y-102452380D01*
X152890476Y-102404761D01*
X152938095Y-102357142D01*
X152985714Y-102261904D01*
X152985714Y-102023809D01*
X152938095Y-101928571D01*
X152890476Y-101880952D01*
X152795238Y-101833333D01*
X152604761Y-101833333D01*
X152509523Y-101880952D01*
X152461904Y-101928571D01*
X152414285Y-102023809D01*
X149654380Y-124464285D02*
X148654380Y-124464285D01*
X149368666Y-124130952D01*
X148654380Y-123797619D01*
X149654380Y-123797619D01*
X149654380Y-123321428D02*
X148654380Y-123321428D01*
X149654380Y-122750000D01*
X148654380Y-122750000D01*
X148654380Y-122416666D02*
X148654380Y-121845238D01*
X149654380Y-122130952D02*
X148654380Y-122130952D01*
X149654380Y-120988095D02*
X149654380Y-121559523D01*
X149654380Y-121273809D02*
X148654380Y-121273809D01*
X148797238Y-121369047D01*
X148892476Y-121464285D01*
X148940095Y-121559523D01*
X135852380Y-118538095D02*
X134852380Y-118538095D01*
X134852380Y-118157142D01*
X134900000Y-118061904D01*
X134947619Y-118014285D01*
X135042857Y-117966666D01*
X135185714Y-117966666D01*
X135280952Y-118014285D01*
X135328571Y-118061904D01*
X135376190Y-118157142D01*
X135376190Y-118538095D01*
X134947619Y-117585714D02*
X134900000Y-117538095D01*
X134852380Y-117442857D01*
X134852380Y-117204761D01*
X134900000Y-117109523D01*
X134947619Y-117061904D01*
X135042857Y-117014285D01*
X135138095Y-117014285D01*
X135280952Y-117061904D01*
X135852380Y-117633333D01*
X135852380Y-117014285D01*
X163461904Y-122052380D02*
X163461904Y-121052380D01*
X163700000Y-121052380D01*
X163842857Y-121100000D01*
X163938095Y-121195238D01*
X163985714Y-121290476D01*
X164033333Y-121480952D01*
X164033333Y-121623809D01*
X163985714Y-121814285D01*
X163938095Y-121909523D01*
X163842857Y-122004761D01*
X163700000Y-122052380D01*
X163461904Y-122052380D01*
X164985714Y-122052380D02*
X164414285Y-122052380D01*
X164700000Y-122052380D02*
X164700000Y-121052380D01*
X164604761Y-121195238D01*
X164509523Y-121290476D01*
X164414285Y-121338095D01*
X158152380Y-122066666D02*
X157676190Y-122400000D01*
X158152380Y-122638095D02*
X157152380Y-122638095D01*
X157152380Y-122257142D01*
X157200000Y-122161904D01*
X157247619Y-122114285D01*
X157342857Y-122066666D01*
X157485714Y-122066666D01*
X157580952Y-122114285D01*
X157628571Y-122161904D01*
X157676190Y-122257142D01*
X157676190Y-122638095D01*
X157485714Y-121209523D02*
X158152380Y-121209523D01*
X157104761Y-121447619D02*
X157819047Y-121685714D01*
X157819047Y-121066666D01*
X158252380Y-114666666D02*
X157776190Y-115000000D01*
X158252380Y-115238095D02*
X157252380Y-115238095D01*
X157252380Y-114857142D01*
X157300000Y-114761904D01*
X157347619Y-114714285D01*
X157442857Y-114666666D01*
X157585714Y-114666666D01*
X157680952Y-114714285D01*
X157728571Y-114761904D01*
X157776190Y-114857142D01*
X157776190Y-115238095D01*
X157252380Y-113761904D02*
X157252380Y-114238095D01*
X157728571Y-114285714D01*
X157680952Y-114238095D01*
X157633333Y-114142857D01*
X157633333Y-113904761D01*
X157680952Y-113809523D01*
X157728571Y-113761904D01*
X157823809Y-113714285D01*
X158061904Y-113714285D01*
X158157142Y-113761904D01*
X158204761Y-113809523D01*
X158252380Y-113904761D01*
X158252380Y-114142857D01*
X158204761Y-114238095D01*
X158157142Y-114285714D01*
X159052380Y-90261904D02*
X159861904Y-90261904D01*
X159957142Y-90214285D01*
X160004761Y-90166666D01*
X160052380Y-90071428D01*
X160052380Y-89880952D01*
X160004761Y-89785714D01*
X159957142Y-89738095D01*
X159861904Y-89690476D01*
X159052380Y-89690476D01*
X160052380Y-88690476D02*
X160052380Y-89261904D01*
X160052380Y-88976190D02*
X159052380Y-88976190D01*
X159195238Y-89071428D01*
X159290476Y-89166666D01*
X159338095Y-89261904D01*
%LPC*%
D16*
X167498660Y-107752100D03*
X161052140Y-107752100D03*
X167549460Y-112247900D03*
X161100400Y-112247900D03*
D17*
X137800000Y-96760000D03*
X137800000Y-99300000D03*
D18*
X160210000Y-101520000D03*
D19*
X160210000Y-98980000D03*
X162750000Y-101520000D03*
X162750000Y-98980000D03*
X165290000Y-101520000D03*
X165290000Y-98980000D03*
D20*
X138400000Y-112450000D03*
X139200000Y-112450000D03*
X140000000Y-112450000D03*
X140800000Y-112450000D03*
X141600000Y-112450000D03*
X142400000Y-112450000D03*
X143200000Y-112450000D03*
X144000000Y-112450000D03*
D21*
X145450000Y-111000000D03*
X145450000Y-110200000D03*
X145450000Y-109400000D03*
X145450000Y-108600000D03*
X145450000Y-107800000D03*
X145450000Y-107000000D03*
X145450000Y-106200000D03*
X145450000Y-105400000D03*
D20*
X144000000Y-103950000D03*
X143200000Y-103950000D03*
X142400000Y-103950000D03*
X141600000Y-103950000D03*
X140800000Y-103950000D03*
X140000000Y-103950000D03*
X139200000Y-103950000D03*
X138400000Y-103950000D03*
D21*
X136950000Y-105400000D03*
X136950000Y-106200000D03*
X136950000Y-107000000D03*
X136950000Y-107800000D03*
X136950000Y-108600000D03*
X136950000Y-109400000D03*
X136950000Y-110200000D03*
X136950000Y-111000000D03*
D19*
X149200000Y-113280000D03*
X149200000Y-103120000D03*
D22*
X167750000Y-88500000D03*
D23*
X167750000Y-91040000D03*
D24*
X163000000Y-92000000D03*
D25*
X163000000Y-89460000D03*
X163000000Y-86920000D03*
D26*
X146000000Y-100050000D03*
X146000000Y-97550000D03*
X149000000Y-100050000D03*
X149000000Y-97550000D03*
X143000000Y-100050000D03*
X143000000Y-97550000D03*
D27*
X155200000Y-112150000D03*
X155200000Y-109450000D03*
X152200000Y-109450000D03*
X152200000Y-112150000D03*
X158200000Y-112150000D03*
X158200000Y-109450000D03*
X152200000Y-100150000D03*
X152200000Y-97450000D03*
X152200000Y-106350000D03*
X152200000Y-103650000D03*
D28*
X152250000Y-122750000D03*
D29*
X141000000Y-117750000D03*
X145000000Y-117750000D03*
X149000000Y-117750000D03*
X153000000Y-117750000D03*
D30*
X162350000Y-117750000D03*
D31*
X163620000Y-117750000D03*
D30*
X164890000Y-117750000D03*
X166160000Y-117750000D03*
D27*
X159400000Y-123250000D03*
X159400000Y-120550000D03*
X159400000Y-117650000D03*
X159400000Y-114950000D03*
D32*
X138500000Y-89500000D03*
X138500000Y-86960000D03*
X138500000Y-92040000D03*
D33*
X155264000Y-89500000D03*
M02*
