G04 #@! TF.GenerationSoftware,KiCad,Pcbnew,(2017-09-19 revision dddaa7e69)-makepkg*
G04 #@! TF.CreationDate,2017-11-10T02:15:54+01:00*
G04 #@! TF.ProjectId,RICOH_AFICIO_SG_2100N_GEL_CHIP_RESETTER,5249434F485F41464943494F5F53475F,1*
G04 #@! TF.SameCoordinates,Original*
G04 #@! TF.FileFunction,Copper,L1,Top,Signal*
G04 #@! TF.FilePolarity,Positive*
%FSLAX46Y46*%
G04 Gerber Fmt 4.6, Leading zero omitted, Abs format (unit mm)*
G04 Created by KiCad (PCBNEW (2017-09-19 revision dddaa7e69)-makepkg) date 11/10/17 02:15:54*
%MOMM*%
%LPD*%
G01*
G04 APERTURE LIST*
%ADD10C,1.905000*%
%ADD11C,1.501140*%
%ADD12R,1.524000X1.524000*%
%ADD13C,1.524000*%
%ADD14R,0.550000X1.600000*%
%ADD15R,1.600000X0.550000*%
%ADD16R,2.032000X2.032000*%
%ADD17O,2.032000X2.032000*%
%ADD18R,2.032000X1.727200*%
%ADD19O,2.032000X1.727200*%
%ADD20R,1.250000X1.500000*%
%ADD21R,1.300000X1.500000*%
%ADD22C,4.000000*%
%ADD23C,2.200000*%
%ADD24O,1.000000X1.900000*%
%ADD25R,1.000000X1.900000*%
%ADD26O,2.499360X1.501140*%
%ADD27C,0.800000*%
%ADD28C,0.254000*%
%ADD29C,0.250000*%
%ADD30C,0.256000*%
G04 APERTURE END LIST*
D10*
X167498660Y-107752100D03*
X161052140Y-107752100D03*
X167549460Y-112247900D03*
X161100400Y-112247900D03*
D11*
X137800000Y-96760000D03*
X137800000Y-99300000D03*
D12*
X160210000Y-101520000D03*
D13*
X160210000Y-98980000D03*
X162750000Y-101520000D03*
X162750000Y-98980000D03*
X165290000Y-101520000D03*
X165290000Y-98980000D03*
D14*
X138400000Y-112450000D03*
X139200000Y-112450000D03*
X140000000Y-112450000D03*
X140800000Y-112450000D03*
X141600000Y-112450000D03*
X142400000Y-112450000D03*
X143200000Y-112450000D03*
X144000000Y-112450000D03*
D15*
X145450000Y-111000000D03*
X145450000Y-110200000D03*
X145450000Y-109400000D03*
X145450000Y-108600000D03*
X145450000Y-107800000D03*
X145450000Y-107000000D03*
X145450000Y-106200000D03*
X145450000Y-105400000D03*
D14*
X144000000Y-103950000D03*
X143200000Y-103950000D03*
X142400000Y-103950000D03*
X141600000Y-103950000D03*
X140800000Y-103950000D03*
X140000000Y-103950000D03*
X139200000Y-103950000D03*
X138400000Y-103950000D03*
D15*
X136950000Y-105400000D03*
X136950000Y-106200000D03*
X136950000Y-107000000D03*
X136950000Y-107800000D03*
X136950000Y-108600000D03*
X136950000Y-109400000D03*
X136950000Y-110200000D03*
X136950000Y-111000000D03*
D13*
X149200000Y-113280000D03*
X149200000Y-103120000D03*
D16*
X167750000Y-88500000D03*
D17*
X167750000Y-91040000D03*
D18*
X163000000Y-92000000D03*
D19*
X163000000Y-89460000D03*
X163000000Y-86920000D03*
D20*
X146000000Y-100050000D03*
X146000000Y-97550000D03*
X149000000Y-100050000D03*
X149000000Y-97550000D03*
X143000000Y-100050000D03*
X143000000Y-97550000D03*
D21*
X155200000Y-112150000D03*
X155200000Y-109450000D03*
X152200000Y-109450000D03*
X152200000Y-112150000D03*
X158200000Y-112150000D03*
X158200000Y-109450000D03*
X152200000Y-100150000D03*
X152200000Y-97450000D03*
X152200000Y-106350000D03*
X152200000Y-103650000D03*
D22*
X152250000Y-122750000D03*
D23*
X141000000Y-117750000D03*
X145000000Y-117750000D03*
X149000000Y-117750000D03*
X153000000Y-117750000D03*
D24*
X162350000Y-117750000D03*
D25*
X163620000Y-117750000D03*
D24*
X164890000Y-117750000D03*
X166160000Y-117750000D03*
D21*
X159400000Y-123250000D03*
X159400000Y-120550000D03*
X159400000Y-117650000D03*
X159400000Y-114950000D03*
D26*
X138500000Y-89500000D03*
X138500000Y-86960000D03*
X138500000Y-92040000D03*
D27*
X139781900Y-109253700D03*
X150845800Y-109584500D03*
X149106300Y-105318700D03*
X147052900Y-106148900D03*
X139300000Y-106700000D03*
X143400000Y-107700000D03*
X157700000Y-107700000D03*
D28*
X136950000Y-111000000D02*
X138035600Y-111000000D01*
X138035600Y-111000000D02*
X139781900Y-109253700D01*
X156950000Y-103650000D02*
X161052100Y-107752100D01*
X152200000Y-103650000D02*
X156950000Y-103650000D01*
X149000000Y-97550000D02*
X149450000Y-97550000D01*
X149450000Y-97550000D02*
X150900000Y-96100000D01*
X150900000Y-96100000D02*
X162400000Y-96100000D01*
X162400000Y-96100000D02*
X162500000Y-96000000D01*
D29*
X163387630Y-96000000D02*
X164100000Y-96000000D01*
X164100000Y-96000000D02*
X165290000Y-97190000D01*
X165290000Y-97190000D02*
X165290000Y-98980000D01*
X167750000Y-91040000D02*
X167750000Y-92476840D01*
X167750000Y-92476840D02*
X164226840Y-96000000D01*
X164226840Y-96000000D02*
X163387630Y-96000000D01*
X162500000Y-96000000D02*
X163387630Y-96000000D01*
D28*
X138500000Y-86960000D02*
X137140000Y-86960000D01*
X137140000Y-86960000D02*
X136400000Y-87700000D01*
X136400000Y-87700000D02*
X136400000Y-96760000D01*
X136400000Y-96760000D02*
X136400000Y-99900000D01*
X136400000Y-99900000D02*
X139100000Y-102600000D01*
X139100000Y-102600000D02*
X140500000Y-102600000D01*
X140500000Y-102600000D02*
X140800000Y-102900000D01*
X140800000Y-102900000D02*
X140800000Y-103950000D01*
X167750000Y-91040000D02*
X167750000Y-91450000D01*
X161100400Y-112247900D02*
X167549460Y-112247900D01*
X140800000Y-103950000D02*
X140800000Y-111000000D01*
X141600000Y-112450000D02*
X141600000Y-111200000D01*
X141600000Y-111200000D02*
X141400000Y-111000000D01*
X141400000Y-111000000D02*
X140800000Y-111000000D01*
X140000000Y-111200000D02*
X140000000Y-112450000D01*
X140800000Y-111000000D02*
X140200000Y-111000000D01*
X140200000Y-111000000D02*
X140000000Y-111200000D01*
X137800000Y-96760000D02*
X136400000Y-96760000D01*
X144300000Y-101400000D02*
X141700000Y-101400000D01*
X144500000Y-101200000D02*
X144300000Y-101400000D01*
X144500000Y-97550000D02*
X144500000Y-101200000D01*
X139800000Y-98760000D02*
X137800000Y-96760000D01*
X139800000Y-99500000D02*
X139800000Y-98760000D01*
X141700000Y-101400000D02*
X139800000Y-99500000D01*
X166700000Y-100390000D02*
X165290000Y-98980000D01*
X166700000Y-102868800D02*
X166700000Y-100390000D01*
X165900000Y-103668800D02*
X166700000Y-102868800D01*
X165900000Y-110598400D02*
X165900000Y-103668800D01*
X165900000Y-110598400D02*
X167549500Y-112247900D01*
X149000000Y-97550000D02*
X146000000Y-97550000D01*
X143000000Y-97550000D02*
X144006300Y-97550000D01*
X146000000Y-97550000D02*
X144500000Y-97550000D01*
X144500000Y-97550000D02*
X144006300Y-97550000D01*
X137800000Y-96760000D02*
X137811800Y-96771800D01*
X140800000Y-112450000D02*
X140800000Y-113700000D01*
X140800000Y-113700000D02*
X141000000Y-113900000D01*
X141000000Y-113900000D02*
X142400000Y-113900000D01*
X152200000Y-100150000D02*
X151650000Y-100150000D01*
X151650000Y-100150000D02*
X150300000Y-98800000D01*
X150300000Y-98800000D02*
X147800000Y-98800000D01*
X147800000Y-98800000D02*
X146550000Y-100050000D01*
X146550000Y-100050000D02*
X146000000Y-100050000D01*
X149200000Y-113280000D02*
X147620000Y-113280000D01*
X147000000Y-113900000D02*
X142400000Y-113900000D01*
X147620000Y-113280000D02*
X147000000Y-113900000D01*
X146000000Y-100050000D02*
X146000000Y-101000000D01*
X140500000Y-102000000D02*
X137800000Y-99300000D01*
X145000000Y-102000000D02*
X140500000Y-102000000D01*
X146000000Y-101000000D02*
X145000000Y-102000000D01*
X152200000Y-109450000D02*
X151168700Y-109450000D01*
X151034200Y-109584500D02*
X151168700Y-109450000D01*
X150845800Y-109584500D02*
X151034200Y-109584500D01*
X152200000Y-106350000D02*
X152200000Y-109450000D01*
X155200000Y-109450000D02*
X154168700Y-109450000D01*
X152200000Y-109450000D02*
X154168700Y-109450000D01*
X142400000Y-112450000D02*
X142400000Y-113900000D01*
X159040000Y-100150000D02*
X152200000Y-100150000D01*
X160210000Y-98980000D02*
X159040000Y-100150000D01*
X143200000Y-103950000D02*
X143200000Y-102900000D01*
X143200000Y-102900000D02*
X143500000Y-102600000D01*
X143500000Y-102600000D02*
X148680000Y-102600000D01*
X148680000Y-102600000D02*
X149200000Y-103120000D01*
X149000000Y-100050000D02*
X149000000Y-102768700D01*
X149000000Y-102920000D02*
X149200000Y-103120000D01*
X149000000Y-102768700D02*
X149000000Y-102920000D01*
X140923900Y-95595800D02*
X141169700Y-95350000D01*
X141169700Y-95350000D02*
X159550000Y-95350000D01*
X159550000Y-95350000D02*
X162900000Y-92000000D01*
X162900000Y-92000000D02*
X163000000Y-92000000D01*
X143000000Y-100050000D02*
X142450000Y-100050000D01*
X142450000Y-100050000D02*
X140923900Y-98523900D01*
X140923900Y-98523900D02*
X140923900Y-95595800D01*
X138500000Y-92040000D02*
X138500000Y-93171900D01*
X138500000Y-93171900D02*
X140923900Y-95595800D01*
X145450000Y-105400000D02*
X145531300Y-105318700D01*
X145531300Y-105318700D02*
X146712600Y-105318700D01*
X146712600Y-105318700D02*
X149106300Y-105318700D01*
X162750000Y-101520000D02*
X161370000Y-102900000D01*
X161370000Y-102900000D02*
X156919000Y-102900000D01*
X156919000Y-102900000D02*
X156319000Y-102300000D01*
X150700000Y-103600000D02*
X149900000Y-104400000D01*
X156319000Y-102300000D02*
X151300000Y-102300000D01*
X151300000Y-102300000D02*
X150700000Y-102900000D01*
X150700000Y-102900000D02*
X150700000Y-103600000D01*
X149900000Y-104400000D02*
X144000000Y-104400000D01*
X144000000Y-104400000D02*
X144000000Y-103950000D01*
X147001800Y-106200000D02*
X147052900Y-106148900D01*
X145450000Y-106200000D02*
X147001800Y-106200000D01*
D29*
X164020000Y-100250000D02*
X164020000Y-98220000D01*
X164020000Y-98220000D02*
X163250000Y-97450000D01*
X163250000Y-97450000D02*
X153100000Y-97450000D01*
X153100000Y-97450000D02*
X152200000Y-97450000D01*
D28*
X139300000Y-107265685D02*
X139300000Y-106700000D01*
X139300000Y-107304000D02*
X139300000Y-107265685D01*
X138004000Y-108600000D02*
X139300000Y-107304000D01*
X136950000Y-108600000D02*
X138004000Y-108600000D01*
X164020000Y-100250000D02*
X165290000Y-101520000D01*
D29*
X166160000Y-117750000D02*
X166160000Y-116550000D01*
X166160000Y-116550000D02*
X165710000Y-116100000D01*
X165710000Y-116100000D02*
X162800000Y-116100000D01*
D28*
X162800000Y-116100000D02*
X160200000Y-113500000D01*
X160200000Y-113500000D02*
X159500000Y-113500000D01*
X159500000Y-113500000D02*
X158250000Y-112250000D01*
X158250000Y-112250000D02*
X158250000Y-112100000D01*
X158250000Y-112100000D02*
X158200000Y-112150000D01*
X158200000Y-109450000D02*
X158200000Y-108200000D01*
X144300000Y-108600000D02*
X145450000Y-108600000D01*
X143400000Y-107700000D02*
X144300000Y-108600000D01*
X158200000Y-108200000D02*
X157700000Y-107700000D01*
X141000000Y-117750000D02*
X142750000Y-119500000D01*
X142750000Y-119500000D02*
X145900000Y-119500000D01*
X145900000Y-119500000D02*
X147000000Y-118400000D01*
X147000000Y-118400000D02*
X147000000Y-117100000D01*
X147000000Y-117100000D02*
X148681300Y-115418700D01*
X148681300Y-115418700D02*
X151481300Y-115418700D01*
X151481300Y-115418700D02*
X154750000Y-112150000D01*
X154750000Y-112150000D02*
X155200000Y-112150000D01*
X140875000Y-117875000D02*
X135000000Y-112000000D01*
X135400000Y-107000000D02*
X135000000Y-107400000D01*
X135000000Y-107400000D02*
X135000000Y-112000000D01*
X135400000Y-107000000D02*
X136950000Y-107000000D01*
X136950000Y-107800000D02*
X135800000Y-107800000D01*
X135800000Y-107800000D02*
X135600000Y-108000000D01*
X135600000Y-108000000D02*
X135600000Y-111500000D01*
X135600000Y-111500000D02*
X140000000Y-115900000D01*
X140000000Y-115900000D02*
X143150000Y-115900000D01*
X143150000Y-115900000D02*
X145000000Y-117750000D01*
X152450000Y-112250000D02*
X149900000Y-114800000D01*
X152200000Y-112150000D02*
X152150000Y-112150000D01*
X147950000Y-114800000D02*
X149900000Y-114800000D01*
X145000000Y-117750000D02*
X147950000Y-114800000D01*
X159400000Y-123250000D02*
X161150000Y-123250000D01*
X164890000Y-119510000D02*
X164890000Y-117750000D01*
X161150000Y-123250000D02*
X164890000Y-119510000D01*
X159400000Y-117650000D02*
X162250000Y-117650000D01*
X162250000Y-117650000D02*
X162350000Y-117750000D01*
X147804600Y-107800000D02*
X145450000Y-107800000D01*
X150838800Y-110834200D02*
X147804600Y-107800000D01*
X156034200Y-110834200D02*
X150838800Y-110834200D01*
X156413300Y-111213300D02*
X156034200Y-110834200D01*
X156413300Y-118594600D02*
X156413300Y-111213300D01*
X158368700Y-120550000D02*
X156413300Y-118594600D01*
X159400000Y-120550000D02*
X158368700Y-120550000D01*
X149331100Y-107000000D02*
X145450000Y-107000000D01*
X151331100Y-105000000D02*
X149331100Y-107000000D01*
X153000000Y-105000000D02*
X151331100Y-105000000D01*
X157000000Y-109000000D02*
X153000000Y-105000000D01*
X157000000Y-113581300D02*
X157000000Y-109000000D01*
X158368700Y-114950000D02*
X157000000Y-113581300D01*
X159400000Y-114950000D02*
X158368700Y-114950000D01*
D30*
G36*
X157870002Y-84345364D02*
X158033460Y-84394947D01*
X158184116Y-84475475D01*
X158316160Y-84583840D01*
X158424525Y-84715884D01*
X158505053Y-84866540D01*
X158554636Y-85029998D01*
X158572000Y-85206292D01*
X158572000Y-93993708D01*
X158558480Y-94130979D01*
X158520274Y-94256928D01*
X158458233Y-94372999D01*
X158374737Y-94474737D01*
X158272999Y-94558233D01*
X158219180Y-94587000D01*
X142832766Y-94587000D01*
X142715884Y-94524525D01*
X142583840Y-94416160D01*
X142475475Y-94284116D01*
X142394947Y-94133460D01*
X142345364Y-93970002D01*
X142328000Y-93793708D01*
X142328000Y-89525983D01*
X152715944Y-89525983D01*
X152726063Y-89618990D01*
X152724747Y-89713227D01*
X152753156Y-89868017D01*
X152769973Y-90022585D01*
X152797712Y-90110781D01*
X152814523Y-90202376D01*
X152872869Y-90349743D01*
X152919846Y-90499104D01*
X152966745Y-90586847D01*
X152997598Y-90664772D01*
X153060897Y-90762993D01*
X153130932Y-90894020D01*
X153153735Y-90907050D01*
X153267000Y-91082803D01*
X153612467Y-91440544D01*
X153857138Y-91610595D01*
X153869980Y-91633068D01*
X153948045Y-91673777D01*
X154020841Y-91724371D01*
X154170211Y-91789629D01*
X154312907Y-91864041D01*
X154396347Y-91888426D01*
X154476566Y-91923473D01*
X154636873Y-91958719D01*
X154792383Y-92004166D01*
X154877877Y-92011707D01*
X154962284Y-92030265D01*
X155127519Y-92033726D01*
X155289983Y-92048056D01*
X155374201Y-92038893D01*
X155459495Y-92040680D01*
X155623369Y-92011784D01*
X155786585Y-91994027D01*
X155866346Y-91968941D01*
X155949259Y-91954321D01*
X156105447Y-91893740D01*
X156263104Y-91844154D01*
X156341977Y-91801996D01*
X156412922Y-91774478D01*
X156516836Y-91708532D01*
X156658020Y-91633068D01*
X156670692Y-91610892D01*
X156832822Y-91508001D01*
X157192967Y-91165040D01*
X157375427Y-90906386D01*
X157397068Y-90894020D01*
X157433686Y-90823799D01*
X157479638Y-90758658D01*
X157549615Y-90601488D01*
X157628041Y-90451093D01*
X157649945Y-90376141D01*
X157681916Y-90304334D01*
X157720283Y-90135461D01*
X157768166Y-89971617D01*
X157774930Y-89894935D01*
X157792097Y-89819373D01*
X157794072Y-89677904D01*
X157812056Y-89474017D01*
X157798641Y-89350717D01*
X157800029Y-89251340D01*
X157772951Y-89114586D01*
X157758027Y-88977415D01*
X157724994Y-88872386D01*
X157703432Y-88763492D01*
X157649883Y-88633572D01*
X157608154Y-88500896D01*
X157551546Y-88394990D01*
X157513918Y-88303697D01*
X157456789Y-88217711D01*
X157397068Y-88105980D01*
X157373674Y-88092612D01*
X157238706Y-87889469D01*
X156888277Y-87536586D01*
X156671356Y-87390271D01*
X156658020Y-87366932D01*
X156564298Y-87318059D01*
X156475981Y-87258488D01*
X156342302Y-87202294D01*
X156215093Y-87135959D01*
X156114699Y-87106619D01*
X156017520Y-87065769D01*
X155874376Y-87036386D01*
X155735617Y-86995834D01*
X155632526Y-86986741D01*
X155530358Y-86965769D01*
X155383101Y-86964741D01*
X155238017Y-86951944D01*
X155136237Y-86963017D01*
X155033051Y-86962297D01*
X154887295Y-86990102D01*
X154741415Y-87005973D01*
X154644798Y-87036361D01*
X154544540Y-87055486D01*
X154405925Y-87111490D01*
X154264896Y-87155846D01*
X154168151Y-87207557D01*
X154083434Y-87241785D01*
X153991219Y-87302129D01*
X153869980Y-87366932D01*
X153856716Y-87390145D01*
X153667294Y-87514099D01*
X153311973Y-87862055D01*
X153153967Y-88092818D01*
X153130932Y-88105980D01*
X153086140Y-88191876D01*
X153031004Y-88272400D01*
X152970338Y-88413943D01*
X152899959Y-88548907D01*
X152873095Y-88640829D01*
X152835089Y-88729504D01*
X152802839Y-88881231D01*
X152759834Y-89028383D01*
X152751516Y-89122685D01*
X152731691Y-89215956D01*
X152729509Y-89372187D01*
X152715944Y-89525983D01*
X142328000Y-89525983D01*
X142328000Y-85206292D01*
X142345364Y-85029998D01*
X142394947Y-84866540D01*
X142475475Y-84715884D01*
X142583840Y-84583840D01*
X142715884Y-84475475D01*
X142866540Y-84394947D01*
X143029998Y-84345364D01*
X143206292Y-84328000D01*
X157693708Y-84328000D01*
X157870002Y-84345364D01*
X157870002Y-84345364D01*
G37*
X157870002Y-84345364D02*
X158033460Y-84394947D01*
X158184116Y-84475475D01*
X158316160Y-84583840D01*
X158424525Y-84715884D01*
X158505053Y-84866540D01*
X158554636Y-85029998D01*
X158572000Y-85206292D01*
X158572000Y-93993708D01*
X158558480Y-94130979D01*
X158520274Y-94256928D01*
X158458233Y-94372999D01*
X158374737Y-94474737D01*
X158272999Y-94558233D01*
X158219180Y-94587000D01*
X142832766Y-94587000D01*
X142715884Y-94524525D01*
X142583840Y-94416160D01*
X142475475Y-94284116D01*
X142394947Y-94133460D01*
X142345364Y-93970002D01*
X142328000Y-93793708D01*
X142328000Y-89525983D01*
X152715944Y-89525983D01*
X152726063Y-89618990D01*
X152724747Y-89713227D01*
X152753156Y-89868017D01*
X152769973Y-90022585D01*
X152797712Y-90110781D01*
X152814523Y-90202376D01*
X152872869Y-90349743D01*
X152919846Y-90499104D01*
X152966745Y-90586847D01*
X152997598Y-90664772D01*
X153060897Y-90762993D01*
X153130932Y-90894020D01*
X153153735Y-90907050D01*
X153267000Y-91082803D01*
X153612467Y-91440544D01*
X153857138Y-91610595D01*
X153869980Y-91633068D01*
X153948045Y-91673777D01*
X154020841Y-91724371D01*
X154170211Y-91789629D01*
X154312907Y-91864041D01*
X154396347Y-91888426D01*
X154476566Y-91923473D01*
X154636873Y-91958719D01*
X154792383Y-92004166D01*
X154877877Y-92011707D01*
X154962284Y-92030265D01*
X155127519Y-92033726D01*
X155289983Y-92048056D01*
X155374201Y-92038893D01*
X155459495Y-92040680D01*
X155623369Y-92011784D01*
X155786585Y-91994027D01*
X155866346Y-91968941D01*
X155949259Y-91954321D01*
X156105447Y-91893740D01*
X156263104Y-91844154D01*
X156341977Y-91801996D01*
X156412922Y-91774478D01*
X156516836Y-91708532D01*
X156658020Y-91633068D01*
X156670692Y-91610892D01*
X156832822Y-91508001D01*
X157192967Y-91165040D01*
X157375427Y-90906386D01*
X157397068Y-90894020D01*
X157433686Y-90823799D01*
X157479638Y-90758658D01*
X157549615Y-90601488D01*
X157628041Y-90451093D01*
X157649945Y-90376141D01*
X157681916Y-90304334D01*
X157720283Y-90135461D01*
X157768166Y-89971617D01*
X157774930Y-89894935D01*
X157792097Y-89819373D01*
X157794072Y-89677904D01*
X157812056Y-89474017D01*
X157798641Y-89350717D01*
X157800029Y-89251340D01*
X157772951Y-89114586D01*
X157758027Y-88977415D01*
X157724994Y-88872386D01*
X157703432Y-88763492D01*
X157649883Y-88633572D01*
X157608154Y-88500896D01*
X157551546Y-88394990D01*
X157513918Y-88303697D01*
X157456789Y-88217711D01*
X157397068Y-88105980D01*
X157373674Y-88092612D01*
X157238706Y-87889469D01*
X156888277Y-87536586D01*
X156671356Y-87390271D01*
X156658020Y-87366932D01*
X156564298Y-87318059D01*
X156475981Y-87258488D01*
X156342302Y-87202294D01*
X156215093Y-87135959D01*
X156114699Y-87106619D01*
X156017520Y-87065769D01*
X155874376Y-87036386D01*
X155735617Y-86995834D01*
X155632526Y-86986741D01*
X155530358Y-86965769D01*
X155383101Y-86964741D01*
X155238017Y-86951944D01*
X155136237Y-86963017D01*
X155033051Y-86962297D01*
X154887295Y-86990102D01*
X154741415Y-87005973D01*
X154644798Y-87036361D01*
X154544540Y-87055486D01*
X154405925Y-87111490D01*
X154264896Y-87155846D01*
X154168151Y-87207557D01*
X154083434Y-87241785D01*
X153991219Y-87302129D01*
X153869980Y-87366932D01*
X153856716Y-87390145D01*
X153667294Y-87514099D01*
X153311973Y-87862055D01*
X153153967Y-88092818D01*
X153130932Y-88105980D01*
X153086140Y-88191876D01*
X153031004Y-88272400D01*
X152970338Y-88413943D01*
X152899959Y-88548907D01*
X152873095Y-88640829D01*
X152835089Y-88729504D01*
X152802839Y-88881231D01*
X152759834Y-89028383D01*
X152751516Y-89122685D01*
X152731691Y-89215956D01*
X152729509Y-89372187D01*
X152715944Y-89525983D01*
X142328000Y-89525983D01*
X142328000Y-85206292D01*
X142345364Y-85029998D01*
X142394947Y-84866540D01*
X142475475Y-84715884D01*
X142583840Y-84583840D01*
X142715884Y-84475475D01*
X142866540Y-84394947D01*
X143029998Y-84345364D01*
X143206292Y-84328000D01*
X157693708Y-84328000D01*
X157870002Y-84345364D01*
G36*
X141454636Y-84329998D02*
X141472000Y-84506292D01*
X141472000Y-94400000D01*
X141472616Y-94412546D01*
X141489798Y-94587000D01*
X141169700Y-94587000D01*
X141099596Y-94593874D01*
X141029345Y-94600020D01*
X141025492Y-94601140D01*
X141021499Y-94601531D01*
X141011650Y-94604505D01*
X139662277Y-93255132D01*
X139775550Y-93194904D01*
X139985259Y-93023869D01*
X140157753Y-92815360D01*
X140286462Y-92577317D01*
X140366484Y-92318809D01*
X140394770Y-92049680D01*
X140370244Y-91780183D01*
X140293839Y-91520582D01*
X140168466Y-91280765D01*
X139998900Y-91069868D01*
X139791600Y-90895922D01*
X139560846Y-90769064D01*
X139775550Y-90654904D01*
X139985259Y-90483869D01*
X140157753Y-90275360D01*
X140286462Y-90037317D01*
X140366484Y-89778809D01*
X140394770Y-89509680D01*
X140370244Y-89240183D01*
X140293839Y-88980582D01*
X140168466Y-88740765D01*
X139998900Y-88529868D01*
X139791600Y-88355922D01*
X139559084Y-88228096D01*
X139646136Y-88192806D01*
X139874212Y-88042889D01*
X140068658Y-87851358D01*
X140222002Y-87625572D01*
X140328351Y-87374209D01*
X140343232Y-87300459D01*
X140220196Y-87086000D01*
X138626000Y-87086000D01*
X138626000Y-87106000D01*
X138374000Y-87106000D01*
X138374000Y-87086000D01*
X136779804Y-87086000D01*
X136656768Y-87300459D01*
X136671649Y-87374209D01*
X136777998Y-87625572D01*
X136931342Y-87851358D01*
X137125788Y-88042889D01*
X137353864Y-88192806D01*
X137442947Y-88228919D01*
X137224450Y-88345096D01*
X137014741Y-88516131D01*
X136842247Y-88724640D01*
X136713538Y-88962683D01*
X136633516Y-89221191D01*
X136605230Y-89490320D01*
X136629756Y-89759817D01*
X136706161Y-90019418D01*
X136831534Y-90259235D01*
X137001100Y-90470132D01*
X137208400Y-90644078D01*
X137439154Y-90770936D01*
X137224450Y-90885096D01*
X137014741Y-91056131D01*
X136842247Y-91264640D01*
X136713538Y-91502683D01*
X136633516Y-91761191D01*
X136605230Y-92030320D01*
X136629756Y-92299817D01*
X136706161Y-92559418D01*
X136831534Y-92799235D01*
X137001100Y-93010132D01*
X137208400Y-93184078D01*
X137445538Y-93314445D01*
X137703482Y-93396270D01*
X137776819Y-93404496D01*
X137791565Y-93455253D01*
X137793411Y-93458814D01*
X137794571Y-93462657D01*
X137827663Y-93524894D01*
X137860094Y-93587460D01*
X137862598Y-93590597D01*
X137864481Y-93594138D01*
X137909004Y-93648728D01*
X137952997Y-93703837D01*
X137958503Y-93709420D01*
X137958598Y-93709536D01*
X137958706Y-93709625D01*
X137960478Y-93711422D01*
X140160900Y-95911845D01*
X140160900Y-98523900D01*
X140167778Y-98594044D01*
X140173920Y-98664255D01*
X140175040Y-98668108D01*
X140175431Y-98672101D01*
X140195805Y-98739584D01*
X140215465Y-98807253D01*
X140217311Y-98810814D01*
X140218471Y-98814657D01*
X140251563Y-98876894D01*
X140283994Y-98939460D01*
X140286498Y-98942597D01*
X140288381Y-98946138D01*
X140332904Y-99000728D01*
X140376897Y-99055837D01*
X140382403Y-99061420D01*
X140382498Y-99061536D01*
X140382606Y-99061625D01*
X140384378Y-99063422D01*
X141735923Y-100414968D01*
X141735923Y-100800000D01*
X141748203Y-100924678D01*
X141784570Y-101044564D01*
X141843627Y-101155052D01*
X141910879Y-101237000D01*
X140816045Y-101237000D01*
X139158480Y-99579436D01*
X139182293Y-99474624D01*
X139186629Y-99164040D01*
X139133813Y-98897298D01*
X139030192Y-98645895D01*
X138879714Y-98419407D01*
X138688109Y-98226460D01*
X138462677Y-98074404D01*
X138361042Y-98031681D01*
X138398473Y-98018195D01*
X138513657Y-97956629D01*
X138579112Y-97717303D01*
X137800000Y-96938191D01*
X137020888Y-97717303D01*
X137086343Y-97956629D01*
X137242101Y-98029878D01*
X137154499Y-98065271D01*
X136926966Y-98214165D01*
X136732686Y-98404418D01*
X136579060Y-98628783D01*
X136471939Y-98878714D01*
X136415404Y-99144693D01*
X136411607Y-99416587D01*
X136460694Y-99684040D01*
X136560795Y-99936865D01*
X136708096Y-100165432D01*
X136896988Y-100361035D01*
X137120275Y-100516224D01*
X137369453Y-100625087D01*
X137635030Y-100683478D01*
X137906891Y-100689173D01*
X138079664Y-100658708D01*
X139931878Y-102510923D01*
X139725000Y-102510923D01*
X139600322Y-102523203D01*
X139600000Y-102523301D01*
X139599678Y-102523203D01*
X139475000Y-102510923D01*
X138925000Y-102510923D01*
X138800322Y-102523203D01*
X138800000Y-102523301D01*
X138799678Y-102523203D01*
X138675000Y-102510923D01*
X138125000Y-102510923D01*
X138000322Y-102523203D01*
X137880436Y-102559570D01*
X137769948Y-102618627D01*
X137673104Y-102698104D01*
X137593627Y-102794948D01*
X137534570Y-102905436D01*
X137498203Y-103025322D01*
X137485923Y-103150000D01*
X137485923Y-104485923D01*
X136150000Y-104485923D01*
X136025322Y-104498203D01*
X135905436Y-104534570D01*
X135794948Y-104593627D01*
X135698104Y-104673104D01*
X135618627Y-104769948D01*
X135559570Y-104880436D01*
X135523203Y-105000322D01*
X135510923Y-105125000D01*
X135510923Y-105675000D01*
X135523203Y-105799678D01*
X135523301Y-105800000D01*
X135523203Y-105800322D01*
X135510923Y-105925000D01*
X135510923Y-106237000D01*
X135400000Y-106237000D01*
X135329856Y-106243878D01*
X135259645Y-106250020D01*
X135255792Y-106251140D01*
X135251799Y-106251531D01*
X135184283Y-106271915D01*
X135116646Y-106291566D01*
X135113089Y-106293410D01*
X135109243Y-106294571D01*
X135046989Y-106327672D01*
X134984440Y-106360094D01*
X134981303Y-106362598D01*
X134977762Y-106364481D01*
X134923196Y-106408984D01*
X134868062Y-106452997D01*
X134862475Y-106458508D01*
X134862364Y-106458598D01*
X134862279Y-106458701D01*
X134860477Y-106460478D01*
X134460478Y-106860478D01*
X134415776Y-106914899D01*
X134370438Y-106968930D01*
X134368504Y-106972447D01*
X134365959Y-106975546D01*
X134332651Y-107037665D01*
X134298700Y-107099422D01*
X134297488Y-107103244D01*
X134295590Y-107106783D01*
X134274983Y-107174186D01*
X134253673Y-107241363D01*
X134253225Y-107245353D01*
X134252053Y-107249188D01*
X134244936Y-107319254D01*
X134237074Y-107389347D01*
X134237019Y-107397194D01*
X134237005Y-107397337D01*
X134237018Y-107397470D01*
X134237000Y-107400000D01*
X134237000Y-112000000D01*
X134243878Y-112070144D01*
X134250020Y-112140355D01*
X134251140Y-112144208D01*
X134251531Y-112148201D01*
X134271905Y-112215684D01*
X134291565Y-112283353D01*
X134293411Y-112286914D01*
X134294571Y-112290757D01*
X134327663Y-112352994D01*
X134360094Y-112415560D01*
X134362598Y-112418697D01*
X134364481Y-112422238D01*
X134409004Y-112476828D01*
X134452997Y-112531937D01*
X134458503Y-112537520D01*
X134458598Y-112537636D01*
X134458706Y-112537725D01*
X134460478Y-112539522D01*
X139303290Y-117382335D01*
X139266471Y-117555554D01*
X139261718Y-117895968D01*
X139323175Y-118230822D01*
X139448502Y-118547362D01*
X139632925Y-118833530D01*
X139869420Y-119078427D01*
X140148978Y-119272725D01*
X140460951Y-119409023D01*
X140793456Y-119482129D01*
X141133829Y-119489259D01*
X141469104Y-119430141D01*
X141564208Y-119393253D01*
X142210478Y-120039523D01*
X142264934Y-120084253D01*
X142318930Y-120129562D01*
X142322446Y-120131495D01*
X142325547Y-120134042D01*
X142387683Y-120167359D01*
X142449422Y-120201300D01*
X142453244Y-120202512D01*
X142456783Y-120204410D01*
X142524186Y-120225017D01*
X142591363Y-120246327D01*
X142595353Y-120246775D01*
X142599188Y-120247947D01*
X142669254Y-120255064D01*
X142739347Y-120262926D01*
X142747194Y-120262981D01*
X142747337Y-120262995D01*
X142747470Y-120262982D01*
X142750000Y-120263000D01*
X145900000Y-120263000D01*
X145970144Y-120256122D01*
X146040355Y-120249980D01*
X146044208Y-120248860D01*
X146048201Y-120248469D01*
X146115684Y-120228095D01*
X146183353Y-120208435D01*
X146186914Y-120206589D01*
X146190757Y-120205429D01*
X146252994Y-120172337D01*
X146315560Y-120139906D01*
X146318697Y-120137402D01*
X146322238Y-120135519D01*
X146376828Y-120090996D01*
X146431937Y-120047003D01*
X146437520Y-120041497D01*
X146437636Y-120041402D01*
X146437725Y-120041294D01*
X146439522Y-120039522D01*
X147539523Y-118939522D01*
X147584249Y-118885071D01*
X147629562Y-118831070D01*
X147630380Y-118829581D01*
X147632925Y-118833530D01*
X147869420Y-119078427D01*
X148148978Y-119272725D01*
X148460951Y-119409023D01*
X148793456Y-119482129D01*
X149133829Y-119489259D01*
X149469104Y-119430141D01*
X149786511Y-119307027D01*
X150073960Y-119124606D01*
X150250387Y-118956596D01*
X151971595Y-118956596D01*
X152079282Y-119231623D01*
X152386023Y-119382777D01*
X152716360Y-119471185D01*
X153057597Y-119493448D01*
X153396620Y-119448712D01*
X153720401Y-119338694D01*
X153920718Y-119231623D01*
X154028405Y-118956596D01*
X153000000Y-117928191D01*
X151971595Y-118956596D01*
X150250387Y-118956596D01*
X150320502Y-118889827D01*
X150516747Y-118611632D01*
X150655219Y-118300618D01*
X150730645Y-117968631D01*
X150732893Y-117807597D01*
X151256552Y-117807597D01*
X151301288Y-118146620D01*
X151411306Y-118470401D01*
X151518377Y-118670718D01*
X151793404Y-118778405D01*
X152821809Y-117750000D01*
X153178191Y-117750000D01*
X154206596Y-118778405D01*
X154481623Y-118670718D01*
X154632777Y-118363977D01*
X154721185Y-118033640D01*
X154743448Y-117692403D01*
X154698712Y-117353380D01*
X154588694Y-117029599D01*
X154481623Y-116829282D01*
X154206596Y-116721595D01*
X153178191Y-117750000D01*
X152821809Y-117750000D01*
X151793404Y-116721595D01*
X151518377Y-116829282D01*
X151367223Y-117136023D01*
X151278815Y-117466360D01*
X151256552Y-117807597D01*
X150732893Y-117807597D01*
X150736075Y-117579776D01*
X150669948Y-117245813D01*
X150540214Y-116931054D01*
X150351813Y-116647488D01*
X150248453Y-116543404D01*
X151971595Y-116543404D01*
X153000000Y-117571809D01*
X154028405Y-116543404D01*
X153920718Y-116268377D01*
X153613977Y-116117223D01*
X153283640Y-116028815D01*
X152942403Y-116006552D01*
X152603380Y-116051288D01*
X152279599Y-116161306D01*
X152079282Y-116268377D01*
X151971595Y-116543404D01*
X150248453Y-116543404D01*
X150111922Y-116405917D01*
X149829679Y-116215541D01*
X149749175Y-116181700D01*
X151481300Y-116181700D01*
X151551444Y-116174822D01*
X151621655Y-116168680D01*
X151625508Y-116167560D01*
X151629501Y-116167169D01*
X151696984Y-116146795D01*
X151764653Y-116127135D01*
X151768214Y-116125289D01*
X151772057Y-116124129D01*
X151834294Y-116091037D01*
X151896860Y-116058606D01*
X151899997Y-116056102D01*
X151903538Y-116054219D01*
X151958128Y-116009696D01*
X152013237Y-115965703D01*
X152018820Y-115960197D01*
X152018936Y-115960102D01*
X152019025Y-115959994D01*
X152020822Y-115958222D01*
X154449834Y-113529211D01*
X154550000Y-113539077D01*
X155650300Y-113539077D01*
X155650300Y-118594600D01*
X155657178Y-118664744D01*
X155663320Y-118734955D01*
X155664440Y-118738808D01*
X155664831Y-118742801D01*
X155685205Y-118810284D01*
X155704865Y-118877953D01*
X155706711Y-118881514D01*
X155707871Y-118885357D01*
X155740963Y-118947594D01*
X155773394Y-119010160D01*
X155775898Y-119013297D01*
X155777781Y-119016838D01*
X155822304Y-119071428D01*
X155866297Y-119126537D01*
X155871803Y-119132120D01*
X155871898Y-119132236D01*
X155872006Y-119132325D01*
X155873778Y-119134122D01*
X157829177Y-121089522D01*
X157883623Y-121134245D01*
X157937630Y-121179562D01*
X157941147Y-121181496D01*
X157944246Y-121184041D01*
X158006384Y-121217359D01*
X158068122Y-121251300D01*
X158071942Y-121252512D01*
X158075482Y-121254410D01*
X158110923Y-121265245D01*
X158110923Y-121300000D01*
X158123203Y-121424678D01*
X158159570Y-121544564D01*
X158218627Y-121655052D01*
X158298104Y-121751896D01*
X158394948Y-121831373D01*
X158505436Y-121890430D01*
X158536984Y-121900000D01*
X158505436Y-121909570D01*
X158394948Y-121968627D01*
X158298104Y-122048104D01*
X158218627Y-122144948D01*
X158159570Y-122255436D01*
X158123203Y-122375322D01*
X158110923Y-122500000D01*
X158110923Y-124000000D01*
X158123203Y-124124678D01*
X158159570Y-124244564D01*
X158218627Y-124355052D01*
X158298104Y-124451896D01*
X158394948Y-124531373D01*
X158505436Y-124590430D01*
X158625322Y-124626797D01*
X158750000Y-124639077D01*
X160050000Y-124639077D01*
X160174678Y-124626797D01*
X160294564Y-124590430D01*
X160405052Y-124531373D01*
X160501896Y-124451896D01*
X160581373Y-124355052D01*
X160640430Y-124244564D01*
X160676797Y-124124678D01*
X160687797Y-124013000D01*
X161150000Y-124013000D01*
X161220144Y-124006122D01*
X161290355Y-123999980D01*
X161294208Y-123998860D01*
X161298201Y-123998469D01*
X161365684Y-123978095D01*
X161433353Y-123958435D01*
X161436914Y-123956589D01*
X161440757Y-123955429D01*
X161502994Y-123922337D01*
X161565560Y-123889906D01*
X161568697Y-123887402D01*
X161572238Y-123885519D01*
X161626828Y-123840996D01*
X161681937Y-123797003D01*
X161687520Y-123791497D01*
X161687636Y-123791402D01*
X161687725Y-123791294D01*
X161689522Y-123789522D01*
X165429523Y-120049522D01*
X165474253Y-119995066D01*
X165519562Y-119941070D01*
X165521495Y-119937554D01*
X165524042Y-119934453D01*
X165557359Y-119872317D01*
X165591300Y-119810578D01*
X165592512Y-119806756D01*
X165594410Y-119803217D01*
X165615017Y-119735814D01*
X165636327Y-119668637D01*
X165636775Y-119664647D01*
X165637947Y-119660812D01*
X165645064Y-119590746D01*
X165652926Y-119520653D01*
X165652981Y-119512806D01*
X165652995Y-119512663D01*
X165652982Y-119512530D01*
X165653000Y-119510000D01*
X165653000Y-119218802D01*
X165719782Y-119254911D01*
X165931575Y-119320471D01*
X166152069Y-119343646D01*
X166372865Y-119323552D01*
X166585553Y-119260955D01*
X166782032Y-119158238D01*
X166954818Y-119019315D01*
X167097329Y-118849477D01*
X167204138Y-118655192D01*
X167271176Y-118443862D01*
X167295889Y-118223535D01*
X167296000Y-118207674D01*
X167296000Y-117292326D01*
X167274365Y-117071676D01*
X167210284Y-116859430D01*
X167106199Y-116663673D01*
X166966072Y-116491862D01*
X166911204Y-116446471D01*
X166908014Y-116410013D01*
X166906897Y-116406170D01*
X166906507Y-116402188D01*
X166886189Y-116334890D01*
X166866578Y-116267389D01*
X166864737Y-116263838D01*
X166863580Y-116260005D01*
X166830561Y-116197906D01*
X166798228Y-116135530D01*
X166795733Y-116132404D01*
X166793853Y-116128869D01*
X166749422Y-116074391D01*
X166705569Y-116019457D01*
X166700078Y-116013889D01*
X166699983Y-116013773D01*
X166699875Y-116013684D01*
X166698108Y-116011892D01*
X166248108Y-115561892D01*
X166193811Y-115517291D01*
X166139940Y-115472089D01*
X166136434Y-115470161D01*
X166133341Y-115467621D01*
X166071349Y-115434381D01*
X166009790Y-115400538D01*
X166005980Y-115399329D01*
X166002449Y-115397436D01*
X165935184Y-115376872D01*
X165868221Y-115355630D01*
X165864244Y-115355184D01*
X165860417Y-115354014D01*
X165790514Y-115346913D01*
X165720625Y-115339074D01*
X165712799Y-115339019D01*
X165712656Y-115339005D01*
X165712523Y-115339018D01*
X165710000Y-115339000D01*
X163118045Y-115339000D01*
X161551761Y-113772716D01*
X161769355Y-113697144D01*
X161933751Y-113609273D01*
X162023635Y-113349326D01*
X166626225Y-113349326D01*
X166716109Y-113609273D01*
X166997712Y-113745693D01*
X167300519Y-113824554D01*
X167612892Y-113842825D01*
X167922828Y-113799804D01*
X168218415Y-113697144D01*
X168382811Y-113609273D01*
X168472695Y-113349326D01*
X167549460Y-112426091D01*
X166626225Y-113349326D01*
X162023635Y-113349326D01*
X161100400Y-112426091D01*
X161086258Y-112440233D01*
X160908067Y-112262042D01*
X160922209Y-112247900D01*
X161278591Y-112247900D01*
X162201826Y-113171135D01*
X162461773Y-113081251D01*
X162598193Y-112799648D01*
X162677054Y-112496841D01*
X162687904Y-112311332D01*
X165954535Y-112311332D01*
X165997556Y-112621268D01*
X166100216Y-112916855D01*
X166188087Y-113081251D01*
X166448034Y-113171135D01*
X167371269Y-112247900D01*
X167727651Y-112247900D01*
X168650886Y-113171135D01*
X168910833Y-113081251D01*
X169047253Y-112799648D01*
X169126114Y-112496841D01*
X169144385Y-112184468D01*
X169101364Y-111874532D01*
X168998704Y-111578945D01*
X168910833Y-111414549D01*
X168650886Y-111324665D01*
X167727651Y-112247900D01*
X167371269Y-112247900D01*
X166448034Y-111324665D01*
X166188087Y-111414549D01*
X166051667Y-111696152D01*
X165972806Y-111998959D01*
X165954535Y-112311332D01*
X162687904Y-112311332D01*
X162695325Y-112184468D01*
X162652304Y-111874532D01*
X162549644Y-111578945D01*
X162461773Y-111414549D01*
X162201826Y-111324665D01*
X161278591Y-112247900D01*
X160922209Y-112247900D01*
X159998974Y-111324665D01*
X159739027Y-111414549D01*
X159602607Y-111696152D01*
X159523746Y-111998959D01*
X159505475Y-112311332D01*
X159524026Y-112444982D01*
X159489077Y-112410032D01*
X159489077Y-111400000D01*
X159476797Y-111275322D01*
X159440430Y-111155436D01*
X159435640Y-111146474D01*
X160177165Y-111146474D01*
X161100400Y-112069709D01*
X162023635Y-111146474D01*
X166626225Y-111146474D01*
X167549460Y-112069709D01*
X168472695Y-111146474D01*
X168382811Y-110886527D01*
X168101208Y-110750107D01*
X167798401Y-110671246D01*
X167486028Y-110652975D01*
X167176092Y-110695996D01*
X166880505Y-110798656D01*
X166716109Y-110886527D01*
X166626225Y-111146474D01*
X162023635Y-111146474D01*
X161933751Y-110886527D01*
X161652148Y-110750107D01*
X161349341Y-110671246D01*
X161036968Y-110652975D01*
X160727032Y-110695996D01*
X160431445Y-110798656D01*
X160267049Y-110886527D01*
X160177165Y-111146474D01*
X159435640Y-111146474D01*
X159381373Y-111044948D01*
X159301896Y-110948104D01*
X159205052Y-110868627D01*
X159094564Y-110809570D01*
X159063016Y-110800000D01*
X159094564Y-110790430D01*
X159205052Y-110731373D01*
X159301896Y-110651896D01*
X159381373Y-110555052D01*
X159440430Y-110444564D01*
X159476797Y-110324678D01*
X159489077Y-110200000D01*
X159489077Y-108700000D01*
X159476797Y-108575322D01*
X159440430Y-108455436D01*
X159381373Y-108344948D01*
X159301896Y-108248104D01*
X159205052Y-108168627D01*
X159094564Y-108109570D01*
X158974678Y-108073203D01*
X158950962Y-108070867D01*
X158949980Y-108059645D01*
X158948860Y-108055792D01*
X158948469Y-108051799D01*
X158928095Y-107984316D01*
X158908435Y-107916647D01*
X158906589Y-107913087D01*
X158905429Y-107909243D01*
X158872326Y-107846985D01*
X158839906Y-107784441D01*
X158837403Y-107781306D01*
X158835519Y-107777762D01*
X158790978Y-107723150D01*
X158747003Y-107668063D01*
X158741493Y-107662476D01*
X158741402Y-107662364D01*
X158741298Y-107662278D01*
X158739523Y-107660478D01*
X158735238Y-107656193D01*
X158736045Y-107598415D01*
X158696582Y-107399114D01*
X158619160Y-107211274D01*
X158506727Y-107042049D01*
X158363567Y-106897886D01*
X158195131Y-106784274D01*
X158007836Y-106705543D01*
X157808815Y-106664690D01*
X157605650Y-106663271D01*
X157406079Y-106701342D01*
X157217703Y-106777451D01*
X157047697Y-106888699D01*
X156902538Y-107030850D01*
X156787753Y-107198488D01*
X156707716Y-107385229D01*
X156665475Y-107583959D01*
X156665441Y-107586396D01*
X153539522Y-104460478D01*
X153487342Y-104417616D01*
X153487797Y-104413000D01*
X156633956Y-104413000D01*
X159523614Y-107302659D01*
X159465902Y-107574175D01*
X159461552Y-107885665D01*
X159517788Y-108192068D01*
X159632466Y-108481713D01*
X159801219Y-108743567D01*
X160017620Y-108967657D01*
X160273425Y-109145446D01*
X160558891Y-109270163D01*
X160863145Y-109337058D01*
X161174598Y-109343582D01*
X161481386Y-109289487D01*
X161771824Y-109176833D01*
X162034850Y-109009912D01*
X162260445Y-108795081D01*
X162440016Y-108540523D01*
X162566723Y-108255935D01*
X162635740Y-107952155D01*
X162636668Y-107885665D01*
X165908072Y-107885665D01*
X165964308Y-108192068D01*
X166078986Y-108481713D01*
X166247739Y-108743567D01*
X166464140Y-108967657D01*
X166719945Y-109145446D01*
X167005411Y-109270163D01*
X167309665Y-109337058D01*
X167621118Y-109343582D01*
X167927906Y-109289487D01*
X168218344Y-109176833D01*
X168481370Y-109009912D01*
X168706965Y-108795081D01*
X168886536Y-108540523D01*
X169013243Y-108255935D01*
X169082260Y-107952155D01*
X169087228Y-107596340D01*
X169026720Y-107290751D01*
X168908009Y-107002736D01*
X168735616Y-106743264D01*
X168516107Y-106522218D01*
X168257845Y-106348017D01*
X167970665Y-106227298D01*
X167665507Y-106164658D01*
X167353994Y-106162483D01*
X167047991Y-106220856D01*
X166759153Y-106337554D01*
X166498484Y-106508132D01*
X166275911Y-106726091D01*
X166099912Y-106983132D01*
X165977190Y-107269461D01*
X165912422Y-107574175D01*
X165908072Y-107885665D01*
X162636668Y-107885665D01*
X162640708Y-107596340D01*
X162580200Y-107290751D01*
X162461489Y-107002736D01*
X162289096Y-106743264D01*
X162069587Y-106522218D01*
X161811325Y-106348017D01*
X161524145Y-106227298D01*
X161218987Y-106164658D01*
X160907474Y-106162483D01*
X160601471Y-106220856D01*
X160600353Y-106221308D01*
X158042044Y-103663000D01*
X161370000Y-103663000D01*
X161440144Y-103656122D01*
X161510355Y-103649980D01*
X161514208Y-103648860D01*
X161518201Y-103648469D01*
X161585684Y-103628095D01*
X161653353Y-103608435D01*
X161656914Y-103606589D01*
X161660757Y-103605429D01*
X161722994Y-103572337D01*
X161785560Y-103539906D01*
X161788697Y-103537402D01*
X161792238Y-103535519D01*
X161846828Y-103490996D01*
X161901937Y-103447003D01*
X161907520Y-103441497D01*
X161907636Y-103441402D01*
X161907725Y-103441294D01*
X161909522Y-103439522D01*
X162461109Y-102887935D01*
X162583670Y-102914882D01*
X162857772Y-102920624D01*
X163127769Y-102873016D01*
X163383377Y-102773872D01*
X163614859Y-102626969D01*
X163813399Y-102437902D01*
X163971435Y-102213872D01*
X164018880Y-102107308D01*
X164040580Y-102162115D01*
X164189096Y-102392566D01*
X164379544Y-102589782D01*
X164604672Y-102746250D01*
X164855904Y-102856010D01*
X165123670Y-102914882D01*
X165397772Y-102920624D01*
X165667769Y-102873016D01*
X165923377Y-102773872D01*
X166154859Y-102626969D01*
X166353399Y-102437902D01*
X166511435Y-102213872D01*
X166622947Y-101963412D01*
X166683687Y-101696064D01*
X166688060Y-101382919D01*
X166634808Y-101113979D01*
X166530333Y-100860503D01*
X166378614Y-100632148D01*
X166185430Y-100437611D01*
X165958140Y-100284301D01*
X165882618Y-100252555D01*
X165892466Y-100249015D01*
X166010435Y-100185959D01*
X166077276Y-99945467D01*
X165290000Y-99158191D01*
X165275858Y-99172333D01*
X165097667Y-98994142D01*
X165111809Y-98980000D01*
X165468191Y-98980000D01*
X166255467Y-99767276D01*
X166495959Y-99700435D01*
X166613337Y-99451321D01*
X166679859Y-99184095D01*
X166692971Y-98909025D01*
X166652166Y-98636683D01*
X166559015Y-98377534D01*
X166495959Y-98259565D01*
X166255467Y-98192724D01*
X165468191Y-98980000D01*
X165111809Y-98980000D01*
X165097667Y-98965858D01*
X165275858Y-98787667D01*
X165290000Y-98801809D01*
X166077276Y-98014533D01*
X166010435Y-97774041D01*
X165761321Y-97656663D01*
X165494095Y-97590141D01*
X165219025Y-97577029D01*
X164946683Y-97617834D01*
X164687534Y-97710985D01*
X164614162Y-97750203D01*
X164609422Y-97744391D01*
X164565569Y-97689457D01*
X164560074Y-97683885D01*
X164559983Y-97683773D01*
X164559879Y-97683687D01*
X164558108Y-97681891D01*
X163788108Y-96911892D01*
X163733811Y-96867291D01*
X163679940Y-96822089D01*
X163676434Y-96820161D01*
X163673341Y-96817621D01*
X163611349Y-96784381D01*
X163549790Y-96750538D01*
X163545980Y-96749329D01*
X163542449Y-96747436D01*
X163475184Y-96726872D01*
X163408221Y-96705630D01*
X163404244Y-96705184D01*
X163400417Y-96704014D01*
X163330514Y-96696913D01*
X163260625Y-96689074D01*
X163252799Y-96689019D01*
X163252656Y-96689005D01*
X163252523Y-96689018D01*
X163250000Y-96689000D01*
X153487994Y-96689000D01*
X153476797Y-96575322D01*
X153440430Y-96455436D01*
X153381373Y-96344948D01*
X153301896Y-96248104D01*
X153205052Y-96168627D01*
X153100981Y-96113000D01*
X159550000Y-96113000D01*
X159620144Y-96106122D01*
X159690355Y-96099980D01*
X159694208Y-96098860D01*
X159698201Y-96098469D01*
X159765684Y-96078095D01*
X159833353Y-96058435D01*
X159836914Y-96056589D01*
X159840757Y-96055429D01*
X159902994Y-96022337D01*
X159965560Y-95989906D01*
X159968697Y-95987402D01*
X159972238Y-95985519D01*
X160026828Y-95940996D01*
X160081937Y-95897003D01*
X160087520Y-95891497D01*
X160087636Y-95891402D01*
X160087725Y-95891294D01*
X160089522Y-95889522D01*
X162476368Y-93502677D01*
X164016000Y-93502677D01*
X164140678Y-93490397D01*
X164260564Y-93454030D01*
X164371052Y-93394973D01*
X164467896Y-93315496D01*
X164547373Y-93218652D01*
X164606430Y-93108164D01*
X164642797Y-92988278D01*
X164655077Y-92863600D01*
X164655077Y-91422126D01*
X166142802Y-91422126D01*
X166201362Y-91615188D01*
X166343332Y-91906260D01*
X166539360Y-92164042D01*
X166781912Y-92378628D01*
X167061667Y-92541771D01*
X167367874Y-92647202D01*
X167624000Y-92528192D01*
X167624000Y-91166000D01*
X167876000Y-91166000D01*
X167876000Y-92528192D01*
X168132126Y-92647202D01*
X168438333Y-92541771D01*
X168718088Y-92378628D01*
X168960640Y-92164042D01*
X169156668Y-91906260D01*
X169298638Y-91615188D01*
X169357198Y-91422126D01*
X169237674Y-91166000D01*
X167876000Y-91166000D01*
X167624000Y-91166000D01*
X166262326Y-91166000D01*
X166142802Y-91422126D01*
X164655077Y-91422126D01*
X164655077Y-91136400D01*
X164642797Y-91011722D01*
X164606430Y-90891836D01*
X164547373Y-90781348D01*
X164467896Y-90684504D01*
X164371052Y-90605027D01*
X164260564Y-90545970D01*
X164209285Y-90530415D01*
X164217062Y-90524072D01*
X164403618Y-90298566D01*
X164542819Y-90041118D01*
X164629364Y-89761536D01*
X164659956Y-89470469D01*
X164633431Y-89179003D01*
X164550798Y-88898240D01*
X164415205Y-88638874D01*
X164231816Y-88410785D01*
X164007618Y-88222660D01*
X163949511Y-88190715D01*
X163990259Y-88169049D01*
X164217062Y-87984072D01*
X164403618Y-87758566D01*
X164542819Y-87501118D01*
X164548117Y-87484000D01*
X166094923Y-87484000D01*
X166094923Y-89516000D01*
X166107203Y-89640678D01*
X166143570Y-89760564D01*
X166202627Y-89871052D01*
X166282104Y-89967896D01*
X166378948Y-90047373D01*
X166421949Y-90070357D01*
X166343332Y-90173740D01*
X166201362Y-90464812D01*
X166142802Y-90657874D01*
X166262326Y-90914000D01*
X167624000Y-90914000D01*
X167624000Y-90894000D01*
X167876000Y-90894000D01*
X167876000Y-90914000D01*
X169237674Y-90914000D01*
X169357198Y-90657874D01*
X169298638Y-90464812D01*
X169156668Y-90173740D01*
X169078051Y-90070357D01*
X169121052Y-90047373D01*
X169217896Y-89967896D01*
X169297373Y-89871052D01*
X169356430Y-89760564D01*
X169392797Y-89640678D01*
X169405077Y-89516000D01*
X169405077Y-87484000D01*
X169392797Y-87359322D01*
X169356430Y-87239436D01*
X169297373Y-87128948D01*
X169217896Y-87032104D01*
X169121052Y-86952627D01*
X169010564Y-86893570D01*
X168890678Y-86857203D01*
X168766000Y-86844923D01*
X166734000Y-86844923D01*
X166609322Y-86857203D01*
X166489436Y-86893570D01*
X166378948Y-86952627D01*
X166282104Y-87032104D01*
X166202627Y-87128948D01*
X166143570Y-87239436D01*
X166107203Y-87359322D01*
X166094923Y-87484000D01*
X164548117Y-87484000D01*
X164629364Y-87221536D01*
X164659956Y-86930469D01*
X164633431Y-86639003D01*
X164550798Y-86358240D01*
X164415205Y-86098874D01*
X164231816Y-85870785D01*
X164007618Y-85682660D01*
X163751148Y-85541665D01*
X163472177Y-85453170D01*
X163181331Y-85420546D01*
X163160393Y-85420400D01*
X162839607Y-85420400D01*
X162548333Y-85448960D01*
X162268154Y-85533551D01*
X162009741Y-85670951D01*
X161782938Y-85855928D01*
X161596382Y-86081434D01*
X161457181Y-86338882D01*
X161370636Y-86618464D01*
X161340044Y-86909531D01*
X161366569Y-87200997D01*
X161449202Y-87481760D01*
X161584795Y-87741126D01*
X161768184Y-87969215D01*
X161992382Y-88157340D01*
X162050489Y-88189285D01*
X162009741Y-88210951D01*
X161782938Y-88395928D01*
X161596382Y-88621434D01*
X161457181Y-88878882D01*
X161370636Y-89158464D01*
X161340044Y-89449531D01*
X161366569Y-89740997D01*
X161449202Y-90021760D01*
X161584795Y-90281126D01*
X161768184Y-90509215D01*
X161792723Y-90529806D01*
X161739436Y-90545970D01*
X161628948Y-90605027D01*
X161532104Y-90684504D01*
X161452627Y-90781348D01*
X161393570Y-90891836D01*
X161357203Y-91011722D01*
X161344923Y-91136400D01*
X161344923Y-92476032D01*
X159428000Y-94392956D01*
X159428000Y-84506292D01*
X159445364Y-84329998D01*
X159489044Y-84186000D01*
X170314000Y-84186000D01*
X170314000Y-124814000D01*
X154728000Y-124814000D01*
X154728000Y-123665450D01*
X154763339Y-123586077D01*
X154877868Y-123081977D01*
X154886113Y-122491527D01*
X154785704Y-121984426D01*
X154728000Y-121844426D01*
X154728000Y-120400000D01*
X154718257Y-120351017D01*
X154690510Y-120309490D01*
X154648983Y-120281743D01*
X154600000Y-120272000D01*
X153157668Y-120272000D01*
X153033258Y-120219703D01*
X152526870Y-120115756D01*
X152009937Y-120112147D01*
X151502147Y-120209013D01*
X151346249Y-120272000D01*
X149900000Y-120272000D01*
X149851017Y-120281743D01*
X149809490Y-120309490D01*
X149781743Y-120351017D01*
X149772000Y-120400000D01*
X149772000Y-121839979D01*
X149725232Y-121949097D01*
X149617753Y-122454746D01*
X149610536Y-122971642D01*
X149703854Y-123480096D01*
X149772000Y-123652213D01*
X149772000Y-124814000D01*
X134186000Y-124814000D01*
X134186000Y-96831427D01*
X136408553Y-96831427D01*
X136449225Y-97101512D01*
X136541805Y-97358473D01*
X136603371Y-97473657D01*
X136842697Y-97539112D01*
X137621809Y-96760000D01*
X137978191Y-96760000D01*
X138757303Y-97539112D01*
X138996629Y-97473657D01*
X139112863Y-97226493D01*
X139178645Y-96961403D01*
X139191447Y-96688573D01*
X139150775Y-96418488D01*
X139058195Y-96161527D01*
X138996629Y-96046343D01*
X138757303Y-95980888D01*
X137978191Y-96760000D01*
X137621809Y-96760000D01*
X136842697Y-95980888D01*
X136603371Y-96046343D01*
X136487137Y-96293507D01*
X136421355Y-96558597D01*
X136408553Y-96831427D01*
X134186000Y-96831427D01*
X134186000Y-95802697D01*
X137020888Y-95802697D01*
X137800000Y-96581809D01*
X138579112Y-95802697D01*
X138513657Y-95563371D01*
X138266493Y-95447137D01*
X138001403Y-95381355D01*
X137728573Y-95368553D01*
X137458488Y-95409225D01*
X137201527Y-95501805D01*
X137086343Y-95563371D01*
X137020888Y-95802697D01*
X134186000Y-95802697D01*
X134186000Y-86619541D01*
X136656768Y-86619541D01*
X136779804Y-86834000D01*
X138374000Y-86834000D01*
X138374000Y-85573430D01*
X138626000Y-85573430D01*
X138626000Y-86834000D01*
X140220196Y-86834000D01*
X140343232Y-86619541D01*
X140328351Y-86545791D01*
X140222002Y-86294428D01*
X140068658Y-86068642D01*
X139874212Y-85877111D01*
X139646136Y-85727194D01*
X139393195Y-85624654D01*
X139125110Y-85573430D01*
X138626000Y-85573430D01*
X138374000Y-85573430D01*
X137874890Y-85573430D01*
X137606805Y-85624654D01*
X137353864Y-85727194D01*
X137125788Y-85877111D01*
X136931342Y-86068642D01*
X136777998Y-86294428D01*
X136671649Y-86545791D01*
X136656768Y-86619541D01*
X134186000Y-86619541D01*
X134186000Y-84186000D01*
X141410956Y-84186000D01*
X141454636Y-84329998D01*
X141454636Y-84329998D01*
G37*
X141454636Y-84329998D02*
X141472000Y-84506292D01*
X141472000Y-94400000D01*
X141472616Y-94412546D01*
X141489798Y-94587000D01*
X141169700Y-94587000D01*
X141099596Y-94593874D01*
X141029345Y-94600020D01*
X141025492Y-94601140D01*
X141021499Y-94601531D01*
X141011650Y-94604505D01*
X139662277Y-93255132D01*
X139775550Y-93194904D01*
X139985259Y-93023869D01*
X140157753Y-92815360D01*
X140286462Y-92577317D01*
X140366484Y-92318809D01*
X140394770Y-92049680D01*
X140370244Y-91780183D01*
X140293839Y-91520582D01*
X140168466Y-91280765D01*
X139998900Y-91069868D01*
X139791600Y-90895922D01*
X139560846Y-90769064D01*
X139775550Y-90654904D01*
X139985259Y-90483869D01*
X140157753Y-90275360D01*
X140286462Y-90037317D01*
X140366484Y-89778809D01*
X140394770Y-89509680D01*
X140370244Y-89240183D01*
X140293839Y-88980582D01*
X140168466Y-88740765D01*
X139998900Y-88529868D01*
X139791600Y-88355922D01*
X139559084Y-88228096D01*
X139646136Y-88192806D01*
X139874212Y-88042889D01*
X140068658Y-87851358D01*
X140222002Y-87625572D01*
X140328351Y-87374209D01*
X140343232Y-87300459D01*
X140220196Y-87086000D01*
X138626000Y-87086000D01*
X138626000Y-87106000D01*
X138374000Y-87106000D01*
X138374000Y-87086000D01*
X136779804Y-87086000D01*
X136656768Y-87300459D01*
X136671649Y-87374209D01*
X136777998Y-87625572D01*
X136931342Y-87851358D01*
X137125788Y-88042889D01*
X137353864Y-88192806D01*
X137442947Y-88228919D01*
X137224450Y-88345096D01*
X137014741Y-88516131D01*
X136842247Y-88724640D01*
X136713538Y-88962683D01*
X136633516Y-89221191D01*
X136605230Y-89490320D01*
X136629756Y-89759817D01*
X136706161Y-90019418D01*
X136831534Y-90259235D01*
X137001100Y-90470132D01*
X137208400Y-90644078D01*
X137439154Y-90770936D01*
X137224450Y-90885096D01*
X137014741Y-91056131D01*
X136842247Y-91264640D01*
X136713538Y-91502683D01*
X136633516Y-91761191D01*
X136605230Y-92030320D01*
X136629756Y-92299817D01*
X136706161Y-92559418D01*
X136831534Y-92799235D01*
X137001100Y-93010132D01*
X137208400Y-93184078D01*
X137445538Y-93314445D01*
X137703482Y-93396270D01*
X137776819Y-93404496D01*
X137791565Y-93455253D01*
X137793411Y-93458814D01*
X137794571Y-93462657D01*
X137827663Y-93524894D01*
X137860094Y-93587460D01*
X137862598Y-93590597D01*
X137864481Y-93594138D01*
X137909004Y-93648728D01*
X137952997Y-93703837D01*
X137958503Y-93709420D01*
X137958598Y-93709536D01*
X137958706Y-93709625D01*
X137960478Y-93711422D01*
X140160900Y-95911845D01*
X140160900Y-98523900D01*
X140167778Y-98594044D01*
X140173920Y-98664255D01*
X140175040Y-98668108D01*
X140175431Y-98672101D01*
X140195805Y-98739584D01*
X140215465Y-98807253D01*
X140217311Y-98810814D01*
X140218471Y-98814657D01*
X140251563Y-98876894D01*
X140283994Y-98939460D01*
X140286498Y-98942597D01*
X140288381Y-98946138D01*
X140332904Y-99000728D01*
X140376897Y-99055837D01*
X140382403Y-99061420D01*
X140382498Y-99061536D01*
X140382606Y-99061625D01*
X140384378Y-99063422D01*
X141735923Y-100414968D01*
X141735923Y-100800000D01*
X141748203Y-100924678D01*
X141784570Y-101044564D01*
X141843627Y-101155052D01*
X141910879Y-101237000D01*
X140816045Y-101237000D01*
X139158480Y-99579436D01*
X139182293Y-99474624D01*
X139186629Y-99164040D01*
X139133813Y-98897298D01*
X139030192Y-98645895D01*
X138879714Y-98419407D01*
X138688109Y-98226460D01*
X138462677Y-98074404D01*
X138361042Y-98031681D01*
X138398473Y-98018195D01*
X138513657Y-97956629D01*
X138579112Y-97717303D01*
X137800000Y-96938191D01*
X137020888Y-97717303D01*
X137086343Y-97956629D01*
X137242101Y-98029878D01*
X137154499Y-98065271D01*
X136926966Y-98214165D01*
X136732686Y-98404418D01*
X136579060Y-98628783D01*
X136471939Y-98878714D01*
X136415404Y-99144693D01*
X136411607Y-99416587D01*
X136460694Y-99684040D01*
X136560795Y-99936865D01*
X136708096Y-100165432D01*
X136896988Y-100361035D01*
X137120275Y-100516224D01*
X137369453Y-100625087D01*
X137635030Y-100683478D01*
X137906891Y-100689173D01*
X138079664Y-100658708D01*
X139931878Y-102510923D01*
X139725000Y-102510923D01*
X139600322Y-102523203D01*
X139600000Y-102523301D01*
X139599678Y-102523203D01*
X139475000Y-102510923D01*
X138925000Y-102510923D01*
X138800322Y-102523203D01*
X138800000Y-102523301D01*
X138799678Y-102523203D01*
X138675000Y-102510923D01*
X138125000Y-102510923D01*
X138000322Y-102523203D01*
X137880436Y-102559570D01*
X137769948Y-102618627D01*
X137673104Y-102698104D01*
X137593627Y-102794948D01*
X137534570Y-102905436D01*
X137498203Y-103025322D01*
X137485923Y-103150000D01*
X137485923Y-104485923D01*
X136150000Y-104485923D01*
X136025322Y-104498203D01*
X135905436Y-104534570D01*
X135794948Y-104593627D01*
X135698104Y-104673104D01*
X135618627Y-104769948D01*
X135559570Y-104880436D01*
X135523203Y-105000322D01*
X135510923Y-105125000D01*
X135510923Y-105675000D01*
X135523203Y-105799678D01*
X135523301Y-105800000D01*
X135523203Y-105800322D01*
X135510923Y-105925000D01*
X135510923Y-106237000D01*
X135400000Y-106237000D01*
X135329856Y-106243878D01*
X135259645Y-106250020D01*
X135255792Y-106251140D01*
X135251799Y-106251531D01*
X135184283Y-106271915D01*
X135116646Y-106291566D01*
X135113089Y-106293410D01*
X135109243Y-106294571D01*
X135046989Y-106327672D01*
X134984440Y-106360094D01*
X134981303Y-106362598D01*
X134977762Y-106364481D01*
X134923196Y-106408984D01*
X134868062Y-106452997D01*
X134862475Y-106458508D01*
X134862364Y-106458598D01*
X134862279Y-106458701D01*
X134860477Y-106460478D01*
X134460478Y-106860478D01*
X134415776Y-106914899D01*
X134370438Y-106968930D01*
X134368504Y-106972447D01*
X134365959Y-106975546D01*
X134332651Y-107037665D01*
X134298700Y-107099422D01*
X134297488Y-107103244D01*
X134295590Y-107106783D01*
X134274983Y-107174186D01*
X134253673Y-107241363D01*
X134253225Y-107245353D01*
X134252053Y-107249188D01*
X134244936Y-107319254D01*
X134237074Y-107389347D01*
X134237019Y-107397194D01*
X134237005Y-107397337D01*
X134237018Y-107397470D01*
X134237000Y-107400000D01*
X134237000Y-112000000D01*
X134243878Y-112070144D01*
X134250020Y-112140355D01*
X134251140Y-112144208D01*
X134251531Y-112148201D01*
X134271905Y-112215684D01*
X134291565Y-112283353D01*
X134293411Y-112286914D01*
X134294571Y-112290757D01*
X134327663Y-112352994D01*
X134360094Y-112415560D01*
X134362598Y-112418697D01*
X134364481Y-112422238D01*
X134409004Y-112476828D01*
X134452997Y-112531937D01*
X134458503Y-112537520D01*
X134458598Y-112537636D01*
X134458706Y-112537725D01*
X134460478Y-112539522D01*
X139303290Y-117382335D01*
X139266471Y-117555554D01*
X139261718Y-117895968D01*
X139323175Y-118230822D01*
X139448502Y-118547362D01*
X139632925Y-118833530D01*
X139869420Y-119078427D01*
X140148978Y-119272725D01*
X140460951Y-119409023D01*
X140793456Y-119482129D01*
X141133829Y-119489259D01*
X141469104Y-119430141D01*
X141564208Y-119393253D01*
X142210478Y-120039523D01*
X142264934Y-120084253D01*
X142318930Y-120129562D01*
X142322446Y-120131495D01*
X142325547Y-120134042D01*
X142387683Y-120167359D01*
X142449422Y-120201300D01*
X142453244Y-120202512D01*
X142456783Y-120204410D01*
X142524186Y-120225017D01*
X142591363Y-120246327D01*
X142595353Y-120246775D01*
X142599188Y-120247947D01*
X142669254Y-120255064D01*
X142739347Y-120262926D01*
X142747194Y-120262981D01*
X142747337Y-120262995D01*
X142747470Y-120262982D01*
X142750000Y-120263000D01*
X145900000Y-120263000D01*
X145970144Y-120256122D01*
X146040355Y-120249980D01*
X146044208Y-120248860D01*
X146048201Y-120248469D01*
X146115684Y-120228095D01*
X146183353Y-120208435D01*
X146186914Y-120206589D01*
X146190757Y-120205429D01*
X146252994Y-120172337D01*
X146315560Y-120139906D01*
X146318697Y-120137402D01*
X146322238Y-120135519D01*
X146376828Y-120090996D01*
X146431937Y-120047003D01*
X146437520Y-120041497D01*
X146437636Y-120041402D01*
X146437725Y-120041294D01*
X146439522Y-120039522D01*
X147539523Y-118939522D01*
X147584249Y-118885071D01*
X147629562Y-118831070D01*
X147630380Y-118829581D01*
X147632925Y-118833530D01*
X147869420Y-119078427D01*
X148148978Y-119272725D01*
X148460951Y-119409023D01*
X148793456Y-119482129D01*
X149133829Y-119489259D01*
X149469104Y-119430141D01*
X149786511Y-119307027D01*
X150073960Y-119124606D01*
X150250387Y-118956596D01*
X151971595Y-118956596D01*
X152079282Y-119231623D01*
X152386023Y-119382777D01*
X152716360Y-119471185D01*
X153057597Y-119493448D01*
X153396620Y-119448712D01*
X153720401Y-119338694D01*
X153920718Y-119231623D01*
X154028405Y-118956596D01*
X153000000Y-117928191D01*
X151971595Y-118956596D01*
X150250387Y-118956596D01*
X150320502Y-118889827D01*
X150516747Y-118611632D01*
X150655219Y-118300618D01*
X150730645Y-117968631D01*
X150732893Y-117807597D01*
X151256552Y-117807597D01*
X151301288Y-118146620D01*
X151411306Y-118470401D01*
X151518377Y-118670718D01*
X151793404Y-118778405D01*
X152821809Y-117750000D01*
X153178191Y-117750000D01*
X154206596Y-118778405D01*
X154481623Y-118670718D01*
X154632777Y-118363977D01*
X154721185Y-118033640D01*
X154743448Y-117692403D01*
X154698712Y-117353380D01*
X154588694Y-117029599D01*
X154481623Y-116829282D01*
X154206596Y-116721595D01*
X153178191Y-117750000D01*
X152821809Y-117750000D01*
X151793404Y-116721595D01*
X151518377Y-116829282D01*
X151367223Y-117136023D01*
X151278815Y-117466360D01*
X151256552Y-117807597D01*
X150732893Y-117807597D01*
X150736075Y-117579776D01*
X150669948Y-117245813D01*
X150540214Y-116931054D01*
X150351813Y-116647488D01*
X150248453Y-116543404D01*
X151971595Y-116543404D01*
X153000000Y-117571809D01*
X154028405Y-116543404D01*
X153920718Y-116268377D01*
X153613977Y-116117223D01*
X153283640Y-116028815D01*
X152942403Y-116006552D01*
X152603380Y-116051288D01*
X152279599Y-116161306D01*
X152079282Y-116268377D01*
X151971595Y-116543404D01*
X150248453Y-116543404D01*
X150111922Y-116405917D01*
X149829679Y-116215541D01*
X149749175Y-116181700D01*
X151481300Y-116181700D01*
X151551444Y-116174822D01*
X151621655Y-116168680D01*
X151625508Y-116167560D01*
X151629501Y-116167169D01*
X151696984Y-116146795D01*
X151764653Y-116127135D01*
X151768214Y-116125289D01*
X151772057Y-116124129D01*
X151834294Y-116091037D01*
X151896860Y-116058606D01*
X151899997Y-116056102D01*
X151903538Y-116054219D01*
X151958128Y-116009696D01*
X152013237Y-115965703D01*
X152018820Y-115960197D01*
X152018936Y-115960102D01*
X152019025Y-115959994D01*
X152020822Y-115958222D01*
X154449834Y-113529211D01*
X154550000Y-113539077D01*
X155650300Y-113539077D01*
X155650300Y-118594600D01*
X155657178Y-118664744D01*
X155663320Y-118734955D01*
X155664440Y-118738808D01*
X155664831Y-118742801D01*
X155685205Y-118810284D01*
X155704865Y-118877953D01*
X155706711Y-118881514D01*
X155707871Y-118885357D01*
X155740963Y-118947594D01*
X155773394Y-119010160D01*
X155775898Y-119013297D01*
X155777781Y-119016838D01*
X155822304Y-119071428D01*
X155866297Y-119126537D01*
X155871803Y-119132120D01*
X155871898Y-119132236D01*
X155872006Y-119132325D01*
X155873778Y-119134122D01*
X157829177Y-121089522D01*
X157883623Y-121134245D01*
X157937630Y-121179562D01*
X157941147Y-121181496D01*
X157944246Y-121184041D01*
X158006384Y-121217359D01*
X158068122Y-121251300D01*
X158071942Y-121252512D01*
X158075482Y-121254410D01*
X158110923Y-121265245D01*
X158110923Y-121300000D01*
X158123203Y-121424678D01*
X158159570Y-121544564D01*
X158218627Y-121655052D01*
X158298104Y-121751896D01*
X158394948Y-121831373D01*
X158505436Y-121890430D01*
X158536984Y-121900000D01*
X158505436Y-121909570D01*
X158394948Y-121968627D01*
X158298104Y-122048104D01*
X158218627Y-122144948D01*
X158159570Y-122255436D01*
X158123203Y-122375322D01*
X158110923Y-122500000D01*
X158110923Y-124000000D01*
X158123203Y-124124678D01*
X158159570Y-124244564D01*
X158218627Y-124355052D01*
X158298104Y-124451896D01*
X158394948Y-124531373D01*
X158505436Y-124590430D01*
X158625322Y-124626797D01*
X158750000Y-124639077D01*
X160050000Y-124639077D01*
X160174678Y-124626797D01*
X160294564Y-124590430D01*
X160405052Y-124531373D01*
X160501896Y-124451896D01*
X160581373Y-124355052D01*
X160640430Y-124244564D01*
X160676797Y-124124678D01*
X160687797Y-124013000D01*
X161150000Y-124013000D01*
X161220144Y-124006122D01*
X161290355Y-123999980D01*
X161294208Y-123998860D01*
X161298201Y-123998469D01*
X161365684Y-123978095D01*
X161433353Y-123958435D01*
X161436914Y-123956589D01*
X161440757Y-123955429D01*
X161502994Y-123922337D01*
X161565560Y-123889906D01*
X161568697Y-123887402D01*
X161572238Y-123885519D01*
X161626828Y-123840996D01*
X161681937Y-123797003D01*
X161687520Y-123791497D01*
X161687636Y-123791402D01*
X161687725Y-123791294D01*
X161689522Y-123789522D01*
X165429523Y-120049522D01*
X165474253Y-119995066D01*
X165519562Y-119941070D01*
X165521495Y-119937554D01*
X165524042Y-119934453D01*
X165557359Y-119872317D01*
X165591300Y-119810578D01*
X165592512Y-119806756D01*
X165594410Y-119803217D01*
X165615017Y-119735814D01*
X165636327Y-119668637D01*
X165636775Y-119664647D01*
X165637947Y-119660812D01*
X165645064Y-119590746D01*
X165652926Y-119520653D01*
X165652981Y-119512806D01*
X165652995Y-119512663D01*
X165652982Y-119512530D01*
X165653000Y-119510000D01*
X165653000Y-119218802D01*
X165719782Y-119254911D01*
X165931575Y-119320471D01*
X166152069Y-119343646D01*
X166372865Y-119323552D01*
X166585553Y-119260955D01*
X166782032Y-119158238D01*
X166954818Y-119019315D01*
X167097329Y-118849477D01*
X167204138Y-118655192D01*
X167271176Y-118443862D01*
X167295889Y-118223535D01*
X167296000Y-118207674D01*
X167296000Y-117292326D01*
X167274365Y-117071676D01*
X167210284Y-116859430D01*
X167106199Y-116663673D01*
X166966072Y-116491862D01*
X166911204Y-116446471D01*
X166908014Y-116410013D01*
X166906897Y-116406170D01*
X166906507Y-116402188D01*
X166886189Y-116334890D01*
X166866578Y-116267389D01*
X166864737Y-116263838D01*
X166863580Y-116260005D01*
X166830561Y-116197906D01*
X166798228Y-116135530D01*
X166795733Y-116132404D01*
X166793853Y-116128869D01*
X166749422Y-116074391D01*
X166705569Y-116019457D01*
X166700078Y-116013889D01*
X166699983Y-116013773D01*
X166699875Y-116013684D01*
X166698108Y-116011892D01*
X166248108Y-115561892D01*
X166193811Y-115517291D01*
X166139940Y-115472089D01*
X166136434Y-115470161D01*
X166133341Y-115467621D01*
X166071349Y-115434381D01*
X166009790Y-115400538D01*
X166005980Y-115399329D01*
X166002449Y-115397436D01*
X165935184Y-115376872D01*
X165868221Y-115355630D01*
X165864244Y-115355184D01*
X165860417Y-115354014D01*
X165790514Y-115346913D01*
X165720625Y-115339074D01*
X165712799Y-115339019D01*
X165712656Y-115339005D01*
X165712523Y-115339018D01*
X165710000Y-115339000D01*
X163118045Y-115339000D01*
X161551761Y-113772716D01*
X161769355Y-113697144D01*
X161933751Y-113609273D01*
X162023635Y-113349326D01*
X166626225Y-113349326D01*
X166716109Y-113609273D01*
X166997712Y-113745693D01*
X167300519Y-113824554D01*
X167612892Y-113842825D01*
X167922828Y-113799804D01*
X168218415Y-113697144D01*
X168382811Y-113609273D01*
X168472695Y-113349326D01*
X167549460Y-112426091D01*
X166626225Y-113349326D01*
X162023635Y-113349326D01*
X161100400Y-112426091D01*
X161086258Y-112440233D01*
X160908067Y-112262042D01*
X160922209Y-112247900D01*
X161278591Y-112247900D01*
X162201826Y-113171135D01*
X162461773Y-113081251D01*
X162598193Y-112799648D01*
X162677054Y-112496841D01*
X162687904Y-112311332D01*
X165954535Y-112311332D01*
X165997556Y-112621268D01*
X166100216Y-112916855D01*
X166188087Y-113081251D01*
X166448034Y-113171135D01*
X167371269Y-112247900D01*
X167727651Y-112247900D01*
X168650886Y-113171135D01*
X168910833Y-113081251D01*
X169047253Y-112799648D01*
X169126114Y-112496841D01*
X169144385Y-112184468D01*
X169101364Y-111874532D01*
X168998704Y-111578945D01*
X168910833Y-111414549D01*
X168650886Y-111324665D01*
X167727651Y-112247900D01*
X167371269Y-112247900D01*
X166448034Y-111324665D01*
X166188087Y-111414549D01*
X166051667Y-111696152D01*
X165972806Y-111998959D01*
X165954535Y-112311332D01*
X162687904Y-112311332D01*
X162695325Y-112184468D01*
X162652304Y-111874532D01*
X162549644Y-111578945D01*
X162461773Y-111414549D01*
X162201826Y-111324665D01*
X161278591Y-112247900D01*
X160922209Y-112247900D01*
X159998974Y-111324665D01*
X159739027Y-111414549D01*
X159602607Y-111696152D01*
X159523746Y-111998959D01*
X159505475Y-112311332D01*
X159524026Y-112444982D01*
X159489077Y-112410032D01*
X159489077Y-111400000D01*
X159476797Y-111275322D01*
X159440430Y-111155436D01*
X159435640Y-111146474D01*
X160177165Y-111146474D01*
X161100400Y-112069709D01*
X162023635Y-111146474D01*
X166626225Y-111146474D01*
X167549460Y-112069709D01*
X168472695Y-111146474D01*
X168382811Y-110886527D01*
X168101208Y-110750107D01*
X167798401Y-110671246D01*
X167486028Y-110652975D01*
X167176092Y-110695996D01*
X166880505Y-110798656D01*
X166716109Y-110886527D01*
X166626225Y-111146474D01*
X162023635Y-111146474D01*
X161933751Y-110886527D01*
X161652148Y-110750107D01*
X161349341Y-110671246D01*
X161036968Y-110652975D01*
X160727032Y-110695996D01*
X160431445Y-110798656D01*
X160267049Y-110886527D01*
X160177165Y-111146474D01*
X159435640Y-111146474D01*
X159381373Y-111044948D01*
X159301896Y-110948104D01*
X159205052Y-110868627D01*
X159094564Y-110809570D01*
X159063016Y-110800000D01*
X159094564Y-110790430D01*
X159205052Y-110731373D01*
X159301896Y-110651896D01*
X159381373Y-110555052D01*
X159440430Y-110444564D01*
X159476797Y-110324678D01*
X159489077Y-110200000D01*
X159489077Y-108700000D01*
X159476797Y-108575322D01*
X159440430Y-108455436D01*
X159381373Y-108344948D01*
X159301896Y-108248104D01*
X159205052Y-108168627D01*
X159094564Y-108109570D01*
X158974678Y-108073203D01*
X158950962Y-108070867D01*
X158949980Y-108059645D01*
X158948860Y-108055792D01*
X158948469Y-108051799D01*
X158928095Y-107984316D01*
X158908435Y-107916647D01*
X158906589Y-107913087D01*
X158905429Y-107909243D01*
X158872326Y-107846985D01*
X158839906Y-107784441D01*
X158837403Y-107781306D01*
X158835519Y-107777762D01*
X158790978Y-107723150D01*
X158747003Y-107668063D01*
X158741493Y-107662476D01*
X158741402Y-107662364D01*
X158741298Y-107662278D01*
X158739523Y-107660478D01*
X158735238Y-107656193D01*
X158736045Y-107598415D01*
X158696582Y-107399114D01*
X158619160Y-107211274D01*
X158506727Y-107042049D01*
X158363567Y-106897886D01*
X158195131Y-106784274D01*
X158007836Y-106705543D01*
X157808815Y-106664690D01*
X157605650Y-106663271D01*
X157406079Y-106701342D01*
X157217703Y-106777451D01*
X157047697Y-106888699D01*
X156902538Y-107030850D01*
X156787753Y-107198488D01*
X156707716Y-107385229D01*
X156665475Y-107583959D01*
X156665441Y-107586396D01*
X153539522Y-104460478D01*
X153487342Y-104417616D01*
X153487797Y-104413000D01*
X156633956Y-104413000D01*
X159523614Y-107302659D01*
X159465902Y-107574175D01*
X159461552Y-107885665D01*
X159517788Y-108192068D01*
X159632466Y-108481713D01*
X159801219Y-108743567D01*
X160017620Y-108967657D01*
X160273425Y-109145446D01*
X160558891Y-109270163D01*
X160863145Y-109337058D01*
X161174598Y-109343582D01*
X161481386Y-109289487D01*
X161771824Y-109176833D01*
X162034850Y-109009912D01*
X162260445Y-108795081D01*
X162440016Y-108540523D01*
X162566723Y-108255935D01*
X162635740Y-107952155D01*
X162636668Y-107885665D01*
X165908072Y-107885665D01*
X165964308Y-108192068D01*
X166078986Y-108481713D01*
X166247739Y-108743567D01*
X166464140Y-108967657D01*
X166719945Y-109145446D01*
X167005411Y-109270163D01*
X167309665Y-109337058D01*
X167621118Y-109343582D01*
X167927906Y-109289487D01*
X168218344Y-109176833D01*
X168481370Y-109009912D01*
X168706965Y-108795081D01*
X168886536Y-108540523D01*
X169013243Y-108255935D01*
X169082260Y-107952155D01*
X169087228Y-107596340D01*
X169026720Y-107290751D01*
X168908009Y-107002736D01*
X168735616Y-106743264D01*
X168516107Y-106522218D01*
X168257845Y-106348017D01*
X167970665Y-106227298D01*
X167665507Y-106164658D01*
X167353994Y-106162483D01*
X167047991Y-106220856D01*
X166759153Y-106337554D01*
X166498484Y-106508132D01*
X166275911Y-106726091D01*
X166099912Y-106983132D01*
X165977190Y-107269461D01*
X165912422Y-107574175D01*
X165908072Y-107885665D01*
X162636668Y-107885665D01*
X162640708Y-107596340D01*
X162580200Y-107290751D01*
X162461489Y-107002736D01*
X162289096Y-106743264D01*
X162069587Y-106522218D01*
X161811325Y-106348017D01*
X161524145Y-106227298D01*
X161218987Y-106164658D01*
X160907474Y-106162483D01*
X160601471Y-106220856D01*
X160600353Y-106221308D01*
X158042044Y-103663000D01*
X161370000Y-103663000D01*
X161440144Y-103656122D01*
X161510355Y-103649980D01*
X161514208Y-103648860D01*
X161518201Y-103648469D01*
X161585684Y-103628095D01*
X161653353Y-103608435D01*
X161656914Y-103606589D01*
X161660757Y-103605429D01*
X161722994Y-103572337D01*
X161785560Y-103539906D01*
X161788697Y-103537402D01*
X161792238Y-103535519D01*
X161846828Y-103490996D01*
X161901937Y-103447003D01*
X161907520Y-103441497D01*
X161907636Y-103441402D01*
X161907725Y-103441294D01*
X161909522Y-103439522D01*
X162461109Y-102887935D01*
X162583670Y-102914882D01*
X162857772Y-102920624D01*
X163127769Y-102873016D01*
X163383377Y-102773872D01*
X163614859Y-102626969D01*
X163813399Y-102437902D01*
X163971435Y-102213872D01*
X164018880Y-102107308D01*
X164040580Y-102162115D01*
X164189096Y-102392566D01*
X164379544Y-102589782D01*
X164604672Y-102746250D01*
X164855904Y-102856010D01*
X165123670Y-102914882D01*
X165397772Y-102920624D01*
X165667769Y-102873016D01*
X165923377Y-102773872D01*
X166154859Y-102626969D01*
X166353399Y-102437902D01*
X166511435Y-102213872D01*
X166622947Y-101963412D01*
X166683687Y-101696064D01*
X166688060Y-101382919D01*
X166634808Y-101113979D01*
X166530333Y-100860503D01*
X166378614Y-100632148D01*
X166185430Y-100437611D01*
X165958140Y-100284301D01*
X165882618Y-100252555D01*
X165892466Y-100249015D01*
X166010435Y-100185959D01*
X166077276Y-99945467D01*
X165290000Y-99158191D01*
X165275858Y-99172333D01*
X165097667Y-98994142D01*
X165111809Y-98980000D01*
X165468191Y-98980000D01*
X166255467Y-99767276D01*
X166495959Y-99700435D01*
X166613337Y-99451321D01*
X166679859Y-99184095D01*
X166692971Y-98909025D01*
X166652166Y-98636683D01*
X166559015Y-98377534D01*
X166495959Y-98259565D01*
X166255467Y-98192724D01*
X165468191Y-98980000D01*
X165111809Y-98980000D01*
X165097667Y-98965858D01*
X165275858Y-98787667D01*
X165290000Y-98801809D01*
X166077276Y-98014533D01*
X166010435Y-97774041D01*
X165761321Y-97656663D01*
X165494095Y-97590141D01*
X165219025Y-97577029D01*
X164946683Y-97617834D01*
X164687534Y-97710985D01*
X164614162Y-97750203D01*
X164609422Y-97744391D01*
X164565569Y-97689457D01*
X164560074Y-97683885D01*
X164559983Y-97683773D01*
X164559879Y-97683687D01*
X164558108Y-97681891D01*
X163788108Y-96911892D01*
X163733811Y-96867291D01*
X163679940Y-96822089D01*
X163676434Y-96820161D01*
X163673341Y-96817621D01*
X163611349Y-96784381D01*
X163549790Y-96750538D01*
X163545980Y-96749329D01*
X163542449Y-96747436D01*
X163475184Y-96726872D01*
X163408221Y-96705630D01*
X163404244Y-96705184D01*
X163400417Y-96704014D01*
X163330514Y-96696913D01*
X163260625Y-96689074D01*
X163252799Y-96689019D01*
X163252656Y-96689005D01*
X163252523Y-96689018D01*
X163250000Y-96689000D01*
X153487994Y-96689000D01*
X153476797Y-96575322D01*
X153440430Y-96455436D01*
X153381373Y-96344948D01*
X153301896Y-96248104D01*
X153205052Y-96168627D01*
X153100981Y-96113000D01*
X159550000Y-96113000D01*
X159620144Y-96106122D01*
X159690355Y-96099980D01*
X159694208Y-96098860D01*
X159698201Y-96098469D01*
X159765684Y-96078095D01*
X159833353Y-96058435D01*
X159836914Y-96056589D01*
X159840757Y-96055429D01*
X159902994Y-96022337D01*
X159965560Y-95989906D01*
X159968697Y-95987402D01*
X159972238Y-95985519D01*
X160026828Y-95940996D01*
X160081937Y-95897003D01*
X160087520Y-95891497D01*
X160087636Y-95891402D01*
X160087725Y-95891294D01*
X160089522Y-95889522D01*
X162476368Y-93502677D01*
X164016000Y-93502677D01*
X164140678Y-93490397D01*
X164260564Y-93454030D01*
X164371052Y-93394973D01*
X164467896Y-93315496D01*
X164547373Y-93218652D01*
X164606430Y-93108164D01*
X164642797Y-92988278D01*
X164655077Y-92863600D01*
X164655077Y-91422126D01*
X166142802Y-91422126D01*
X166201362Y-91615188D01*
X166343332Y-91906260D01*
X166539360Y-92164042D01*
X166781912Y-92378628D01*
X167061667Y-92541771D01*
X167367874Y-92647202D01*
X167624000Y-92528192D01*
X167624000Y-91166000D01*
X167876000Y-91166000D01*
X167876000Y-92528192D01*
X168132126Y-92647202D01*
X168438333Y-92541771D01*
X168718088Y-92378628D01*
X168960640Y-92164042D01*
X169156668Y-91906260D01*
X169298638Y-91615188D01*
X169357198Y-91422126D01*
X169237674Y-91166000D01*
X167876000Y-91166000D01*
X167624000Y-91166000D01*
X166262326Y-91166000D01*
X166142802Y-91422126D01*
X164655077Y-91422126D01*
X164655077Y-91136400D01*
X164642797Y-91011722D01*
X164606430Y-90891836D01*
X164547373Y-90781348D01*
X164467896Y-90684504D01*
X164371052Y-90605027D01*
X164260564Y-90545970D01*
X164209285Y-90530415D01*
X164217062Y-90524072D01*
X164403618Y-90298566D01*
X164542819Y-90041118D01*
X164629364Y-89761536D01*
X164659956Y-89470469D01*
X164633431Y-89179003D01*
X164550798Y-88898240D01*
X164415205Y-88638874D01*
X164231816Y-88410785D01*
X164007618Y-88222660D01*
X163949511Y-88190715D01*
X163990259Y-88169049D01*
X164217062Y-87984072D01*
X164403618Y-87758566D01*
X164542819Y-87501118D01*
X164548117Y-87484000D01*
X166094923Y-87484000D01*
X166094923Y-89516000D01*
X166107203Y-89640678D01*
X166143570Y-89760564D01*
X166202627Y-89871052D01*
X166282104Y-89967896D01*
X166378948Y-90047373D01*
X166421949Y-90070357D01*
X166343332Y-90173740D01*
X166201362Y-90464812D01*
X166142802Y-90657874D01*
X166262326Y-90914000D01*
X167624000Y-90914000D01*
X167624000Y-90894000D01*
X167876000Y-90894000D01*
X167876000Y-90914000D01*
X169237674Y-90914000D01*
X169357198Y-90657874D01*
X169298638Y-90464812D01*
X169156668Y-90173740D01*
X169078051Y-90070357D01*
X169121052Y-90047373D01*
X169217896Y-89967896D01*
X169297373Y-89871052D01*
X169356430Y-89760564D01*
X169392797Y-89640678D01*
X169405077Y-89516000D01*
X169405077Y-87484000D01*
X169392797Y-87359322D01*
X169356430Y-87239436D01*
X169297373Y-87128948D01*
X169217896Y-87032104D01*
X169121052Y-86952627D01*
X169010564Y-86893570D01*
X168890678Y-86857203D01*
X168766000Y-86844923D01*
X166734000Y-86844923D01*
X166609322Y-86857203D01*
X166489436Y-86893570D01*
X166378948Y-86952627D01*
X166282104Y-87032104D01*
X166202627Y-87128948D01*
X166143570Y-87239436D01*
X166107203Y-87359322D01*
X166094923Y-87484000D01*
X164548117Y-87484000D01*
X164629364Y-87221536D01*
X164659956Y-86930469D01*
X164633431Y-86639003D01*
X164550798Y-86358240D01*
X164415205Y-86098874D01*
X164231816Y-85870785D01*
X164007618Y-85682660D01*
X163751148Y-85541665D01*
X163472177Y-85453170D01*
X163181331Y-85420546D01*
X163160393Y-85420400D01*
X162839607Y-85420400D01*
X162548333Y-85448960D01*
X162268154Y-85533551D01*
X162009741Y-85670951D01*
X161782938Y-85855928D01*
X161596382Y-86081434D01*
X161457181Y-86338882D01*
X161370636Y-86618464D01*
X161340044Y-86909531D01*
X161366569Y-87200997D01*
X161449202Y-87481760D01*
X161584795Y-87741126D01*
X161768184Y-87969215D01*
X161992382Y-88157340D01*
X162050489Y-88189285D01*
X162009741Y-88210951D01*
X161782938Y-88395928D01*
X161596382Y-88621434D01*
X161457181Y-88878882D01*
X161370636Y-89158464D01*
X161340044Y-89449531D01*
X161366569Y-89740997D01*
X161449202Y-90021760D01*
X161584795Y-90281126D01*
X161768184Y-90509215D01*
X161792723Y-90529806D01*
X161739436Y-90545970D01*
X161628948Y-90605027D01*
X161532104Y-90684504D01*
X161452627Y-90781348D01*
X161393570Y-90891836D01*
X161357203Y-91011722D01*
X161344923Y-91136400D01*
X161344923Y-92476032D01*
X159428000Y-94392956D01*
X159428000Y-84506292D01*
X159445364Y-84329998D01*
X159489044Y-84186000D01*
X170314000Y-84186000D01*
X170314000Y-124814000D01*
X154728000Y-124814000D01*
X154728000Y-123665450D01*
X154763339Y-123586077D01*
X154877868Y-123081977D01*
X154886113Y-122491527D01*
X154785704Y-121984426D01*
X154728000Y-121844426D01*
X154728000Y-120400000D01*
X154718257Y-120351017D01*
X154690510Y-120309490D01*
X154648983Y-120281743D01*
X154600000Y-120272000D01*
X153157668Y-120272000D01*
X153033258Y-120219703D01*
X152526870Y-120115756D01*
X152009937Y-120112147D01*
X151502147Y-120209013D01*
X151346249Y-120272000D01*
X149900000Y-120272000D01*
X149851017Y-120281743D01*
X149809490Y-120309490D01*
X149781743Y-120351017D01*
X149772000Y-120400000D01*
X149772000Y-121839979D01*
X149725232Y-121949097D01*
X149617753Y-122454746D01*
X149610536Y-122971642D01*
X149703854Y-123480096D01*
X149772000Y-123652213D01*
X149772000Y-124814000D01*
X134186000Y-124814000D01*
X134186000Y-96831427D01*
X136408553Y-96831427D01*
X136449225Y-97101512D01*
X136541805Y-97358473D01*
X136603371Y-97473657D01*
X136842697Y-97539112D01*
X137621809Y-96760000D01*
X137978191Y-96760000D01*
X138757303Y-97539112D01*
X138996629Y-97473657D01*
X139112863Y-97226493D01*
X139178645Y-96961403D01*
X139191447Y-96688573D01*
X139150775Y-96418488D01*
X139058195Y-96161527D01*
X138996629Y-96046343D01*
X138757303Y-95980888D01*
X137978191Y-96760000D01*
X137621809Y-96760000D01*
X136842697Y-95980888D01*
X136603371Y-96046343D01*
X136487137Y-96293507D01*
X136421355Y-96558597D01*
X136408553Y-96831427D01*
X134186000Y-96831427D01*
X134186000Y-95802697D01*
X137020888Y-95802697D01*
X137800000Y-96581809D01*
X138579112Y-95802697D01*
X138513657Y-95563371D01*
X138266493Y-95447137D01*
X138001403Y-95381355D01*
X137728573Y-95368553D01*
X137458488Y-95409225D01*
X137201527Y-95501805D01*
X137086343Y-95563371D01*
X137020888Y-95802697D01*
X134186000Y-95802697D01*
X134186000Y-86619541D01*
X136656768Y-86619541D01*
X136779804Y-86834000D01*
X138374000Y-86834000D01*
X138374000Y-85573430D01*
X138626000Y-85573430D01*
X138626000Y-86834000D01*
X140220196Y-86834000D01*
X140343232Y-86619541D01*
X140328351Y-86545791D01*
X140222002Y-86294428D01*
X140068658Y-86068642D01*
X139874212Y-85877111D01*
X139646136Y-85727194D01*
X139393195Y-85624654D01*
X139125110Y-85573430D01*
X138626000Y-85573430D01*
X138374000Y-85573430D01*
X137874890Y-85573430D01*
X137606805Y-85624654D01*
X137353864Y-85727194D01*
X137125788Y-85877111D01*
X136931342Y-86068642D01*
X136777998Y-86294428D01*
X136671649Y-86545791D01*
X136656768Y-86619541D01*
X134186000Y-86619541D01*
X134186000Y-84186000D01*
X141410956Y-84186000D01*
X141454636Y-84329998D01*
G36*
X157829177Y-115489522D02*
X157883623Y-115534245D01*
X157937630Y-115579562D01*
X157941147Y-115581496D01*
X157944246Y-115584041D01*
X158006365Y-115617349D01*
X158068122Y-115651300D01*
X158071944Y-115652512D01*
X158075483Y-115654410D01*
X158110923Y-115665245D01*
X158110923Y-115700000D01*
X158123203Y-115824678D01*
X158159570Y-115944564D01*
X158218627Y-116055052D01*
X158298104Y-116151896D01*
X158394948Y-116231373D01*
X158505436Y-116290430D01*
X158536984Y-116300000D01*
X158505436Y-116309570D01*
X158394948Y-116368627D01*
X158298104Y-116448104D01*
X158218627Y-116544948D01*
X158159570Y-116655436D01*
X158123203Y-116775322D01*
X158110923Y-116900000D01*
X158110923Y-118400000D01*
X158123203Y-118524678D01*
X158159570Y-118644564D01*
X158218627Y-118755052D01*
X158298104Y-118851896D01*
X158394948Y-118931373D01*
X158505436Y-118990430D01*
X158625322Y-119026797D01*
X158750000Y-119039077D01*
X160050000Y-119039077D01*
X160174678Y-119026797D01*
X160294564Y-118990430D01*
X160405052Y-118931373D01*
X160501896Y-118851896D01*
X160581373Y-118755052D01*
X160640430Y-118644564D01*
X160676797Y-118524678D01*
X160687797Y-118413000D01*
X161234132Y-118413000D01*
X161235635Y-118428324D01*
X161299716Y-118640570D01*
X161403801Y-118836327D01*
X161543928Y-119008138D01*
X161714757Y-119149461D01*
X161909782Y-119254911D01*
X162121575Y-119320471D01*
X162342069Y-119343646D01*
X162562865Y-119323552D01*
X162775553Y-119260955D01*
X162797549Y-119249456D01*
X162818741Y-119263616D01*
X162934485Y-119311559D01*
X163057359Y-119336000D01*
X163335000Y-119336000D01*
X163494000Y-119177000D01*
X163494000Y-117876000D01*
X163486000Y-117876000D01*
X163486000Y-117624000D01*
X163494000Y-117624000D01*
X163494000Y-117604000D01*
X163746000Y-117604000D01*
X163746000Y-117624000D01*
X163754000Y-117624000D01*
X163754000Y-117876000D01*
X163746000Y-117876000D01*
X163746000Y-119177000D01*
X163905000Y-119336000D01*
X163984955Y-119336000D01*
X160833956Y-122487000D01*
X160687797Y-122487000D01*
X160676797Y-122375322D01*
X160640430Y-122255436D01*
X160581373Y-122144948D01*
X160501896Y-122048104D01*
X160405052Y-121968627D01*
X160294564Y-121909570D01*
X160263016Y-121900000D01*
X160294564Y-121890430D01*
X160405052Y-121831373D01*
X160501896Y-121751896D01*
X160581373Y-121655052D01*
X160640430Y-121544564D01*
X160676797Y-121424678D01*
X160689077Y-121300000D01*
X160689077Y-119800000D01*
X160676797Y-119675322D01*
X160640430Y-119555436D01*
X160581373Y-119444948D01*
X160501896Y-119348104D01*
X160405052Y-119268627D01*
X160294564Y-119209570D01*
X160174678Y-119173203D01*
X160050000Y-119160923D01*
X158750000Y-119160923D01*
X158625322Y-119173203D01*
X158505436Y-119209570D01*
X158394948Y-119268627D01*
X158298104Y-119348104D01*
X158274550Y-119376805D01*
X157176300Y-118278556D01*
X157176300Y-114836645D01*
X157829177Y-115489522D01*
X157829177Y-115489522D01*
G37*
X157829177Y-115489522D02*
X157883623Y-115534245D01*
X157937630Y-115579562D01*
X157941147Y-115581496D01*
X157944246Y-115584041D01*
X158006365Y-115617349D01*
X158068122Y-115651300D01*
X158071944Y-115652512D01*
X158075483Y-115654410D01*
X158110923Y-115665245D01*
X158110923Y-115700000D01*
X158123203Y-115824678D01*
X158159570Y-115944564D01*
X158218627Y-116055052D01*
X158298104Y-116151896D01*
X158394948Y-116231373D01*
X158505436Y-116290430D01*
X158536984Y-116300000D01*
X158505436Y-116309570D01*
X158394948Y-116368627D01*
X158298104Y-116448104D01*
X158218627Y-116544948D01*
X158159570Y-116655436D01*
X158123203Y-116775322D01*
X158110923Y-116900000D01*
X158110923Y-118400000D01*
X158123203Y-118524678D01*
X158159570Y-118644564D01*
X158218627Y-118755052D01*
X158298104Y-118851896D01*
X158394948Y-118931373D01*
X158505436Y-118990430D01*
X158625322Y-119026797D01*
X158750000Y-119039077D01*
X160050000Y-119039077D01*
X160174678Y-119026797D01*
X160294564Y-118990430D01*
X160405052Y-118931373D01*
X160501896Y-118851896D01*
X160581373Y-118755052D01*
X160640430Y-118644564D01*
X160676797Y-118524678D01*
X160687797Y-118413000D01*
X161234132Y-118413000D01*
X161235635Y-118428324D01*
X161299716Y-118640570D01*
X161403801Y-118836327D01*
X161543928Y-119008138D01*
X161714757Y-119149461D01*
X161909782Y-119254911D01*
X162121575Y-119320471D01*
X162342069Y-119343646D01*
X162562865Y-119323552D01*
X162775553Y-119260955D01*
X162797549Y-119249456D01*
X162818741Y-119263616D01*
X162934485Y-119311559D01*
X163057359Y-119336000D01*
X163335000Y-119336000D01*
X163494000Y-119177000D01*
X163494000Y-117876000D01*
X163486000Y-117876000D01*
X163486000Y-117624000D01*
X163494000Y-117624000D01*
X163494000Y-117604000D01*
X163746000Y-117604000D01*
X163746000Y-117624000D01*
X163754000Y-117624000D01*
X163754000Y-117876000D01*
X163746000Y-117876000D01*
X163746000Y-119177000D01*
X163905000Y-119336000D01*
X163984955Y-119336000D01*
X160833956Y-122487000D01*
X160687797Y-122487000D01*
X160676797Y-122375322D01*
X160640430Y-122255436D01*
X160581373Y-122144948D01*
X160501896Y-122048104D01*
X160405052Y-121968627D01*
X160294564Y-121909570D01*
X160263016Y-121900000D01*
X160294564Y-121890430D01*
X160405052Y-121831373D01*
X160501896Y-121751896D01*
X160581373Y-121655052D01*
X160640430Y-121544564D01*
X160676797Y-121424678D01*
X160689077Y-121300000D01*
X160689077Y-119800000D01*
X160676797Y-119675322D01*
X160640430Y-119555436D01*
X160581373Y-119444948D01*
X160501896Y-119348104D01*
X160405052Y-119268627D01*
X160294564Y-119209570D01*
X160174678Y-119173203D01*
X160050000Y-119160923D01*
X158750000Y-119160923D01*
X158625322Y-119173203D01*
X158505436Y-119209570D01*
X158394948Y-119268627D01*
X158298104Y-119348104D01*
X158274550Y-119376805D01*
X157176300Y-118278556D01*
X157176300Y-114836645D01*
X157829177Y-115489522D01*
G36*
X140873104Y-105201896D02*
X140969948Y-105281373D01*
X140992344Y-105293344D01*
X141085000Y-105386000D01*
X141137641Y-105386000D01*
X141193821Y-105374825D01*
X141200322Y-105376797D01*
X141325000Y-105389077D01*
X141875000Y-105389077D01*
X141999678Y-105376797D01*
X142000000Y-105376699D01*
X142000322Y-105376797D01*
X142125000Y-105389077D01*
X142675000Y-105389077D01*
X142799678Y-105376797D01*
X142800000Y-105376699D01*
X142800322Y-105376797D01*
X142925000Y-105389077D01*
X143475000Y-105389077D01*
X143599678Y-105376797D01*
X143600000Y-105376699D01*
X143600322Y-105376797D01*
X143725000Y-105389077D01*
X144010923Y-105389077D01*
X144010923Y-105675000D01*
X144023203Y-105799678D01*
X144023301Y-105800000D01*
X144023203Y-105800322D01*
X144010923Y-105925000D01*
X144010923Y-106475000D01*
X144023203Y-106599678D01*
X144023301Y-106600000D01*
X144023203Y-106600322D01*
X144010923Y-106725000D01*
X144010923Y-106862377D01*
X143895131Y-106784274D01*
X143707836Y-106705543D01*
X143508815Y-106664690D01*
X143305650Y-106663271D01*
X143106079Y-106701342D01*
X142917703Y-106777451D01*
X142747697Y-106888699D01*
X142602538Y-107030850D01*
X142487753Y-107198488D01*
X142407716Y-107385229D01*
X142365475Y-107583959D01*
X142362638Y-107787110D01*
X142399314Y-107986942D01*
X142474106Y-108175845D01*
X142584165Y-108346623D01*
X142725299Y-108492771D01*
X142892132Y-108608723D01*
X143078309Y-108690062D01*
X143276740Y-108733690D01*
X143356312Y-108735357D01*
X143760477Y-109139522D01*
X143814923Y-109184245D01*
X143868930Y-109229562D01*
X143872447Y-109231496D01*
X143875546Y-109234041D01*
X143937684Y-109267359D01*
X143999422Y-109301300D01*
X144003242Y-109302512D01*
X144006782Y-109304410D01*
X144010923Y-109305676D01*
X144010923Y-109675000D01*
X144023203Y-109799678D01*
X144023301Y-109800000D01*
X144023203Y-109800322D01*
X144010923Y-109925000D01*
X144010923Y-110475000D01*
X144023203Y-110599678D01*
X144023301Y-110600000D01*
X144023203Y-110600322D01*
X144010923Y-110725000D01*
X144010923Y-111010923D01*
X143725000Y-111010923D01*
X143600322Y-111023203D01*
X143600000Y-111023301D01*
X143599678Y-111023203D01*
X143475000Y-111010923D01*
X142925000Y-111010923D01*
X142800322Y-111023203D01*
X142800000Y-111023301D01*
X142799678Y-111023203D01*
X142675000Y-111010923D01*
X142125000Y-111010923D01*
X142000322Y-111023203D01*
X141993821Y-111025175D01*
X141937641Y-111014000D01*
X141885000Y-111014000D01*
X141792344Y-111106656D01*
X141769948Y-111118627D01*
X141673104Y-111198104D01*
X141600000Y-111287182D01*
X141526896Y-111198104D01*
X141430052Y-111118627D01*
X141407656Y-111106656D01*
X141315000Y-111014000D01*
X141262359Y-111014000D01*
X141206179Y-111025175D01*
X141199678Y-111023203D01*
X141075000Y-111010923D01*
X140525000Y-111010923D01*
X140400322Y-111023203D01*
X140393821Y-111025175D01*
X140337641Y-111014000D01*
X140285000Y-111014000D01*
X140192344Y-111106656D01*
X140169948Y-111118627D01*
X140073104Y-111198104D01*
X140000000Y-111287182D01*
X139926896Y-111198104D01*
X139830052Y-111118627D01*
X139807656Y-111106656D01*
X139715000Y-111014000D01*
X139662359Y-111014000D01*
X139606179Y-111025175D01*
X139599678Y-111023203D01*
X139475000Y-111010923D01*
X139103721Y-111010923D01*
X139823795Y-110290850D01*
X139861766Y-110291645D01*
X140061849Y-110256365D01*
X140251269Y-110182893D01*
X140422812Y-110074029D01*
X140569942Y-109933919D01*
X140687056Y-109767900D01*
X140769692Y-109582295D01*
X140814704Y-109384174D01*
X140817945Y-109152115D01*
X140778482Y-108952814D01*
X140701060Y-108764974D01*
X140588627Y-108595749D01*
X140445467Y-108451586D01*
X140277031Y-108337974D01*
X140089736Y-108259243D01*
X139890715Y-108218390D01*
X139687550Y-108216971D01*
X139487979Y-108255042D01*
X139387343Y-108295702D01*
X139839523Y-107843522D01*
X139884253Y-107789066D01*
X139929562Y-107735070D01*
X139931495Y-107731554D01*
X139934042Y-107728453D01*
X139967359Y-107666317D01*
X140001300Y-107604578D01*
X140002512Y-107600756D01*
X140004410Y-107597217D01*
X140025017Y-107529814D01*
X140046327Y-107462637D01*
X140046775Y-107458647D01*
X140047947Y-107454812D01*
X140052041Y-107414502D01*
X140088042Y-107380219D01*
X140205156Y-107214200D01*
X140287792Y-107028595D01*
X140332804Y-106830474D01*
X140336045Y-106598415D01*
X140296582Y-106399114D01*
X140219160Y-106211274D01*
X140106727Y-106042049D01*
X139963567Y-105897886D01*
X139795131Y-105784274D01*
X139607836Y-105705543D01*
X139408815Y-105664690D01*
X139205650Y-105663271D01*
X139006079Y-105701342D01*
X138817703Y-105777451D01*
X138647697Y-105888699D01*
X138502538Y-106030850D01*
X138389077Y-106196554D01*
X138389077Y-105925000D01*
X138376797Y-105800322D01*
X138376699Y-105800000D01*
X138376797Y-105799678D01*
X138389077Y-105675000D01*
X138389077Y-105389077D01*
X138675000Y-105389077D01*
X138799678Y-105376797D01*
X138800000Y-105376699D01*
X138800322Y-105376797D01*
X138925000Y-105389077D01*
X139475000Y-105389077D01*
X139599678Y-105376797D01*
X139600000Y-105376699D01*
X139600322Y-105376797D01*
X139725000Y-105389077D01*
X140275000Y-105389077D01*
X140399678Y-105376797D01*
X140406179Y-105374825D01*
X140462359Y-105386000D01*
X140515000Y-105386000D01*
X140607656Y-105293344D01*
X140630052Y-105281373D01*
X140726896Y-105201896D01*
X140800000Y-105112818D01*
X140873104Y-105201896D01*
X140873104Y-105201896D01*
G37*
X140873104Y-105201896D02*
X140969948Y-105281373D01*
X140992344Y-105293344D01*
X141085000Y-105386000D01*
X141137641Y-105386000D01*
X141193821Y-105374825D01*
X141200322Y-105376797D01*
X141325000Y-105389077D01*
X141875000Y-105389077D01*
X141999678Y-105376797D01*
X142000000Y-105376699D01*
X142000322Y-105376797D01*
X142125000Y-105389077D01*
X142675000Y-105389077D01*
X142799678Y-105376797D01*
X142800000Y-105376699D01*
X142800322Y-105376797D01*
X142925000Y-105389077D01*
X143475000Y-105389077D01*
X143599678Y-105376797D01*
X143600000Y-105376699D01*
X143600322Y-105376797D01*
X143725000Y-105389077D01*
X144010923Y-105389077D01*
X144010923Y-105675000D01*
X144023203Y-105799678D01*
X144023301Y-105800000D01*
X144023203Y-105800322D01*
X144010923Y-105925000D01*
X144010923Y-106475000D01*
X144023203Y-106599678D01*
X144023301Y-106600000D01*
X144023203Y-106600322D01*
X144010923Y-106725000D01*
X144010923Y-106862377D01*
X143895131Y-106784274D01*
X143707836Y-106705543D01*
X143508815Y-106664690D01*
X143305650Y-106663271D01*
X143106079Y-106701342D01*
X142917703Y-106777451D01*
X142747697Y-106888699D01*
X142602538Y-107030850D01*
X142487753Y-107198488D01*
X142407716Y-107385229D01*
X142365475Y-107583959D01*
X142362638Y-107787110D01*
X142399314Y-107986942D01*
X142474106Y-108175845D01*
X142584165Y-108346623D01*
X142725299Y-108492771D01*
X142892132Y-108608723D01*
X143078309Y-108690062D01*
X143276740Y-108733690D01*
X143356312Y-108735357D01*
X143760477Y-109139522D01*
X143814923Y-109184245D01*
X143868930Y-109229562D01*
X143872447Y-109231496D01*
X143875546Y-109234041D01*
X143937684Y-109267359D01*
X143999422Y-109301300D01*
X144003242Y-109302512D01*
X144006782Y-109304410D01*
X144010923Y-109305676D01*
X144010923Y-109675000D01*
X144023203Y-109799678D01*
X144023301Y-109800000D01*
X144023203Y-109800322D01*
X144010923Y-109925000D01*
X144010923Y-110475000D01*
X144023203Y-110599678D01*
X144023301Y-110600000D01*
X144023203Y-110600322D01*
X144010923Y-110725000D01*
X144010923Y-111010923D01*
X143725000Y-111010923D01*
X143600322Y-111023203D01*
X143600000Y-111023301D01*
X143599678Y-111023203D01*
X143475000Y-111010923D01*
X142925000Y-111010923D01*
X142800322Y-111023203D01*
X142800000Y-111023301D01*
X142799678Y-111023203D01*
X142675000Y-111010923D01*
X142125000Y-111010923D01*
X142000322Y-111023203D01*
X141993821Y-111025175D01*
X141937641Y-111014000D01*
X141885000Y-111014000D01*
X141792344Y-111106656D01*
X141769948Y-111118627D01*
X141673104Y-111198104D01*
X141600000Y-111287182D01*
X141526896Y-111198104D01*
X141430052Y-111118627D01*
X141407656Y-111106656D01*
X141315000Y-111014000D01*
X141262359Y-111014000D01*
X141206179Y-111025175D01*
X141199678Y-111023203D01*
X141075000Y-111010923D01*
X140525000Y-111010923D01*
X140400322Y-111023203D01*
X140393821Y-111025175D01*
X140337641Y-111014000D01*
X140285000Y-111014000D01*
X140192344Y-111106656D01*
X140169948Y-111118627D01*
X140073104Y-111198104D01*
X140000000Y-111287182D01*
X139926896Y-111198104D01*
X139830052Y-111118627D01*
X139807656Y-111106656D01*
X139715000Y-111014000D01*
X139662359Y-111014000D01*
X139606179Y-111025175D01*
X139599678Y-111023203D01*
X139475000Y-111010923D01*
X139103721Y-111010923D01*
X139823795Y-110290850D01*
X139861766Y-110291645D01*
X140061849Y-110256365D01*
X140251269Y-110182893D01*
X140422812Y-110074029D01*
X140569942Y-109933919D01*
X140687056Y-109767900D01*
X140769692Y-109582295D01*
X140814704Y-109384174D01*
X140817945Y-109152115D01*
X140778482Y-108952814D01*
X140701060Y-108764974D01*
X140588627Y-108595749D01*
X140445467Y-108451586D01*
X140277031Y-108337974D01*
X140089736Y-108259243D01*
X139890715Y-108218390D01*
X139687550Y-108216971D01*
X139487979Y-108255042D01*
X139387343Y-108295702D01*
X139839523Y-107843522D01*
X139884253Y-107789066D01*
X139929562Y-107735070D01*
X139931495Y-107731554D01*
X139934042Y-107728453D01*
X139967359Y-107666317D01*
X140001300Y-107604578D01*
X140002512Y-107600756D01*
X140004410Y-107597217D01*
X140025017Y-107529814D01*
X140046327Y-107462637D01*
X140046775Y-107458647D01*
X140047947Y-107454812D01*
X140052041Y-107414502D01*
X140088042Y-107380219D01*
X140205156Y-107214200D01*
X140287792Y-107028595D01*
X140332804Y-106830474D01*
X140336045Y-106598415D01*
X140296582Y-106399114D01*
X140219160Y-106211274D01*
X140106727Y-106042049D01*
X139963567Y-105897886D01*
X139795131Y-105784274D01*
X139607836Y-105705543D01*
X139408815Y-105664690D01*
X139205650Y-105663271D01*
X139006079Y-105701342D01*
X138817703Y-105777451D01*
X138647697Y-105888699D01*
X138502538Y-106030850D01*
X138389077Y-106196554D01*
X138389077Y-105925000D01*
X138376797Y-105800322D01*
X138376699Y-105800000D01*
X138376797Y-105799678D01*
X138389077Y-105675000D01*
X138389077Y-105389077D01*
X138675000Y-105389077D01*
X138799678Y-105376797D01*
X138800000Y-105376699D01*
X138800322Y-105376797D01*
X138925000Y-105389077D01*
X139475000Y-105389077D01*
X139599678Y-105376797D01*
X139600000Y-105376699D01*
X139600322Y-105376797D01*
X139725000Y-105389077D01*
X140275000Y-105389077D01*
X140399678Y-105376797D01*
X140406179Y-105374825D01*
X140462359Y-105386000D01*
X140515000Y-105386000D01*
X140607656Y-105293344D01*
X140630052Y-105281373D01*
X140726896Y-105201896D01*
X140800000Y-105112818D01*
X140873104Y-105201896D01*
G36*
X151194948Y-96168627D02*
X151098104Y-96248104D01*
X151018627Y-96344948D01*
X150959570Y-96455436D01*
X150923203Y-96575322D01*
X150910923Y-96700000D01*
X150910923Y-98200000D01*
X150923203Y-98324678D01*
X150931686Y-98352642D01*
X150839522Y-98260478D01*
X150785101Y-98215776D01*
X150731070Y-98170438D01*
X150727553Y-98168504D01*
X150724454Y-98165959D01*
X150662335Y-98132651D01*
X150600578Y-98098700D01*
X150596756Y-98097488D01*
X150593217Y-98095590D01*
X150525814Y-98074983D01*
X150458637Y-98053673D01*
X150454647Y-98053225D01*
X150450812Y-98052053D01*
X150380746Y-98044936D01*
X150310653Y-98037074D01*
X150302806Y-98037019D01*
X150302663Y-98037005D01*
X150302530Y-98037018D01*
X150300000Y-98037000D01*
X150261000Y-98037000D01*
X150261000Y-97835000D01*
X150102000Y-97676000D01*
X149126000Y-97676000D01*
X149126000Y-97696000D01*
X148874000Y-97696000D01*
X148874000Y-97676000D01*
X147898000Y-97676000D01*
X147739000Y-97835000D01*
X147739000Y-98042981D01*
X147729856Y-98043878D01*
X147659645Y-98050020D01*
X147655792Y-98051140D01*
X147651799Y-98051531D01*
X147584316Y-98071905D01*
X147516647Y-98091565D01*
X147513086Y-98093411D01*
X147509243Y-98094571D01*
X147447006Y-98127663D01*
X147384440Y-98160094D01*
X147381303Y-98162598D01*
X147377762Y-98164481D01*
X147323172Y-98209004D01*
X147268063Y-98252997D01*
X147262476Y-98258507D01*
X147262364Y-98258598D01*
X147262278Y-98258702D01*
X147261000Y-98259962D01*
X147261000Y-97835000D01*
X147102000Y-97676000D01*
X146126000Y-97676000D01*
X146126000Y-97696000D01*
X145874000Y-97696000D01*
X145874000Y-97676000D01*
X144898000Y-97676000D01*
X144739000Y-97835000D01*
X144739000Y-98362640D01*
X144763441Y-98485514D01*
X144811384Y-98601258D01*
X144880986Y-98705426D01*
X144969573Y-98794013D01*
X144980290Y-98801174D01*
X144923104Y-98848104D01*
X144843627Y-98944948D01*
X144784570Y-99055436D01*
X144748203Y-99175322D01*
X144735923Y-99300000D01*
X144735923Y-100800000D01*
X144748203Y-100924678D01*
X144784570Y-101044564D01*
X144816554Y-101104402D01*
X144683956Y-101237000D01*
X144089121Y-101237000D01*
X144156373Y-101155052D01*
X144215430Y-101044564D01*
X144251797Y-100924678D01*
X144264077Y-100800000D01*
X144264077Y-99300000D01*
X144251797Y-99175322D01*
X144215430Y-99055436D01*
X144156373Y-98944948D01*
X144076896Y-98848104D01*
X144019710Y-98801174D01*
X144030427Y-98794013D01*
X144119014Y-98705426D01*
X144188616Y-98601258D01*
X144236559Y-98485514D01*
X144261000Y-98362640D01*
X144261000Y-97835000D01*
X144102000Y-97676000D01*
X143126000Y-97676000D01*
X143126000Y-97696000D01*
X142874000Y-97696000D01*
X142874000Y-97676000D01*
X141898000Y-97676000D01*
X141739000Y-97835000D01*
X141739000Y-98259956D01*
X141686900Y-98207856D01*
X141686900Y-96737360D01*
X141739000Y-96737360D01*
X141739000Y-97265000D01*
X141898000Y-97424000D01*
X142874000Y-97424000D01*
X142874000Y-96323000D01*
X143126000Y-96323000D01*
X143126000Y-97424000D01*
X144102000Y-97424000D01*
X144261000Y-97265000D01*
X144261000Y-96737360D01*
X144739000Y-96737360D01*
X144739000Y-97265000D01*
X144898000Y-97424000D01*
X145874000Y-97424000D01*
X145874000Y-96323000D01*
X146126000Y-96323000D01*
X146126000Y-97424000D01*
X147102000Y-97424000D01*
X147261000Y-97265000D01*
X147261000Y-96737360D01*
X147739000Y-96737360D01*
X147739000Y-97265000D01*
X147898000Y-97424000D01*
X148874000Y-97424000D01*
X148874000Y-96323000D01*
X149126000Y-96323000D01*
X149126000Y-97424000D01*
X150102000Y-97424000D01*
X150261000Y-97265000D01*
X150261000Y-96737360D01*
X150236559Y-96614486D01*
X150188616Y-96498742D01*
X150119014Y-96394574D01*
X150030427Y-96305987D01*
X149926259Y-96236384D01*
X149810515Y-96188441D01*
X149687641Y-96164000D01*
X149285000Y-96164000D01*
X149126000Y-96323000D01*
X148874000Y-96323000D01*
X148715000Y-96164000D01*
X148312359Y-96164000D01*
X148189485Y-96188441D01*
X148073741Y-96236384D01*
X147969573Y-96305987D01*
X147880986Y-96394574D01*
X147811384Y-96498742D01*
X147763441Y-96614486D01*
X147739000Y-96737360D01*
X147261000Y-96737360D01*
X147236559Y-96614486D01*
X147188616Y-96498742D01*
X147119014Y-96394574D01*
X147030427Y-96305987D01*
X146926259Y-96236384D01*
X146810515Y-96188441D01*
X146687641Y-96164000D01*
X146285000Y-96164000D01*
X146126000Y-96323000D01*
X145874000Y-96323000D01*
X145715000Y-96164000D01*
X145312359Y-96164000D01*
X145189485Y-96188441D01*
X145073741Y-96236384D01*
X144969573Y-96305987D01*
X144880986Y-96394574D01*
X144811384Y-96498742D01*
X144763441Y-96614486D01*
X144739000Y-96737360D01*
X144261000Y-96737360D01*
X144236559Y-96614486D01*
X144188616Y-96498742D01*
X144119014Y-96394574D01*
X144030427Y-96305987D01*
X143926259Y-96236384D01*
X143810515Y-96188441D01*
X143687641Y-96164000D01*
X143285000Y-96164000D01*
X143126000Y-96323000D01*
X142874000Y-96323000D01*
X142715000Y-96164000D01*
X142312359Y-96164000D01*
X142189485Y-96188441D01*
X142073741Y-96236384D01*
X141969573Y-96305987D01*
X141880986Y-96394574D01*
X141811384Y-96498742D01*
X141763441Y-96614486D01*
X141739000Y-96737360D01*
X141686900Y-96737360D01*
X141686900Y-96113000D01*
X151299019Y-96113000D01*
X151194948Y-96168627D01*
X151194948Y-96168627D01*
G37*
X151194948Y-96168627D02*
X151098104Y-96248104D01*
X151018627Y-96344948D01*
X150959570Y-96455436D01*
X150923203Y-96575322D01*
X150910923Y-96700000D01*
X150910923Y-98200000D01*
X150923203Y-98324678D01*
X150931686Y-98352642D01*
X150839522Y-98260478D01*
X150785101Y-98215776D01*
X150731070Y-98170438D01*
X150727553Y-98168504D01*
X150724454Y-98165959D01*
X150662335Y-98132651D01*
X150600578Y-98098700D01*
X150596756Y-98097488D01*
X150593217Y-98095590D01*
X150525814Y-98074983D01*
X150458637Y-98053673D01*
X150454647Y-98053225D01*
X150450812Y-98052053D01*
X150380746Y-98044936D01*
X150310653Y-98037074D01*
X150302806Y-98037019D01*
X150302663Y-98037005D01*
X150302530Y-98037018D01*
X150300000Y-98037000D01*
X150261000Y-98037000D01*
X150261000Y-97835000D01*
X150102000Y-97676000D01*
X149126000Y-97676000D01*
X149126000Y-97696000D01*
X148874000Y-97696000D01*
X148874000Y-97676000D01*
X147898000Y-97676000D01*
X147739000Y-97835000D01*
X147739000Y-98042981D01*
X147729856Y-98043878D01*
X147659645Y-98050020D01*
X147655792Y-98051140D01*
X147651799Y-98051531D01*
X147584316Y-98071905D01*
X147516647Y-98091565D01*
X147513086Y-98093411D01*
X147509243Y-98094571D01*
X147447006Y-98127663D01*
X147384440Y-98160094D01*
X147381303Y-98162598D01*
X147377762Y-98164481D01*
X147323172Y-98209004D01*
X147268063Y-98252997D01*
X147262476Y-98258507D01*
X147262364Y-98258598D01*
X147262278Y-98258702D01*
X147261000Y-98259962D01*
X147261000Y-97835000D01*
X147102000Y-97676000D01*
X146126000Y-97676000D01*
X146126000Y-97696000D01*
X145874000Y-97696000D01*
X145874000Y-97676000D01*
X144898000Y-97676000D01*
X144739000Y-97835000D01*
X144739000Y-98362640D01*
X144763441Y-98485514D01*
X144811384Y-98601258D01*
X144880986Y-98705426D01*
X144969573Y-98794013D01*
X144980290Y-98801174D01*
X144923104Y-98848104D01*
X144843627Y-98944948D01*
X144784570Y-99055436D01*
X144748203Y-99175322D01*
X144735923Y-99300000D01*
X144735923Y-100800000D01*
X144748203Y-100924678D01*
X144784570Y-101044564D01*
X144816554Y-101104402D01*
X144683956Y-101237000D01*
X144089121Y-101237000D01*
X144156373Y-101155052D01*
X144215430Y-101044564D01*
X144251797Y-100924678D01*
X144264077Y-100800000D01*
X144264077Y-99300000D01*
X144251797Y-99175322D01*
X144215430Y-99055436D01*
X144156373Y-98944948D01*
X144076896Y-98848104D01*
X144019710Y-98801174D01*
X144030427Y-98794013D01*
X144119014Y-98705426D01*
X144188616Y-98601258D01*
X144236559Y-98485514D01*
X144261000Y-98362640D01*
X144261000Y-97835000D01*
X144102000Y-97676000D01*
X143126000Y-97676000D01*
X143126000Y-97696000D01*
X142874000Y-97696000D01*
X142874000Y-97676000D01*
X141898000Y-97676000D01*
X141739000Y-97835000D01*
X141739000Y-98259956D01*
X141686900Y-98207856D01*
X141686900Y-96737360D01*
X141739000Y-96737360D01*
X141739000Y-97265000D01*
X141898000Y-97424000D01*
X142874000Y-97424000D01*
X142874000Y-96323000D01*
X143126000Y-96323000D01*
X143126000Y-97424000D01*
X144102000Y-97424000D01*
X144261000Y-97265000D01*
X144261000Y-96737360D01*
X144739000Y-96737360D01*
X144739000Y-97265000D01*
X144898000Y-97424000D01*
X145874000Y-97424000D01*
X145874000Y-96323000D01*
X146126000Y-96323000D01*
X146126000Y-97424000D01*
X147102000Y-97424000D01*
X147261000Y-97265000D01*
X147261000Y-96737360D01*
X147739000Y-96737360D01*
X147739000Y-97265000D01*
X147898000Y-97424000D01*
X148874000Y-97424000D01*
X148874000Y-96323000D01*
X149126000Y-96323000D01*
X149126000Y-97424000D01*
X150102000Y-97424000D01*
X150261000Y-97265000D01*
X150261000Y-96737360D01*
X150236559Y-96614486D01*
X150188616Y-96498742D01*
X150119014Y-96394574D01*
X150030427Y-96305987D01*
X149926259Y-96236384D01*
X149810515Y-96188441D01*
X149687641Y-96164000D01*
X149285000Y-96164000D01*
X149126000Y-96323000D01*
X148874000Y-96323000D01*
X148715000Y-96164000D01*
X148312359Y-96164000D01*
X148189485Y-96188441D01*
X148073741Y-96236384D01*
X147969573Y-96305987D01*
X147880986Y-96394574D01*
X147811384Y-96498742D01*
X147763441Y-96614486D01*
X147739000Y-96737360D01*
X147261000Y-96737360D01*
X147236559Y-96614486D01*
X147188616Y-96498742D01*
X147119014Y-96394574D01*
X147030427Y-96305987D01*
X146926259Y-96236384D01*
X146810515Y-96188441D01*
X146687641Y-96164000D01*
X146285000Y-96164000D01*
X146126000Y-96323000D01*
X145874000Y-96323000D01*
X145715000Y-96164000D01*
X145312359Y-96164000D01*
X145189485Y-96188441D01*
X145073741Y-96236384D01*
X144969573Y-96305987D01*
X144880986Y-96394574D01*
X144811384Y-96498742D01*
X144763441Y-96614486D01*
X144739000Y-96737360D01*
X144261000Y-96737360D01*
X144236559Y-96614486D01*
X144188616Y-96498742D01*
X144119014Y-96394574D01*
X144030427Y-96305987D01*
X143926259Y-96236384D01*
X143810515Y-96188441D01*
X143687641Y-96164000D01*
X143285000Y-96164000D01*
X143126000Y-96323000D01*
X142874000Y-96323000D01*
X142715000Y-96164000D01*
X142312359Y-96164000D01*
X142189485Y-96188441D01*
X142073741Y-96236384D01*
X141969573Y-96305987D01*
X141880986Y-96394574D01*
X141811384Y-96498742D01*
X141763441Y-96614486D01*
X141739000Y-96737360D01*
X141686900Y-96737360D01*
X141686900Y-96113000D01*
X151299019Y-96113000D01*
X151194948Y-96168627D01*
M02*
